<svg width="480" height="353" viewBox="0 0 480 353" fill="none" xmlns="http://www.w3.org/2000/svg">
<path d="M223.046 53.5804C186.019 51.4523 147.273 29.9351 110.957 50.6862C83.7022 66.2637 79.6798 96.8324 87.6958 125.462C108.662 200.664 226.061 213.423 292.176 194.507C360.72 174.975 438.029 108.097 393.715 40.0458C375.475 12.0024 343.632 7.05585 308.909 16.4005C279.408 24.2507 252.067 55.245 223.046 53.5804Z" fill="#028090"/>
<path opacity="0.9" d="M223.046 53.5804C186.019 51.4523 147.273 29.9351 110.957 50.6862C83.7022 66.2637 79.6798 96.8324 87.6958 125.462C108.662 200.664 226.061 213.423 292.176 194.507C360.72 174.975 438.029 108.097 393.715 40.0458C375.475 12.0024 343.632 7.05585 308.909 16.4005C279.408 24.2507 252.067 55.245 223.046 53.5804Z" fill="white"/>
<path d="M240 352.372C342.799 352.372 426.134 347.578 426.134 341.665C426.134 335.752 342.799 330.958 240 330.958C137.2 330.958 53.8652 335.752 53.8652 341.665C53.8652 347.578 137.2 352.372 240 352.372Z" fill="#F5F5F5"/>
<path d="M334.224 57.0893C332.179 55.0747 328.243 47.4419 332.016 43.8478C335.789 40.2537 339.149 43.5168 339.408 45.2665C339.667 47.0163 338.976 61.7616 334.224 57.0893Z" fill="#263238"/>
<path d="M333.36 331.65L324.787 331.725L322.454 312.204L331.017 312.128L333.36 331.65Z" fill="#FF8B7B"/>
<path d="M324.778 330.751L334.128 330.666C334.301 330.668 334.468 330.724 334.606 330.826C334.744 330.928 334.845 331.071 334.896 331.233L337.162 338.714C337.222 338.889 337.239 339.074 337.21 339.256C337.182 339.438 337.11 339.611 337 339.759C336.89 339.908 336.745 340.028 336.577 340.109C336.41 340.191 336.225 340.231 336.038 340.228C332.669 340.228 327.773 340.048 323.558 340.086C318.605 340.086 316.397 340.426 310.579 340.483C307.066 340.483 305.779 337.021 307.267 336.7C313.862 335.196 317.27 334.997 322.79 331.432C323.371 331.019 324.062 330.782 324.778 330.751Z" fill="#263238"/>
<path opacity="0.2" d="M322.454 312.213L323.664 322.277L332.227 322.201L331.027 312.138L322.454 312.213Z" fill="black"/>
<path d="M321.235 332.255C322.16 332.239 323.08 332.128 323.981 331.924C324.024 331.918 324.063 331.898 324.092 331.867C324.122 331.836 324.14 331.796 324.144 331.754C324.148 331.713 324.139 331.672 324.118 331.636C324.098 331.601 324.067 331.572 324.029 331.555C323.626 331.356 320.026 329.663 319.037 330.259C318.945 330.317 318.871 330.397 318.82 330.491C318.77 330.586 318.745 330.692 318.749 330.798C318.747 330.98 318.787 331.16 318.867 331.324C318.947 331.488 319.064 331.632 319.21 331.744C319.81 332.128 320.522 332.307 321.235 332.255ZM323.29 331.65C321.437 331.971 320.026 331.905 319.45 331.451C319.35 331.374 319.271 331.275 319.219 331.161C319.167 331.047 319.144 330.923 319.152 330.798C319.146 330.76 319.153 330.72 319.17 330.685C319.187 330.649 319.214 330.62 319.248 330.6C319.786 330.278 321.821 331.035 323.29 331.65Z" fill="#028090"/>
<path d="M323.943 331.98C323.988 331.977 324.031 331.96 324.067 331.933C324.096 331.912 324.118 331.882 324.13 331.848C324.142 331.815 324.144 331.778 324.135 331.744C324.135 331.592 323.463 327.96 321.427 328.187C320.89 328.244 320.736 328.518 320.707 328.727C320.563 329.672 322.762 331.507 323.856 331.961L323.943 331.98ZM321.6 328.575C322.829 328.575 323.443 330.552 323.655 331.413C322.522 330.788 321.024 329.351 321.111 328.783C321.111 328.783 321.111 328.623 321.475 328.585L321.6 328.575Z" fill="#028090"/>
<path d="M327.302 99.717L326.419 100.663L325.593 101.467C325.046 101.996 324.48 102.498 323.913 102.99C322.787 103.986 321.635 104.932 320.457 105.827C318.081 107.688 315.579 109.388 312.969 110.915C311.654 111.682 310.301 112.41 308.928 113.1C307.555 113.791 306.105 114.387 304.646 114.992C301.654 116.168 298.537 117.009 295.353 117.498L294.643 117.602C294.181 117.661 293.716 117.689 293.251 117.687C292.182 117.678 291.124 117.472 290.131 117.082C289.146 116.693 288.244 116.125 287.472 115.408C286.857 114.83 286.321 114.175 285.878 113.46C285.265 112.422 284.803 111.304 284.505 110.14C284.273 109.238 284.103 108.322 283.997 107.397C283.822 105.798 283.774 104.189 283.853 102.583C283.92 101.051 284.045 99.5751 284.217 98.128C284.582 95.2244 285.101 92.4532 285.734 89.6157C286.368 86.7783 287.088 84.1584 288.019 81.4155L294.326 82.6451C294.096 87.9605 293.837 93.4084 294.009 98.5536C294.041 100.943 294.298 103.324 294.777 105.666C294.872 106.099 295.004 106.523 295.171 106.934C295.305 107.255 295.469 107.454 295.459 107.369C295.403 107.225 295.315 107.095 295.2 106.99C294.939 106.741 294.633 106.542 294.297 106.404C293.952 106.261 293.586 106.175 293.213 106.149C293.04 106.149 292.963 106.149 292.857 106.149H292.963L293.165 106.092C295.439 105.516 297.651 104.724 299.769 103.727C301.986 102.673 304.132 101.479 306.192 100.152C308.275 98.7901 310.329 97.3146 312.307 95.754C313.267 94.9785 314.275 94.1651 315.187 93.3422L316.589 92.0937L317.261 91.479L317.846 90.9304L327.302 99.717Z" fill="#FF8B7B"/>
<path d="M332.38 96.3788C332.054 87.4597 324.623 84.3575 315.311 90.4391C311.206 93.0034 307.254 95.7982 303.475 98.8095L309.494 117.858C309.494 117.858 321.014 114.255 327.676 107.18C332.159 102.375 332.495 99.4148 332.38 96.3788Z" fill="#263238"/>
<path opacity="0.2" d="M321.043 100.181C321.043 100.181 315.485 108.012 313.517 116.336C316.25 115.188 318.883 113.821 321.389 112.25L321.043 100.181Z" fill="black"/>
<path d="M294.01 85.4729L297.236 78.2941L288.106 75.6648C288.106 75.6648 286.541 79.0981 287.434 84.9905L294.01 85.4729Z" fill="#FF8B7B"/>
<path d="M298.205 69.8772L290.265 70.8135L288.105 75.6656L297.235 78.2949L298.205 69.8772Z" fill="#FF8B7B"/>
<path d="M321.1 161.034C321.1 161.034 315.206 209.706 314.553 235.754C313.881 262.813 319.267 317.396 319.267 317.396L334.732 317.074C334.732 317.074 336.595 258.642 338.841 231.866C341.28 202.678 347.424 160.505 347.424 160.505L321.1 161.034Z" fill="#028090"/>
<path opacity="0.6" d="M321.1 161.034C321.1 161.034 315.206 209.706 314.553 235.754C313.881 262.813 319.267 317.396 319.267 317.396L334.732 317.074C334.732 317.074 336.595 258.642 338.841 231.866C341.28 202.678 347.424 160.505 347.424 160.505L321.1 161.034Z" fill="white"/>
<path opacity="0.2" d="M339.523 174.815C332.611 189.825 334.464 223.354 338.391 237.73C338.535 235.64 338.688 233.663 338.842 231.838C340.445 212.6 343.642 187.734 345.667 173.008C343.786 170.322 341.683 170.114 339.523 174.815Z" fill="black"/>
<path d="M336.633 317.728L318.451 318.087L317.107 312.138L336.412 312.091L336.633 317.728Z" fill="#028090"/>
<path d="M371.558 331.65L362.995 331.725L360.662 312.204L369.225 312.128L371.558 331.65Z" fill="#FF8B7B"/>
<path d="M362.976 330.751L372.336 330.666C372.508 330.669 372.674 330.726 372.812 330.828C372.95 330.93 373.052 331.071 373.104 331.233L375.369 338.714C375.427 338.889 375.442 339.074 375.413 339.255C375.384 339.436 375.311 339.607 375.202 339.755C375.092 339.903 374.948 340.023 374.782 340.105C374.616 340.187 374.432 340.229 374.246 340.228C370.867 340.228 365.98 340.048 361.766 340.086C356.812 340.086 354.595 340.426 348.787 340.483C345.273 340.483 343.987 337.021 345.475 336.7C352.06 335.196 355.468 334.997 360.998 331.432C361.575 331.019 362.263 330.782 362.976 330.751Z" fill="#263238"/>
<path opacity="0.2" d="M360.662 312.213L361.862 322.277L370.435 322.201L369.235 312.138L360.662 312.213Z" fill="black"/>
<path d="M359.443 332.255C360.368 332.237 361.288 332.127 362.189 331.924C362.23 331.917 362.269 331.897 362.297 331.866C362.325 331.835 362.341 331.795 362.342 331.754C362.349 331.714 362.342 331.673 362.323 331.637C362.304 331.602 362.274 331.573 362.237 331.555C361.824 331.356 358.224 329.663 357.245 330.259C357.152 330.315 357.076 330.395 357.026 330.49C356.975 330.585 356.951 330.691 356.957 330.798C356.955 330.979 356.994 331.158 357.073 331.322C357.151 331.486 357.265 331.63 357.408 331.744C358.013 332.127 358.727 332.306 359.443 332.255ZM361.498 331.65C359.645 331.971 358.234 331.905 357.658 331.451C357.559 331.373 357.479 331.274 357.426 331.16C357.373 331.047 357.347 330.923 357.35 330.798C357.345 330.76 357.351 330.72 357.368 330.685C357.385 330.649 357.412 330.62 357.446 330.6C357.984 330.278 360 331.035 361.498 331.65Z" fill="#028090"/>
<path d="M362.141 331.98C362.17 331.979 362.199 331.972 362.226 331.959C362.252 331.946 362.276 331.928 362.295 331.906C362.314 331.884 362.328 331.858 362.336 331.83C362.344 331.802 362.346 331.773 362.342 331.744C362.342 331.592 361.67 327.96 359.635 328.187C359.097 328.244 358.944 328.518 358.905 328.727C358.771 329.672 360.969 331.507 362.064 331.961L362.141 331.98ZM359.808 328.575C361.027 328.575 361.651 330.552 361.862 331.413C360.729 330.788 359.222 329.351 359.309 328.783C359.309 328.783 359.309 328.623 359.673 328.585L359.808 328.575Z" fill="#028090"/>
<path d="M336.192 160.712C336.192 160.712 340.464 213.082 343.584 238.922C346.82 265.802 357.476 317.367 357.476 317.367L372.941 317.046C372.941 317.046 368.698 258.5 367.056 231.677C365.261 202.404 364.8 160.069 364.8 160.069L336.192 160.712Z" fill="#028090"/>
<path opacity="0.6" d="M336.192 160.712C336.192 160.712 340.464 213.082 343.584 238.922C346.82 265.802 357.476 317.367 357.476 317.367L372.941 317.046C372.941 317.046 368.698 258.5 367.056 231.677C365.261 202.404 364.8 160.069 364.8 160.069L336.192 160.712Z" fill="white"/>
<path d="M374.842 317.728L356.65 318.087L355.315 312.138L374.621 312.091L374.842 317.728Z" fill="#028090"/>
<path d="M320.035 88.1033C320.035 88.1033 313.708 111.238 321.1 161.035C334.905 160.742 358.089 160.212 364.8 160.089C364.972 153.156 359.779 119.164 365.856 86.3914C361.484 85.6477 357.062 85.224 352.627 85.124C346.135 84.8905 339.634 85.0294 333.158 85.5402C328.723 86.0572 324.335 86.9141 320.035 88.1033Z" fill="#263238"/>
<path opacity="0.2" d="M363.206 109.715L356.054 103.88C356.525 108.438 360.71 119.608 362.918 125.264C362.88 120.308 362.928 115.078 363.206 109.715Z" fill="black"/>
<path d="M337.622 101.515L329.817 116.733C329.653 117.053 329.595 117.415 329.653 117.769C329.711 118.123 329.881 118.45 330.139 118.702C330.398 118.955 330.731 119.12 331.09 119.174C331.45 119.228 331.818 119.168 332.141 119.003L337.238 116.241C337.515 116.094 337.829 116.027 338.143 116.047C338.457 116.067 338.759 116.174 339.014 116.355L344.035 119.92C344.323 120.127 344.672 120.237 345.028 120.233C345.385 120.23 345.731 120.114 346.015 119.902C346.299 119.689 346.507 119.393 346.606 119.055C346.706 118.718 346.693 118.358 346.569 118.029L340.704 101.78C340.602 101.471 340.41 101.198 340.152 100.996C339.894 100.793 339.581 100.67 339.252 100.642C338.923 100.614 338.594 100.682 338.304 100.837C338.014 100.992 337.777 101.228 337.622 101.515Z" fill="white"/>
<path d="M350.227 63.521C349.132 69.7255 348.153 81.0563 352.627 85.076C352.627 85.076 351.321 90.6942 339.408 92.6425C331.401 90.1078 333.158 85.53 333.158 85.53C340.108 83.733 339.811 78.6351 338.496 73.8682L350.227 63.521Z" fill="#FF8B7B"/>
<path opacity="0.2" d="M345.446 67.7297L338.496 73.8208C338.82 74.9313 339.044 76.0674 339.168 77.2163C341.837 76.7812 345.437 73.8113 345.658 71.059C345.794 69.9458 345.722 68.8176 345.446 67.7297Z" fill="black"/>
<path d="M354.038 55.8878C351.724 63.9461 350.793 68.7792 345.686 72.0801C338.006 77.0362 328.588 71.1343 328.406 62.5369C328.233 54.819 332.035 42.9302 340.886 41.4169C342.83 41.0771 344.83 41.232 346.697 41.8669C348.563 42.5018 350.234 43.5957 351.551 45.045C352.868 46.4942 353.788 48.2508 354.223 50.1483C354.658 52.0458 354.595 54.0214 354.038 55.8878Z" fill="#FF8B7B"/>
<path d="M349.114 60.8258C348.038 58.2532 347.261 49.7787 351.744 47.6979C356.227 45.6171 360.883 50.6961 359.702 53.0985C357.888 56.825 351.61 66.7844 349.114 60.8258Z" fill="#263238"/>
<path d="M351.792 50.6863C350.688 47.8488 337.527 46.241 335.684 43.186C333.495 39.5541 342.471 39.119 348.644 40.9633C354.068 42.5901 357.687 44.1602 357.053 48.1326C356.698 50.3836 351.792 50.6863 351.792 50.6863Z" fill="#263238"/>
<path d="M354.652 47.7637C354.652 47.7637 357.532 48.5393 359.107 46.4585C358.608 48.5203 356.16 50.6011 354.652 47.7637Z" fill="#263238"/>
<path d="M341.472 39.0151C337.517 35.9885 332.131 39.5447 332.64 43.4888C333.149 47.4328 346.483 50.4311 346.483 50.4311C346.483 50.4311 346.723 43.0348 341.472 39.0151Z" fill="#263238"/>
<path d="M332.649 43.508C333.254 46.2697 335.299 48.4357 339.437 50.0436C337.042 48.2989 335.227 45.8924 334.224 43.1296L332.649 43.508Z" fill="#263238"/>
<path d="M340.953 55.4813C340.809 56.1529 340.339 56.6163 339.897 56.5217C339.456 56.4272 339.216 55.8029 339.36 55.1408C339.504 54.4788 339.984 54.0153 340.425 54.1099C340.867 54.2045 341.107 54.8571 340.953 55.4813Z" fill="#263238"/>
<path d="M333.331 53.855C333.177 54.5171 332.707 54.9805 332.265 54.8859C331.824 54.7914 331.584 54.1766 331.728 53.5146C331.872 52.8525 332.352 52.3891 332.793 52.4742C333.235 52.5593 333.475 53.193 333.331 53.855Z" fill="#263238"/>
<path d="M335.683 54.7061C334.43 56.5666 332.921 58.2472 331.2 59.7C332.16 61.0525 334.301 60.9863 334.301 60.9863L335.683 54.7061Z" fill="#FF5652"/>
<path d="M335.856 63.2466C336.757 63.4672 337.699 63.4697 338.602 63.254C339.505 63.0382 340.341 62.6106 341.04 62.0076C341.059 61.9891 341.074 61.967 341.084 61.9427C341.095 61.9183 341.1 61.8921 341.1 61.8657C341.1 61.8393 341.095 61.8131 341.084 61.7888C341.074 61.7644 341.059 61.7423 341.04 61.7238C341 61.6879 340.949 61.668 340.896 61.668C340.842 61.668 340.791 61.6879 340.752 61.7238C340.096 62.2674 339.321 62.6522 338.487 62.8477C337.654 63.0431 336.785 63.0437 335.952 62.8493C335.898 62.8381 335.842 62.8482 335.796 62.8774C335.75 62.9067 335.718 62.9527 335.707 63.0054C335.695 63.0581 335.706 63.1131 335.735 63.1583C335.765 63.2035 335.812 63.2353 335.865 63.2466H335.856Z" fill="#263238"/>
<path d="M343.786 53.5521C343.859 53.5666 343.936 53.561 344.006 53.536C344.077 53.5109 344.14 53.4673 344.187 53.4099C344.234 53.3525 344.265 53.2834 344.275 53.2101C344.286 53.1369 344.276 53.0621 344.247 52.994C343.987 52.4115 343.591 51.8983 343.09 51.4969C342.589 51.0956 341.998 50.8176 341.367 50.6862C341.26 50.6726 341.152 50.7006 341.066 50.7642C340.98 50.8278 340.922 50.922 340.906 51.0267C340.898 51.0783 340.9 51.1309 340.912 51.1816C340.925 51.2323 340.947 51.2801 340.978 51.3223C341.01 51.3645 341.049 51.4001 341.094 51.4273C341.139 51.4545 341.189 51.4726 341.242 51.4807C341.74 51.5886 342.205 51.8122 342.597 52.1331C342.989 52.4539 343.298 52.8626 343.498 53.3251C343.525 53.3823 343.565 53.4326 343.615 53.472C343.665 53.5114 343.723 53.5388 343.786 53.5521Z" fill="#263238"/>
<path d="M330.547 50.5543C330.623 50.5748 330.702 50.5722 330.776 50.5469C330.85 50.5215 330.914 50.4746 330.96 50.4124C331.264 50.0106 331.66 49.6849 332.115 49.4614C332.57 49.238 333.072 49.1231 333.581 49.1261C333.688 49.1361 333.794 49.1039 333.877 49.0365C333.96 48.9691 334.012 48.872 334.022 48.7666C334.033 48.6613 334 48.5563 333.932 48.4747C333.863 48.3931 333.765 48.3416 333.658 48.3316C333.014 48.3127 332.374 48.4474 331.794 48.724C331.215 49.0006 330.711 49.4111 330.326 49.9206C330.292 49.961 330.267 50.0079 330.252 50.0583C330.237 50.1087 330.232 50.1616 330.239 50.2138C330.245 50.266 330.262 50.3164 330.289 50.3619C330.315 50.4074 330.351 50.4471 330.394 50.4786C330.437 50.5165 330.49 50.5426 330.547 50.5543Z" fill="#263238"/>
<path d="M367.949 92.8413C369.696 95.849 371.155 98.7621 372.672 101.76C374.189 104.759 375.552 107.776 376.848 110.859C378.144 113.942 379.402 117.073 380.496 120.317C381.634 123.552 382.595 126.845 383.376 130.182L383.962 132.764C384.218 133.977 384.327 135.215 384.288 136.453C384.207 138.753 383.689 141.018 382.762 143.13C381.132 146.69 378.813 149.902 375.936 152.588C373.37 155.029 370.573 157.224 367.584 159.143C366.135 160.089 364.637 160.959 363.13 161.791C361.623 162.623 360.125 163.389 358.445 164.118L355.258 158.623C356.419 157.677 357.696 156.731 358.887 155.709C360.077 154.688 361.239 153.648 362.391 152.607C364.615 150.574 366.679 148.377 368.563 146.034C370.239 144.025 371.54 141.738 372.403 139.281C372.701 138.365 372.818 137.402 372.749 136.443C372.721 136.058 372.647 135.677 372.528 135.308L371.875 133.19C369.936 127.313 367.627 121.561 364.963 115.966C363.648 113.129 362.247 110.292 360.845 107.454C359.443 104.617 357.965 101.779 356.535 99.0837L367.949 92.8413Z" fill="#FF8B7B"/>
<path d="M366.183 86.4386C374.189 88.141 379.757 108.722 379.757 108.722L365.443 121.519C360.892 116.531 357.313 110.76 354.883 104.494C351.091 94.1942 357.619 84.6037 366.183 86.4386Z" fill="#263238"/>
<path d="M356.995 157.648L347.789 157.743L353.549 166.889C353.549 166.889 360.105 165.291 360.691 162.046L356.995 157.648Z" fill="#FF8B7B"/>
<path d="M342.058 163.144L347.136 170.484L353.501 166.89L347.789 157.744L342.058 163.144Z" fill="#FF8B7B"/>
<path d="M356.554 63.2656C355.531 65.1197 353.805 66.5001 351.754 67.1056C349.027 67.8906 347.635 65.4977 348.365 62.9535C349.027 60.6646 351.245 57.4962 353.971 57.8272C356.698 58.1582 357.773 60.9862 356.554 63.2656Z" fill="#FF8B7B"/>
<path d="M274.957 219.757L264.722 220.488L264.791 221.432L275.027 220.7L274.957 219.757Z" fill="#028090"/>
<path d="M284.154 219.103L279.127 219.462L279.197 220.406L284.224 220.046L284.154 219.103Z" fill="#028090"/>
<path d="M328.32 108.079L158.822 120.119C155.295 120.39 152.018 122.021 149.703 124.657C147.388 127.294 146.222 130.724 146.458 134.202L152.218 212.913C152.49 216.393 154.147 219.627 156.828 221.91C159.509 224.194 162.996 225.341 166.531 225.104L176.131 224.423C176.829 224.374 177.518 224.599 178.047 225.049C178.576 225.5 178.902 226.138 178.954 226.825L180.029 241.41C180.046 241.692 180.149 241.963 180.324 242.188C180.499 242.412 180.738 242.58 181.011 242.669C181.283 242.759 181.577 242.766 181.853 242.69C182.13 242.614 182.377 242.458 182.563 242.242L198.634 223.941C199.309 223.174 200.265 222.702 201.293 222.626L336 213.064C339.529 212.795 342.809 211.165 345.126 208.528C347.443 205.892 348.61 202.461 348.374 198.981L342.614 120.27C342.342 116.793 340.687 113.562 338.011 111.279C335.335 108.997 331.852 107.847 328.32 108.079Z" fill="#028090"/>
<path d="M183.581 156.248L192.739 155.596L193.488 165.81L203.491 165.101L202.742 154.886L211.939 154.224L214.08 183.412L204.883 184.065L204.019 172.261L194.016 172.98L194.88 184.783L185.731 185.436L183.581 156.248Z" fill="white"/>
<path opacity="0.2" d="M158.822 120.118C155.295 120.389 152.018 122.02 149.703 124.657C147.388 127.293 146.222 130.723 146.458 134.201L152.218 212.912C152.49 216.393 154.147 219.627 156.828 221.91C159.509 224.193 162.996 225.341 166.531 225.104L167.942 225C170.287 224.833 172.51 223.908 174.267 222.369C176.024 220.829 177.216 218.762 177.658 216.487L196.963 117.404L158.822 120.118Z" fill="black"/>
<path d="M242.813 172.763L226.32 173.936C226.446 174.988 226.895 175.978 227.606 176.773C228.014 177.196 228.516 177.52 229.072 177.721C229.628 177.921 230.224 177.991 230.813 177.927C231.621 177.87 232.401 177.61 233.078 177.171C233.608 176.775 234.06 176.288 234.413 175.733L242.573 175.894C241.685 177.876 240.243 179.568 238.416 180.774C236.739 181.821 234.262 182.451 230.985 182.666C228.695 182.928 226.373 182.686 224.189 181.956C222.438 181.232 220.935 180.027 219.859 178.485C218.626 176.73 217.917 174.669 217.814 172.536C217.643 171.055 217.789 169.555 218.242 168.133C218.695 166.711 219.445 165.398 220.445 164.279C222.441 162.085 225.322 160.852 229.085 160.581C231.576 160.289 234.102 160.581 236.457 161.432C238.261 162.191 239.781 163.484 240.806 165.13C241.981 167.176 242.639 169.469 242.726 171.817L242.813 172.763ZM234.173 169.472C234.056 168.242 233.518 167.087 232.646 166.199C232.207 165.866 231.704 165.626 231.167 165.493C230.63 165.36 230.071 165.337 229.524 165.426C228.978 165.514 228.456 165.713 227.99 166.008C227.525 166.304 227.126 166.691 226.819 167.145C226.307 168.035 226.048 169.045 226.07 170.067L234.173 169.472Z" fill="white"/>
<path d="M245.357 151.851L253.603 151.265L255.744 180.443L247.498 181.03L245.357 151.851Z" fill="white"/>
<path d="M259.133 150.868L267.379 150.281L269.52 179.46L261.283 180.046L259.133 150.868Z" fill="white"/>
<path d="M272.995 168.648C272.839 167.168 273.001 165.672 273.471 164.257C273.941 162.843 274.707 161.542 275.721 160.438C277.776 158.187 280.685 156.926 284.448 156.655C288.736 156.353 292.07 157.349 294.451 159.644C296.428 161.699 297.571 164.397 297.661 167.227C297.751 170.057 296.783 172.822 294.941 174.994C292.905 177.227 289.955 178.488 286.089 178.778C283.086 179.133 280.053 178.429 277.526 176.792C276.182 175.873 275.073 174.659 274.287 173.246C273.501 171.832 273.058 170.258 272.995 168.648ZM281.241 168.043C281.226 169.536 281.746 170.986 282.71 172.138C283.099 172.53 283.57 172.835 284.09 173.03C284.61 173.225 285.167 173.307 285.722 173.269C286.277 173.231 286.817 173.075 287.305 172.811C287.793 172.547 288.217 172.182 288.547 171.741C289.323 170.424 289.614 168.884 289.373 167.381C289.382 165.918 288.869 164.498 287.923 163.37C287.553 162.971 287.095 162.661 286.584 162.464C286.073 162.267 285.522 162.189 284.976 162.235C284.406 162.262 283.849 162.417 283.35 162.689C282.85 162.961 282.421 163.343 282.096 163.806C281.322 165.078 281.033 166.58 281.28 168.043H281.241Z" fill="white"/>
<path d="M300.259 147.935L309.043 147.311L309.533 153.932L308.813 167.41L303.379 167.797L300.739 154.556L300.259 147.935ZM302.179 169.954L310.378 169.367L310.906 176.518L302.698 177.095L302.179 169.954Z" fill="white"/>
<path d="M156.48 94.2029C156.437 95.5874 156.511 96.9731 156.701 98.3455C148.002 101.208 138.724 101.932 129.677 100.455C130.111 98.8369 130.375 97.1793 130.464 95.5081C130.161 97.1909 129.567 98.8097 128.707 100.294C126.998 99.9723 126.038 99.6981 126.038 99.6981C126.038 99.6981 127.785 90.3913 124.637 83.6193C121.488 76.8472 123.062 73.064 125.443 71.9952C129.859 58.6214 146.457 60.7306 152.073 66.1596C159.197 73.0451 159.235 92.4437 160.502 96.8795C159.456 97.3241 158.429 97.7308 157.401 98.0902C156.887 96.8508 156.576 95.5386 156.48 94.2029Z" fill="#263238"/>
<path d="M163.344 115.02L164.208 117.715C164.525 118.661 164.842 119.607 165.168 120.505C165.811 122.397 166.483 124.289 167.203 126.105C167.923 127.921 168.615 129.831 169.363 131.685L170.477 134.522L170.755 135.222L170.823 135.383C170.704 135.281 170.567 135.201 170.419 135.147C170.208 135.071 170.122 135.147 170.256 135.147C170.487 135.146 170.717 135.111 170.938 135.043C171.689 134.808 172.41 134.491 173.088 134.097C174.725 133.157 176.291 132.101 177.773 130.938C179.328 129.746 180.855 128.469 182.352 127.155C183.85 125.84 185.357 124.468 186.807 123.125L189.754 125.585C188.525 127.325 187.229 128.914 185.914 130.531C184.599 132.148 183.12 133.662 181.603 135.166C180.042 136.736 178.343 138.166 176.525 139.441C175.485 140.158 174.368 140.761 173.194 141.238C172.449 141.532 171.668 141.729 170.871 141.824C169.789 141.957 168.69 141.81 167.683 141.399C166.586 140.938 165.651 140.168 164.995 139.185C164.851 138.968 164.717 138.75 164.611 138.552L164.352 138.041L164.007 137.35C163.555 136.405 163.047 135.459 162.653 134.57C161.779 132.678 160.906 130.786 160.109 128.895C159.312 127.003 158.535 125.055 157.795 123.106C157.45 122.161 157.104 121.13 156.778 120.137C156.451 119.144 156.135 118.169 155.818 117.006L163.344 115.02Z" fill="#FFC3BD"/>
<path d="M161.069 106.622C164.381 107.455 166.694 120.866 166.694 120.866L157.574 126.976C157.574 126.976 148.838 113.442 151.382 109.857C154.032 106.131 156.24 105.412 161.069 106.622Z" fill="#028090"/>
<path d="M161.069 106.622C164.381 107.455 166.694 120.866 166.694 120.866L157.574 126.976C157.574 126.976 148.838 113.442 151.382 109.857C154.032 106.131 156.24 105.412 161.069 106.622Z" fill="#028090"/>
<path opacity="0.4" d="M161.069 106.622C164.381 107.455 166.694 120.866 166.694 120.866L157.574 126.976C157.574 126.976 148.838 113.442 151.382 109.857C154.032 106.131 156.24 105.412 161.069 106.622Z" fill="white"/>
<path opacity="0.3" d="M160.771 109.62L163.315 123.135L158.188 126.559L160.771 109.62Z" fill="black"/>
<path d="M186.652 123.448L189.696 116.222L193.449 123.448C193.449 123.448 191.011 127.042 187.795 126.163L186.652 123.448Z" fill="#FFC3BD"/>
<path d="M193.046 115.474L197.865 117.385L193.449 123.448L189.686 116.222L193.046 115.474Z" fill="#FFC3BD"/>
<path d="M143.165 332.407H151.2L151.737 314.086H143.702L143.165 332.407Z" fill="#FFC3BD"/>
<path d="M89.2896 308.808L96.6719 311.911L106.339 296.059L98.9471 292.957L89.2896 308.808Z" fill="#FFC3BD"/>
<path d="M98.0928 310.832L90.4128 306.179C90.2815 306.096 90.1236 306.063 89.9695 306.088C89.8153 306.112 89.6758 306.192 89.5776 306.311L84.96 311.769C84.8451 311.912 84.7626 312.077 84.718 312.254C84.6733 312.431 84.6677 312.615 84.7013 312.794C84.735 312.973 84.8072 313.143 84.913 313.293C85.0189 313.442 85.156 313.568 85.3152 313.66C88.0224 315.24 89.4048 315.864 92.784 317.907C94.8672 319.174 97.7664 321.217 100.637 322.958C103.507 324.698 105.437 322.012 104.371 321.019C99.7152 316.64 99.8496 314.559 98.976 311.967C98.8308 311.496 98.517 311.093 98.0928 310.832Z" fill="#263238"/>
<path d="M151.469 331.489H142.454C142.299 331.488 142.148 331.541 142.03 331.64C141.912 331.739 141.834 331.877 141.811 332.028L140.784 339.065C140.759 339.246 140.774 339.429 140.828 339.604C140.882 339.778 140.974 339.938 141.097 340.074C141.22 340.21 141.372 340.318 141.542 340.39C141.711 340.463 141.895 340.498 142.08 340.493C145.229 340.446 146.745 340.257 150.72 340.257C153.158 340.257 158.208 340.512 161.577 340.512C164.947 340.512 165.12 337.23 163.718 336.928C157.43 335.594 154.953 333.759 152.832 332.009C152.456 331.68 151.972 331.495 151.469 331.489Z" fill="#263238"/>
<path opacity="0.2" d="M151.728 314.095L151.459 323.535H143.424L143.702 314.095H151.728Z" fill="black"/>
<path opacity="0.2" d="M98.9472 292.966L106.33 296.059L101.347 304.23L93.9648 301.128L98.9472 292.966Z" fill="black"/>
<path d="M161.069 106.622C161.069 106.622 164.909 107.946 157.229 154.357H124.589C125.136 141.286 125.156 133.228 118.829 106.395C123.393 105.466 128.02 104.865 132.672 104.598C137.603 104.248 142.554 104.248 147.485 104.598C153.86 105.165 161.069 106.622 161.069 106.622Z" fill="#028090"/>
<path opacity="0.4" d="M161.069 106.622C161.069 106.622 164.909 107.946 157.229 154.357H124.589C125.136 141.286 125.156 133.228 118.829 106.395C123.393 105.466 128.02 104.865 132.672 104.598C137.603 104.248 142.554 104.248 147.485 104.598C153.86 105.165 161.069 106.622 161.069 106.622Z" fill="white"/>
<path d="M132.691 104.588C137.623 104.247 142.572 104.247 147.504 104.588C148.301 104.664 149.117 104.749 149.923 104.843C150.259 105.34 150.474 105.907 150.552 106.499C150.63 107.091 150.57 107.693 150.374 108.258C149.328 110.802 145.574 111.095 142.848 111.095C132.758 111.095 131.049 105.288 130.982 105.042L130.886 104.692L132.691 104.588Z" fill="white"/>
<path d="M134.16 88.1689C135.12 92.898 136.032 101.467 132.691 104.598C132.691 104.598 133.997 109.327 142.848 109.327C152.582 109.327 147.504 104.598 147.504 104.598C142.185 103.349 142.329 99.462 143.251 95.8206L134.16 88.1689Z" fill="#FFC3BD"/>
<path d="M135.13 84.8298C133.987 88.5469 135.571 97.343 137.923 100.748C133.286 98.128 131.722 90.1453 131.722 90.1453L135.13 84.8298Z" fill="#263238"/>
<path opacity="0.2" d="M137.865 91.29L143.251 95.811C143.015 96.6586 142.86 97.5263 142.79 98.4025C140.765 98.1093 137.99 95.9151 137.76 93.8248C137.641 92.9805 137.676 92.1219 137.865 91.29Z" fill="black"/>
<path d="M129.763 79.7888C131.625 87.4216 132.24 90.6941 136.905 93.976C143.923 98.9037 153.033 94.9881 153.523 86.9581C153.965 79.7321 150.854 68.4675 142.646 66.7272C140.838 66.3337 138.957 66.4022 137.183 66.9261C135.409 67.45 133.8 68.4118 132.51 69.7204C131.219 71.029 130.289 72.6409 129.808 74.403C129.328 76.1651 129.312 78.0191 129.763 79.7888Z" fill="#FFC3BD"/>
<path d="M157.239 154.357C157.239 154.357 163.565 215.286 162.999 239.404C162.452 264.487 153.12 321.69 153.12 321.69H142.272C142.272 321.69 143.991 265.934 143.031 241.296C141.984 214.435 133.325 154.338 133.325 154.338L157.239 154.357Z" fill="#028090"/>
<path opacity="0.4" d="M157.239 154.357C157.239 154.357 163.565 215.286 162.999 239.404C162.452 264.487 153.12 321.69 153.12 321.69H142.272C142.272 321.69 143.991 265.934 143.031 241.296C141.984 214.435 133.325 154.338 133.325 154.338L157.239 154.357Z" fill="black"/>
<path d="M141.369 322.087H154.099L155.04 318.087L140.774 317.595L141.369 322.087Z" fill="#028090"/>
<path opacity="0.2" d="M143.174 169.519C151.181 185.389 144.778 214.341 141.946 225.114C140.496 208.94 138.048 189.173 136.138 174.636C137.347 166.464 139.478 162.198 143.174 169.519Z" fill="black"/>
<path d="M148.627 154.357C148.627 154.357 141.235 217.727 135.658 238.033C129.043 262.18 103.862 303.294 103.862 303.294L93.792 299.076C93.792 299.076 109.373 252.391 114.442 239.669C125.242 212.525 115.997 172.072 124.627 154.357H148.627Z" fill="#028090"/>
<path opacity="0.4" d="M148.627 154.357C148.627 154.357 141.235 217.727 135.658 238.033C129.043 262.18 103.862 303.294 103.862 303.294L93.792 299.076C93.792 299.076 109.373 252.391 114.442 239.669C125.242 212.525 115.997 172.072 124.627 154.357H148.627Z" fill="black"/>
<path d="M92.3999 299.104L104.899 304.344L107.904 301.033L93.4847 294.214L92.3999 299.104Z" fill="#028090"/>
<path d="M142.08 79.8929C142.195 80.5171 142.618 80.9711 143.04 80.8955C143.462 80.8198 143.702 80.2523 143.587 79.6281C143.472 79.0038 143.05 78.5498 142.627 78.616C142.205 78.6822 141.917 79.2592 142.08 79.8929Z" fill="#263238"/>
<path d="M149.241 78.6443C149.347 79.2686 149.779 79.7225 150.201 79.6469C150.624 79.5712 150.873 79.0037 150.758 78.3795C150.643 77.7553 150.221 77.3013 149.798 77.3675C149.376 77.4337 149.126 78.0106 149.241 78.6443Z" fill="#263238"/>
<path d="M149.616 77.4432L151.066 76.7339C151.066 76.7339 150.49 78.0485 149.616 77.4432Z" fill="#263238"/>
<path d="M147.523 80.0532C148.348 81.3881 149.356 82.604 150.519 83.6662C150.234 83.9504 149.89 84.1702 149.51 84.3106C149.131 84.4511 148.725 84.5087 148.32 84.4796L147.523 80.0532Z" fill="#ED847E"/>
<path d="M145.431 87.4401C145.794 87.4395 146.157 87.4079 146.515 87.3456C146.543 87.3445 146.57 87.3376 146.594 87.3254C146.619 87.3133 146.64 87.2961 146.657 87.275C146.675 87.2539 146.687 87.2294 146.694 87.2033C146.7 87.1771 146.701 87.1497 146.697 87.1231C146.692 87.0965 146.681 87.0713 146.666 87.049C146.65 87.0268 146.63 87.0081 146.606 86.9942C146.583 86.9803 146.556 86.9716 146.529 86.9686C146.502 86.9656 146.474 86.9683 146.448 86.9767C145.658 87.1319 144.841 87.1005 144.065 86.8852C143.289 86.6698 142.576 86.2766 141.984 85.7377C141.948 85.703 141.9 85.6836 141.85 85.6836C141.799 85.6836 141.751 85.703 141.715 85.7377C141.697 85.7545 141.682 85.775 141.672 85.7978C141.662 85.8205 141.656 85.8452 141.656 85.8701C141.656 85.895 141.662 85.9196 141.672 85.9424C141.682 85.9652 141.697 85.9857 141.715 86.0025C142.717 86.9387 144.05 87.4543 145.431 87.4401Z" fill="#263238"/>
<path d="M132.48 75.3145C132.69 77.3258 133.011 79.3244 133.44 81.3015C133.44 81.3015 138.24 75.3145 139.037 72.1082C138.847 73.3706 138.475 74.5998 137.933 75.759C137.933 75.759 144.394 74.3687 145.027 70.1693C145.016 72.0493 144.804 73.923 144.394 75.759C144.394 75.759 150.557 73.3756 149.991 69.3464C149.424 65.3173 139.959 63.7567 135.591 65.1187C131.223 66.4806 126.951 70.8976 128.237 76.9697C129.523 83.0418 131.991 85.3212 131.991 85.3212C131.991 85.3212 130.215 79.2018 132.48 75.3145Z" fill="#263238"/>
<path d="M129.427 85.5395C130.019 86.9405 131.152 88.0527 132.576 88.6322C134.496 89.3889 135.638 87.7716 135.302 85.8989C135.004 84.2059 133.651 81.7846 131.664 81.8225C131.229 81.8414 130.806 81.9668 130.432 82.1873C130.059 82.4077 129.747 82.7163 129.525 83.0852C129.303 83.454 129.178 83.8716 129.161 84.3C129.144 84.7285 129.235 85.1545 129.427 85.5395Z" fill="#FFC3BD"/>
<path d="M133.641 72.4016C132.681 76.1849 134.678 84.8863 137.193 88.1683C132.393 85.7754 130.473 77.8684 130.473 77.8684L133.641 72.4016Z" fill="#263238"/>
<path d="M139.45 77.7363C139.499 77.7216 139.545 77.6973 139.584 77.6648C139.624 77.6323 139.656 77.5923 139.68 77.5471C139.882 77.1205 140.185 76.7472 140.562 76.4578C140.939 76.1684 141.38 75.9713 141.85 75.8825C141.949 75.8684 142.039 75.8175 142.101 75.7401C142.164 75.6628 142.194 75.5648 142.186 75.4664C142.181 75.4169 142.166 75.3689 142.142 75.3253C142.118 75.2816 142.085 75.2432 142.046 75.2123C142.007 75.1814 141.961 75.1586 141.913 75.1454C141.864 75.1322 141.813 75.1288 141.763 75.1353C141.168 75.2371 140.606 75.4784 140.125 75.8389C139.643 76.1993 139.257 76.6684 138.998 77.2066C138.966 77.2724 138.953 77.3461 138.962 77.4187C138.971 77.4914 139.002 77.5599 139.049 77.6159C139.097 77.672 139.16 77.7132 139.231 77.7345C139.302 77.7559 139.378 77.7565 139.45 77.7363Z" fill="#263238"/>
<path d="M151.862 74.8054C151.91 74.8074 151.959 74.7992 152.003 74.7813C152.048 74.7633 152.088 74.736 152.121 74.7014C152.192 74.6307 152.231 74.5356 152.231 74.4366C152.231 74.3375 152.192 74.2424 152.121 74.1717C151.712 73.7352 151.204 73.3999 150.639 73.1928C150.073 72.9858 149.466 72.9129 148.867 72.98C148.817 72.9891 148.77 73.0078 148.727 73.0352C148.684 73.0625 148.648 73.0978 148.619 73.1392C148.591 73.1805 148.571 73.227 148.561 73.276C148.55 73.325 148.55 73.3755 148.56 73.4246C148.581 73.5202 148.638 73.6042 148.721 73.6588C148.803 73.7135 148.904 73.7346 149.001 73.7178C149.474 73.6657 149.953 73.7242 150.398 73.8886C150.843 74.0529 151.243 74.3184 151.565 74.6635C151.6 74.7075 151.646 74.7431 151.697 74.7676C151.749 74.7922 151.805 74.8051 151.862 74.8054Z" fill="#263238"/>
<path d="M122.813 117.621C121.479 121.773 120.202 126.133 119.117 130.427C118.025 134.666 117.226 138.973 116.727 143.319L116.65 144.113C116.65 144.368 116.65 144.425 116.65 144.652C116.66 145.098 116.696 145.543 116.755 145.986C116.878 147.022 117.054 148.051 117.283 149.069C117.735 151.178 118.243 153.354 118.896 155.51C119.549 157.667 120.106 159.861 120.759 162.036L122.679 168.562L119.117 170.009C116.928 165.886 115.027 161.686 113.251 157.354C112.397 155.179 111.562 152.985 110.871 150.667C110.525 149.514 110.199 148.331 109.911 147.045C109.774 146.364 109.678 145.675 109.623 144.983C109.623 144.633 109.623 144.113 109.623 143.801V142.855C109.704 140.445 109.928 138.042 110.295 135.657C110.611 133.293 111.082 130.985 111.591 128.687C112.589 124.084 113.872 119.545 115.431 115.095L122.813 117.621Z" fill="#FFC3BD"/>
<path d="M118.848 106.394C115.584 107.34 111.657 118.453 111.657 118.453L124.329 127.382C124.329 127.382 128.956 118.132 127.584 113.97C126.153 109.638 122.582 105.278 118.848 106.394Z" fill="#028090"/>
<path opacity="0.4" d="M118.848 106.394C115.584 107.34 111.657 118.453 111.657 118.453L124.329 127.382C124.329 127.382 128.956 118.132 127.584 113.97C126.153 109.638 122.582 105.278 118.848 106.394Z" fill="white"/>
<path d="M101.337 313.84C101.493 313.786 101.635 313.698 101.753 313.584C101.871 313.47 101.962 313.331 102.019 313.178C102.074 313.079 102.104 312.969 102.104 312.856C102.104 312.744 102.074 312.633 102.019 312.535C101.443 311.702 98.5341 311.769 98.1789 311.778C98.1421 311.779 98.1062 311.79 98.0756 311.81C98.045 311.83 98.0208 311.858 98.0061 311.892C97.9874 311.921 97.9775 311.956 97.9775 311.991C97.9775 312.026 97.9874 312.06 98.0061 312.09C98.7645 312.837 100.185 314.057 101.184 313.868L101.337 313.84ZM98.6397 312.118C99.8013 312.118 101.357 312.279 101.664 312.724C101.69 312.767 101.704 312.816 101.704 312.866C101.704 312.916 101.69 312.965 101.664 313.008C101.621 313.122 101.551 313.224 101.459 313.305C101.367 313.385 101.256 313.443 101.136 313.471C100.608 313.603 99.6861 313.064 98.6397 312.118Z" fill="#028090"/>
<path d="M99.4944 311.92C100.378 311.646 101.318 311.163 101.52 310.624C101.57 310.484 101.571 310.331 101.522 310.19C101.473 310.05 101.378 309.929 101.251 309.848C101.139 309.757 101.008 309.691 100.866 309.657C100.725 309.622 100.578 309.62 100.435 309.65C99.2928 309.848 98.064 311.778 98.016 311.863C97.9991 311.892 97.9902 311.924 97.9902 311.958C97.9902 311.991 97.9991 312.023 98.016 312.052C98.0332 312.08 98.0571 312.103 98.0856 312.12C98.114 312.136 98.1462 312.145 98.1792 312.147C98.6264 312.134 99.0694 312.058 99.4944 311.92ZM100.378 310.028H100.502C100.593 310.01 100.686 310.011 100.776 310.032C100.865 310.054 100.949 310.094 101.021 310.151C101.213 310.302 101.194 310.416 101.165 310.501C100.973 311.021 99.5136 311.646 98.544 311.769C98.9851 311.041 99.619 310.446 100.378 310.047V310.028Z" fill="#028090"/>
<path d="M154.483 332.869C155.16 332.924 155.836 332.754 156.403 332.386C156.535 332.269 156.636 332.121 156.696 331.956C156.756 331.791 156.774 331.614 156.749 331.441C156.741 331.338 156.707 331.239 156.65 331.153C156.593 331.067 156.515 330.997 156.423 330.949C155.463 330.419 152.247 332.027 151.882 332.207C151.847 332.221 151.816 332.245 151.795 332.276C151.774 332.308 151.763 332.344 151.763 332.382C151.763 332.419 151.774 332.456 151.795 332.487C151.816 332.518 151.847 332.542 151.882 332.557C152.736 332.747 153.608 332.852 154.483 332.869ZM155.914 331.233C156.036 331.225 156.158 331.248 156.269 331.299C156.307 331.319 156.338 331.349 156.36 331.386C156.382 331.423 156.394 331.464 156.394 331.507C156.412 331.616 156.402 331.727 156.365 331.831C156.328 331.935 156.265 332.029 156.183 332.103C155.693 332.538 154.368 332.613 152.592 332.32C153.629 331.775 154.752 331.407 155.914 331.233Z" fill="#028090"/>
<path d="M151.997 332.595H152.074C153.034 332.17 154.954 330.467 154.781 329.569C154.781 329.351 154.589 329.096 154.061 329.039C153.872 329.018 153.68 329.036 153.499 329.091C153.317 329.147 153.149 329.238 153.005 329.361C152.045 330.193 151.814 332.321 151.805 332.406C151.804 332.439 151.811 332.472 151.826 332.502C151.841 332.532 151.863 332.557 151.891 332.576C151.923 332.596 151.96 332.603 151.997 332.595ZM153.917 329.389H154.032C154.378 329.389 154.406 329.569 154.406 329.606C154.502 330.146 153.216 331.498 152.237 332.075C152.314 331.176 152.673 330.323 153.264 329.635C153.44 329.477 153.669 329.39 153.907 329.389H153.917Z" fill="#028090"/>
<path d="M124.138 152.475L123.312 155.313C123.197 155.53 123.466 155.757 123.84 155.757H157.44C157.738 155.757 157.978 155.615 157.997 155.436L158.294 152.598C158.294 152.4 158.054 152.229 157.738 152.229H124.675C124.572 152.221 124.468 152.24 124.374 152.283C124.28 152.326 124.198 152.392 124.138 152.475Z" fill="#263238"/>
<path d="M128.573 156.106H127.68C127.507 156.106 127.373 156.021 127.382 155.908L127.795 152.125C127.795 152.021 127.968 151.926 128.141 151.926H129.024C129.206 151.926 129.331 152.021 129.322 152.125L128.909 155.908C128.909 156.059 128.755 156.106 128.573 156.106Z" fill="#028090"/>
<path opacity="0.4" d="M128.573 156.106H127.68C127.507 156.106 127.373 156.021 127.382 155.908L127.795 152.125C127.795 152.021 127.968 151.926 128.141 151.926H129.024C129.206 151.926 129.331 152.021 129.322 152.125L128.909 155.908C128.909 156.059 128.755 156.106 128.573 156.106Z" fill="black"/>
<path d="M154.905 156.106H154.022C153.849 156.106 153.715 156.021 153.725 155.908L154.147 152.125C154.147 152.021 154.31 151.926 154.483 151.926H155.366C155.549 151.926 155.683 152.021 155.664 152.125L155.251 155.908C155.241 156.059 155.088 156.106 154.905 156.106Z" fill="#028090"/>
<path opacity="0.4" d="M154.905 156.106H154.022C153.849 156.106 153.715 156.021 153.725 155.908L154.147 152.125C154.147 152.021 154.31 151.926 154.483 151.926H155.366C155.549 151.926 155.683 152.021 155.664 152.125L155.251 155.908C155.241 156.059 155.088 156.106 154.905 156.106Z" fill="black"/>
<path d="M141.744 156.106H140.86C140.678 156.106 140.544 156.021 140.563 155.908L140.976 152.125C140.976 152.021 141.139 151.926 141.321 151.926H142.204C142.377 151.926 142.512 152.021 142.502 152.125L142.089 155.908C142.08 156.059 141.916 156.106 141.744 156.106Z" fill="#028090"/>
<path opacity="0.4" d="M141.744 156.106H140.86C140.678 156.106 140.544 156.021 140.563 155.908L140.976 152.125C140.976 152.021 141.139 151.926 141.321 151.926H142.204C142.377 151.926 142.512 152.021 142.502 152.125L142.089 155.908C142.08 156.059 141.916 156.106 141.744 156.106Z" fill="black"/>
<path d="M142.406 78.6831L143.856 77.9832C143.856 77.9832 143.28 79.2978 142.406 78.6831Z" fill="#263238"/>
<path d="M122.41 167.494L129.293 172.696L121.315 174.427C121.315 174.427 117.927 170.643 119.098 167.522L122.41 167.494Z" fill="#FFC3BD"/>
<path d="M130.982 179.137L124.224 180.225L120.538 173.396L129.293 172.696L130.982 179.137Z" fill="#FFC3BD"/>
</svg>
