<svg width="240" height="179" viewBox="0 0 240 179" fill="none" xmlns="http://www.w3.org/2000/svg">
<path d="M192.888 57.2735C189.624 83.2991 166.824 109.282 141.748 126.014C76.9483 169.608 14.3036 95.6351 30.1052 69.0671C41.966 42.1199 78.9644 49.5215 94.7036 38.9279C183.163 -21.0337 195.955 35.4911 192.888 57.2735Z" fill="#028090"/>
<path opacity="0.9" d="M192.888 57.2735C189.624 83.2991 166.824 109.282 141.748 126.014C76.9483 169.608 14.3036 95.6351 30.1052 69.0671C41.966 42.1199 78.9644 49.5215 94.7036 38.9279C183.163 -21.0337 195.955 35.4911 192.888 57.2735Z" fill="white"/>
<path d="M120.001 178.829C171.4 178.829 213.068 176.396 213.068 173.395C213.068 170.394 171.4 167.962 120.001 167.962C68.6009 167.962 26.9333 170.394 26.9333 173.395C26.9333 176.396 68.6009 178.829 120.001 178.829Z" fill="#F5F5F5"/>
<path d="M119.98 146.904H51.8199L48.0903 37.2864H116.25L119.98 146.904Z" fill="#028090"/>
<path d="M123.383 143.501H55.2234L51.489 33.8832H119.649L123.383 143.501Z" fill="#028090"/>
<path opacity="0.3" d="M123.383 143.501H55.2234L51.489 33.8832H119.649L123.383 143.501Z" fill="white"/>
<path d="M100.546 78.9906C107.844 71.5667 107.534 59.4273 99.8526 51.8766C92.1716 44.3258 80.0287 44.223 72.7307 51.6469C65.4327 59.0708 65.7432 71.2102 73.4242 78.7609C81.1052 86.3117 93.2481 86.4145 100.546 78.9906Z" fill="#028090"/>
<path d="M102.465 65.3231C102.564 67.9351 101.994 70.5289 100.809 72.8591C99.5313 75.3702 97.5788 77.4756 95.1709 78.939C92.763 80.4024 89.995 81.1659 87.1774 81.1439C84.2936 81.1283 81.4646 80.3546 78.9742 78.9005C76.4837 77.4464 74.4195 75.3629 72.9886 72.8591C71.6544 70.5647 70.909 67.9757 70.819 65.3231C70.7304 63.2663 71.061 61.213 71.7905 59.2879C72.5201 57.3629 73.6334 55.6062 75.0628 54.1247C76.4922 52.6432 78.2079 51.4678 80.1057 50.6698C82.0034 49.8719 84.0436 49.4681 86.1022 49.4831C90.3431 49.5131 94.4095 51.1756 97.4567 54.1254C100.504 57.0751 102.298 61.0854 102.465 65.3231Z" fill="white"/>
<path opacity="0.6" d="M100.8 72.8592C99.5216 75.3703 97.5691 77.4757 95.1612 78.9391C92.7533 80.4025 89.9853 81.166 87.1677 81.144C84.2839 81.1284 81.4549 80.3547 78.9645 78.9006C76.474 77.4464 74.4098 75.363 72.9789 72.8592C77.0383 70.0915 81.8418 68.6204 86.7549 68.64C91.7472 68.6508 96.628 70.117 100.8 72.8592Z" fill="#028090"/>
<path opacity="0.6" d="M91.5694 64.9284C94.253 62.1986 94.1388 57.7348 91.3144 54.9584C88.4901 52.1819 84.025 52.1441 81.3414 54.8739C78.6579 57.6038 78.772 62.0676 81.5964 64.844C84.4208 67.6205 88.8859 67.6583 91.5694 64.9284Z" fill="#028090"/>
<path d="M109.689 103.805H66.2106L65.9178 95.1648H109.396L109.689 103.805Z" fill="white"/>
<path d="M110.217 119.246H66.7341L66.4413 110.606H109.924L110.217 119.246Z" fill="white"/>
<path d="M93.4366 111.797L82.9582 113.237C82.8582 113.248 82.7617 113.28 82.6746 113.331C82.5876 113.381 82.512 113.449 82.4525 113.53C82.3929 113.611 82.3509 113.704 82.3289 113.802C82.3069 113.9 82.3054 114.002 82.3246 114.101L83.7022 121.123C83.7473 121.329 83.8678 121.511 84.0402 121.633C84.2125 121.754 84.4241 121.807 84.6334 121.781L95.1118 120.341C95.2115 120.328 95.3076 120.295 95.3941 120.244C95.4806 120.193 95.5557 120.124 95.6146 120.043C95.6736 119.961 95.7152 119.869 95.7368 119.77C95.7585 119.672 95.7598 119.571 95.7406 119.472L94.3678 112.45C94.3227 112.244 94.2019 112.063 94.0295 111.942C93.857 111.821 93.6454 111.769 93.4366 111.797ZM90.427 118.91L88.507 119.165L88.3198 116.899C88.122 116.814 87.9476 116.682 87.8114 116.515C87.6753 116.348 87.5813 116.15 87.5374 115.939C87.5021 115.776 87.5016 115.607 87.5357 115.443C87.5699 115.279 87.638 115.124 87.7358 114.989C87.8335 114.853 87.9586 114.739 88.103 114.655C88.2474 114.571 88.408 114.518 88.5742 114.499C88.9151 114.455 89.2601 114.541 89.541 114.739C89.8218 114.937 90.0181 115.234 90.091 115.57C90.1326 115.772 90.1199 115.983 90.0541 116.179C89.9884 116.375 89.8719 116.551 89.7166 116.688L90.427 118.91Z" fill="#028090"/>
<path d="M92.3994 111.418C92.2141 111.441 92.0267 111.395 91.874 111.287C91.7213 111.18 91.6142 111.019 91.5738 110.837L91.4394 110.15C91.2475 109.214 90.7225 108.378 89.9616 107.799C89.2008 107.22 88.2557 106.937 87.3018 107.002C86.8204 107.029 86.3505 107.16 85.9242 107.385C85.4978 107.61 85.1248 107.924 84.8307 108.306C84.5365 108.688 84.328 109.129 84.2194 109.599C84.1107 110.069 84.1044 110.556 84.201 111.029L84.3546 111.821C84.3725 111.908 84.3718 111.999 84.3527 112.087C84.3336 112.174 84.2964 112.257 84.2435 112.329C84.1907 112.401 84.1233 112.462 84.0457 112.506C83.9681 112.551 83.882 112.579 83.793 112.589C83.6074 112.615 83.4189 112.569 83.2656 112.461C83.1123 112.353 83.0057 112.191 82.9674 112.008L82.8378 111.341C82.706 110.717 82.7016 110.073 82.8249 109.448C82.9482 108.823 83.1967 108.229 83.5554 107.702C83.9141 107.175 84.3756 106.726 84.9122 106.382C85.4487 106.039 86.0493 105.807 86.6778 105.701C88.0405 105.472 89.4389 105.777 90.583 106.551C91.727 107.326 92.5287 108.512 92.8218 109.862L92.9754 110.65C92.9933 110.738 92.9922 110.83 92.9722 110.918C92.9522 111.007 92.9138 111.09 92.8594 111.163C92.805 111.235 92.7359 111.295 92.6566 111.339C92.5774 111.383 92.4897 111.41 92.3994 111.418Z" fill="#028090"/>
<path d="M103.041 131.347H74.7356L74.5484 125.722H102.849L103.041 131.347Z" fill="#028090"/>
<path d="M89.3852 99.4848C89.3937 99.6899 89.3604 99.8947 89.2873 100.087C89.2143 100.279 89.103 100.454 88.9603 100.601C88.8176 100.749 88.6464 100.866 88.457 100.946C88.2677 101.025 88.0642 101.065 87.8588 101.064C87.4356 101.061 87.0298 100.895 86.7252 100.601C86.4206 100.307 86.2405 99.9076 86.222 99.4848C86.2136 99.2796 86.2469 99.0748 86.3199 98.8829C86.3929 98.6909 86.5042 98.5158 86.6469 98.3682C86.7896 98.2205 86.9609 98.1034 87.1502 98.0238C87.3395 97.9443 87.5431 97.9041 87.7484 97.9056C88.172 97.9077 88.5785 98.073 88.8833 98.3671C89.1882 98.6612 89.3679 99.0615 89.3852 99.4848Z" fill="#263238"/>
<path d="M82.5596 99.4848C82.5687 99.6901 82.5359 99.8952 82.4631 100.087C82.3903 100.28 82.2791 100.455 82.1362 100.603C81.9934 100.751 81.8219 100.868 81.6322 100.947C81.4426 101.026 81.2387 101.066 81.0332 101.064C80.6104 101.061 80.2052 100.895 79.9013 100.601C79.5975 100.307 79.4184 99.9072 79.4012 99.4848C79.3927 99.2796 79.426 99.0748 79.4991 98.8829C79.5721 98.6909 79.6834 98.5158 79.8261 98.3682C79.9688 98.2205 80.14 98.1034 80.3294 98.0238C80.5187 97.9443 80.7222 97.9041 80.9276 97.9056C81.3507 97.9077 81.7566 98.0732 82.0607 98.3674C82.3648 98.6617 82.5435 99.0619 82.5596 99.4848Z" fill="#263238"/>
<path d="M75.7771 99.4848C75.7855 99.6899 75.7522 99.8947 75.6792 100.087C75.6062 100.279 75.4949 100.454 75.3522 100.601C75.2095 100.749 75.0382 100.866 74.8489 100.946C74.6596 101.025 74.456 101.065 74.2507 101.064C73.8276 101.062 73.4216 100.896 73.1176 100.602C72.8135 100.308 72.6348 99.9076 72.6187 99.4848C72.6102 99.2796 72.6435 99.0748 72.7166 98.8829C72.7896 98.6909 72.9009 98.5158 73.0436 98.3682C73.1863 98.2205 73.3575 98.1034 73.5469 98.0238C73.7362 97.9443 73.9397 97.9041 74.1451 97.9056C74.5682 97.9077 74.9741 98.0732 75.2782 98.3674C75.5823 98.6617 75.761 99.0619 75.7771 99.4848Z" fill="#263238"/>
<path d="M96.1874 99.4847C96.1958 99.6899 96.1625 99.8947 96.0895 100.087C96.0164 100.279 95.9052 100.454 95.7625 100.601C95.6197 100.749 95.4485 100.866 95.2592 100.946C95.0698 101.025 94.8663 101.065 94.661 101.064C94.2378 101.062 93.8319 100.896 93.5278 100.602C93.2238 100.308 93.045 99.9076 93.029 99.4847C93.0218 99.2802 93.0562 99.0762 93.1302 98.8854C93.2042 98.6945 93.3162 98.5206 93.4593 98.3743C93.6025 98.228 93.7739 98.1123 93.9631 98.0342C94.1524 97.9561 94.3555 97.9172 94.5602 97.9199C94.9801 97.9232 95.3828 98.0872 95.6854 98.3782C95.9881 98.6693 96.1677 99.0653 96.1874 99.4847Z" fill="#263238"/>
<path d="M102.989 99.4848C102.998 99.6901 102.965 99.8952 102.892 100.087C102.819 100.28 102.708 100.455 102.565 100.603C102.422 100.751 102.251 100.868 102.061 100.947C101.872 101.026 101.668 101.066 101.462 101.064C101.039 101.061 100.634 100.895 100.33 100.601C100.027 100.307 99.8475 99.9072 99.8302 99.4848C99.8218 99.2796 99.8551 99.0748 99.9281 98.8829C100.001 98.6909 100.112 98.5158 100.255 98.3682C100.398 98.2205 100.569 98.1034 100.758 98.0238C100.948 97.9443 101.151 97.9041 101.357 97.9056C101.78 97.9077 102.186 98.0732 102.49 98.3674C102.794 98.6617 102.973 99.0619 102.989 99.4848Z" fill="#263238"/>
<path d="M160.277 57.2544C160.916 58.2816 161.448 59.2608 161.996 60.2832C162.543 61.3056 163.037 62.3328 163.522 63.384C164.511 65.5125 165.33 67.7163 165.97 69.9744C166.056 70.2576 166.119 70.56 166.191 70.8528L166.296 71.2992L166.349 71.52L166.412 71.8848C166.52 72.7123 166.469 73.553 166.263 74.3616C165.931 75.6171 165.427 76.8206 164.765 77.9376C163.581 79.9674 162.149 81.8426 160.503 83.52L158.482 81.9936C159.496 80.1289 160.399 78.2055 161.184 76.2336C161.534 75.3647 161.781 74.4577 161.919 73.5312C161.963 73.2483 161.95 72.9594 161.88 72.6816L161.688 72.096C161.612 71.856 161.54 71.616 161.448 71.3712C160.718 69.391 159.874 67.4549 158.919 65.5728C157.959 63.6528 156.927 61.7328 155.895 59.8992L160.277 57.2544Z" fill="#FF8B7B"/>
<path d="M158.994 81.3265L156.786 82.4929L159.321 85.4593C159.321 85.4593 160.905 84.3889 160.977 82.7569L158.994 81.3265Z" fill="#FF8B7B"/>
<path d="M153.825 84.3216L156.537 86.4768L159.321 85.4592L156.787 82.4928L153.825 84.3216Z" fill="#FF8B7B"/>
<path d="M144.553 41.5488C144.5 41.8176 144.313 42.0048 144.14 41.9712C143.967 41.9376 143.866 41.688 143.919 41.424C143.972 41.16 144.159 40.944 144.337 41.0016C144.514 41.0592 144.605 41.28 144.553 41.5488Z" fill="#263238"/>
<path d="M144.336 42.0096C143.852 42.7615 143.268 43.4431 142.598 44.0352C142.756 44.1991 142.948 44.3269 143.16 44.4097C143.372 44.4926 143.599 44.5286 143.827 44.5152L144.336 42.0096Z" fill="#FF5652"/>
<path d="M143.472 51.4272V48.2784L147.639 48.7584C147.639 48.7584 147.571 51.4656 145.239 52.2624L143.472 51.4272Z" fill="#FF8B7B"/>
<path d="M144.672 46.0128L147.605 46.8576L147.657 48.7824L143.491 48.2784L144.672 46.0128Z" fill="#FF8B7B"/>
<path opacity="0.2" d="M147.605 46.8576L144.672 46.0128L144.101 47.1072C144.132 47.9696 144.402 48.8064 144.879 49.5249C145.357 50.2434 146.025 50.8155 146.808 51.1776C147.312 50.4738 147.607 49.6417 147.658 48.7776L147.605 46.8576Z" fill="black"/>
<path d="M145.829 40.2672C145.86 40.2664 145.89 40.2569 145.915 40.2398C145.941 40.2227 145.961 40.1987 145.974 40.1706C145.986 40.1425 145.991 40.1114 145.986 40.081C145.982 40.0505 145.969 40.0219 145.949 39.9984C145.781 39.808 145.569 39.6607 145.332 39.5689C145.095 39.477 144.839 39.4433 144.586 39.4704C144.545 39.4775 144.508 39.5006 144.483 39.5348C144.459 39.569 144.449 39.6114 144.456 39.6528C144.464 39.6945 144.486 39.7318 144.52 39.7568C144.555 39.7819 144.597 39.7928 144.639 39.7872C144.839 39.7676 145.041 39.7961 145.228 39.8704C145.415 39.9447 145.582 40.0627 145.714 40.2144C145.729 40.2305 145.746 40.2434 145.766 40.2525C145.786 40.2615 145.807 40.2665 145.829 40.2672Z" fill="#263238"/>
<path d="M151.963 46.4064C151.483 48.8784 151.186 52.3008 152.923 53.9472C152.923 53.9472 152.251 56.4528 147.643 56.4528C142.599 56.4528 145.219 54.2544 145.219 54.2544C147.317 53.6016 147.298 51.216 146.818 49.296L151.963 46.4064Z" fill="#FF8B7B"/>
<path d="M153.859 55.5983C154.31 54.9647 154.291 52.9535 153.811 52.5983C153.038 52.0271 149.721 51.8927 145.262 52.9199C145.742 54.8687 144.71 55.8863 144.71 55.8863L153.859 55.5983Z" fill="#028090"/>
<path d="M168.864 169.555C168.727 169.603 168.582 169.624 168.437 169.616C168.292 169.608 168.15 169.571 168.02 169.507C167.97 169.461 167.936 169.401 167.922 169.335C167.909 169.268 167.916 169.2 167.943 169.138C167.958 169.086 167.984 169.038 168.02 168.997C168.055 168.956 168.1 168.924 168.149 168.902C168.605 168.682 169.652 169.109 169.7 169.128C169.714 169.134 169.726 169.144 169.735 169.157C169.743 169.169 169.748 169.185 169.748 169.2C169.747 169.215 169.743 169.231 169.736 169.244C169.728 169.257 169.717 169.269 169.704 169.277C169.434 169.396 169.152 169.489 168.864 169.555ZM168.312 169.013C168.281 169.02 168.25 169.032 168.221 169.046C168.191 169.057 168.164 169.075 168.143 169.099C168.121 169.122 168.105 169.15 168.096 169.181C168.053 169.325 168.096 169.373 168.125 169.387C168.308 169.541 168.98 169.387 169.455 169.21C169.093 169.06 168.703 168.993 168.312 169.013Z" fill="#028090"/>
<path d="M169.685 169.282H169.646C169.262 169.171 168.446 168.59 168.437 168.211C168.436 168.151 168.457 168.092 168.494 168.045C168.532 167.998 168.584 167.965 168.643 167.952C168.7 167.931 168.761 167.922 168.822 167.927C168.882 167.932 168.941 167.951 168.994 167.981C169.445 168.211 169.733 169.142 169.742 169.186C169.749 169.197 169.753 169.211 169.753 169.224C169.753 169.238 169.749 169.251 169.742 169.262C169.735 169.27 169.726 169.276 169.716 169.279C169.706 169.282 169.695 169.283 169.685 169.282ZM168.725 168.086H168.686C168.59 168.12 168.59 168.168 168.59 168.192C168.59 168.418 169.138 168.874 169.55 169.056C169.45 168.787 169.229 168.254 168.936 168.096C168.871 168.067 168.797 168.063 168.73 168.086H168.725Z" fill="#028090"/>
<path d="M143.933 170.122C143.501 170.122 143.083 170.059 142.944 169.867C142.907 169.816 142.888 169.755 142.888 169.692C142.888 169.629 142.907 169.568 142.944 169.517C142.971 169.47 143.008 169.429 143.052 169.397C143.095 169.365 143.145 169.342 143.198 169.33C143.76 169.176 144.941 169.848 144.989 169.877C145.003 169.884 145.015 169.896 145.022 169.911C145.029 169.926 145.031 169.943 145.027 169.958C145.025 169.975 145.018 169.99 145.007 170.002C144.996 170.015 144.981 170.023 144.965 170.026C144.624 170.088 144.279 170.12 143.933 170.122ZM143.4 169.464C143.349 169.456 143.297 169.456 143.246 169.464C143.214 169.471 143.183 169.484 143.156 169.503C143.128 169.522 143.105 169.546 143.088 169.574C143.03 169.675 143.054 169.723 143.088 169.752C143.246 169.973 144.096 169.978 144.725 169.886C144.314 169.662 143.864 169.519 143.4 169.464Z" fill="#028090"/>
<path d="M144.96 170.026H144.927C144.519 169.843 143.712 169.114 143.775 168.73C143.775 168.638 143.852 168.528 144.072 168.509C144.151 168.5 144.231 168.507 144.307 168.53C144.383 168.553 144.454 168.592 144.514 168.643C144.822 169.011 145.006 169.466 145.042 169.944C145.042 169.958 145.039 169.971 145.033 169.984C145.027 169.996 145.019 170.007 145.008 170.016C144.994 170.024 144.977 170.027 144.96 170.026ZM144.135 168.658H144.087C143.943 168.658 143.933 168.725 143.933 168.744C143.895 168.974 144.442 169.55 144.86 169.8C144.823 169.415 144.667 169.051 144.413 168.758C144.334 168.691 144.234 168.655 144.13 168.658H144.135Z" fill="#028090"/>
<path d="M148.665 169.949H145.291L144.955 162.13H148.329L148.665 169.949Z" fill="#FF8B7B"/>
<path d="M173.448 168.384L170.151 169.099L166.834 161.818L170.136 161.103L173.448 168.384Z" fill="#FF8B7B"/>
<path d="M169.828 168.768L173.539 167.966C173.604 167.953 173.671 167.961 173.731 167.991C173.79 168.021 173.837 168.07 173.865 168.13L175.152 170.923C175.186 170.991 175.204 171.066 175.203 171.142C175.203 171.217 175.185 171.292 175.15 171.359C175.116 171.427 175.066 171.485 175.004 171.529C174.943 171.574 174.871 171.603 174.796 171.614C173.5 171.869 172.852 171.931 171.225 172.282C170.222 172.502 167.956 173.054 166.569 173.352C165.182 173.65 164.707 172.32 165.249 172.075C167.673 170.966 168.681 169.992 169.339 169.085C169.458 168.923 169.632 168.81 169.828 168.768Z" fill="#263238"/>
<path d="M145.316 169.555H149.002C149.069 169.556 149.134 169.579 149.186 169.62C149.238 169.662 149.275 169.72 149.29 169.786L149.957 172.786C149.977 172.858 149.979 172.934 149.964 173.008C149.949 173.081 149.917 173.15 149.87 173.209C149.823 173.268 149.763 173.315 149.695 173.346C149.627 173.378 149.552 173.393 149.477 173.39C148.148 173.366 146.228 173.29 144.557 173.29C142.599 173.29 140.914 173.395 138.62 173.395C137.232 173.395 136.848 171.994 137.429 171.864C140.069 171.288 142.229 171.226 144.509 169.819C144.749 169.659 145.028 169.567 145.316 169.555Z" fill="#263238"/>
<path d="M158.961 54.7201C162.124 55.4449 164.721 63.5233 164.721 63.5233L158.4 68.3569C156.759 66.6025 155.601 64.4525 155.04 62.1169C153.921 57.8833 155.726 53.9713 158.961 54.7201Z" fill="#028090"/>
<path opacity="0.4" d="M158.961 54.7201C162.124 55.4449 164.721 63.5233 164.721 63.5233L158.4 68.3569C156.759 66.6025 155.601 64.4525 155.04 62.1169C153.921 57.8833 155.726 53.9713 158.961 54.7201Z" fill="black"/>
<path d="M142.32 64.3537C141.533 65.2033 140.745 65.9617 139.92 66.7537C139.512 67.1377 139.099 67.5217 138.677 67.8913L138.038 68.4529L137.88 68.5921L137.606 68.8129C137.325 69.0378 137.013 69.222 136.68 69.3601C136.309 69.5173 135.911 69.5989 135.509 69.6001C135.165 69.6015 134.823 69.5414 134.501 69.4225C134.143 69.2861 133.816 69.0788 133.541 68.8129C133.189 68.4692 132.931 68.0412 132.792 67.5697C132.719 67.3372 132.672 67.0973 132.653 66.8545C132.628 66.5702 132.628 66.2843 132.653 66.0001C132.677 65.7697 132.705 65.5681 132.744 65.3809C132.875 64.7264 133.061 64.0841 133.301 63.4609C133.517 62.8685 133.765 62.2884 134.045 61.7233C134.352 61.1137 134.645 60.6673 134.937 60.1585C136.127 58.2103 137.484 56.3697 138.993 54.6577C140.488 52.9558 142.135 51.3941 143.913 49.9921L145.68 51.8113C144.441 53.4721 143.222 55.2529 142.094 57.0049C140.972 58.7469 139.946 60.5497 139.022 62.4049C138.816 62.8561 138.542 63.3649 138.413 63.7297C138.241 64.1534 138.092 64.586 137.966 65.0257C137.845 65.4216 137.754 65.8259 137.693 66.2353C137.689 66.2992 137.689 66.3633 137.693 66.4273C137.693 66.4657 137.693 66.4849 137.693 66.3841C137.685 66.2763 137.664 66.17 137.63 66.0673C137.526 65.727 137.336 65.4194 137.078 65.1745C136.849 64.9636 136.579 64.8004 136.286 64.6945C136.029 64.5968 135.755 64.5464 135.48 64.5457C135.215 64.5425 134.952 64.5931 134.707 64.6945C134.624 64.7283 134.544 64.7684 134.467 64.8145L134.649 64.6465L135.23 64.1185L136.377 63.0433C137.136 62.3281 137.899 61.5649 138.619 60.8545L142.32 64.3537Z" fill="#FF8B7B"/>
<path opacity="0.2" d="M156.249 60.6528C157.967 62.352 158.529 65.4528 158.649 68.1408L158.371 68.3568C156.73 66.6025 155.572 64.4524 155.011 62.1168C154.948 61.8672 154.891 61.6368 154.847 61.3632L156.249 60.6528Z" fill="black"/>
<path d="M138.965 58.0801C138.274 61.7281 137.842 69.2209 139.843 84.0529H157.92C158.045 81.2833 156.303 67.7569 158.976 54.6961C156.979 54.3125 154.958 54.0576 152.928 53.9329C150.37 53.7862 147.806 53.7862 145.248 53.9329C144.403 54.0097 143.568 54.1345 142.848 54.2641C141.891 54.4321 141.007 54.8869 140.313 55.5683C139.62 56.2497 139.15 57.1256 138.965 58.0801Z" fill="#028090"/>
<path opacity="0.4" d="M138.965 58.0801C138.274 61.7281 137.842 69.2209 139.843 84.0529H157.92C158.045 81.2833 156.303 67.7569 158.976 54.6961C156.979 54.3125 154.958 54.0576 152.928 53.9329C150.37 53.7862 147.806 53.7862 145.248 53.9329C144.403 54.0097 143.568 54.1345 142.848 54.2641C141.891 54.4321 141.007 54.8869 140.313 55.5683C139.62 56.2497 139.15 57.1256 138.965 58.0801Z" fill="black"/>
<path opacity="0.2" d="M141.729 63.4896L138.465 62.7072C138.364 64.6848 138.355 67.1328 138.499 70.1616C140.001 68.4528 141.921 65.784 141.729 63.4896Z" fill="black"/>
<path opacity="0.2" d="M144.955 162.13L145.128 166.162H148.507L148.334 162.13H144.955Z" fill="black"/>
<path opacity="0.2" d="M170.136 161.103L166.834 161.818L168.543 165.571L171.845 164.856L170.136 161.103Z" fill="black"/>
<path d="M153.566 42.7969C152.702 46.0321 152.357 47.9713 150.36 49.3153C147.36 51.3601 143.616 49.0177 143.52 45.6001C143.414 42.5137 144.849 37.7377 148.32 37.0849C149.082 36.9418 149.869 36.9952 150.605 37.2401C151.341 37.4851 152.003 37.9135 152.528 38.4849C153.053 39.0564 153.424 39.7521 153.605 40.5065C153.787 41.2609 153.773 42.0491 153.566 42.7969Z" fill="#FF8B7B"/>
<path d="M145.992 42.9168C145.829 42.4848 145.085 39.1392 145.785 38.2704C146.486 37.4016 154.478 38.0304 155.659 39.192C157.622 41.112 156.259 42.84 154.113 45.0624C152.501 46.7328 152.438 48.6144 151.622 48.9024C150.182 49.3824 147.984 48.9312 147.542 47.4096C147.101 45.888 145.992 42.9168 145.992 42.9168Z" fill="#263238"/>
<path d="M154.689 35.3857C151.867 34.1857 146.573 35.5153 143.712 34.8241C143.675 35.8879 144.025 36.9289 144.697 37.7547C145.368 38.5806 146.316 39.1355 147.365 39.3169C149.738 39.7692 152.149 39.9926 154.565 39.9841C157.704 39.8401 157.089 36.4081 154.689 35.3857Z" fill="#263238"/>
<path d="M155.132 39.2929C156.163 39.3943 157.201 39.196 158.122 38.7217C158.65 39.9985 155.746 40.3489 155.132 39.2929Z" fill="#263238"/>
<path d="M147.528 43.0513C147.463 43.8837 147.126 44.6716 146.568 45.2929C145.829 46.1041 145.061 45.5953 144.931 44.6113C144.816 43.7185 145.056 42.2113 145.958 41.7793C146.861 41.3473 147.59 42.0481 147.528 43.0513Z" fill="#FF8B7B"/>
<path d="M146.251 84.0673C146.251 84.0673 150.091 109.867 152.189 119.535C154.488 130.119 166.843 165.135 166.843 165.135L172.887 163.824C172.887 163.824 164.247 135.283 162.327 120.485C160.839 109.119 157.915 84.0577 157.915 84.0577L146.251 84.0673Z" fill="#028090"/>
<path d="M165.394 163.123C165.37 163.123 166.522 165.312 166.522 165.312L173.319 163.838L172.748 161.794L165.394 163.123Z" fill="#263238"/>
<path opacity="0.3" d="M148.676 93.2593C153.106 94.1281 152.636 110.65 152.103 119.15C150.826 113.141 148.954 101.582 147.677 93.3793C147.987 93.2265 148.339 93.1842 148.676 93.2593Z" fill="black"/>
<path d="M139.843 84.0673C139.843 84.0673 139.363 109.31 139.747 119.587C140.131 130.296 143.871 165.36 143.871 165.36H149.592C149.592 165.36 149.799 130.92 150.072 120.403C150.351 108.941 151.733 84.0481 151.733 84.0481L139.843 84.0673Z" fill="#028090"/>
<path d="M142.772 163.104C142.743 163.104 143.093 165.475 143.093 165.475H150.048L150.24 163.358L142.772 163.104Z" fill="#263238"/>
<path d="M146.04 59.2033C147.657 63.5665 138.148 68.7073 138.148 68.7073L134.03 63.4273C134.03 63.4273 136.8 57.9457 140.16 55.4785C144.312 52.4353 144.806 55.8817 146.04 59.2033Z" fill="#028090"/>
<path opacity="0.4" d="M146.04 59.2033C147.657 63.5665 138.148 68.7073 138.148 68.7073L134.03 63.4273C134.03 63.4273 136.8 57.9457 140.16 55.4785C144.312 52.4353 144.806 55.8817 146.04 59.2033Z" fill="black"/>
<path d="M183.297 26.0784C192.865 26.0784 200.62 21.1356 200.62 15.0384C200.62 8.94119 192.865 3.99841 183.297 3.99841C173.73 3.99841 165.974 8.94119 165.974 15.0384C165.974 21.1356 173.73 26.0784 183.297 26.0784Z" fill="#028090"/>
<path d="M177.048 20.5968C175.907 20.5932 174.804 20.1874 173.932 19.4509C173.06 18.7144 172.476 17.6942 172.282 16.5696C172.091 15.3515 172.366 14.1062 173.051 13.0815C173.737 12.0568 174.784 11.328 175.983 11.04C176.966 10.8133 177.997 10.9007 178.928 11.2899C179.86 11.6791 180.646 12.3504 181.176 13.2096L192.298 10.9152C192.725 10.8216 193.172 10.8927 193.549 11.1143C193.927 11.3358 194.207 11.6916 194.333 12.1104C194.391 12.3307 194.404 12.5604 194.37 12.7857C194.337 13.011 194.257 13.2271 194.137 13.4207C194.018 13.6143 193.859 13.7815 193.673 13.9119C193.486 14.0423 193.274 14.1333 193.051 14.1792L192.763 14.2368C192.721 14.2445 192.68 14.2619 192.645 14.2877C192.61 14.3135 192.582 14.347 192.562 14.3856C192.544 14.4248 192.535 14.4674 192.535 14.5104C192.535 14.5535 192.544 14.596 192.562 14.6352L192.759 15.144C192.825 15.309 192.831 15.4917 192.777 15.6608C192.722 15.8299 192.611 15.9748 192.461 16.0704C192.343 16.1433 192.243 16.2422 192.169 16.3595C192.095 16.4768 192.049 16.6094 192.034 16.7472C192.02 16.9055 191.956 17.0552 191.852 17.175C191.747 17.2948 191.608 17.3786 191.453 17.4144L191.227 17.4624C191.071 17.4913 190.909 17.4697 190.766 17.4007C190.623 17.3316 190.505 17.2188 190.431 17.0784C190.331 16.911 190.182 16.7789 190.003 16.7004C189.825 16.6219 189.627 16.601 189.436 16.6407C189.245 16.6803 189.071 16.7785 188.939 16.9215C188.807 17.0645 188.722 17.2452 188.698 17.4384C188.684 17.5957 188.621 17.7446 188.518 17.8636C188.414 17.9827 188.276 18.0658 188.122 18.1008L187.896 18.1488C187.74 18.177 187.579 18.155 187.436 18.086C187.292 18.0171 187.175 17.9047 187.099 17.7648C187.027 17.6458 186.931 17.5438 186.815 17.4659C186.7 17.388 186.569 17.336 186.432 17.3136C186.248 17.2914 186.077 17.2026 185.954 17.0638C185.83 16.9251 185.761 16.7459 185.76 16.56V16.0128C185.758 15.97 185.747 15.9281 185.727 15.8901C185.708 15.852 185.68 15.8186 185.646 15.7921C185.613 15.7657 185.574 15.7469 185.532 15.7369C185.49 15.7269 185.447 15.7261 185.405 15.7344L181.858 16.464C181.713 17.4468 181.269 18.3611 180.586 19.0825C179.904 19.8039 179.015 20.2975 178.042 20.496C177.715 20.5629 177.382 20.5967 177.048 20.5968ZM176.088 11.4768C174.999 11.7311 174.048 12.3885 173.424 13.3166C172.801 14.2446 172.552 15.3744 172.728 16.4784C172.917 17.5056 173.467 18.4312 174.279 19.088C175.091 19.7447 176.111 20.0892 177.155 20.059C178.199 20.0288 179.198 19.6261 179.971 18.9236C180.743 18.221 181.239 17.2652 181.368 16.2288V16.056L185.28 15.264C185.392 15.2369 185.509 15.2351 185.622 15.2587C185.735 15.2824 185.842 15.3309 185.934 15.4007C186.025 15.4706 186.101 15.5601 186.154 15.6626C186.207 15.7652 186.236 15.8782 186.24 15.9936V16.5408C186.241 16.606 186.265 16.6688 186.307 16.7186C186.349 16.7685 186.407 16.8023 186.471 16.8144C186.68 16.8445 186.881 16.9219 187.056 17.0408C187.232 17.1598 187.378 17.3171 187.483 17.5008C187.509 17.5526 187.55 17.5952 187.601 17.6228C187.651 17.6503 187.709 17.6614 187.767 17.6544L187.987 17.6064C188.043 17.592 188.093 17.56 188.13 17.515C188.166 17.4701 188.187 17.4146 188.189 17.3568C188.219 17.058 188.344 16.7766 188.544 16.5532C188.745 16.3297 189.012 16.1759 189.306 16.1139C189.599 16.052 189.905 16.085 190.179 16.2084C190.453 16.3317 190.681 16.5389 190.829 16.8C190.854 16.8515 190.894 16.8939 190.944 16.9214C190.993 16.949 191.051 16.9602 191.107 16.9536L191.338 16.9056C191.393 16.8904 191.442 16.8579 191.477 16.813C191.512 16.7682 191.533 16.7132 191.535 16.656C191.558 16.4453 191.63 16.2428 191.744 16.0639C191.858 15.885 192.011 15.7346 192.192 15.624C192.245 15.5859 192.284 15.5312 192.302 15.4686C192.32 15.406 192.317 15.339 192.293 15.2784L192.096 14.7696C192.055 14.6647 192.038 14.5522 192.045 14.44C192.053 14.3277 192.085 14.2184 192.138 14.1196C192.192 14.0209 192.267 13.9351 192.358 13.8683C192.448 13.8015 192.552 13.7553 192.663 13.7328L192.955 13.6704C193.114 13.6367 193.264 13.5712 193.396 13.4781C193.529 13.385 193.642 13.2661 193.727 13.1286C193.813 12.991 193.87 12.8376 193.895 12.6775C193.92 12.5174 193.912 12.3539 193.872 12.1968C193.778 11.8948 193.574 11.6393 193.3 11.4817C193.026 11.3241 192.702 11.2761 192.394 11.3472L180.96 13.7232L180.874 13.5744C180.414 12.7566 179.701 12.1106 178.842 11.7339C177.983 11.3572 177.025 11.2704 176.112 11.4864L176.088 11.4768ZM177.048 18.8112C176.452 18.8179 175.867 18.6511 175.363 18.3312C174.768 17.9405 174.327 17.3554 174.115 16.6756C173.903 15.9959 173.933 15.2637 174.2 14.6038C174.468 13.9439 174.956 13.3971 175.581 13.0567C176.207 12.7163 176.931 12.6034 177.63 12.7372C178.329 12.8709 178.961 13.2431 179.416 13.7903C179.872 14.3374 180.124 15.0257 180.129 15.7377C180.134 16.4497 179.892 17.1414 179.444 17.6949C178.996 18.2483 178.37 18.6293 177.672 18.7728C177.468 18.8098 177.26 18.8259 177.053 18.8208L177.048 18.8112ZM177.048 13.1424C176.869 13.1435 176.691 13.1611 176.515 13.1952C176.181 13.2665 175.864 13.4029 175.582 13.5966C175.301 13.7904 175.06 14.0378 174.874 14.3246C174.688 14.6114 174.56 14.9321 174.498 15.2683C174.435 15.6045 174.44 15.9496 174.511 16.284C174.583 16.6184 174.719 16.9355 174.913 17.2172C175.107 17.4989 175.354 17.7397 175.641 17.9257C175.928 18.1118 176.248 18.2396 176.584 18.3018C176.921 18.3639 177.266 18.3593 177.6 18.288C178.102 18.1835 178.562 17.9328 178.922 17.5673C179.281 17.2019 179.525 16.7381 179.621 16.2345C179.718 15.7309 179.663 15.21 179.464 14.7375C179.265 14.2649 178.93 13.8619 178.503 13.5792C178.078 13.2966 177.578 13.1478 177.067 13.152L177.048 13.1424Z" fill="white"/>
<path opacity="0.6" d="M169.2 32.5537C172.344 32.5537 174.893 30.9291 174.893 28.9249C174.893 26.9208 172.344 25.2961 169.2 25.2961C166.056 25.2961 163.507 26.9208 163.507 28.9249C163.507 30.9291 166.056 32.5537 169.2 32.5537Z" fill="#028090"/>
<path opacity="0.3" d="M160.142 34.0417C161.433 34.0417 162.48 33.3755 162.48 32.5537C162.48 31.7319 161.433 31.0657 160.142 31.0657C158.851 31.0657 157.805 31.7319 157.805 32.5537C157.805 33.3755 158.851 34.0417 160.142 34.0417Z" fill="#028090"/>
</svg>
