<svg width="468" height="349" viewBox="0 0 468 349" fill="none" xmlns="http://www.w3.org/2000/svg">
<path d="M73.0828 68.0191C98.8509 26.7696 165.906 18.2426 200.519 56.3753C235.133 94.5079 233.027 134.447 249.36 146.278C265.693 158.109 303.517 101.004 345.075 105.366C386.633 109.727 417.699 129.449 404.352 190.467C391.005 251.484 318.1 317.763 221.972 306.428C125.845 295.093 0.598991 184.046 73.0828 68.0191Z" fill="#028090"/>
<path opacity="0.9" d="M73.0828 68.0191C98.8509 26.7696 165.906 18.2426 200.519 56.3753C235.133 94.5079 233.027 134.447 249.36 146.278C265.693 158.109 303.517 101.004 345.075 105.366C386.633 109.727 417.699 129.449 404.352 190.467C391.005 251.484 318.1 317.763 221.972 306.428C125.845 295.093 0.598991 184.046 73.0828 68.0191Z" fill="white"/>
<path d="M234 348.716C334.229 348.716 415.481 343.972 415.481 338.121C415.481 332.269 334.229 327.525 234 327.525C133.771 327.525 52.519 332.269 52.519 338.121C52.519 343.972 133.771 348.716 234 348.716Z" fill="#F5F5F5"/>
<path d="M88.6204 312.699H87.6844C87.6844 311.472 88.714 282.447 93.7684 277.524C98.9913 272.441 105.131 277.449 105.188 277.524L104.589 278.244C104.364 278.057 99.0381 273.733 94.4236 278.244C89.6313 282.812 88.6298 312.399 88.6204 312.699Z" fill="#028090"/>
<path d="M88.2086 318.521L87.2726 318.427C87.2726 318.081 90.5299 283.233 77.9126 268.753L78.624 268.145C91.5033 282.924 88.349 317.07 88.2086 318.521Z" fill="#028090"/>
<path d="M88.4988 314.795C88.3958 313.148 85.9622 274.369 95.6873 265.421L96.3238 266.114C86.9638 274.753 89.4067 314.336 89.4348 314.729L88.4988 314.795Z" fill="#028090"/>
<path d="M87.2726 314.767C87.2726 314.505 86.9731 288.493 80.0935 284.553C79.5146 284.168 78.8511 283.93 78.1598 283.858C77.4686 283.786 76.7703 283.883 76.1248 284.141C72.0907 285.807 69.9472 293.501 69.9285 293.585L68.9925 293.342C69.0861 293.005 71.2857 285.114 75.7317 283.28C76.5103 282.966 77.3528 282.844 78.1884 282.924C79.024 283.004 79.8282 283.283 80.5334 283.738C87.8716 287.941 88.1711 313.69 88.1805 314.757L87.2726 314.767Z" fill="#028090"/>
<path d="M90.1086 314.786C90.1086 313.953 88.9948 294.194 94.6014 286.865C96.099 284.909 97.7745 283.991 99.5809 284.113C103.587 284.394 106.685 289.804 106.816 290.038L106.002 290.496C106.002 290.44 103.016 285.292 99.5154 285.049C98.0459 284.946 96.6419 285.751 95.3502 287.436C89.9495 294.484 91.0353 314.58 91.0446 314.739L90.1086 314.786Z" fill="#028090"/>
<path d="M89.1072 317.519L88.1712 317.453C88.1712 316.976 91.6906 269.961 85.9061 262.136L86.6549 261.574C92.664 269.68 89.257 315.572 89.1072 317.519Z" fill="#028090"/>
<path d="M74.1686 288.007C74.1686 288.007 77.7535 289.326 76.6864 292.443C75.6194 295.56 64.2938 300.699 64.2938 300.699C64.2938 300.699 59.5483 296.346 63.9007 289.27C68.2531 282.194 74.075 285.779 74.1686 288.007Z" fill="#028090"/>
<path opacity="0.2" d="M74.1686 288.007C74.1686 288.007 77.7535 289.326 76.6864 292.443C75.6194 295.56 64.2938 300.699 64.2938 300.699C64.2938 300.699 59.5483 296.346 63.9007 289.27C68.2531 282.194 74.075 285.779 74.1686 288.007Z" fill="white"/>
<path d="M89.753 282.072C89.753 282.072 85.9342 281.913 85.7189 285.199C85.5036 288.484 93.9838 297.591 93.9838 297.591C93.9838 297.591 100.04 295.401 98.7386 287.192C97.4376 278.984 90.6984 280.041 89.753 282.072Z" fill="#028090"/>
<path opacity="0.2" d="M89.753 282.072C89.753 282.072 85.9342 281.913 85.7189 285.199C85.5036 288.484 93.9838 297.591 93.9838 297.591C93.9838 297.591 100.04 295.401 98.7386 287.192C97.4376 278.984 90.6984 280.041 89.753 282.072Z" fill="white"/>
<path d="M92.9822 266.32C92.9822 266.32 90.4363 266.048 90.6422 264.504C90.8481 262.959 100.536 258.963 106.255 265.44C106.255 265.44 102.595 271.73 97.3065 271.805C92.0181 271.88 92.9822 266.32 92.9822 266.32Z" fill="#028090"/>
<path opacity="0.2" d="M92.9822 266.32C92.9822 266.32 90.4363 266.048 90.6422 264.504C90.8481 262.959 100.536 258.963 106.255 265.44C106.255 265.44 102.595 271.73 97.3065 271.805C92.0181 271.88 92.9822 266.32 92.9822 266.32Z" fill="white"/>
<path d="M88.246 262.557C88.246 262.557 90.5486 263.671 91.1944 262.248C91.8403 260.825 85.7282 252.317 77.4633 254.76C77.4633 254.76 77.248 262.033 81.694 264.897C86.14 267.761 88.246 262.557 88.246 262.557Z" fill="#028090"/>
<path opacity="0.2" d="M88.246 262.557C88.246 262.557 90.5486 263.671 91.1944 262.248C91.8403 260.825 85.7282 252.317 77.4633 254.76C77.4633 254.76 77.248 262.033 81.694 264.897C86.14 267.761 88.246 262.557 88.246 262.557Z" fill="white"/>
<path d="M100.292 286.753C100.292 286.753 98.5326 285.339 100.433 284.647C102.333 283.954 111.665 284.15 111.721 293.361C111.721 293.361 100.891 295.158 99.5529 291.648C98.2144 288.138 100.292 286.753 100.292 286.753Z" fill="#028090"/>
<path opacity="0.2" d="M100.292 286.753C100.292 286.753 98.5326 285.339 100.433 284.647C102.333 283.954 111.665 284.15 111.721 293.361C111.721 293.361 100.891 295.158 99.5529 291.648C98.2144 288.138 100.292 286.753 100.292 286.753Z" fill="white"/>
<path d="M78.2027 266.095C78.2027 266.095 79.9624 264.672 78.0623 263.98C76.1623 263.287 66.8303 263.484 66.7742 272.703C66.7742 272.703 77.6037 274.5 78.9422 270.99C80.2807 267.48 78.2027 266.095 78.2027 266.095Z" fill="#028090"/>
<path opacity="0.2" d="M78.2027 266.095C78.2027 266.095 79.9624 264.672 78.0623 263.98C76.1623 263.287 66.8303 263.484 66.7742 272.703C66.7742 272.703 77.6037 274.5 78.9422 270.99C80.2807 267.48 78.2027 266.095 78.2027 266.095Z" fill="white"/>
<path d="M83.9311 273.518C83.9311 273.518 84.0809 271.786 82.6956 272.469C81.3103 273.152 76.4525 278.375 81.4788 283.336C81.4788 283.336 88.2461 278.319 87.0293 275.717C85.8125 273.115 83.9311 273.518 83.9311 273.518Z" fill="#028090"/>
<path opacity="0.2" d="M83.9311 273.518C83.9311 273.518 84.0809 271.786 82.6956 272.469C81.3103 273.152 76.4525 278.375 81.4788 283.336C81.4788 283.336 88.2461 278.319 87.0293 275.717C85.8125 273.115 83.9311 273.518 83.9311 273.518Z" fill="white"/>
<path d="M101.865 275.97C101.865 275.97 100.807 274.594 102.351 274.425C103.896 274.257 110.775 276.091 109.175 282.971C109.175 282.971 100.751 282.334 100.414 279.48C100.077 276.625 101.865 275.97 101.865 275.97Z" fill="#028090"/>
<path opacity="0.2" d="M101.865 275.97C101.865 275.97 100.807 274.594 102.351 274.425C103.896 274.257 110.775 276.091 109.175 282.971C109.175 282.971 100.751 282.334 100.414 279.48C100.077 276.625 101.865 275.97 101.865 275.97Z" fill="white"/>
<path d="M73.504 340.292H102.305L105.412 308.767H70.3965L73.504 340.292Z" fill="#263238"/>
<path d="M68.8614 312.24H106.947V305.286H68.8614V312.24Z" fill="#263238"/>
<path opacity="0.2" d="M68.8614 312.24H106.947V305.286H68.8614V312.24Z" fill="white"/>
<path d="M162.48 83.2103H137.592L137.377 80.6925C137.369 80.6105 137.378 80.5277 137.404 80.4495C137.43 80.3714 137.473 80.2996 137.528 80.2387C137.584 80.1779 137.651 80.1293 137.727 80.0962C137.802 80.0632 137.884 80.0463 137.966 80.0466H161.61C161.785 80.0503 161.954 80.1179 162.083 80.2368C162.212 80.3557 162.293 80.5178 162.312 80.6925L162.48 83.2103Z" fill="#263238"/>
<path d="M134.4 83.2103H109.512L109.297 80.6925C109.289 80.6105 109.298 80.5277 109.324 80.4495C109.35 80.3714 109.393 80.2996 109.448 80.2387C109.504 80.1779 109.571 80.1293 109.647 80.0962C109.722 80.0632 109.804 80.0463 109.886 80.0466H133.53C133.705 80.0503 133.874 80.1179 134.003 80.2368C134.132 80.3557 134.213 80.5178 134.232 80.6925L134.4 83.2103Z" fill="#263238"/>
<path d="M332.813 81.3385H86.8326C86.0452 81.3249 85.2637 81.4771 84.5389 81.7851C83.8141 82.0932 83.1622 82.5503 82.6255 83.1267C82.0888 83.7031 81.6794 84.3859 81.4238 85.1308C81.1681 85.8757 81.072 86.6661 81.1417 87.4506L94.8167 249.182C94.9932 250.847 95.7752 252.39 97.0141 253.517C98.253 254.643 99.8626 255.276 101.537 255.294H347.518C348.305 255.308 349.087 255.156 349.812 254.847C350.537 254.539 351.188 254.082 351.725 253.506C352.262 252.93 352.671 252.247 352.927 251.502C353.182 250.757 353.279 249.966 353.209 249.182L339.534 87.4506C339.359 85.7844 338.578 84.2408 337.339 83.1136C336.099 81.9865 334.489 81.3546 332.813 81.3385Z" fill="#263238"/>
<path opacity="0.2" d="M347.518 255.294H105.281C103.607 255.276 101.997 254.643 100.758 253.517C99.5192 252.39 98.7372 250.847 98.5607 249.182L84.8857 87.4506C84.8161 86.6661 84.9121 85.8757 85.1678 85.1308C85.4234 84.3859 85.8328 83.7031 86.3695 83.1267C86.9062 82.5503 87.5581 82.0932 88.2829 81.7851C89.0077 81.4771 89.7892 81.3249 90.5766 81.3385H332.813C334.489 81.3546 336.099 81.9865 337.339 83.1136C338.578 84.2408 339.359 85.7844 339.534 87.4506L353.209 249.182C353.279 249.966 353.182 250.757 352.927 251.502C352.671 252.247 352.262 252.93 351.725 253.506C351.188 254.082 350.536 254.539 349.812 254.847C349.087 255.156 348.305 255.308 347.518 255.294Z" fill="white"/>
<path d="M335.79 250.268H108.492L94.6389 86.3555H321.937L335.79 250.268Z" fill="#028090"/>
<g opacity="0.5">
<path opacity="0.6" d="M97.8307 165.092C97.7749 164.648 97.5621 164.239 97.2307 163.939C96.8993 163.638 96.4713 163.466 96.0242 163.454C95.8128 163.449 95.6027 163.489 95.4079 163.571C95.213 163.653 95.0377 163.776 94.8936 163.93C94.7495 164.085 94.6397 164.269 94.5716 164.469C94.5035 164.669 94.4786 164.881 94.4985 165.092C94.5522 165.538 94.7641 165.949 95.0957 166.251C95.4273 166.554 95.8564 166.727 96.305 166.739C96.5173 166.744 96.7282 166.704 96.9238 166.622C97.1193 166.539 97.2951 166.416 97.4394 166.26C97.5837 166.104 97.6932 165.919 97.7606 165.718C97.8281 165.517 97.852 165.303 97.8307 165.092Z" fill="black"/>
<path opacity="0.6" d="M96.7074 171.532C96.6016 171.53 96.4967 171.55 96.3995 171.592C96.3022 171.634 96.2149 171.695 96.1433 171.773C96.0717 171.851 96.0174 171.943 95.9839 172.043C95.9504 172.144 95.9386 172.25 95.9492 172.355C95.9768 172.584 96.0875 172.794 96.2601 172.946C96.4327 173.098 96.6553 173.181 96.8852 173.179C96.9913 173.181 97.0966 173.16 97.1943 173.119C97.2919 173.077 97.3798 173.015 97.4521 172.938C97.5244 172.86 97.5797 172.768 97.6143 172.668C97.6488 172.568 97.6619 172.461 97.6527 172.355C97.625 172.125 97.513 171.914 97.3384 171.762C97.1638 171.61 96.9389 171.528 96.7074 171.532Z" fill="black"/>
</g>
<path opacity="0.5" d="M342.37 168.311C342.432 168.958 342.357 169.611 342.149 170.226C341.94 170.841 341.604 171.405 341.162 171.881C340.72 172.357 340.182 172.734 339.583 172.986C338.985 173.239 338.339 173.362 337.69 173.347C336.31 173.334 334.984 172.813 333.964 171.884C332.943 170.956 332.301 169.684 332.158 168.311C332.096 167.665 332.171 167.013 332.379 166.398C332.588 165.783 332.924 165.22 333.367 164.745C333.809 164.27 334.347 163.894 334.946 163.642C335.544 163.391 336.189 163.269 336.838 163.285C338.216 163.298 339.542 163.818 340.562 164.744C341.582 165.671 342.225 166.941 342.37 168.311Z" fill="black"/>
<path d="M84.9045 108.407H83.3039C83.1298 108.404 82.9627 108.338 82.8336 108.221C82.7046 108.104 82.6223 107.944 82.6019 107.771L81.4319 94.2924C81.4254 94.2103 81.4361 94.1277 81.4634 94.0501C81.4907 93.9724 81.5339 93.9013 81.5903 93.8413C81.6468 93.7813 81.7151 93.7339 81.791 93.7019C81.8669 93.67 81.9486 93.6543 82.031 93.6559H83.6315C83.8057 93.6592 83.9728 93.7255 84.1018 93.8425C84.2309 93.9595 84.3132 94.1193 84.3335 94.2924L85.4755 107.771C85.4832 107.851 85.4743 107.932 85.4492 108.008C85.4242 108.084 85.3835 108.155 85.3298 108.214C85.2762 108.274 85.2106 108.322 85.1374 108.356C85.0642 108.389 84.9849 108.406 84.9045 108.407Z" fill="#263238"/>
<path opacity="0.2" d="M84.9045 108.407H83.3039C83.1298 108.404 82.9627 108.338 82.8336 108.221C82.7046 108.104 82.6223 107.944 82.6019 107.771L81.4319 94.2924C81.4254 94.2103 81.4361 94.1277 81.4634 94.0501C81.4907 93.9724 81.5339 93.9013 81.5903 93.8413C81.6468 93.7813 81.7151 93.7339 81.791 93.7019C81.8669 93.67 81.9486 93.6543 82.031 93.6559H83.6315C83.8057 93.6592 83.9728 93.7255 84.1018 93.8425C84.2309 93.9595 84.3132 94.1193 84.3335 94.2924L85.4755 107.771C85.4832 107.851 85.4743 107.932 85.4492 108.008C85.4242 108.084 85.3835 108.155 85.3298 108.214C85.2762 108.274 85.2106 108.322 85.1374 108.356C85.0642 108.389 84.9849 108.406 84.9045 108.407Z" fill="white"/>
<path opacity="0.7" d="M335.79 250.268H108.492L94.6389 86.3555H321.937L335.79 250.268Z" fill="white"/>
<path opacity="0.1" d="M246.664 125.883L250.923 176.249H329.537L331.194 195.858H283.645L288.251 250.268H279.359L274.753 195.858H208.101L212.706 250.268H192.788L188.183 195.858H140.344L142.946 226.662L134.4 230.677L107.883 243.126L107.069 233.495L133.586 221.046L131.452 195.858H103.887L102.23 176.249H186.526L183.353 138.641L95.0039 90.7267L94.6389 86.365H104.72L182.492 128.541L178.935 86.365H198.853L206.444 176.249H242.031L234.44 86.365H243.332L245.925 117.122H324.539L325.279 125.883H246.664Z" fill="black"/>
<path opacity="0.4" d="M149.517 171.531H181.855L180.058 150.275H147.719L149.517 171.531Z" fill="white"/>
<path opacity="0.4" d="M145.585 157.865H131.704L132.856 171.531H146.746L145.585 157.865Z" fill="white"/>
<path opacity="0.4" d="M116.195 171.531H130.076L128.925 157.865H115.044L116.195 171.531Z" fill="white"/>
<path opacity="0.4" d="M122.55 110.654L106.386 101.968L102.848 109.082L119.003 117.777L122.55 110.654Z" fill="white"/>
<path opacity="0.4" d="M137.161 127.539L140.699 120.426L124.544 111.73L120.997 118.844L137.161 127.539Z" fill="white"/>
<path opacity="0.4" d="M155.31 137.311L158.848 130.188L142.693 121.502L139.155 128.616L155.31 137.311Z" fill="white"/>
<path opacity="0.4" d="M115.222 126.584H110.776C109.957 126.563 109.144 126.716 108.389 127.033C107.635 127.35 106.956 127.824 106.399 128.423C105.841 129.023 105.417 129.733 105.155 130.509C104.893 131.284 104.799 132.107 104.879 132.921L105.955 145.679C106.141 147.405 106.953 149.002 108.239 150.168C109.524 151.335 111.193 151.989 112.928 152.006H117.365C118.183 152.027 118.996 151.874 119.75 151.558C120.504 151.241 121.183 150.769 121.741 150.171C122.299 149.573 122.724 148.863 122.988 148.089C123.252 147.315 123.348 146.493 123.271 145.679L122.185 132.912C122.002 131.187 121.191 129.59 119.907 128.423C118.624 127.257 116.956 126.602 115.222 126.584Z" fill="white"/>
<path opacity="0.4" d="M234.861 150.275H208.943L210.628 170.202H236.546L234.861 150.275Z" fill="white"/>
<path opacity="0.4" d="M217.929 142.618H234.215L232.858 126.585H216.572L217.929 142.618Z" fill="white"/>
<path opacity="0.4" d="M222.225 103.84H205.021L206.454 120.781H223.657L222.225 103.84Z" fill="white"/>
<path opacity="0.4" d="M266.189 95.3691H248.985L250.417 112.311H267.63L266.189 95.3691Z" fill="white"/>
<path opacity="0.4" d="M255.313 170.202H277.281L276.494 160.908H254.526L255.313 170.202Z" fill="white"/>
<path opacity="0.4" d="M280.734 170.202H302.702L301.916 160.908H279.948L280.734 170.202Z" fill="white"/>
<path opacity="0.4" d="M306.166 170.202H322.209L321.422 160.908H305.379L306.166 170.202Z" fill="white"/>
<path opacity="0.4" d="M250.576 213.455C248.501 213.396 246.438 213.779 244.522 214.579C242.607 215.38 240.883 216.578 239.467 218.096C238.05 219.613 236.973 221.415 236.306 223.381C235.64 225.347 235.399 227.432 235.601 229.498C236.064 233.869 238.117 237.917 241.37 240.873C244.623 243.829 248.849 245.487 253.244 245.532C255.319 245.592 257.382 245.21 259.298 244.411C261.213 243.612 262.937 242.414 264.353 240.897C265.77 239.38 266.848 237.579 267.514 235.614C268.181 233.648 268.422 231.564 268.22 229.498C267.759 225.125 265.706 221.075 262.453 218.117C259.2 215.159 254.973 213.499 250.576 213.455Z" fill="white"/>
<path opacity="0.4" d="M315.713 152.158C319.232 147.731 318.175 141.033 313.351 137.199C308.527 133.365 301.764 133.846 298.245 138.273C294.726 142.7 295.784 149.397 300.608 153.231C305.431 157.065 312.194 156.585 315.713 152.158Z" fill="white"/>
<path opacity="0.4" d="M233.214 200.903H213.221L214.288 213.455H234.281L233.214 200.903Z" fill="white"/>
<path opacity="0.4" d="M293.38 232.165H304.733L302.094 200.903H290.74L293.38 232.165Z" fill="white"/>
<path opacity="0.4" d="M307.766 200.903L308.833 213.455H328.873L327.815 200.903H307.766Z" fill="white"/>
<path opacity="0.4" d="M114.8 213.455H127.558L126.5 200.903H113.743L114.8 213.455Z" fill="white"/>
<path opacity="0.4" d="M150.743 218.799H171.288L169.893 202.279H149.339L150.743 218.799Z" fill="white"/>
<path opacity="0.4" d="M149.292 245.644H186.891L185.918 234.112H148.319L149.292 245.644Z" fill="white"/>
<path opacity="0.4" d="M153.41 103.606L173.946 114.426L172.383 95.9399H152.755L153.41 103.606Z" fill="white"/>
<path d="M191.281 90.221C189.697 88.7492 187.604 87.9488 185.442 87.9877C183.28 88.0266 181.217 88.9019 179.686 90.4298C178.156 91.9576 177.278 94.0191 177.235 96.1811C177.193 98.3431 177.99 100.437 179.459 102.024L185.365 107.93L191.281 102.024C192.843 100.457 193.72 98.335 193.72 96.1225C193.72 93.91 192.843 91.7878 191.281 90.221ZM187.668 98.4297C187.213 98.8855 186.632 99.1959 186 99.3217C185.368 99.4476 184.713 99.3832 184.118 99.1367C183.523 98.8902 183.014 98.4727 182.656 97.937C182.298 97.4013 182.107 96.7715 182.107 96.1272C182.107 95.4829 182.298 94.853 182.656 94.3173C183.014 93.7816 183.523 93.3641 184.118 93.1176C184.713 92.8712 185.368 92.8068 186 92.9326C186.632 93.0585 187.213 93.3689 187.668 93.8246C187.971 94.1264 188.212 94.4852 188.376 94.8804C188.541 95.2755 188.625 95.6992 188.625 96.1272C188.625 96.5551 188.541 96.9788 188.376 97.374C188.212 97.7691 187.971 98.1279 187.668 98.4297Z" fill="#263238"/>
<path opacity="0.2" d="M191.281 102.024L185.328 107.949V99.3848C186.197 99.3848 187.03 99.0396 187.644 98.4252C188.259 97.8109 188.604 96.9776 188.604 96.1088C188.604 95.2399 188.259 94.4067 187.644 93.7923C187.03 93.1779 186.197 92.8328 185.328 92.8328V87.7316C186.988 87.7228 188.612 88.2078 189.996 89.1249C191.379 90.0421 192.458 91.3498 193.097 92.882C193.735 94.4141 193.903 96.1014 193.58 97.7293C193.256 99.3573 192.456 100.852 191.281 102.024Z" fill="white"/>
<path d="M301.242 147.186C300.466 146.41 299.544 145.794 298.53 145.374C297.516 144.954 296.429 144.738 295.331 144.738C294.234 144.738 293.147 144.954 292.132 145.374C291.118 145.794 290.197 146.41 289.42 147.186C288.644 147.962 288.029 148.884 287.608 149.898C287.188 150.912 286.972 151.999 286.972 153.097C286.972 154.195 287.188 155.282 287.608 156.296C288.029 157.31 288.644 158.232 289.42 159.008L295.327 164.914L301.242 159.008C302.018 158.232 302.634 157.31 303.054 156.296C303.475 155.282 303.691 154.195 303.691 153.097C303.691 151.999 303.475 150.912 303.054 149.898C302.634 148.884 302.018 147.962 301.242 147.186ZM297.648 155.376C297.192 155.832 296.612 156.142 295.98 156.268C295.348 156.394 294.693 156.33 294.098 156.083C293.503 155.837 292.994 155.419 292.636 154.883C292.278 154.348 292.087 153.718 292.087 153.074C292.087 152.429 292.278 151.799 292.636 151.264C292.994 150.728 293.503 150.311 294.098 150.064C294.693 149.818 295.348 149.753 295.98 149.879C296.612 150.005 297.192 150.315 297.648 150.771C297.951 151.073 298.192 151.432 298.356 151.827C298.521 152.222 298.605 152.646 298.605 153.074C298.605 153.502 298.521 153.925 298.356 154.32C298.192 154.716 297.951 155.074 297.648 155.376Z" fill="#263238"/>
<path opacity="0.2" d="M301.242 159.008L295.327 164.914V156.312C296.195 156.312 297.029 155.967 297.643 155.353C298.257 154.738 298.603 153.905 298.603 153.036C298.603 152.167 298.257 151.334 297.643 150.72C297.029 150.105 296.195 149.76 295.327 149.76V144.659C296.979 144.661 298.594 145.153 299.968 146.072C301.341 146.991 302.412 148.296 303.045 149.823C303.677 151.35 303.844 153.03 303.523 154.651C303.202 156.272 302.409 157.762 301.242 158.933V159.008Z" fill="white"/>
<path d="M188.641 224.172C187.074 222.605 184.948 221.724 182.731 221.724C180.514 221.724 178.387 222.605 176.82 224.172C175.252 225.74 174.371 227.866 174.371 230.083C174.371 232.3 175.252 234.426 176.82 235.994L182.726 241.9L188.641 235.994C189.418 235.218 190.034 234.296 190.454 233.282C190.874 232.268 191.09 231.181 191.09 230.083C191.09 228.985 190.874 227.898 190.454 226.884C190.034 225.87 189.418 224.948 188.641 224.172ZM185.028 232.381C184.573 232.837 183.993 233.147 183.361 233.273C182.729 233.399 182.074 233.334 181.478 233.088C180.883 232.841 180.374 232.424 180.016 231.888C179.658 231.353 179.467 230.723 179.467 230.078C179.467 229.434 179.658 228.804 180.016 228.269C180.374 227.733 180.883 227.315 181.478 227.069C182.074 226.822 182.729 226.758 183.361 226.884C183.993 227.01 184.573 227.32 185.028 227.776C185.332 228.078 185.573 228.436 185.737 228.832C185.901 229.227 185.986 229.65 185.986 230.078C185.986 230.506 185.901 230.93 185.737 231.325C185.573 231.72 185.332 232.079 185.028 232.381Z" fill="#263238"/>
<path opacity="0.2" d="M188.641 235.993L182.726 241.899V233.335C183.595 233.335 184.428 232.99 185.042 232.376C185.657 231.761 186.002 230.928 186.002 230.059C186.002 229.19 185.657 228.357 185.042 227.743C184.428 227.128 183.595 226.783 182.726 226.783V221.682C184.378 221.684 185.993 222.176 187.367 223.095C188.741 224.014 189.811 225.319 190.444 226.846C191.077 228.373 191.243 230.053 190.922 231.674C190.602 233.295 189.808 234.785 188.641 235.956V235.993Z" fill="white"/>
<path opacity="0.2" d="M310.696 94.5356H213.183C211.795 94.5381 210.464 95.0914 209.483 96.0741C208.502 97.0569 207.951 98.3887 207.951 99.7772V135.027C207.951 136.415 208.502 137.745 209.484 138.727C210.465 139.708 211.796 140.259 213.183 140.259H284.46L293.904 147.569L291.096 140.231H310.752C312.14 140.231 313.471 139.68 314.452 138.699C315.433 137.717 315.984 136.387 315.984 134.999V99.7491C315.981 99.0592 315.841 98.3768 315.573 97.741C315.305 97.1053 314.914 96.5287 314.423 96.0443C313.931 95.5599 313.349 95.1773 312.71 94.9184C312.07 94.6595 311.386 94.5294 310.696 94.5356Z" fill="black"/>
<path d="M313.504 91.7277H215.991C214.603 91.7302 213.272 92.2836 212.291 93.2663C211.31 94.249 210.759 95.5808 210.759 96.9694V132.219C210.759 133.607 211.31 134.938 212.292 135.919C213.273 136.9 214.604 137.451 215.991 137.451H287.268L293.904 147.57V137.423H313.56C314.948 137.423 316.279 136.872 317.26 135.891C318.241 134.91 318.792 133.579 318.792 132.191V96.9413C318.789 96.2514 318.649 95.5689 318.381 94.9332C318.113 94.2974 317.722 93.7208 317.231 93.2364C316.739 92.7521 316.157 92.3695 315.518 92.1106C314.878 91.8517 314.194 91.7216 313.504 91.7277Z" fill="#028090"/>
<path opacity="0.7" d="M249.547 101.603V127.53C249.549 127.933 249.456 128.33 249.276 128.69C249.279 128.718 249.279 128.747 249.276 128.775C249.223 128.872 249.164 128.966 249.098 129.055C248.855 129.397 248.534 129.676 248.162 129.87C247.885 130.019 247.584 130.118 247.273 130.16C247.185 130.17 247.098 130.17 247.01 130.16H220.802C220.625 130.152 220.449 130.123 220.278 130.076H220.203C220.014 130.014 219.832 129.932 219.661 129.832C219.541 129.768 219.428 129.693 219.324 129.608C219.104 129.438 218.914 129.232 218.762 128.999C218.505 128.615 218.356 128.169 218.331 127.708C218.327 127.648 218.327 127.589 218.331 127.53V101.603C218.331 100.912 218.6 100.248 219.08 99.7521C219.56 99.2559 220.215 98.9662 220.905 98.9443H246.908C247.609 98.9493 248.281 99.2315 248.775 99.7295C249.27 100.227 249.547 100.901 249.547 101.603Z" fill="white"/>
<path d="M305.305 110.036H261.2C261.048 110.036 260.897 110.006 260.756 109.948C260.615 109.889 260.487 109.804 260.38 109.696C260.272 109.588 260.186 109.46 260.128 109.32C260.07 109.179 260.04 109.028 260.04 108.875C260.042 108.569 260.165 108.276 260.383 108.061C260.6 107.845 260.894 107.724 261.2 107.724H305.305C305.61 107.724 305.903 107.845 306.119 108.061C306.335 108.277 306.456 108.57 306.456 108.875C306.457 109.027 306.428 109.178 306.371 109.319C306.314 109.46 306.229 109.588 306.122 109.696C306.015 109.803 305.888 109.889 305.747 109.948C305.607 110.006 305.457 110.036 305.305 110.036Z" fill="white"/>
<path d="M291.143 98.9444H261.687C261.461 98.9273 261.234 98.9571 261.02 99.0319C260.805 99.1067 260.609 99.2249 260.443 99.3791C260.276 99.5333 260.144 99.7202 260.053 99.9281C259.962 100.136 259.916 100.36 259.916 100.587C259.916 100.814 259.962 101.038 260.053 101.246C260.144 101.454 260.276 101.641 260.443 101.795C260.609 101.949 260.805 102.067 261.02 102.142C261.234 102.217 261.461 102.247 261.687 102.23H291.143C291.557 102.198 291.944 102.012 292.227 101.707C292.509 101.403 292.666 101.002 292.666 100.587C292.666 100.172 292.509 99.7715 292.227 99.4669C291.944 99.1623 291.557 98.9757 291.143 98.9444Z" fill="white"/>
<path d="M287.521 114.791H261.2C260.893 114.789 260.599 114.665 260.382 114.448C260.165 114.231 260.042 113.937 260.04 113.63C260.042 113.323 260.165 113.03 260.382 112.812C260.599 112.595 260.893 112.472 261.2 112.47H287.521C287.827 112.472 288.12 112.596 288.335 112.813C288.551 113.03 288.672 113.324 288.672 113.63C288.672 113.937 288.551 114.23 288.335 114.448C288.12 114.665 287.827 114.789 287.521 114.791Z" fill="white"/>
<path d="M229.414 99.5059C230.961 98.1522 232.824 97.2102 234.831 96.7669C236.838 96.3236 238.925 96.3932 240.898 96.9694C247.553 99.0379 244.642 111.421 244.642 111.421C245.755 112.677 246.5 114.214 246.796 115.866C247.091 117.517 246.926 119.218 246.318 120.781C244.24 126.276 228.347 127.492 222.965 122.747C217.583 118.001 223.844 106.086 226.924 104.701C230.003 103.315 229.414 99.5059 229.414 99.5059Z" fill="#263238"/>
<path d="M248.143 129.87C247.866 130.019 247.565 130.117 247.254 130.16C247.167 130.169 247.079 130.169 246.992 130.16H220.784C220.606 130.151 220.431 130.123 220.26 130.075H220.185C219.996 130.014 219.814 129.932 219.642 129.832C219.523 129.768 219.41 129.693 219.305 129.607C219.085 129.437 218.895 129.232 218.743 128.999C218.659 128.587 218.575 128.157 218.481 127.726C220.353 127.408 222.15 127.155 224.004 126.987C225.37 126.856 226.746 126.771 228.131 126.725C228.796 126.725 229.47 126.725 230.134 126.668C232.399 126.668 234.674 126.668 236.93 126.893L238.381 127.024C240.505 127.286 242.752 127.698 244.511 128.054C246.271 128.409 247.731 128.746 247.731 128.746C247.731 128.746 247.984 128.84 248.143 129.87Z" fill="#028090"/>
<path opacity="0.3" d="M248.143 129.87C247.866 130.019 247.565 130.117 247.254 130.16C247.167 130.169 247.079 130.169 246.992 130.16H220.784C220.606 130.151 220.431 130.123 220.26 130.075H220.185C219.996 130.014 219.814 129.932 219.642 129.832C219.523 129.768 219.41 129.693 219.305 129.607C219.085 129.437 218.895 129.232 218.743 128.999C218.659 128.587 218.575 128.157 218.481 127.726C220.353 127.408 222.15 127.155 224.004 126.987C225.37 126.856 226.746 126.771 228.131 126.725C228.796 126.725 229.47 126.725 230.134 126.668C232.399 126.668 234.674 126.668 236.93 126.893L238.381 127.024C240.505 127.286 242.752 127.698 244.511 128.054C246.271 128.409 247.731 128.746 247.731 128.746C247.731 128.746 247.984 128.84 248.143 129.87Z" fill="black"/>
<path d="M237.744 130.188H231.96C230.823 129.616 229.855 128.758 229.152 127.698C229.558 127.409 229.921 127.062 230.228 126.669C230.507 126.326 230.74 125.948 230.921 125.545C231.608 123.783 231.742 121.854 231.304 120.014C231.164 119.312 231.005 118.825 230.977 118.722L237.529 120.865C237.398 121.305 237.295 121.717 237.201 122.101C237.061 122.672 236.967 123.187 236.892 123.645C236.792 124.264 236.758 124.891 236.789 125.517C236.799 125.987 236.898 126.451 237.079 126.884C237.473 127.82 238.128 127.942 238.128 127.942C238.259 128.318 238.292 128.721 238.225 129.114C238.158 129.507 237.993 129.876 237.744 130.188Z" fill="#E4897B"/>
<path opacity="0.2" d="M237.388 120.837C237.115 121.758 236.902 122.696 236.752 123.645C233.635 122.466 230.883 118.722 230.883 118.722L237.388 120.837Z" fill="black"/>
<path d="M233.925 101.556C239.756 100.976 241.956 103.915 242.976 109.886C244.259 117.374 243.126 122.859 235.666 121.979C225.576 120.744 224.228 102.52 233.925 101.556Z" fill="#E4897B"/>
<path d="M239.167 109.933C239.722 110.761 240.376 111.519 241.114 112.189C240.966 112.447 240.75 112.66 240.489 112.804C240.228 112.947 239.932 113.016 239.635 113.003L239.167 109.933Z" fill="#DE5753"/>
<path d="M235.544 109.811C235.61 110.289 235.395 110.747 235.076 110.747C234.758 110.747 234.449 110.429 234.393 109.952C234.337 109.474 234.543 109.016 234.861 109.016C235.179 109.016 235.488 109.334 235.544 109.811Z" fill="#263238"/>
<path d="M234.73 109.053L235.722 108.52C235.722 108.52 235.31 109.456 234.73 109.053Z" fill="#263238"/>
<path d="M241.488 108.978C241.544 109.456 241.338 109.914 241.011 109.914C240.683 109.914 240.393 109.606 240.327 109.119C240.262 108.632 240.487 108.183 240.805 108.183C241.123 108.183 241.423 108.501 241.488 108.978Z" fill="#263238"/>
<path d="M240.674 108.229L241.666 107.687C241.666 107.687 241.254 108.632 240.674 108.229Z" fill="#263238"/>
<path d="M232.643 107.256C232.576 107.256 232.511 107.237 232.456 107.2C232.383 107.149 232.333 107.072 232.315 106.984C232.298 106.897 232.315 106.807 232.362 106.732C232.686 106.32 233.102 105.989 233.577 105.766C234.051 105.544 234.571 105.435 235.095 105.449C235.185 105.452 235.271 105.489 235.334 105.554C235.397 105.619 235.432 105.706 235.432 105.796C235.421 105.884 235.379 105.965 235.314 106.025C235.249 106.085 235.165 106.12 235.076 106.123C234.667 106.116 234.261 106.201 233.889 106.371C233.516 106.541 233.186 106.792 232.924 107.106C232.894 107.154 232.853 107.192 232.803 107.219C232.754 107.245 232.699 107.258 232.643 107.256Z" fill="#263238"/>
<path d="M241.685 105.702C241.632 105.716 241.578 105.716 241.525 105.702C241.221 105.509 240.877 105.386 240.519 105.344C240.161 105.302 239.798 105.341 239.457 105.459C239.376 105.499 239.283 105.505 239.198 105.476C239.113 105.447 239.043 105.385 239.003 105.305C238.963 105.224 238.957 105.131 238.986 105.046C239.015 104.961 239.077 104.89 239.157 104.851C239.595 104.684 240.064 104.62 240.53 104.664C240.996 104.708 241.445 104.858 241.844 105.103C241.883 105.124 241.918 105.152 241.947 105.187C241.975 105.221 241.997 105.261 242.01 105.303C242.023 105.346 242.027 105.391 242.023 105.435C242.019 105.48 242.005 105.523 241.984 105.562C241.95 105.609 241.905 105.646 241.852 105.67C241.8 105.695 241.742 105.706 241.685 105.702Z" fill="#263238"/>
<path d="M239.017 115.381C238.804 116.067 238.641 116.767 238.53 117.477C238.409 117.477 238.278 117.477 238.156 117.477C236.434 117.477 235.638 116.906 235.282 116.279C235.112 115.969 235.018 115.622 235.011 115.268C234.983 115.07 234.983 114.868 235.011 114.669C236.071 115.141 237.22 115.38 238.381 115.371C238.783 115.39 239.017 115.381 239.017 115.381Z" fill="#263238"/>
<path d="M238.427 115.371L238.268 115.989C236.658 115.989 235.516 115.755 235.011 115.268C234.983 115.07 234.983 114.868 235.011 114.669C236.086 115.147 237.251 115.387 238.427 115.371Z" fill="white"/>
<path d="M238.156 117.477C236.434 117.477 235.638 116.906 235.282 116.279C235.924 116.3 236.556 116.43 237.154 116.663C237.567 116.819 237.918 117.105 238.156 117.477Z" fill="#DE5753"/>
<path d="M228.515 112.03C228.515 112.03 230.771 106.956 229.994 103.297C229.994 103.297 241.095 97.4187 242.827 109.109C242.827 109.109 242.92 98.5699 232.867 99.3281C222.815 100.086 224.303 114.781 229.928 118.638C229.928 118.638 227.13 115.193 228.515 112.03Z" fill="#263238"/>
<path d="M229.591 113.162C229.531 112.831 229.405 112.515 229.222 112.232C229.039 111.949 228.802 111.705 228.525 111.514C228.248 111.323 227.936 111.188 227.606 111.117C227.277 111.047 226.937 111.042 226.606 111.103C224.818 111.477 224.322 115.277 228.908 115.727C229.573 115.783 229.872 115.128 229.591 113.162Z" fill="#E4897B"/>
<path d="M248.143 129.87C247.866 130.019 247.565 130.117 247.254 130.16C247.167 130.169 247.079 130.169 246.992 130.16H220.784C220.606 130.151 220.431 130.123 220.26 130.075H220.185C219.996 130.014 219.814 129.932 219.642 129.832C219.523 129.768 219.41 129.693 219.305 129.607C219.085 129.437 218.895 129.232 218.743 128.999C218.659 128.587 218.575 128.157 218.481 127.726C220.353 127.408 222.15 127.155 224.004 126.987C225.37 126.856 226.746 126.771 228.131 126.725C228.796 126.725 229.47 126.725 230.134 126.668C232.399 126.668 234.674 126.668 236.93 126.893L238.381 127.024C240.505 127.286 242.752 127.698 244.511 128.054C246.271 128.409 247.731 128.746 247.731 128.746C247.731 128.746 247.984 128.84 248.143 129.87Z" fill="#E4897B"/>
<path d="M225.454 130.188H220.774C220.597 130.18 220.421 130.152 220.25 130.104H220.175C219.986 130.042 219.804 129.961 219.632 129.861C219.513 129.797 219.4 129.722 219.296 129.636C219.076 129.466 218.886 129.26 218.734 129.028C218.477 128.644 218.328 128.197 218.303 127.736L223.508 126.117C223.508 126.117 223.695 126.435 223.994 127.053C224.294 127.67 224.902 128.812 225.454 130.188Z" fill="white"/>
<path d="M249.276 128.69C249.279 128.718 249.279 128.747 249.276 128.775C249.223 128.872 249.164 128.966 249.098 129.055C248.855 129.397 248.534 129.676 248.162 129.87C247.885 130.019 247.584 130.118 247.272 130.16C247.185 130.17 247.098 130.17 247.01 130.16H242.77C242.611 128.69 242.452 126.809 242.452 126.809L249.276 128.69Z" fill="white"/>
<path d="M233.925 101.556C233.925 101.556 235.058 108.96 228.244 111.328C220.016 114.192 219.614 122.728 226.989 124.806C226.989 124.806 219.501 123.028 218.687 117.861C217.873 112.694 223.096 105.637 223.096 105.637C223.096 105.637 221.345 101.135 228.019 98.6731C231.782 97.2878 233.925 101.556 233.925 101.556Z" fill="#263238"/>
<path d="M233.064 108.501C233.027 108.509 232.989 108.509 232.952 108.501C232.899 108.469 232.86 108.419 232.842 108.36C232.825 108.301 232.831 108.238 232.858 108.182C235.619 103.24 233.279 100.9 233.176 100.797C233.133 100.754 233.109 100.695 233.109 100.634C233.109 100.572 233.133 100.514 233.176 100.47C233.222 100.426 233.282 100.402 233.345 100.402C233.408 100.402 233.468 100.426 233.513 100.47C233.626 100.582 236.228 103.137 233.279 108.416C233.253 108.447 233.22 108.471 233.182 108.486C233.145 108.501 233.104 108.506 233.064 108.501Z" fill="#263238"/>
<path d="M245.288 123.299C245.257 123.299 245.225 123.292 245.196 123.279C245.167 123.266 245.141 123.247 245.12 123.224C245.097 123.203 245.08 123.178 245.067 123.15C245.055 123.121 245.049 123.091 245.049 123.06C245.049 123.03 245.055 122.999 245.067 122.971C245.08 122.943 245.097 122.918 245.12 122.897C245.861 122.248 246.453 121.448 246.857 120.55C247.261 119.652 247.467 118.677 247.46 117.692C247.338 114.023 243.95 111.075 243.922 111.047C243.899 111.026 243.881 111 243.869 110.972C243.857 110.944 243.851 110.914 243.851 110.883C243.851 110.852 243.857 110.822 243.869 110.794C243.881 110.766 243.899 110.74 243.922 110.719C243.965 110.676 244.024 110.652 244.085 110.652C244.147 110.652 244.206 110.676 244.249 110.719C244.399 110.85 247.825 113.827 247.993 117.702C248.003 118.752 247.787 119.792 247.359 120.752C246.931 121.711 246.301 122.567 245.513 123.262C245.483 123.288 245.446 123.306 245.406 123.312C245.366 123.319 245.325 123.314 245.288 123.299Z" fill="#263238"/>
<path opacity="0.2" d="M222.534 29.5308H125.022C123.633 29.5332 122.302 30.0866 121.321 31.0693C120.34 32.052 119.789 33.3838 119.789 34.7724V70.0221C119.789 71.4107 120.34 72.7425 121.321 73.7252C122.302 74.7079 123.633 75.2612 125.022 75.2637H174.461L182.52 90.0993L180.901 75.2637H222.497C223.887 75.2637 225.22 74.7115 226.203 73.7285C227.186 72.7455 227.738 71.4123 227.738 70.0221V34.7724C227.738 33.3887 227.191 32.0611 226.216 31.0792C225.241 30.0972 223.918 29.5406 222.534 29.5308Z" fill="black"/>
<path d="M225.342 26.7229H127.83C126.441 26.7254 125.11 27.2787 124.129 28.2614C123.148 29.2442 122.597 30.576 122.597 31.9645V67.2143C122.597 68.6028 123.148 69.9346 124.129 70.9173C125.11 71.9 126.441 72.4534 127.83 72.4559H177.269L182.52 90.0994L183.709 72.4559H225.305C226.695 72.4559 228.028 71.9036 229.011 70.9206C229.994 69.9376 230.546 68.6044 230.546 67.2143V31.9645C230.546 30.5808 229.999 29.2532 229.024 28.2713C228.049 27.2894 226.726 26.7328 225.342 26.7229Z" fill="#028090"/>
<path opacity="0.7" d="M161.395 36.6258V62.553C161.4 62.5871 161.4 62.6218 161.395 62.6559C161.383 63.0544 161.28 63.4449 161.095 63.7979C161.042 63.8956 160.983 63.9894 160.917 64.0786C160.589 64.5508 160.116 64.9026 159.569 65.0802C159.42 65.1288 159.266 65.1632 159.111 65.1831C159.024 65.1928 158.936 65.1928 158.849 65.1831H132.641C132.463 65.1749 132.287 65.1466 132.116 65.0989H132.042C131.852 65.0372 131.671 64.9556 131.499 64.8555C131.379 64.7916 131.267 64.7164 131.162 64.6309C130.994 64.5004 130.843 64.3495 130.712 64.1816C130.624 64.0689 130.548 63.9464 130.488 63.8166C130.269 63.4315 130.156 62.9956 130.16 62.553V36.6258C130.16 35.9351 130.428 35.2714 130.909 34.7753C131.389 34.2791 132.044 33.9894 132.734 33.9675H158.736C159.085 33.9675 159.431 34.0363 159.754 34.1699C160.076 34.3035 160.369 34.4993 160.616 34.7461C160.863 34.993 161.059 35.286 161.192 35.6085C161.326 35.931 161.395 36.2767 161.395 36.6258Z" fill="white"/>
<path d="M217.152 45.0592H173.038C172.732 45.0592 172.438 44.9383 172.221 44.7226C172.003 44.507 171.88 44.2142 171.878 43.908C171.878 43.6001 172 43.3049 172.218 43.0873C172.435 42.8696 172.73 42.7473 173.038 42.7473H217.152C217.46 42.7473 217.755 42.8696 217.973 43.0873C218.19 43.3049 218.313 43.6001 218.313 43.908C218.31 44.2142 218.187 44.507 217.969 44.7226C217.752 44.9383 217.458 45.0592 217.152 45.0592Z" fill="white"/>
<path d="M202.981 33.9676H173.525C173.299 33.9505 173.072 33.9803 172.858 34.0551C172.644 34.1299 172.447 34.2481 172.281 34.4023C172.115 34.5565 171.982 34.7434 171.891 34.9513C171.8 35.1591 171.754 35.3835 171.754 35.6102C171.754 35.837 171.8 36.0614 171.891 36.2692C171.982 36.4771 172.115 36.664 172.281 36.8182C172.447 36.9724 172.644 37.0906 172.858 37.1654C173.072 37.2402 173.299 37.27 173.525 37.2529H202.981C203.207 37.27 203.434 37.2402 203.648 37.1654C203.863 37.0906 204.059 36.9724 204.225 36.8182C204.392 36.664 204.524 36.4771 204.615 36.2692C204.706 36.0614 204.752 35.837 204.752 35.6102C204.752 35.3835 204.706 35.1591 204.615 34.9513C204.524 34.7434 204.392 34.5565 204.225 34.4023C204.059 34.2481 203.863 34.1299 203.648 34.0551C203.434 33.9803 203.207 33.9505 202.981 33.9676Z" fill="white"/>
<path d="M199.368 49.814H173.038C172.731 49.8115 172.437 49.6884 172.22 49.4713C172.003 49.2542 171.88 48.9604 171.878 48.6533C171.88 48.3463 172.003 48.0525 172.22 47.8353C172.437 47.6182 172.731 47.4951 173.038 47.4927H199.368C199.675 47.4951 199.969 47.6182 200.186 47.8353C200.403 48.0525 200.526 48.3463 200.529 48.6533C200.526 48.9604 200.403 49.2542 200.186 49.4713C199.969 49.6884 199.675 49.8115 199.368 49.814Z" fill="white"/>
<path d="M156.312 65.211H138.341C138.294 64.7754 138.294 64.3361 138.341 63.9006C138.341 63.7695 138.341 63.6479 138.341 63.5355C138.356 63.4313 138.378 63.3282 138.406 63.2267C138.473 62.7535 138.646 62.3017 138.914 61.9059C139.182 61.5101 139.536 61.1807 139.951 60.9428C140.306 60.8586 140.737 60.7743 141.224 60.6807L142.066 60.5403L142.918 60.4093C144.743 60.1395 146.586 60.0143 148.431 60.0349C149.019 60.0428 149.606 60.0803 150.191 60.1472C150.36 60.1623 150.529 60.1873 150.696 60.2221C151.644 60.3314 152.555 60.6512 153.364 61.1581C153.948 61.5923 154.46 62.1167 154.88 62.7119C155.124 63.0453 155.349 63.3922 155.554 63.7508C155.84 64.2192 156.094 64.7071 156.312 65.211Z" fill="#263238"/>
<path d="M161.385 62.6559C161.373 63.0544 161.271 63.4449 161.086 63.7978C161.033 63.8955 160.974 63.9894 160.908 64.0786C160.58 64.5508 160.107 64.9025 159.56 65.0801C159.411 65.1287 159.257 65.1632 159.101 65.1831C159.014 65.1928 158.926 65.1928 158.839 65.1831H132.631C132.454 65.1748 132.278 65.1466 132.107 65.0989H132.032C131.843 65.0372 131.661 64.9556 131.489 64.8555C131.37 64.7916 131.257 64.7164 131.152 64.6309C130.984 64.5004 130.834 64.3495 130.703 64.1816C131.873 64.0693 133.511 63.9195 135.495 63.7604L137.367 63.6106L138.051 63.5545H138.35L140.325 63.4141C140.466 63.4141 140.615 63.4141 140.774 63.4141C142.646 63.2737 144.743 63.152 146.886 63.0397L150.312 62.8899L152.718 62.8057H153.438H154.15H154.908H155.198H156.321C158.053 62.6465 159.728 62.6372 161.385 62.6559Z" fill="#263238"/>
<path opacity="0.8" d="M161.385 62.6559C161.373 63.0544 161.271 63.4449 161.086 63.7978C161.033 63.8955 160.974 63.9894 160.908 64.0786C160.58 64.5508 160.107 64.9025 159.56 65.0801C159.411 65.1287 159.257 65.1632 159.101 65.1831C159.014 65.1928 158.926 65.1928 158.839 65.1831H132.631C132.454 65.1748 132.278 65.1466 132.107 65.0989H132.032C131.843 65.0372 131.661 64.9556 131.489 64.8555C131.37 64.7916 131.257 64.7164 131.152 64.6309C130.984 64.5004 130.834 64.3495 130.703 64.1816C131.873 64.0693 133.511 63.9195 135.495 63.7604L137.367 63.6106L138.051 63.5545H138.35L140.325 63.4141C140.466 63.4141 140.615 63.4141 140.774 63.4141C142.646 63.2737 144.743 63.152 146.886 63.0397L150.312 62.8899L152.718 62.8057H153.438H154.15H154.908H155.198H156.321C158.053 62.6465 159.728 62.6372 161.385 62.6559Z" fill="white"/>
<path opacity="0.2" d="M143.816 52.0605C143.741 57.4051 148 59.2209 150.116 59.6889C149.914 58.6881 149.914 57.6571 150.116 56.6563L143.816 52.0605Z" fill="black"/>
<path d="M154.88 65.2112H140.222L138.35 63.9008L137.994 63.6481L138.097 63.5545L138.462 63.2269L139.998 61.8416L141.28 60.6809L142.169 59.876L142.3 59.9602L142.983 60.4095L146.952 62.9929L149.62 64.7432L150.378 62.8712L150.939 61.4485H151.024L153.504 62.7121L153.757 62.8431C153.96 62.948 154.144 63.0874 154.3 63.2549C154.462 63.4266 154.592 63.6264 154.683 63.8446C154.709 63.8991 154.731 63.9554 154.749 64.0131C154.891 64.3954 154.936 64.8071 154.88 65.2112Z" fill="white"/>
<path d="M155.666 35.2779C158.324 36.8223 158.914 43.3087 155.245 47.5675C151.576 51.8263 147.907 36.3355 147.907 36.3355C147.907 36.3355 153.972 34.2951 155.666 35.2779Z" fill="#263238"/>
<path d="M143.975 57.2456C145.229 58.3892 146.82 59.0929 148.51 59.25C150.199 59.4071 151.893 59.009 153.335 58.116C155.224 56.9818 156.609 55.1713 157.211 53.0523C157.295 52.7621 157.36 52.4626 157.426 52.1163C158.362 46.5003 156.967 37.4304 150.79 35.3619C149.426 34.8963 147.967 34.788 146.55 35.0474C145.133 35.3067 143.806 35.9251 142.696 36.8433C141.587 37.7616 140.731 38.949 140.211 40.2923C139.691 41.6356 139.524 43.0898 139.726 44.5159C140.512 50.6748 140.662 54.2878 143.975 57.2456Z" fill="#E4897B"/>
<path d="M149.198 45.6862C149.198 46.1822 149.517 46.6222 149.844 46.5473C150.172 46.4724 150.406 46.1074 150.378 45.6113C150.35 45.1152 150.05 44.7314 149.732 44.7502C149.414 44.7689 149.17 45.1807 149.198 45.6862Z" fill="#263238"/>
<path d="M154.852 45.3213C154.852 45.8267 155.179 46.2573 155.507 46.1918C155.835 46.1262 156.069 45.7425 156.041 45.2558C156.012 44.769 155.713 44.3198 155.385 44.3853C155.058 44.4508 154.824 44.8533 154.852 45.3213Z" fill="#263238"/>
<path d="M153.073 45.6863C153.764 47.1785 154.659 48.5676 155.732 49.814C155.403 50.0814 155.02 50.2735 154.609 50.377C154.199 50.4805 153.77 50.4928 153.354 50.4131L153.073 45.6863Z" fill="#DE5753"/>
<path d="M156.789 42.7752C156.744 42.8024 156.692 42.8168 156.64 42.8168C156.587 42.8168 156.535 42.8024 156.49 42.7752C156.168 42.5941 155.809 42.4897 155.441 42.4702C155.072 42.4508 154.704 42.5167 154.365 42.6628C154.332 42.6853 154.294 42.7006 154.255 42.7077C154.215 42.7148 154.174 42.7137 154.135 42.7043C154.096 42.6949 154.06 42.6775 154.028 42.6532C153.996 42.6289 153.969 42.5982 153.949 42.5631C153.93 42.5279 153.918 42.4891 153.914 42.4491C153.91 42.4091 153.915 42.3687 153.928 42.3306C153.94 42.2925 153.961 42.2574 153.988 42.2275C154.015 42.1977 154.048 42.1739 154.084 42.1574C154.508 41.9626 154.971 41.8712 155.436 41.8908C155.902 41.9103 156.356 42.0402 156.761 42.2697C156.796 42.2866 156.827 42.3103 156.852 42.3393C156.878 42.3683 156.897 42.4022 156.909 42.4388C156.922 42.4754 156.926 42.514 156.923 42.5525C156.92 42.591 156.91 42.6285 156.892 42.6628C156.864 42.705 156.829 42.7428 156.789 42.7752Z" fill="#263238"/>
<path d="M147.935 43.4962C147.88 43.5109 147.822 43.5109 147.766 43.4962C147.739 43.4692 147.718 43.4371 147.703 43.4018C147.688 43.3664 147.681 43.3285 147.681 43.2902C147.681 43.252 147.688 43.2141 147.703 43.1787C147.718 43.1434 147.739 43.1113 147.766 43.0843C148.095 42.7523 148.499 42.5035 148.943 42.3586C149.388 42.2137 149.86 42.1769 150.322 42.2513C150.398 42.2691 150.465 42.3165 150.507 42.3831C150.549 42.4496 150.563 42.53 150.546 42.607C150.526 42.6819 150.478 42.7462 150.412 42.7864C150.346 42.8265 150.266 42.8394 150.191 42.8222C149.824 42.7756 149.453 42.8138 149.104 42.9339C148.755 43.054 148.438 43.2528 148.178 43.5149C148.139 43.5303 148.097 43.5366 148.054 43.5333C148.012 43.5301 147.971 43.5174 147.935 43.4962Z" fill="#263238"/>
<path d="M143.779 36.6072L143.985 37.5432C143.161 38.1141 143.152 40.9315 143.685 41.9517C144.809 44.1233 143.91 47.783 142.328 49.3836C142.328 49.3836 142.169 48.4476 141.392 48.7377C140.615 49.0279 141.392 54.1572 143.264 56.4129C143.264 56.4129 140.569 54.4754 138.584 49.2619C136.712 44.4321 136.123 40.3137 136.937 38.2733L143.779 36.6072Z" fill="#263238"/>
<path d="M137.395 49.7764C138.165 51.1234 139.437 52.1099 140.934 52.5188C142.918 53.043 143.891 51.2552 143.32 49.3926C142.796 47.7452 141.149 45.424 139.155 45.7422C138.722 45.8109 138.313 45.9875 137.966 46.2558C137.619 46.5241 137.346 46.8754 137.17 47.2773C136.995 47.6793 136.924 48.1189 136.963 48.5556C137.002 48.9924 137.151 49.4122 137.395 49.7764Z" fill="#E4897B"/>
<path d="M153.073 52.023C152.803 52.7579 152.587 53.5119 152.428 54.2788H152.016C150.144 54.1758 149.32 53.5112 148.964 52.8092C148.803 52.4605 148.723 52.0796 148.73 51.6954C148.729 51.4766 148.761 51.2589 148.824 51.0496C149.947 51.6169 151.179 51.9361 152.437 51.9856C152.648 52.0094 152.861 52.0219 153.073 52.023Z" fill="#263238"/>
<path d="M152.437 51.9761L152.231 52.6407C150.471 52.5377 149.255 52.2288 148.73 51.7047C148.729 51.4859 148.761 51.2682 148.824 51.0588C149.949 51.6197 151.181 51.9325 152.437 51.9761Z" fill="white"/>
<path d="M152.016 54.2879C150.144 54.1849 149.32 53.5204 148.964 52.8184C149.673 52.8709 150.367 53.0483 151.014 53.3425C151.439 53.545 151.789 53.8757 152.016 54.2879Z" fill="#DE5753"/>
<path d="M155.217 52.3131C154.855 51.8064 154.332 51.4376 153.734 51.2675C153.135 51.0974 152.496 51.1361 151.922 51.3771C151.314 50.677 150.473 50.2213 149.554 50.0948C148.946 50.0694 148.339 50.1656 147.768 50.3778C147.198 50.5899 146.675 50.9138 146.231 51.3303C146.121 51.4485 146.017 51.5736 145.922 51.7047C145.629 52.1475 145.417 52.6387 145.295 53.1555C144.997 54.3906 145.033 55.6827 145.398 56.8995C145.584 57.5902 145.923 58.2301 146.39 58.7715C146.798 59.2363 147.308 59.6014 147.879 59.8386C148.085 59.9228 148.281 59.9883 148.487 60.0538C149.07 60.226 149.677 60.2988 150.284 60.2691C150.443 60.2691 150.593 60.2691 150.752 60.2691C151.582 60.1733 152.378 59.8826 153.074 59.4206C153.77 58.9586 154.347 58.3385 154.758 57.6109C154.917 57.309 155.055 56.9962 155.17 56.6749C155.807 54.9714 155.881 53.0432 155.217 52.3131ZM147.149 52.1259C147.234 51.8097 147.401 51.5214 147.632 51.2898C147.864 51.0582 148.152 50.8915 148.468 50.8062C149.049 50.648 149.662 50.6517 150.241 50.8166C150.82 50.9816 151.343 51.3016 151.754 51.7422C151.754 51.7422 154.384 50.6938 154.74 53.5393C155.095 56.3847 153.167 57.7606 152.035 57.0399C150.902 56.3192 151.866 55.0275 151.866 55.0275L150.631 54.6812C150.692 55.3238 150.508 55.9658 150.116 56.4783L150.031 56.5813C149.913 56.732 149.764 56.8558 149.594 56.9443C149.424 57.0329 149.237 57.0842 149.046 57.0948C148.855 57.1055 148.663 57.0752 148.485 57.006C148.306 56.9368 148.144 56.8303 148.01 56.6936C147.399 56.0528 147.031 55.2183 146.971 54.3349C146.858 53.5947 146.919 52.8385 147.149 52.1259Z" fill="#263238"/>
<path d="M142.534 38.2636C143.48 37.6079 144.572 37.1957 145.715 37.0634C146.858 36.9312 148.016 37.083 149.086 37.5055C152.484 38.6848 153.467 39.0405 154.599 36.504C155.732 33.9674 153.729 28.1548 149.105 27.977C144.481 27.7992 141.664 33.8176 141.664 33.8176C141.664 33.8176 134.391 36.4946 136.89 43.2619L142.534 38.2636Z" fill="#263238"/>
<path d="M130.712 64.1815C130.624 64.0689 130.548 63.9464 130.488 63.8165L136.656 62.6184L136.955 62.5623L137.452 63.6106C137.657 64.0318 137.91 64.5466 138.228 65.2111H132.697C132.519 65.2029 132.344 65.1746 132.173 65.1269H132.098C131.909 65.0652 131.727 64.9837 131.555 64.8835C131.435 64.8197 131.323 64.7444 131.218 64.6589C131.028 64.5236 130.858 64.3629 130.712 64.1815Z" fill="#263238"/>
<path d="M161.394 62.1783V62.5527C161.4 62.5868 161.4 62.6215 161.394 62.6556C161.383 63.0541 161.28 63.4446 161.095 63.7976C161.042 63.8953 160.983 63.9891 160.917 64.0784C160.589 64.5505 160.116 64.9023 159.569 65.0799C159.42 65.1285 159.266 65.1629 159.111 65.1828C159.024 65.1925 158.936 65.1925 158.849 65.1828H156.134C155.956 64.6306 155.797 64.1345 155.647 63.7133C155.498 63.2921 155.376 62.9458 155.264 62.665C155.076 62.1689 154.955 61.8788 154.927 61.8132L161.394 62.1783Z" fill="#263238"/>
<path d="M140.971 65.2113H134.569C134.835 64.6995 135.148 64.2138 135.505 63.7605C135.849 63.3419 136.235 62.9593 136.656 62.6186C137.617 61.769 138.786 61.1906 140.044 60.9431C139.986 61.2524 139.986 61.5698 140.044 61.8791C140.132 62.4052 140.258 62.9244 140.419 63.4329C140.512 63.9383 140.718 64.5842 140.971 65.2113Z" fill="#263238"/>
<path d="M159.56 65.0802C159.411 65.1288 159.257 65.1633 159.101 65.1832C159.014 65.1928 158.926 65.1928 158.839 65.1832H155.161C155.03 64.7901 154.899 64.4063 154.758 64.0319C154.74 63.9742 154.719 63.9179 154.693 63.8634C154.543 63.4609 154.384 63.0772 154.206 62.6934C153.975 62.1527 153.716 61.6247 153.429 61.1116C153.927 61.3144 154.414 61.5424 154.889 61.7948C155.31 62.0101 155.825 62.2816 156.349 62.6279C157.489 63.3508 158.563 64.1713 159.56 65.0802Z" fill="#263238"/>
<path opacity="0.2" d="M196.476 172.523H98.9727C97.5841 172.523 96.2523 173.074 95.2696 174.055C94.2869 175.036 93.7335 176.367 93.7311 177.755V213.014C93.7335 214.403 94.2869 215.734 95.2696 216.715C96.2523 217.696 97.5841 218.247 98.9727 218.247H170.24L179.656 223.788L176.848 218.247H196.504C197.892 218.247 199.224 217.696 200.207 216.715C201.19 215.734 201.743 214.403 201.745 213.014V177.755C201.744 177.065 201.607 176.382 201.341 175.746C201.075 175.109 200.687 174.531 200.197 174.045C199.707 173.559 199.127 173.174 198.488 172.913C197.85 172.652 197.166 172.519 196.476 172.523Z" fill="black"/>
<path d="M199.284 169.715H101.781C100.392 169.715 99.0604 170.266 98.0776 171.247C97.0949 172.228 96.5416 173.559 96.5391 174.947V210.207C96.5416 211.595 97.0949 212.926 98.0776 213.907C99.0604 214.888 100.392 215.439 101.781 215.439H173.048L179.656 225.576V215.439H199.312C200.7 215.439 202.032 214.888 203.015 213.907C203.998 212.926 204.551 211.595 204.553 210.207V174.947C204.552 174.257 204.415 173.575 204.149 172.938C203.883 172.301 203.495 171.723 203.005 171.237C202.515 170.751 201.935 170.366 201.296 170.105C200.658 169.844 199.974 169.711 199.284 169.715Z" fill="#028090"/>
<path opacity="0.7" d="M135.327 179.618V205.545C135.327 205.979 135.221 206.407 135.018 206.79C134.966 206.888 134.906 206.982 134.84 207.071C134.632 207.37 134.364 207.622 134.053 207.812C133.742 208.003 133.395 208.126 133.034 208.176C132.947 208.185 132.859 208.185 132.772 208.176H106.564C106.386 208.167 106.211 208.139 106.04 208.091H105.965C105.776 208.03 105.594 207.948 105.422 207.848C105.302 207.784 105.19 207.709 105.085 207.623C104.771 207.376 104.518 207.06 104.344 206.7C104.171 206.34 104.081 205.945 104.083 205.545V179.618C104.083 178.928 104.351 178.264 104.832 177.768C105.312 177.272 105.967 176.982 106.657 176.96H132.659C133.009 176.959 133.356 177.027 133.68 177.16C134.003 177.293 134.297 177.488 134.545 177.735C134.793 177.982 134.99 178.276 135.124 178.599C135.258 178.922 135.327 179.268 135.327 179.618Z" fill="white"/>
<path d="M133.034 208.175C132.946 208.185 132.859 208.185 132.771 208.175H131.442V207.782H131.527C132.051 207.82 132.566 207.94 133.052 208.138L133.034 208.175Z" fill="#263238"/>
<path opacity="0.4" d="M133.034 208.175C132.946 208.185 132.859 208.185 132.771 208.175H131.442V207.782H131.527C132.051 207.82 132.566 207.94 133.052 208.138L133.034 208.175Z" fill="white"/>
<path d="M132.762 208.194H122.616H109.643L109.708 208.325C109.68 208.283 109.655 208.239 109.634 208.194H106.61C107.481 208.053 108.436 207.913 109.418 207.801L110.045 207.726C110.878 207.623 111.73 207.539 112.573 207.473H112.807C114.323 207.351 115.83 207.258 117.346 207.192H117.693C118.413 207.192 119.125 207.136 119.836 207.127C120.894 207.127 121.951 207.127 123.009 207.127H123.617C124.394 207.127 125.181 207.127 125.957 207.173L126.828 207.248C127.081 207.248 127.324 207.295 127.577 207.305C128.269 207.379 128.943 207.464 129.589 207.557L130.525 207.698L130.984 207.773L131.414 207.838H131.489C131.888 207.903 132.278 208.016 132.65 208.175L132.762 208.194Z" fill="#263238"/>
<path d="M127.137 208.203H122.616H113.724C113.395 207.976 113.082 207.726 112.788 207.455L112.376 207.071C112.99 206.555 113.49 205.917 113.846 205.199C114.969 202.99 114.782 200.247 114.491 198.291C114.37 197.355 114.22 196.644 114.183 196.204C114.179 196.154 114.179 196.104 114.183 196.054C114.183 195.914 114.183 195.82 114.239 195.792L114.417 195.858L114.856 196.017L115.072 196.092L122.504 198.759C122.447 199.002 122.401 199.246 122.354 199.489C122.307 199.733 122.26 199.985 122.232 200.229L122.176 200.687C122.139 201.017 122.12 201.348 122.12 201.679C122.107 202.311 122.186 202.942 122.354 203.551C122.518 204.166 122.818 204.736 123.234 205.218C123.356 205.371 123.494 205.513 123.646 205.639C124.524 206.346 125.567 206.82 126.678 207.015C126.727 207.096 126.771 207.18 126.809 207.267C126.966 207.561 127.077 207.876 127.137 208.203Z" fill="#EBB376"/>
<path opacity="0.2" d="M122.373 203.486C119.565 202.906 116.363 200.959 115.521 198.563C115.194 197.736 114.977 196.871 114.875 195.989L122.522 198.731C122.083 200.28 122.032 201.913 122.373 203.486Z" fill="black"/>
<path d="M113.144 186.891C113.658 192.9 113.668 196.447 116.803 199.442C121.483 203.973 128.859 201.024 130.16 194.968C131.321 189.521 130.263 180.601 124.301 178.354C122.267 177.568 120.005 177.619 118.009 178.496C116.013 179.373 114.445 181.005 113.649 183.034C113.182 184.263 113.009 185.583 113.144 186.891Z" fill="#EBB376"/>
<path d="M122.335 188.342C122.335 188.828 122.607 189.212 122.934 189.212C123.262 189.212 123.505 188.791 123.496 188.276C123.486 187.761 123.206 187.396 122.887 187.406C122.569 187.415 122.326 187.836 122.335 188.342Z" fill="#263238"/>
<path d="M127.876 188.192C127.876 188.679 128.157 189.072 128.475 189.062C128.794 189.053 129.046 188.65 129.037 188.126C129.028 187.602 128.756 187.246 128.438 187.256C128.12 187.265 127.867 187.733 127.876 188.192Z" fill="#263238"/>
<path d="M126.117 188.482C126.743 189.966 127.568 191.358 128.569 192.619C128.239 192.869 127.859 193.043 127.454 193.129C127.05 193.215 126.631 193.21 126.229 193.115L126.117 188.482Z" fill="#D58745"/>
<path d="M120.566 186.582C120.617 186.59 120.67 186.584 120.718 186.564C120.766 186.544 120.807 186.512 120.837 186.47C121.045 186.163 121.324 185.911 121.65 185.735C121.976 185.559 122.339 185.464 122.709 185.459C122.786 185.459 122.859 185.43 122.915 185.378C122.971 185.326 123.004 185.254 123.009 185.178C123.007 185.102 122.977 185.03 122.926 184.975C122.874 184.92 122.804 184.885 122.728 184.878C122.271 184.884 121.823 185.002 121.422 185.22C121.02 185.439 120.678 185.752 120.426 186.133C120.399 186.158 120.378 186.189 120.363 186.222C120.349 186.256 120.341 186.292 120.341 186.329C120.341 186.366 120.349 186.402 120.363 186.436C120.378 186.47 120.399 186.5 120.426 186.526L120.566 186.582Z" fill="#263238"/>
<path d="M123.992 195.408C123.283 195.366 122.595 195.152 121.987 194.785C121.379 194.418 120.869 193.909 120.501 193.302C120.484 193.266 120.481 193.225 120.493 193.186C120.505 193.148 120.531 193.116 120.566 193.096C120.6 193.079 120.639 193.075 120.675 193.086C120.712 193.096 120.743 193.12 120.763 193.152C121.116 193.706 121.593 194.17 122.157 194.506C122.721 194.843 123.356 195.043 124.011 195.09C124.03 195.091 124.049 195.096 124.067 195.105C124.085 195.114 124.101 195.126 124.114 195.14C124.127 195.155 124.137 195.172 124.143 195.191C124.15 195.21 124.152 195.229 124.151 195.249C124.151 195.269 124.147 195.288 124.14 195.306C124.132 195.325 124.121 195.341 124.107 195.355C124.093 195.369 124.077 195.38 124.059 195.387C124.04 195.395 124.021 195.399 124.001 195.399L123.992 195.408Z" fill="#263238"/>
<path d="M130.207 186.264C130.233 186.275 130.262 186.281 130.291 186.281C130.32 186.281 130.349 186.275 130.375 186.264C130.41 186.248 130.44 186.225 130.466 186.197C130.491 186.169 130.511 186.136 130.523 186.1C130.535 186.064 130.54 186.026 130.537 185.988C130.534 185.95 130.524 185.913 130.506 185.88C130.305 185.468 130.008 185.109 129.64 184.836C129.272 184.562 128.844 184.381 128.391 184.307C128.314 184.302 128.239 184.326 128.18 184.375C128.12 184.424 128.082 184.493 128.073 184.569C128.068 184.645 128.092 184.719 128.141 184.777C128.19 184.835 128.26 184.871 128.335 184.878C128.691 184.948 129.026 185.099 129.313 185.32C129.601 185.541 129.833 185.825 129.992 186.151C130.016 186.186 130.048 186.214 130.085 186.234C130.123 186.253 130.165 186.264 130.207 186.264Z" fill="#263238"/>
<path d="M114.838 191.805C114.838 191.805 117.964 186.404 116.392 182.042C118.416 181.49 120.573 181.696 122.457 182.622C122.4 181.922 122.262 181.231 122.045 180.563C122.045 180.563 127.427 180.217 130.534 183.268C130.242 181.285 129.304 179.453 127.867 178.055C128.642 177.821 129.469 177.821 130.244 178.055C130.244 178.055 125.349 174.114 117.664 176.361C109.98 178.607 107.584 183.268 109.343 190.12C111.103 196.971 114.81 198.469 114.81 198.469C114.81 198.469 113.275 193.255 113.612 192.085C113.949 190.915 114.838 191.805 114.838 191.805Z" fill="#263238"/>
<path d="M110.598 193.602C111.444 194.86 112.752 195.735 114.239 196.035C116.214 196.419 117.047 194.613 116.354 192.825C115.736 191.252 113.967 189.081 112.048 189.54C111.63 189.637 111.243 189.838 110.923 190.123C110.603 190.409 110.359 190.771 110.215 191.175C110.07 191.579 110.03 192.013 110.097 192.437C110.164 192.861 110.336 193.262 110.598 193.602Z" fill="#EBB376"/>
<path d="M119.958 208.072L120.304 208.203H109.634C109.559 208.072 109.493 207.941 109.428 207.801L112.853 204.516C113.184 204.768 113.527 205.003 113.883 205.218C115.109 205.96 116.385 206.617 117.702 207.183C118.095 207.361 118.507 207.53 118.947 207.707L119.958 208.072Z" fill="#263238"/>
<path d="M127.586 207.268V208.204H122.616L122.681 208.054C122.816 207.752 122.923 207.439 123 207.118C123.004 207.099 123.004 207.08 123 207.062C123.046 206.856 123.093 206.64 123.131 206.397C123.189 205.978 123.221 205.556 123.224 205.133C123.224 204.825 123.224 204.488 123.224 204.123L127.586 207.268Z" fill="#263238"/>
<path opacity="0.2" d="M123.627 207.089C123.56 207.414 123.453 207.728 123.309 208.025V208.166H122.616L122.691 208.016C122.826 207.715 122.932 207.401 123.009 207.08C123.009 207.08 123.009 207.08 123.009 207.024C123.066 206.805 123.11 206.583 123.14 206.359C123.207 205.945 123.241 205.525 123.243 205.105C123.243 204.787 123.243 204.45 123.243 204.094C123.496 204.533 123.65 205.022 123.692 205.526C123.756 206.047 123.734 206.575 123.627 207.089Z" fill="black"/>
<path d="M191.084 188.051H146.952C146.8 188.051 146.65 188.021 146.509 187.963C146.369 187.904 146.242 187.819 146.135 187.711C146.028 187.603 145.943 187.475 145.886 187.334C145.828 187.193 145.8 187.043 145.801 186.891C145.801 186.585 145.922 186.293 146.138 186.077C146.354 185.861 146.647 185.74 146.952 185.74H191.056C191.363 185.739 191.656 185.86 191.874 186.076C192.091 186.292 192.215 186.585 192.217 186.891C192.217 187.194 192.099 187.485 191.887 187.702C191.675 187.919 191.387 188.044 191.084 188.051Z" fill="white"/>
<path d="M176.904 176.96H147.467C147.053 176.991 146.665 177.178 146.383 177.482C146.101 177.787 145.944 178.187 145.944 178.602C145.944 179.018 146.101 179.418 146.383 179.723C146.665 180.027 147.053 180.214 147.467 180.245H176.904C177.13 180.262 177.357 180.232 177.572 180.158C177.786 180.083 177.982 179.965 178.148 179.81C178.315 179.656 178.447 179.469 178.538 179.261C178.629 179.054 178.676 178.829 178.676 178.602C178.676 178.376 178.629 178.151 178.538 177.943C178.447 177.736 178.315 177.549 178.148 177.395C177.982 177.24 177.786 177.122 177.572 177.047C177.357 176.972 177.13 176.943 176.904 176.96Z" fill="white"/>
<path d="M173.3 192.816H146.952C146.647 192.816 146.354 192.694 146.138 192.478C145.922 192.262 145.801 191.97 145.801 191.664C145.8 191.512 145.828 191.362 145.886 191.221C145.943 191.08 146.028 190.952 146.135 190.844C146.242 190.736 146.369 190.651 146.509 190.592C146.65 190.534 146.8 190.504 146.952 190.504H173.272C173.58 190.504 173.875 190.626 174.093 190.844C174.311 191.061 174.433 191.356 174.433 191.664C174.431 191.966 174.311 192.254 174.1 192.469C173.888 192.684 173.602 192.808 173.3 192.816Z" fill="white"/>
<path d="M275.39 298.2C275.39 298.2 279.461 292.958 284.9 292.958C290.338 292.958 294.7 298.2 294.7 298.2H290.722C289.271 296.318 287.214 294.995 284.9 294.456C281.231 293.745 278.891 298.2 278.891 298.2H275.39Z" fill="#263238"/>
<path d="M311.491 297.283H263.812C261.258 297.283 259.188 299.353 259.188 301.907V335.678C259.188 338.231 261.258 340.302 263.812 340.302H311.491C314.045 340.302 316.115 338.231 316.115 335.678V301.907C316.115 299.353 314.045 297.283 311.491 297.283Z" fill="#263238"/>
<path opacity="0.2" d="M316.115 302.206V335.378C316.115 336.024 315.988 336.664 315.74 337.261C315.493 337.858 315.13 338.4 314.673 338.856C314.215 339.313 313.673 339.674 313.075 339.921C312.478 340.167 311.838 340.293 311.192 340.292H264.12C263.474 340.293 262.834 340.167 262.237 339.921C261.64 339.674 261.097 339.313 260.64 338.856C260.182 338.4 259.82 337.858 259.572 337.261C259.325 336.664 259.197 336.024 259.197 335.378V302.206C259.197 300.901 259.716 299.648 260.639 298.725C261.562 297.802 262.815 297.283 264.12 297.283H311.192C312.498 297.283 313.75 297.802 314.673 298.725C315.597 299.648 316.115 300.901 316.115 302.206Z" fill="white"/>
<path opacity="0.2" d="M312.437 302.206V335.378C312.437 336.024 312.309 336.664 312.062 337.261C311.814 337.858 311.452 338.4 310.994 338.856C310.537 339.313 309.994 339.674 309.397 339.921C308.8 340.167 308.16 340.293 307.513 340.292H264.12C263.474 340.293 262.834 340.167 262.237 339.921C261.64 339.674 261.097 339.313 260.64 338.856C260.182 338.4 259.82 337.858 259.572 337.261C259.325 336.664 259.197 336.024 259.197 335.378V302.206C259.197 300.901 259.716 299.648 260.639 298.725C261.562 297.802 262.815 297.283 264.12 297.283H307.513C308.819 297.283 310.071 297.802 310.995 298.725C311.918 299.648 312.437 300.901 312.437 302.206Z" fill="white"/>
<path d="M313.56 297.891C312.649 298.351 311.884 299.055 311.35 299.924C310.816 300.794 310.535 301.795 310.537 302.815V320.299C310.537 320.59 310.479 320.878 310.368 321.147C310.256 321.415 310.092 321.659 309.886 321.865C309.68 322.07 309.436 322.232 309.167 322.343C308.898 322.453 308.609 322.509 308.318 322.508H260.077C259.786 322.511 259.498 322.455 259.229 322.345C258.96 322.235 258.715 322.072 258.509 321.867C258.304 321.661 258.141 321.417 258.031 321.148C257.921 320.878 257.865 320.59 257.868 320.299V302.815C257.867 302.088 258.009 301.368 258.287 300.696C258.564 300.025 258.972 299.414 259.485 298.9C259.999 298.387 260.61 297.979 261.281 297.702C261.953 297.424 262.673 297.282 263.4 297.283H311.192C312.02 297.283 312.834 297.493 313.56 297.891Z" fill="#263238"/>
<path opacity="0.2" d="M313.56 297.891C312.649 298.351 311.884 299.055 311.35 299.924C310.816 300.794 310.535 301.795 310.537 302.815V320.299C310.537 320.59 310.479 320.878 310.368 321.147C310.256 321.415 310.092 321.659 309.886 321.865C309.68 322.07 309.436 322.232 309.167 322.343C308.898 322.453 308.609 322.509 308.318 322.508H260.077C259.786 322.511 259.498 322.455 259.229 322.345C258.96 322.235 258.715 322.072 258.509 321.867C258.304 321.661 258.141 321.417 258.031 321.148C257.921 320.878 257.865 320.59 257.868 320.299V302.815C257.867 302.088 258.009 301.368 258.287 300.696C258.564 300.025 258.972 299.414 259.485 298.9C259.999 298.387 260.61 297.979 261.281 297.702C261.953 297.424 262.673 297.282 263.4 297.283H311.192C312.02 297.283 312.834 297.493 313.56 297.891Z" fill="white"/>
<path d="M280.379 321.31H284.057V326.991C284.057 327.219 284.012 327.444 283.925 327.654C283.838 327.864 283.711 328.055 283.55 328.216C283.389 328.377 283.198 328.504 282.988 328.591C282.778 328.678 282.553 328.723 282.326 328.723H282.101C281.874 328.723 281.648 328.678 281.438 328.591C281.228 328.504 281.037 328.377 280.877 328.216C280.716 328.055 280.588 327.864 280.501 327.654C280.414 327.444 280.369 327.219 280.369 326.991V321.31H280.379Z" fill="#263238"/>
<path d="M284.291 321.31H280.163C279.827 321.31 279.555 321.582 279.555 321.918V325.428C279.555 325.764 279.827 326.037 280.163 326.037H284.291C284.627 326.037 284.9 325.764 284.9 325.428V321.918C284.9 321.582 284.627 321.31 284.291 321.31Z" fill="white"/>
<path d="M284.057 317.603H280.379V325.016H284.057V317.603Z" fill="#263238"/>
<path d="M383.32 170.118L377.863 175.584C377.021 176.426 377.582 181.471 377.863 183.156C378.144 184.841 384.893 187.92 385.304 187.64C385.716 187.359 386.98 181.518 386.98 181.518L381.364 178.635L385.295 174.04L383.32 170.118Z" fill="#9F5B53"/>
<path d="M382.768 130.796C385.988 132.097 398.474 156.845 398.53 161.319C398.586 165.793 382.768 177.643 382.768 177.643L379.286 174.311C379.286 174.311 390.808 160.748 391.173 159.017C391.538 157.285 378.575 140.297 378.575 140.297L382.768 130.796Z" fill="#028090"/>
<path opacity="0.4" d="M398.53 161.319C398.586 165.793 382.768 177.643 382.768 177.643L379.286 174.311C379.286 174.311 390.808 160.748 391.173 159.017C391.37 158.081 387.86 152.961 384.499 148.3C381.476 144.116 378.575 140.316 378.575 140.316L379.801 137.508L382.768 130.768C385.988 132.097 398.474 156.845 398.53 161.319Z" fill="white"/>
<path d="M379.941 172.214L384.762 177.643L382.768 179.122L378.575 174.433L379.941 172.214Z" fill="#028090"/>
<path opacity="0.2" d="M384.499 148.3C381.476 144.116 378.575 140.315 378.575 140.315L379.801 137.507C380.025 137.376 380.25 137.255 380.493 137.133C380.493 137.161 384.818 142.047 384.499 148.3Z" fill="black"/>
<path d="M355.97 110.223C355.267 111.38 354.428 112.449 353.471 113.406C353.686 113.747 353.991 114.023 354.353 114.201C354.715 114.379 355.119 114.454 355.521 114.416L355.97 110.223Z" fill="#A24E3F"/>
<path d="M355.174 108.978C355.118 109.633 355.427 110.195 355.867 110.223C356.307 110.251 356.7 109.755 356.747 109.1C356.794 108.445 356.485 107.892 356.054 107.855C355.624 107.818 355.221 108.323 355.174 108.978Z" fill="#2E353A"/>
<path d="M355.914 116.859C355.995 117.177 356.095 117.489 356.213 117.795C356.852 119.591 358.021 121.151 359.564 122.269C359.956 122.548 360.366 122.801 360.791 123.027C361.914 123.625 363.157 123.964 364.428 124.019C365.7 124.074 366.967 123.844 368.138 123.346C369.196 122.898 370.152 122.239 370.946 121.408C374.344 117.973 374.26 114.014 374.643 107.303C374.756 105.737 374.466 104.169 373.802 102.746C373.138 101.324 372.122 100.095 370.849 99.1762C369.577 98.2572 368.09 97.6787 366.531 97.4955C364.972 97.3124 363.393 97.5307 361.942 98.1297C355.362 100.844 354.463 110.822 355.914 116.859Z" fill="#9F5B53"/>
<path opacity="0.2" d="M359.564 122.297C359.956 122.576 360.366 122.83 360.791 123.055C361.914 123.653 363.157 123.992 364.428 124.047C365.7 124.103 366.967 123.872 368.138 123.374C367.839 122.567 367.436 121.802 366.94 121.099C364.417 120.78 361.856 121.196 359.564 122.297Z" fill="black"/>
<path d="M373.071 131.04C369.757 134.044 361.661 132.912 361.661 132.912C361.661 132.912 356.607 131.536 357.674 129.954C360.65 129.458 362.092 128.082 362.691 126.294C363.01 125.192 363.112 124.038 362.99 122.896C362.937 122.269 362.853 121.644 362.737 121.024L372.743 113.611C371.433 118.45 369.832 127.445 373.071 131.04Z" fill="#9F5B53"/>
<path d="M363.851 95.2656C363.851 95.2656 362.082 94.1798 359.05 97.0346C356.504 99.4402 359.05 101.368 357.524 104.457C355.998 107.546 358.067 110.588 358.067 110.588C358.067 110.588 359.536 113.752 362.101 113.555C362.101 113.555 364.188 116.082 363.851 118.703C363.514 121.324 367.277 123.383 372.397 123.327C377.517 123.271 375.467 120.06 375.467 120.06C376.951 118.35 378.152 116.413 379.024 114.323C380.056 111.777 380.55 109.046 380.475 106.301C380.522 104.876 380.285 103.456 379.777 102.123C379.269 100.791 378.501 99.5735 377.517 98.5416C374.1 94.6946 365.976 92.7571 363.851 95.2656Z" fill="#263238"/>
<path d="M363.374 112.095C363.248 112.727 362.983 113.323 362.597 113.84C362.212 114.356 361.716 114.78 361.146 115.081C359.78 115.661 358.881 113.733 359.078 111.711C359.265 109.924 360.192 107.406 361.652 107.743C363.112 108.08 363.851 110.289 363.374 112.095Z" fill="#9F5B53"/>
<path d="M358.048 102.426C358.048 102.426 353.031 97.7461 355.315 92.6823C357.599 87.6186 358.048 92.6823 358.048 92.6823C358.048 92.6823 361.839 89.6684 363.851 90.4359C365.864 91.2034 362.578 92.935 362.578 92.935C362.578 92.935 376.871 90.3798 378.144 99.2156C379.417 108.051 358.048 102.426 358.048 102.426Z" fill="#263238"/>
<path d="M356.803 107.368C356.751 107.369 356.699 107.358 356.652 107.335C356.604 107.313 356.563 107.279 356.532 107.237C356.455 107.12 356.354 107.021 356.236 106.945C356.119 106.87 355.987 106.819 355.848 106.797C355.761 106.8 355.675 106.768 355.611 106.708C355.546 106.649 355.507 106.566 355.502 106.479C355.497 106.392 355.525 106.307 355.581 106.241C355.637 106.175 355.716 106.133 355.802 106.123C356.053 106.13 356.3 106.197 356.52 106.319C356.74 106.441 356.927 106.615 357.065 106.825C357.093 106.86 357.114 106.9 357.126 106.943C357.139 106.986 357.143 107.031 357.137 107.076C357.132 107.12 357.118 107.163 357.096 107.202C357.074 107.241 357.044 107.275 357.009 107.302C356.95 107.348 356.877 107.371 356.803 107.368Z" fill="#2E353A"/>
<path d="M373.885 130.366L372.406 126.547C372.406 126.547 362.428 124.675 359.05 129.598C355.671 134.522 373.885 130.366 373.885 130.366Z" fill="#028090"/>
<path d="M347.265 333.871L340.264 334.601L339.908 330.548L338.954 319.513L345.955 318.773L347.013 330.96L347.265 333.871Z" fill="#9F5B53"/>
<path d="M382.197 332.981H375.411L375.355 331.446L375.345 331.259L374.999 321.422L374.99 321.225L374.849 317.453H381.645L382.197 332.981Z" fill="#9F5B53"/>
<path opacity="0.2" d="M345.955 318.773L347.013 330.96L339.908 330.548L338.954 319.513L345.955 318.773Z" fill="black"/>
<path opacity="0.2" d="M382.15 332.12H382.141L375.355 331.259H375.345L374.99 321.759H374.999L381.804 322.311L382.141 331.821L382.15 332.12Z" fill="black"/>
<path d="M374.475 332.57H382.712C382.847 332.571 382.978 332.617 383.083 332.702C383.189 332.787 383.262 332.906 383.292 333.038L384.63 339.084C384.683 339.344 384.631 339.613 384.485 339.834C384.34 340.055 384.113 340.21 383.854 340.264C383.782 340.273 383.71 340.273 383.638 340.264C380.971 340.217 379.033 340.048 375.682 340.048C373.623 340.048 367.399 340.273 364.553 340.273C361.708 340.273 361.333 337.465 362.494 337.194C367.726 336.061 371.657 334.479 373.333 332.982C373.648 332.706 374.056 332.558 374.475 332.57Z" fill="#263238"/>
<path d="M339.525 332.354H347.771C347.905 332.357 348.033 332.405 348.137 332.49C348.24 332.575 348.313 332.692 348.342 332.822L349.68 338.86C349.736 339.119 349.686 339.39 349.542 339.613C349.398 339.836 349.172 339.992 348.913 340.048H348.688C346.02 340.002 344.083 339.833 340.732 339.833C338.673 339.833 332.448 340.048 329.603 340.048C326.758 340.048 326.383 337.24 327.544 336.978C332.776 335.846 336.717 334.264 338.383 332.757C338.702 332.488 339.108 332.345 339.525 332.354Z" fill="#263238"/>
<path d="M338.317 329.528H348.267C348.267 329.528 347.453 243.884 358.217 214.952C358.975 224.518 359.826 234.44 360.66 242.704C361.193 247.824 361.708 252.214 362.195 255.565C365.33 277.093 373.239 330.389 373.239 330.389H383.067C383.067 330.389 381.897 279.368 380.737 258.158C379.445 235.151 378.865 184.56 378.865 180.245H342.847C339.422 198.366 330.633 270.85 338.317 329.528Z" fill="#263238"/>
<path opacity="0.2" d="M358.217 214.915C358.975 224.48 359.826 234.421 360.659 242.686C361.886 230.752 363.393 222.243 363.393 222.243C363.393 222.243 364.797 221.083 368.662 214.915C372.528 208.746 368.662 197.224 368.662 197.224C368.784 207.923 358.217 214.915 358.217 214.915Z" fill="black"/>
<path d="M337.194 326.729L337.681 329.528H349.437V326.944L337.194 326.729Z" fill="#028090"/>
<path d="M372.107 327.805L373.239 330.398H383.095L383.741 327.805H372.107Z" fill="#028090"/>
<path d="M379.735 182.641C379.735 182.641 378.35 174.479 380.409 150.677C380.943 144.546 381.701 137.881 382.768 130.796C382.768 130.796 363.196 126.472 349.54 130.796C349.54 130.796 348.978 133.698 348.211 138.63C347.733 141.597 347.19 145.304 346.648 149.563L346.591 150.04C345.234 160.411 342.651 168.096 342.389 182.023L379.735 182.641Z" fill="#028090"/>
<path opacity="0.4" d="M380.409 150.695C378.35 174.498 379.735 182.66 379.735 182.66L342.379 182.051C342.613 169.715 344.663 162.274 346.077 153.522C346.254 152.399 346.432 151.248 346.582 150.068L346.638 149.591C347.087 146.062 347.574 142.917 347.958 140.231C348.033 139.679 348.117 139.145 348.201 138.64C348.969 133.707 349.53 130.805 349.53 130.805C363.187 126.481 382.758 130.805 382.758 130.805C381.701 137.882 380.952 144.546 380.409 150.695Z" fill="white"/>
<path opacity="0.2" d="M350.204 140.652C350.204 140.652 349.867 148.927 346.077 153.504C346.254 152.38 346.432 151.229 346.582 150.05L346.638 149.572C347.088 146.044 347.574 142.899 347.958 140.212C348.719 140.284 349.472 140.432 350.204 140.652Z" fill="black"/>
<path d="M342.801 124.656L345.562 121.184C345.851 120.399 346.237 119.653 346.713 118.965C347.116 118.61 352.133 116.157 352.47 116.307C353.4 117.86 354.238 119.466 354.978 121.118C355.24 121.661 351.234 123.561 350.167 123.833C349.491 123.99 348.784 123.941 348.136 123.692L345.964 127.212" fill="#9F5B53"/>
<path d="M349.661 130.834C346.853 131.976 343.746 135.111 339.365 139.576L347.013 125.77L343.063 123.439C343.063 123.439 327.235 145.576 327.235 148.646C327.235 151.716 331.391 154.121 347.265 145.838C347.265 145.838 351.487 139.8 351.487 136.253C351.572 134.283 350.921 132.351 349.661 130.834Z" fill="#028090"/>
<path opacity="0.4" d="M349.661 130.834C346.853 131.976 343.746 135.111 339.365 139.576L347.013 125.77L343.063 123.439C343.063 123.439 327.235 145.576 327.235 148.646C327.235 151.716 331.391 154.121 347.265 145.838C347.265 145.838 351.487 139.8 351.487 136.253C351.572 134.283 350.921 132.351 349.661 130.834Z" fill="white"/>
<path d="M343.475 122.625L348.08 125.218L347.134 127.932L341.041 124.544L343.475 122.625Z" fill="#028090"/>
</svg>
