<svg width="479" height="356" viewBox="0 0 479 356" fill="none" xmlns="http://www.w3.org/2000/svg">
<path d="M403.092 267.5C407.519 250.223 408.328 232.218 405.467 214.614C402.607 197.01 396.139 180.187 386.47 165.2C381.455 157.545 375.436 150.243 367.512 145.64C359.589 141.037 349.464 139.487 341.177 143.391C331.75 147.831 326.679 157.918 321.157 166.751C315.635 175.583 307.415 184.569 297.003 184.167C290.802 183.928 285.29 180.34 280.285 176.665C229.02 139.104 192.484 80.8919 134.099 55.7908C121.18 50.2308 105.984 46.5848 93.3422 52.7572C79.4854 59.5229 73.179 76.0018 71.7723 91.3611C69.5425 115.285 76.1169 139.41 87.3708 160.607C98.6247 181.804 114.415 200.273 131.391 217.25C175.316 261.27 229.958 297.022 291.204 307.319C311.721 310.764 333.062 311.271 353.1 305.644C373.139 300.017 391.79 287.778 402.46 269.902C402.374 271.433 403.092 267.5 403.092 267.5Z" fill="#028090"/>
<g opacity="0.9">
<path opacity="0.9" d="M403.092 267.5C407.519 250.223 408.328 232.218 405.467 214.614C402.607 197.01 396.139 180.187 386.47 165.2C381.455 157.545 375.436 150.243 367.512 145.64C359.589 141.037 349.464 139.487 341.177 143.391C331.75 147.831 326.679 157.918 321.157 166.751C315.635 175.583 307.415 184.569 297.003 184.167C290.802 183.928 285.29 180.34 280.285 176.665C229.02 139.104 192.484 80.8919 134.099 55.7908C121.18 50.2308 105.984 46.5848 93.3422 52.7572C79.4854 59.5229 73.179 76.0018 71.7723 91.3611C69.5425 115.285 76.1169 139.41 87.3708 160.607C98.6247 181.804 114.415 200.273 131.391 217.25C175.316 261.27 229.958 297.022 291.204 307.319C311.721 310.764 333.062 311.271 353.1 305.644C373.139 300.017 391.79 287.778 402.46 269.902C402.374 271.433 403.092 267.5 403.092 267.5Z" fill="white"/>
</g>
<path d="M239.241 356C341.715 356 424.786 351.15 424.786 345.167C424.786 339.184 341.715 334.334 239.241 334.334C136.767 334.334 53.6952 339.184 53.6952 345.167C53.6952 351.15 136.767 356 239.241 356Z" fill="#F5F5F5"/>
<path d="M333.023 298.898C333.023 298.898 336.851 299.778 338.631 304.544C340.411 309.309 345.827 312.266 349.32 312.094C350.727 312.027 352.047 312.687 353.598 313.587L354.947 314.362C354.89 313.893 354.842 313.405 354.813 312.898C354.44 312.611 354.067 312.295 353.703 311.941C353.625 311.856 353.542 311.777 353.454 311.702C349.243 307.654 349.129 303.395 344.219 299.568C339.31 295.74 333.023 298.898 333.023 298.898Z" fill="#028090"/>
<path d="M373.885 294.668C372.638 295.276 371.554 296.171 370.722 297.281C369.89 298.391 369.334 299.683 369.101 301.051C368.019 306.017 363.062 309.711 359.531 310.027C358.134 310.161 356.918 310.984 355.512 312.113C355.119 312.41 354.717 312.735 354.287 313.07C354.287 312.592 354.287 312.113 354.21 311.597C354.545 311.252 354.861 310.898 355.167 310.515C355.234 310.419 355.311 310.333 355.378 310.247C358.976 305.644 358.497 301.414 362.813 296.926C367.129 292.438 373.885 294.668 373.885 294.668Z" fill="#028090"/>
<path d="M355.588 312.113C355.703 314.777 355.426 317.444 354.765 320.027C352.401 329.214 352.162 325.817 352.162 325.817C352.162 325.817 354.44 317.204 354.363 313.08C354.363 312.601 354.363 312.123 354.287 311.606C354.148 309.777 353.778 307.974 353.186 306.238C350.689 299.022 345.703 296.792 343.731 289.012C341.76 281.232 348.593 275.749 348.593 275.749C348.593 275.749 347.636 280.61 352.267 285.07C356.899 289.529 357.521 297.28 355.55 301.223C354.402 303.52 355.129 306.4 355.464 310.228C355.521 310.85 355.559 311.472 355.588 312.113Z" fill="#028090"/>
<path d="M359.818 351.32H344.507C343.717 351.32 342.954 351.035 342.36 350.516C341.765 349.996 341.378 349.279 341.272 348.497L337.195 318.248H367.1L363.014 348.497C362.909 349.273 362.528 349.985 361.941 350.503C361.354 351.021 360.601 351.311 359.818 351.32Z" fill="#028090"/>
<path d="M369.598 318.142V323.702H366.373L363.024 348.487C362.921 349.27 362.537 349.988 361.944 350.507C361.35 351.027 360.588 351.312 359.799 351.31H344.506C343.719 351.308 342.958 351.021 342.366 350.503C341.773 349.984 341.388 349.268 341.282 348.487L337.932 323.702H334.219V318.142H369.598Z" fill="#028090"/>
<path opacity="0.5" d="M369.598 318.142V323.702H366.373L363.024 348.487C362.921 349.27 362.537 349.988 361.944 350.507C361.35 351.027 360.588 351.312 359.799 351.31H344.506C343.719 351.308 342.958 351.021 342.366 350.503C341.773 349.984 341.388 349.268 341.282 348.487L337.932 323.702H334.219V318.142H369.598Z" fill="black"/>
<path d="M187.995 255.404C187.904 256.322 187.478 257.175 186.798 257.799C186.119 258.424 185.234 258.777 184.311 258.791C183.877 258.8 183.446 258.715 183.048 258.543C182.649 258.372 182.292 258.117 181.999 257.797C181.707 257.476 181.486 257.097 181.351 256.684C181.217 256.272 181.172 255.835 181.22 255.404C181.325 254.491 181.755 253.646 182.432 253.024C183.108 252.402 183.986 252.045 184.904 252.016C185.338 252.008 185.769 252.093 186.167 252.264C186.566 252.436 186.924 252.69 187.216 253.011C187.509 253.331 187.729 253.711 187.864 254.123C187.998 254.536 188.043 254.972 187.995 255.404Z" fill="#028090"/>
<path d="M190.215 253.097C190.12 253.093 190.026 253.069 189.941 253.026C189.855 252.983 189.78 252.923 189.719 252.849C189.659 252.775 189.615 252.689 189.59 252.596C189.565 252.504 189.559 252.407 189.574 252.313C189.747 250.399 187.766 248.839 185.067 248.839C182.368 248.839 180.052 251.155 179.957 252.313C179.943 252.516 179.856 252.708 179.712 252.853C179.568 252.997 179.376 253.084 179.172 253.097C179.076 253.093 178.983 253.069 178.897 253.026C178.812 252.983 178.736 252.923 178.676 252.849C178.615 252.775 178.571 252.689 178.546 252.596C178.521 252.504 178.516 252.407 178.531 252.313C178.732 250.035 181.852 247.26 185.23 247.26C188.608 247.26 191.268 249.48 191.019 252.313C191.005 252.52 190.916 252.714 190.767 252.859C190.619 253.004 190.422 253.089 190.215 253.097Z" fill="#028090"/>
<path d="M192.101 248.657C192.005 248.653 191.911 248.628 191.826 248.586C191.74 248.543 191.665 248.482 191.604 248.408C191.544 248.334 191.5 248.248 191.475 248.156C191.45 248.063 191.445 247.967 191.459 247.872C191.622 245.958 188.895 244.399 185.373 244.399C181.679 244.399 178.77 246.829 178.674 247.872C178.661 248.076 178.574 248.268 178.43 248.412C178.285 248.557 178.093 248.644 177.89 248.657C177.794 248.653 177.701 248.628 177.615 248.586C177.53 248.543 177.454 248.482 177.394 248.408C177.333 248.334 177.289 248.248 177.264 248.156C177.239 248.063 177.234 247.967 177.249 247.872C177.45 245.595 181.297 242.82 185.507 242.82C189.957 242.82 193.163 244.992 192.876 247.872C192.863 248.075 192.777 248.265 192.635 248.409C192.492 248.553 192.303 248.641 192.101 248.657Z" fill="#028090"/>
<path d="M193.948 244.6C193.851 244.596 193.757 244.571 193.67 244.528C193.584 244.484 193.508 244.423 193.447 244.348C193.387 244.273 193.343 244.185 193.319 244.092C193.294 243.998 193.29 243.901 193.307 243.806C193.45 242.131 190.436 240.341 185.651 240.341C180.866 240.341 177.459 242.916 177.383 243.806C177.374 244.01 177.29 244.204 177.147 244.351C177.004 244.497 176.812 244.586 176.608 244.6C176.511 244.596 176.416 244.571 176.329 244.528C176.243 244.484 176.166 244.423 176.105 244.348C176.043 244.273 175.998 244.186 175.973 244.093C175.947 243.999 175.942 243.901 175.957 243.806C176.158 241.538 180.742 238.762 185.794 238.762C191.23 238.762 195 240.887 194.742 243.806C194.731 244.013 194.643 244.208 194.497 244.355C194.35 244.501 194.155 244.588 193.948 244.6Z" fill="#028090"/>
<path d="M358.478 207.623H104.443L118.529 46.5757H372.565L358.478 207.623Z" fill="#028090"/>
<path d="M355.033 220.226H104.644C102.997 220.255 101.363 219.933 99.8506 219.281C98.3381 218.629 96.9818 217.663 95.8719 216.446C94.7619 215.229 93.9238 213.79 93.4134 212.224C92.903 210.658 92.7318 209.002 92.9115 207.364L106.912 47.3315C107.271 43.8472 108.891 40.6143 111.468 38.2419C114.045 35.8694 117.401 34.5211 120.903 34.4508H371.235C372.881 34.4219 374.515 34.7441 376.028 35.3959C377.54 36.0477 378.897 37.0141 380.007 38.2309C381.117 39.4476 381.955 40.8868 382.465 42.4527C382.975 44.0186 383.147 45.6752 382.967 47.3123L368.967 207.364C368.605 210.836 366.99 214.056 364.426 216.423C361.861 218.791 358.522 220.142 355.033 220.226Z" fill="#263238"/>
<path d="M355.024 207.623H115.065L129.161 46.5757H369.11L355.024 207.623Z" fill="#028090"/>
<path d="M354.976 207.68H115.046L129.133 46.6426H369.062L354.976 207.68Z" fill="white"/>
<path d="M367.282 67.0546H127.343L129.133 46.6426H369.062L367.282 67.0546Z" fill="#028090"/>
<path d="M236.336 121.163C239.375 118.254 239.679 113.639 237.015 110.856C234.35 108.073 229.727 108.175 226.688 111.084C223.649 113.993 223.345 118.608 226.009 121.391C228.674 124.174 233.297 124.072 236.336 121.163Z" fill="#028090"/>
<path d="M141.174 151.37C144.203 148.467 144.503 143.865 141.845 141.091C139.186 138.317 134.576 138.421 131.547 141.324C128.518 144.227 128.217 148.829 130.876 151.603C133.534 154.377 138.145 154.272 141.174 151.37Z" fill="#263238"/>
<path d="M214.255 161.584C214.051 163.558 213.132 165.391 211.671 166.734C210.209 168.077 208.306 168.839 206.321 168.876C205.388 168.892 204.461 168.71 203.604 168.34C202.746 167.971 201.977 167.423 201.348 166.733C200.719 166.043 200.244 165.227 199.954 164.339C199.665 163.451 199.568 162.512 199.67 161.584C199.873 159.609 200.793 157.777 202.254 156.433C203.716 155.09 205.619 154.328 207.604 154.292C208.537 154.275 209.464 154.458 210.321 154.827C211.179 155.197 211.948 155.745 212.577 156.435C213.206 157.124 213.681 157.94 213.971 158.828C214.26 159.716 214.357 160.655 214.255 161.584Z" fill="#028090"/>
<path d="M136.606 104.099L137.286 102.826C137.854 103.204 138.518 103.413 139.2 103.429C139.918 103.429 140.214 103.228 140.243 102.931C140.329 101.974 136.788 102.663 136.989 100.395C137.085 99.3042 138.051 98.4047 139.86 98.4047C140.618 98.3919 141.367 98.5766 142.032 98.9406L141.391 100.232C140.89 99.9333 140.32 99.7685 139.736 99.754C139.008 99.754 138.721 100.003 138.693 100.309C138.616 101.266 142.147 100.539 141.956 102.797C141.86 103.869 140.884 104.778 139.085 104.778C138.21 104.798 137.349 104.562 136.606 104.099Z" fill="#263238"/>
<path d="M165.784 104.654L166.043 101.41L164.244 104.051H163.468L162.129 101.496L161.851 104.654H160.253L160.77 98.5674H162.196L164.033 102.108L166.512 98.5674H167.937L167.421 104.692L165.784 104.654Z" fill="#263238"/>
<path d="M186.015 99.9071H184.101L184.225 98.5291H189.708L189.594 99.9071H187.68L187.259 104.692H185.526L186.015 99.9071Z" fill="#263238"/>
<path d="M217.307 98.5673L214.79 104.692H212.934L212.092 100.969L210.532 104.654H208.675L207.221 98.5291H209.01L209.9 102.443L211.537 98.5291H213.125L214.015 102.472L215.652 98.5291L217.307 98.5673Z" fill="#263238"/>
<path d="M231.767 99.9071H229.853L229.977 98.5291H235.461L235.413 99.9071H233.499L233.078 104.692H231.346L231.767 99.9071Z" fill="#263238"/>
<path d="M255.069 99.8688L254.954 101.218H257.662L257.538 102.558H254.839L254.657 104.654H252.925L253.461 98.5291H258.246L258.122 99.8688H255.069Z" fill="#263238"/>
<path d="M275.414 104.099L276.103 102.826C276.685 103.212 277.366 103.422 278.065 103.429C278.782 103.429 279.079 103.228 279.108 102.931C279.194 101.974 275.653 102.663 275.845 100.395C275.94 99.3042 276.916 98.4047 278.715 98.4047C279.474 98.3919 280.222 98.5766 280.888 98.9406L280.247 100.232C279.745 99.9345 279.175 99.7698 278.591 99.754C277.864 99.754 277.577 100.003 277.548 100.309C277.471 101.266 281.003 100.539 280.802 102.797C280.716 103.869 279.739 104.778 277.931 104.778C277.044 104.802 276.169 104.565 275.414 104.099Z" fill="#263238"/>
<path d="M185.823 113.611L185.287 119.735H183.555L183.976 114.951H182.837L182.952 113.611H185.823Z" fill="#263238"/>
<path d="M210.388 118.358L210.264 119.736H205.479L205.575 118.645L208.053 116.501C208.589 116.051 208.685 115.774 208.704 115.544C208.723 115.314 208.494 114.912 207.967 114.912C207.744 114.911 207.523 114.965 207.325 115.068C207.126 115.172 206.956 115.322 206.828 115.506L205.604 114.788C205.905 114.372 206.305 114.038 206.768 113.816C207.231 113.594 207.742 113.491 208.254 113.515C209.661 113.515 210.57 114.243 210.465 115.381C210.414 115.768 210.28 116.14 210.071 116.47C209.863 116.801 209.586 117.082 209.259 117.295L208.006 118.358H210.388Z" fill="#263238"/>
<path d="M233.298 117.812C233.202 118.855 232.341 119.85 230.427 119.85C229.611 119.868 228.806 119.659 228.102 119.247L228.848 117.946C229.335 118.281 229.913 118.458 230.504 118.453C231.087 118.453 231.461 118.223 231.528 117.812C231.595 117.4 231.308 117.219 230.647 117.219H229.92L230.016 116.128L231.212 114.951H228.81L228.934 113.611H233.355L233.26 114.692L231.872 116.061C232.081 116.081 232.284 116.143 232.469 116.242C232.654 116.341 232.818 116.476 232.95 116.639C233.083 116.802 233.182 116.989 233.242 117.191C233.301 117.392 233.32 117.603 233.298 117.812Z" fill="#263238"/>
<path d="M257.165 118.558H256.208L256.102 119.735H254.418L254.514 118.558H251.279L251.385 117.429L254.466 113.601H256.256L253.452 117.18H254.696L254.782 116.137H256.466L256.37 117.18H257.327L257.165 118.558Z" fill="#263238"/>
<path d="M279.146 117.764C279.051 118.855 278.141 119.85 276.275 119.85C275.462 119.869 274.66 119.66 273.959 119.247L274.696 117.946C275.183 118.281 275.761 118.458 276.352 118.453C276.936 118.453 277.309 118.214 277.385 117.812C277.462 117.41 277.184 117.19 276.247 117.19H274.648L275.261 113.611H279.165L279.051 114.951H276.562L276.409 115.841H276.821C278.61 115.841 279.242 116.683 279.146 117.764Z" fill="#263238"/>
<path d="M139.439 132.846C139.358 133.46 139.043 134.02 138.56 134.408C138.077 134.797 137.463 134.984 136.846 134.932C135.133 134.932 134.099 133.899 134.271 131.918C134.279 131.463 134.377 131.014 134.561 130.598C134.744 130.182 135.009 129.806 135.34 129.494C135.671 129.182 136.061 128.939 136.487 128.78C136.914 128.621 137.367 128.549 137.822 128.568C138.439 128.545 139.05 128.697 139.583 129.009L138.846 130.253C138.523 130.031 138.137 129.92 137.745 129.937C137.337 129.915 136.935 130.051 136.624 130.316C136.312 130.581 136.114 130.956 136.071 131.363C136.478 131.05 136.983 130.891 137.496 130.913C137.757 130.886 138.021 130.918 138.268 131.005C138.515 131.093 138.74 131.234 138.926 131.419C139.112 131.604 139.254 131.828 139.343 132.075C139.432 132.322 139.465 132.585 139.439 132.846ZM137.755 132.923C137.767 132.818 137.756 132.712 137.721 132.613C137.687 132.514 137.63 132.424 137.555 132.35C137.48 132.276 137.389 132.22 137.29 132.187C137.19 132.153 137.084 132.143 136.98 132.157C136.757 132.141 136.536 132.213 136.366 132.359C136.196 132.504 136.09 132.71 136.071 132.932C136.023 133.382 136.329 133.698 136.855 133.698C136.969 133.712 137.084 133.704 137.195 133.672C137.305 133.641 137.407 133.587 137.496 133.514C137.585 133.442 137.658 133.352 137.71 133.25C137.763 133.148 137.794 133.037 137.803 132.923H137.755Z" fill="#263238"/>
<path d="M162.808 128.693L162.712 129.774L160.119 134.808H158.205L160.684 130.023H159.076L158.99 130.98H157.516L157.717 128.664L162.808 128.693Z" fill="#263238"/>
<path d="M186.78 133.018C186.684 134.195 185.536 134.932 183.909 134.932C182.282 134.932 181.316 134.186 181.421 133.018C181.444 132.718 181.544 132.429 181.712 132.179C181.879 131.929 182.109 131.727 182.378 131.592C182.185 131.454 182.033 131.266 181.937 131.049C181.841 130.832 181.805 130.594 181.832 130.358C181.928 129.276 182.981 128.578 184.426 128.578C185.871 128.578 186.809 129.276 186.713 130.358C186.688 130.608 186.607 130.85 186.474 131.064C186.341 131.278 186.161 131.459 185.947 131.592C186.217 131.714 186.442 131.917 186.591 132.172C186.74 132.428 186.806 132.724 186.78 133.018ZM185.048 132.97C185.048 132.492 184.742 132.205 184.196 132.205C183.968 132.181 183.739 132.247 183.56 132.391C183.381 132.534 183.266 132.742 183.239 132.97C183.239 133.439 183.536 133.726 184.091 133.726C184.319 133.748 184.546 133.68 184.724 133.537C184.903 133.395 185.019 133.188 185.048 132.961V132.97ZM183.622 130.434C183.622 130.836 183.852 131.076 184.292 131.076C184.386 131.086 184.482 131.078 184.573 131.051C184.664 131.025 184.749 130.98 184.823 130.921C184.897 130.861 184.958 130.787 185.003 130.704C185.048 130.62 185.077 130.529 185.086 130.434C185.086 130.032 184.837 129.793 184.407 129.793C184.219 129.774 184.032 129.83 183.885 129.948C183.738 130.066 183.644 130.238 183.622 130.425V130.434Z" fill="#263238"/>
<path d="M209.575 131.583C209.568 132.039 209.469 132.488 209.285 132.905C209.101 133.322 208.835 133.698 208.503 134.01C208.171 134.322 207.78 134.565 207.353 134.723C206.925 134.882 206.47 134.953 206.015 134.932C205.401 134.955 204.794 134.802 204.264 134.492L205.001 133.248C205.324 133.47 205.71 133.58 206.101 133.564C206.506 133.581 206.903 133.445 207.211 133.182C207.52 132.92 207.718 132.55 207.766 132.147C207.359 132.452 206.859 132.608 206.35 132.588C206.093 132.61 205.835 132.575 205.592 132.487C205.35 132.398 205.13 132.258 204.948 132.076C204.766 131.893 204.626 131.673 204.537 131.431C204.449 131.189 204.414 130.931 204.436 130.674C204.517 130.063 204.829 129.507 205.308 129.119C205.787 128.731 206.396 128.541 207.01 128.588C208.723 128.568 209.757 129.602 209.575 131.583ZM207.785 130.569C207.785 130.119 207.527 129.803 207.001 129.803C206.779 129.787 206.56 129.86 206.391 130.005C206.223 130.15 206.118 130.356 206.101 130.578C206.089 130.682 206.1 130.788 206.135 130.888C206.169 130.987 206.226 131.077 206.301 131.151C206.376 131.225 206.467 131.281 206.566 131.314C206.666 131.347 206.772 131.358 206.876 131.344C207.101 131.362 207.324 131.291 207.496 131.146C207.668 131.001 207.776 130.793 207.795 130.569H207.785Z" fill="#263238"/>
<path d="M230.255 128.693L229.719 134.808H227.987L228.408 130.023H227.269L227.384 128.693H230.255Z" fill="#263238"/>
<path d="M230.906 131.746C231.078 129.727 232.322 128.569 233.891 128.569C235.461 128.569 236.475 129.727 236.303 131.746C236.131 133.765 234.887 134.932 233.327 134.932C231.767 134.932 230.733 133.774 230.906 131.746ZM234.561 131.746C234.676 130.463 234.312 129.985 233.767 129.985C233.222 129.985 232.762 130.463 232.647 131.746C232.533 133.028 232.896 133.516 233.451 133.516C234.006 133.516 234.456 133.018 234.561 131.746Z" fill="#263238"/>
<path d="M253.126 128.693L252.59 134.808H250.858L251.279 130.023H250.141L250.265 128.693H253.126Z" fill="#263238"/>
<path d="M256.677 128.693L256.141 134.808H254.409L254.83 130.023H253.691L253.806 128.693H256.677Z" fill="#263238"/>
<path d="M276.007 128.693L275.471 134.808H273.739L274.16 130.023H273.022L273.136 128.693H276.007Z" fill="#263238"/>
<path d="M281.242 133.439L281.118 134.808H276.333L276.428 133.726L278.907 131.583C279.443 131.133 279.539 130.846 279.558 130.626C279.558 130.233 279.347 129.994 278.821 129.994C278.597 129.993 278.377 130.047 278.178 130.15C277.98 130.254 277.809 130.404 277.682 130.588L276.457 129.87C276.759 129.454 277.159 129.12 277.622 128.898C278.084 128.676 278.595 128.572 279.108 128.597C280.515 128.597 281.424 129.324 281.319 130.454C281.268 130.841 281.134 131.213 280.926 131.543C280.718 131.873 280.44 132.155 280.113 132.368L278.859 133.439H281.242Z" fill="#263238"/>
<path d="M135.889 143.765L135.353 149.889H133.621L134.042 145.105H132.903L133.018 143.765H135.889Z" fill="white"/>
<path d="M141.133 147.976C141.047 149.009 140.176 150.014 138.262 150.014C137.444 150.034 136.638 149.822 135.937 149.401L136.683 148.1C137.167 148.433 137.741 148.611 138.329 148.607C138.922 148.607 139.286 148.387 139.362 147.976C139.439 147.564 139.142 147.373 138.472 147.373H137.803L137.898 146.282L139.095 145.105H136.654L136.769 143.765H141.2L141.104 144.846L139.717 146.215C139.926 146.235 140.13 146.297 140.315 146.397C140.5 146.497 140.664 146.633 140.796 146.797C140.928 146.961 141.025 147.15 141.083 147.352C141.141 147.555 141.158 147.767 141.133 147.976Z" fill="white"/>
<path d="M159.143 143.765L158.607 149.889H156.875L157.286 145.105H156.157L156.272 143.765H159.143Z" fill="#263238"/>
<path d="M165.402 148.712H164.445L164.339 149.89H162.684L162.779 148.712H159.545L159.641 147.583L162.722 143.755H164.521L161.727 147.373H162.961L163.057 146.33H164.693L164.598 147.373H165.555L165.402 148.712Z" fill="#263238"/>
<path d="M183.182 143.765L182.646 149.889H180.914L181.335 145.105H180.196L180.311 143.765H183.182Z" fill="#263238"/>
<path d="M188.522 147.918C188.426 149.009 187.517 150.014 185.651 150.014C184.836 150.036 184.032 149.823 183.335 149.402L184.072 148.1C184.556 148.434 185.13 148.611 185.718 148.607C186.311 148.607 186.675 148.378 186.761 147.966C186.847 147.555 186.608 147.373 185.651 147.373H183.986L184.608 143.794H188.522L188.397 145.133H185.938L185.775 146.023H186.187C188.015 145.995 188.646 146.837 188.522 147.918Z" fill="#263238"/>
<path d="M206.053 143.765L205.517 149.889H203.833L204.245 145.105H203.068L203.192 143.765H206.053Z" fill="#263238"/>
<path d="M211.852 147.918C211.771 148.531 211.458 149.09 210.978 149.48C210.497 149.87 209.886 150.061 209.269 150.014C207.556 150.014 206.522 148.98 206.694 146.99C206.702 146.535 206.8 146.086 206.983 145.67C207.167 145.254 207.432 144.878 207.763 144.566C208.094 144.254 208.484 144.011 208.91 143.852C209.336 143.693 209.79 143.621 210.245 143.64C210.863 143.62 211.473 143.776 212.006 144.09L211.269 145.334C210.947 145.109 210.56 144.998 210.168 145.019C209.76 144.997 209.358 145.132 209.047 145.398C208.735 145.663 208.537 146.038 208.494 146.444C208.9 146.129 209.405 145.967 209.919 145.985C210.179 145.962 210.441 145.995 210.686 146.084C210.931 146.173 211.154 146.315 211.338 146.499C211.523 146.684 211.664 146.906 211.753 147.151C211.842 147.397 211.876 147.658 211.852 147.918ZM210.168 147.995C210.181 147.89 210.169 147.784 210.135 147.685C210.1 147.586 210.043 147.496 209.968 147.422C209.894 147.348 209.803 147.292 209.703 147.259C209.603 147.225 209.497 147.215 209.393 147.229C209.163 147.205 208.934 147.273 208.754 147.418C208.575 147.564 208.46 147.775 208.436 148.004C208.423 148.111 208.435 148.219 208.471 148.32C208.506 148.421 208.565 148.513 208.642 148.588C208.719 148.663 208.812 148.719 208.914 148.752C209.016 148.786 209.124 148.795 209.23 148.779C209.344 148.793 209.459 148.783 209.569 148.75C209.678 148.717 209.78 148.662 209.868 148.589C209.956 148.515 210.028 148.425 210.079 148.323C210.131 148.22 210.161 148.109 210.168 147.995Z" fill="#263238"/>
<path d="M228.934 143.765L228.398 149.889H226.666L227.087 145.105H225.949L226.063 143.765H228.934Z" fill="#263238"/>
<path d="M234.829 143.765L234.733 144.846L232.14 149.89H230.226L232.705 145.105H231.097L231.011 146.062H229.537L229.738 143.746L234.829 143.765Z" fill="#263238"/>
<path d="M251.806 143.765L251.279 149.889H249.547L249.959 145.105H248.81L248.935 143.765H251.806Z" fill="#263238"/>
<path d="M257.634 148.081C257.538 149.258 256.389 149.995 254.763 149.995C253.136 149.995 252.169 149.239 252.275 148.081C252.3 147.782 252.401 147.494 252.569 147.244C252.736 146.995 252.964 146.792 253.231 146.655C253.039 146.518 252.888 146.332 252.792 146.117C252.696 145.902 252.659 145.664 252.686 145.43C252.782 144.339 253.834 143.641 255.279 143.641C256.724 143.641 257.662 144.339 257.567 145.43C257.54 145.679 257.458 145.919 257.325 146.131C257.193 146.343 257.013 146.523 256.801 146.655C257.07 146.778 257.294 146.981 257.443 147.236C257.592 147.491 257.658 147.786 257.634 148.081ZM255.901 148.033C255.901 147.564 255.595 147.277 255.05 147.277C254.823 147.253 254.596 147.318 254.417 147.46C254.238 147.601 254.122 147.807 254.093 148.033C254.093 148.502 254.389 148.799 254.944 148.799C255.172 148.818 255.398 148.749 255.576 148.607C255.754 148.464 255.87 148.259 255.901 148.033ZM254.476 145.507C254.476 145.909 254.705 146.148 255.145 146.148C255.24 146.158 255.335 146.15 255.426 146.124C255.518 146.097 255.603 146.053 255.676 145.993C255.75 145.933 255.812 145.86 255.857 145.776C255.902 145.693 255.93 145.601 255.94 145.507C255.94 145.095 255.691 144.856 255.26 144.856C255.166 144.847 255.071 144.856 254.98 144.884C254.889 144.912 254.805 144.957 254.732 145.018C254.659 145.078 254.599 145.153 254.555 145.237C254.511 145.32 254.484 145.412 254.476 145.507Z" fill="#263238"/>
<path d="M274.648 143.765L274.113 149.889H272.38L272.802 145.105H271.663L271.778 143.765H274.648Z" fill="#263238"/>
<path d="M280.438 146.655C280.432 147.111 280.335 147.562 280.151 147.98C279.967 148.398 279.702 148.775 279.37 149.088C279.038 149.402 278.646 149.645 278.218 149.804C277.79 149.963 277.334 150.034 276.878 150.014C276.264 150.033 275.656 149.877 275.127 149.564L275.864 148.32C276.185 148.546 276.572 148.657 276.964 148.636C277.37 148.655 277.768 148.52 278.077 148.257C278.386 147.994 278.584 147.623 278.629 147.219C278.223 147.528 277.723 147.686 277.213 147.669C276.957 147.689 276.699 147.654 276.458 147.565C276.216 147.476 275.997 147.335 275.815 147.153C275.633 146.971 275.493 146.752 275.404 146.511C275.315 146.27 275.279 146.012 275.299 145.755C275.378 145.143 275.689 144.584 276.168 144.194C276.647 143.804 277.258 143.613 277.873 143.66C279.577 143.64 280.61 144.674 280.438 146.655ZM278.649 145.65C278.696 145.191 278.39 144.875 277.864 144.875C277.642 144.859 277.423 144.932 277.254 145.077C277.086 145.222 276.981 145.428 276.964 145.65C276.95 145.755 276.96 145.862 276.994 145.963C277.028 146.063 277.085 146.155 277.16 146.23C277.235 146.305 277.326 146.361 277.427 146.395C277.527 146.429 277.634 146.439 277.739 146.425C277.962 146.441 278.183 146.369 278.353 146.224C278.523 146.079 278.629 145.873 278.649 145.65Z" fill="#263238"/>
<path d="M136.243 163.641L136.128 165.009H131.343L131.439 163.928L133.975 161.727C134.511 161.268 134.606 160.99 134.626 160.77C134.645 160.55 134.415 160.139 133.889 160.139C133.665 160.138 133.444 160.191 133.246 160.294C133.048 160.398 132.877 160.548 132.75 160.732L131.525 160.014C131.827 159.599 132.227 159.266 132.69 159.044C133.153 158.821 133.663 158.718 134.176 158.741C135.583 158.741 136.492 159.469 136.386 160.598C136.335 160.985 136.201 161.356 135.993 161.687C135.785 162.017 135.508 162.299 135.181 162.512L133.879 163.641H136.243Z" fill="#263238"/>
<path d="M136.893 161.899C137.066 159.88 138.31 158.722 139.879 158.722C141.449 158.722 142.463 159.88 142.291 161.899C142.118 163.918 140.874 165.086 139.315 165.086C137.755 165.086 136.721 163.918 136.893 161.899ZM140.549 161.899C140.664 160.617 140.3 160.138 139.755 160.138C139.209 160.138 138.798 160.617 138.635 161.899C138.472 163.182 138.884 163.67 139.439 163.67C139.994 163.67 140.434 163.191 140.549 161.899Z" fill="#263238"/>
<path d="M159.516 163.641L159.392 165.009H154.607L154.703 163.928L157.181 161.784C157.708 161.325 157.803 161.048 157.822 160.828C157.842 160.607 157.621 160.196 157.095 160.196C156.87 160.193 156.647 160.246 156.447 160.35C156.247 160.453 156.075 160.604 155.947 160.789L154.722 160.072C155.024 159.657 155.425 159.324 155.887 159.102C156.35 158.88 156.86 158.776 157.373 158.799C158.779 158.799 159.689 159.526 159.593 160.655C159.539 161.043 159.403 161.414 159.193 161.745C158.984 162.075 158.705 162.356 158.377 162.569L157.133 163.641H159.516Z" fill="#263238"/>
<path d="M163.067 158.856L162.531 164.981H160.77L161.181 160.196H160.052L160.167 158.856H163.067Z" fill="#263238"/>
<path d="M183.555 163.641L183.431 165.009H178.646L178.742 163.928L181.22 161.784C181.756 161.325 181.852 161.048 181.871 160.828C181.89 160.607 181.66 160.196 181.134 160.196C180.91 160.195 180.69 160.248 180.491 160.352C180.293 160.455 180.123 160.605 179.995 160.789L178.77 160.072C179.072 159.657 179.473 159.323 179.935 159.101C180.398 158.879 180.908 158.775 181.421 158.799C182.828 158.799 183.737 159.526 183.632 160.655C183.581 161.042 183.446 161.414 183.238 161.744C183.03 162.074 182.753 162.356 182.426 162.569L181.191 163.641H183.555Z" fill="#263238"/>
<path d="M188.799 163.641L188.675 165.009H183.89L183.986 163.928L186.464 161.784C186.991 161.325 187.086 161.048 187.115 160.828C187.144 160.607 186.904 160.196 186.378 160.196C186.153 160.196 185.932 160.25 185.732 160.353C185.532 160.456 185.36 160.606 185.23 160.789L184.014 160.072C184.314 159.657 184.713 159.323 185.174 159.101C185.635 158.879 186.144 158.775 186.656 158.799C188.072 158.799 188.971 159.526 188.876 160.655C188.824 161.043 188.689 161.416 188.479 161.746C188.269 162.077 187.99 162.357 187.66 162.569L186.416 163.641H188.799Z" fill="#263238"/>
<path d="M206.427 163.641L206.312 165.009H201.527L201.623 163.928L204.12 161.727C204.647 161.268 204.742 160.99 204.761 160.77C204.781 160.55 204.56 160.139 204.034 160.139C203.809 160.136 203.586 160.189 203.386 160.292C203.186 160.396 203.014 160.547 202.886 160.732L201.661 160.014C201.963 159.6 202.364 159.267 202.826 159.045C203.289 158.823 203.799 158.718 204.312 158.741C205.718 158.741 206.627 159.469 206.532 160.598C206.478 160.985 206.342 161.357 206.132 161.687C205.923 162.017 205.644 162.299 205.316 162.512L204.072 163.584L206.427 163.641Z" fill="#263238"/>
<path d="M211.699 163.048C211.613 164.091 210.742 165.086 208.828 165.086C208.012 165.104 207.207 164.896 206.503 164.483L207.249 163.182C207.733 163.515 208.308 163.692 208.895 163.689C209.489 163.689 209.852 163.459 209.929 163.048C210.006 162.636 209.709 162.454 209.039 162.454H208.312L208.407 161.363L209.604 160.177H207.192L207.307 158.837H211.738L211.642 159.928L210.254 161.287C210.466 161.305 210.672 161.365 210.86 161.463C211.048 161.562 211.214 161.698 211.349 161.862C211.484 162.026 211.584 162.216 211.644 162.419C211.704 162.623 211.723 162.837 211.699 163.048Z" fill="#263238"/>
<path d="M229.308 163.641L229.183 165.009H224.398L224.494 163.928L226.992 161.727C227.528 161.267 227.623 160.99 227.642 160.77C227.662 160.55 227.432 160.138 226.906 160.138C226.682 160.137 226.461 160.191 226.263 160.294C226.064 160.398 225.894 160.548 225.767 160.732L224.542 160.014C224.843 159.598 225.243 159.264 225.706 159.042C226.169 158.82 226.68 158.716 227.193 158.741C228.599 158.741 229.508 159.468 229.403 160.598C229.352 160.985 229.218 161.356 229.01 161.687C228.802 162.017 228.525 162.298 228.197 162.512L226.944 163.641H229.308Z" fill="#263238"/>
<path d="M235.528 163.794H234.571L234.466 164.961H232.829L232.934 163.794H229.671L229.767 162.665L232.848 158.837H234.638L231.834 162.416H233.078L233.164 161.382H234.8L234.714 162.416H235.623L235.528 163.794Z" fill="#263238"/>
<path d="M252.179 163.641L252.064 165.009H247.279L247.375 163.928L249.854 161.784C250.38 161.325 250.476 161.048 250.495 160.828C250.514 160.607 250.294 160.196 249.767 160.196C249.542 160.193 249.32 160.246 249.119 160.35C248.919 160.453 248.747 160.604 248.619 160.789L247.394 160.072C247.697 159.657 248.097 159.324 248.56 159.102C249.022 158.88 249.532 158.776 250.045 158.799C251.452 158.799 252.361 159.526 252.265 160.655C252.212 161.043 252.075 161.414 251.866 161.745C251.656 162.075 251.378 162.356 251.05 162.569L249.806 163.641H252.179Z" fill="#263238"/>
<path d="M257.557 163C257.461 164.091 256.552 165.086 254.686 165.086C253.873 165.106 253.071 164.897 252.37 164.483L253.107 163.182C253.591 163.515 254.165 163.692 254.753 163.689C255.346 163.689 255.71 163.45 255.796 163.038C255.882 162.627 255.595 162.416 254.657 162.416H252.992L253.595 158.856H257.5L257.375 160.196H254.916L254.753 161.095H255.165C257.021 161.076 257.653 161.909 257.557 163Z" fill="#263238"/>
<path d="M275.06 163.641L274.935 165.009H270.151L270.246 163.928L272.734 161.727C273.27 161.267 273.356 160.99 273.385 160.77C273.414 160.55 273.175 160.138 272.648 160.138C272.425 160.137 272.204 160.191 272.006 160.294C271.807 160.398 271.637 160.548 271.51 160.732L270.285 160.014C270.586 159.598 270.986 159.264 271.449 159.042C271.912 158.82 272.423 158.716 272.935 158.741C274.342 158.741 275.251 159.468 275.146 160.598C275.095 160.985 274.961 161.356 274.753 161.687C274.544 162.017 274.267 162.298 273.94 162.512L272.734 163.641H275.06Z" fill="#263238"/>
<path d="M280.85 163C280.768 163.612 280.455 164.17 279.974 164.559C279.493 164.947 278.882 165.136 278.266 165.086C276.553 165.086 275.519 164.053 275.692 162.072C275.699 161.617 275.797 161.168 275.981 160.752C276.164 160.335 276.429 159.96 276.76 159.648C277.091 159.336 277.481 159.093 277.907 158.934C278.334 158.775 278.787 158.703 279.242 158.722C279.859 158.698 280.47 158.851 281.003 159.162L280.266 160.407C279.943 160.185 279.557 160.074 279.165 160.091C278.757 160.069 278.355 160.204 278.044 160.47C277.732 160.735 277.534 161.11 277.491 161.517C277.899 161.206 278.403 161.047 278.916 161.067C279.177 161.042 279.439 161.074 279.685 161.162C279.931 161.251 280.154 161.392 280.339 161.577C280.524 161.762 280.666 161.985 280.754 162.231C280.842 162.477 280.875 162.74 280.85 163ZM279.165 163.076C279.18 162.971 279.169 162.864 279.135 162.764C279.101 162.663 279.045 162.572 278.97 162.497C278.895 162.422 278.803 162.365 278.703 162.331C278.602 162.297 278.495 162.287 278.39 162.301C278.275 162.287 278.159 162.296 278.047 162.328C277.936 162.36 277.832 162.414 277.743 162.488C277.653 162.561 277.579 162.652 277.526 162.755C277.473 162.858 277.441 162.97 277.433 163.086C277.433 163.536 277.692 163.852 278.218 163.852C278.332 163.866 278.447 163.857 278.557 163.826C278.667 163.794 278.77 163.741 278.859 163.668C278.947 163.596 279.02 163.506 279.073 163.404C279.126 163.302 279.157 163.191 279.165 163.076Z" fill="#263238"/>
<path d="M134.932 178.665L134.817 180.043H130.032L130.147 178.952L132.625 176.818C133.152 176.359 133.247 176.081 133.267 175.861C133.286 175.641 133.056 175.239 132.539 175.239C132.314 175.235 132.091 175.287 131.89 175.391C131.69 175.494 131.518 175.646 131.391 175.833L130.147 175.124C130.447 174.707 130.847 174.371 131.31 174.147C131.773 173.923 132.284 173.819 132.798 173.842C134.204 173.842 135.114 174.569 135.008 175.708C134.959 176.096 134.826 176.468 134.617 176.799C134.409 177.129 134.131 177.41 133.803 177.622L132.549 178.684L134.932 178.665Z" fill="#263238"/>
<path d="M140.817 173.919L140.721 175L138.118 180.043H136.205L138.683 175.259H137.075L136.989 176.216H135.516L135.716 173.9L140.817 173.919Z" fill="#263238"/>
<path d="M158.196 178.665L158.071 180.043H153.286L153.382 178.952L155.861 176.818C156.387 176.359 156.483 176.081 156.511 175.861C156.54 175.641 156.301 175.239 155.774 175.239C155.549 175.237 155.327 175.29 155.126 175.393C154.926 175.496 154.754 175.647 154.626 175.833L153.411 175.115C153.708 174.697 154.106 174.361 154.568 174.137C155.029 173.913 155.54 173.808 156.052 173.833C157.468 173.833 158.368 174.56 158.272 175.699C158.219 176.086 158.082 176.458 157.873 176.788C157.663 177.118 157.385 177.399 157.057 177.613L155.813 178.675L158.196 178.665Z" fill="#263238"/>
<path d="M164.024 178.245C163.918 179.412 162.779 180.158 161.153 180.158C159.526 180.158 158.559 179.402 158.655 178.245C158.679 177.945 158.78 177.657 158.948 177.407C159.115 177.157 159.344 176.955 159.612 176.819C159.418 176.681 159.266 176.494 159.17 176.276C159.074 176.059 159.038 175.82 159.066 175.584C159.153 174.493 160.215 173.795 161.66 173.795C163.105 173.795 164.033 174.493 163.947 175.584C163.922 175.835 163.839 176.076 163.707 176.29C163.574 176.504 163.394 176.685 163.181 176.819C163.452 176.94 163.678 177.143 163.829 177.398C163.98 177.653 164.048 177.949 164.024 178.245ZM162.291 178.187C162.291 177.718 161.985 177.431 161.44 177.431C161.213 177.407 160.986 177.472 160.807 177.614C160.628 177.755 160.512 177.961 160.483 178.187C160.483 178.656 160.779 178.953 161.334 178.953C161.562 178.972 161.788 178.903 161.966 178.761C162.144 178.618 162.26 178.413 162.291 178.187ZM160.866 175.661C160.866 176.063 161.095 176.302 161.535 176.302C161.63 176.313 161.725 176.304 161.816 176.278C161.908 176.251 161.993 176.207 162.066 176.147C162.14 176.088 162.202 176.014 162.247 175.93C162.292 175.847 162.32 175.755 162.33 175.661C162.33 175.249 162.071 175.01 161.65 175.01C161.556 175.001 161.461 175.01 161.37 175.038C161.279 175.066 161.195 175.111 161.122 175.172C161.049 175.232 160.989 175.307 160.945 175.391C160.901 175.475 160.874 175.566 160.866 175.661Z" fill="#263238"/>
<path d="M182.234 178.666L182.12 180.044H177.335L177.421 178.953L179.909 176.819C180.435 176.359 180.531 176.082 180.55 175.862C180.569 175.642 180.34 175.24 179.823 175.24C179.597 175.235 179.374 175.287 179.174 175.391C178.973 175.495 178.802 175.646 178.675 175.833L177.45 175.115C177.75 174.698 178.15 174.362 178.613 174.138C179.075 173.914 179.587 173.809 180.1 173.833C181.507 173.833 182.416 174.56 182.311 175.699C182.262 176.087 182.128 176.459 181.92 176.789C181.712 177.12 181.434 177.401 181.105 177.613L179.909 178.666H182.234Z" fill="#263238"/>
<path d="M187.995 176.818C187.988 177.274 187.89 177.724 187.705 178.141C187.521 178.558 187.255 178.933 186.923 179.246C186.592 179.558 186.2 179.801 185.773 179.959C185.346 180.117 184.891 180.188 184.435 180.168C183.821 180.187 183.213 180.031 182.684 179.718L183.421 178.474C183.742 178.7 184.13 178.812 184.522 178.79C184.927 178.809 185.325 178.674 185.634 178.411C185.943 178.148 186.141 177.777 186.187 177.373C185.779 177.679 185.28 177.837 184.77 177.823C184.514 177.845 184.255 177.811 184.013 177.722C183.771 177.634 183.551 177.493 183.369 177.311C183.186 177.129 183.046 176.909 182.958 176.667C182.869 176.425 182.835 176.166 182.856 175.909C182.936 175.297 183.247 174.738 183.726 174.348C184.205 173.958 184.815 173.767 185.431 173.814C187.134 173.794 188.168 174.828 187.995 176.818ZM186.206 175.804C186.218 175.698 186.207 175.591 186.172 175.491C186.136 175.39 186.079 175.299 186.003 175.225C185.927 175.15 185.836 175.093 185.735 175.059C185.634 175.025 185.527 175.015 185.421 175.029C185.199 175.013 184.98 175.086 184.811 175.231C184.643 175.376 184.539 175.582 184.522 175.804C184.506 175.909 184.514 176.016 184.547 176.116C184.58 176.217 184.636 176.308 184.71 176.384C184.784 176.459 184.875 176.516 184.975 176.55C185.076 176.584 185.182 176.594 185.287 176.579C185.511 176.595 185.732 176.523 185.904 176.378C186.076 176.234 186.184 176.028 186.206 175.804Z" fill="#263238"/>
<path d="M205.144 178.129C205.048 179.163 204.139 180.168 202.273 180.168C201.458 180.184 200.653 179.975 199.948 179.565L200.694 178.254C201.181 178.589 201.759 178.766 202.35 178.761C202.934 178.761 203.307 178.541 203.374 178.129C203.441 177.718 203.154 177.536 202.493 177.536H201.766L201.862 176.436L203.058 175.258H200.646L200.761 173.919H205.182L205.087 175L203.699 176.369C203.911 176.386 204.117 176.446 204.305 176.545C204.493 176.644 204.659 176.78 204.794 176.944C204.928 177.108 205.029 177.297 205.089 177.501C205.149 177.705 205.168 177.918 205.144 178.129Z" fill="#263238"/>
<path d="M205.804 176.981C205.986 174.962 207.221 173.795 208.79 173.795C210.36 173.795 211.374 174.962 211.202 176.981C211.029 179.001 209.785 180.168 208.226 180.168C206.666 180.168 205.632 179.001 205.804 176.981ZM209.46 176.981C209.575 175.699 209.211 175.211 208.666 175.211C208.12 175.211 207.661 175.699 207.546 176.981C207.431 178.264 207.795 178.752 208.35 178.752C208.905 178.752 209.345 178.264 209.46 176.981Z" fill="#263238"/>
<path d="M141.822 76.0598L138.587 79.3518L141.209 82.9882L141.822 76.0598Z" fill="#263238"/>
<path d="M283.845 76.0598L286.496 79.3518L283.232 82.9882L283.845 76.0598Z" fill="#263238"/>
<path d="M241.384 82.9882H183.325L183.928 76.0598H241.987L241.384 82.9882Z" fill="#263238"/>
<path d="M354.976 207.68H289.089L301.396 67.0547H367.282L354.976 207.68Z" fill="#028090"/>
<path d="M354.976 207.68H289.089L301.396 67.0547H367.282L354.976 207.68Z" fill="black"/>
<path d="M312.927 123.449H306.515C306.146 123.456 305.779 123.385 305.439 123.24C305.099 123.096 304.793 122.881 304.542 122.61C304.291 122.338 304.1 122.017 303.981 121.667C303.863 121.317 303.82 120.946 303.855 120.578L305.903 97.2281C305.989 96.447 306.358 95.7242 306.939 95.1956C307.521 94.6669 308.275 94.3688 309.061 94.3572H315.482C315.851 94.3517 316.217 94.4238 316.557 94.569C316.896 94.7141 317.201 94.9291 317.452 95.1998C317.703 95.4706 317.894 95.7911 318.013 96.1405C318.132 96.49 318.176 96.8605 318.143 97.2281L316.104 120.578C316.016 121.362 315.644 122.086 315.059 122.614C314.474 123.143 313.716 123.44 312.927 123.449Z" fill="white"/>
<path d="M312.927 111.133C312.831 112.176 311.97 113.171 310.056 113.171C309.24 113.188 308.435 112.98 307.731 112.568L308.477 111.266C308.964 111.602 309.542 111.779 310.133 111.774C310.716 111.774 311.09 111.544 311.157 111.133C311.224 110.721 310.937 110.539 310.276 110.539H309.549L309.645 109.448L310.841 108.262H308.42L308.544 106.922H312.965L312.87 108.013L311.482 109.372C311.694 109.39 311.9 109.45 312.087 109.548C312.275 109.647 312.442 109.783 312.576 109.947C312.711 110.111 312.812 110.301 312.872 110.504C312.932 110.708 312.951 110.921 312.927 111.133Z" fill="#263238"/>
<path d="M352.689 123.449H321.329C320.96 123.456 320.593 123.385 320.253 123.24C319.913 123.096 319.607 122.881 319.356 122.61C319.105 122.338 318.914 122.017 318.795 121.667C318.677 121.317 318.634 120.946 318.669 120.578L320.707 97.2281C320.798 96.447 321.169 95.7252 321.751 95.1971C322.334 94.6691 323.088 94.3706 323.875 94.3572H355.244C355.613 94.3515 355.978 94.4237 356.317 94.5689C356.656 94.7142 356.961 94.9293 357.211 95.2002C357.461 95.4712 357.651 95.7918 357.769 96.1413C357.887 96.4907 357.93 96.861 357.895 97.2281L355.856 120.578C355.766 121.359 355.395 122.081 354.812 122.609C354.23 123.137 353.475 123.436 352.689 123.449Z" fill="#028090"/>
<path d="M349.579 158.942H318.219C317.85 158.948 317.484 158.876 317.144 158.731C316.805 158.585 316.5 158.37 316.249 158.1C315.998 157.829 315.807 157.508 315.688 157.159C315.569 156.81 315.525 156.439 315.559 156.071L317.606 132.722C317.697 131.94 318.068 131.219 318.65 130.691C319.233 130.162 319.988 129.864 320.774 129.851H352.162C352.531 129.845 352.898 129.917 353.237 130.062C353.576 130.208 353.881 130.423 354.132 130.693C354.383 130.964 354.574 131.285 354.693 131.634C354.812 131.983 354.856 132.354 354.823 132.722L352.775 156.071C352.684 156.857 352.309 157.583 351.72 158.112C351.131 158.641 350.37 158.936 349.579 158.942Z" fill="#263238"/>
<path d="M346.478 194.446H315.109C314.74 194.451 314.374 194.379 314.035 194.234C313.696 194.089 313.392 193.874 313.142 193.603C312.892 193.332 312.701 193.011 312.584 192.662C312.466 192.312 312.423 191.942 312.458 191.575L314.496 168.225C314.587 167.444 314.958 166.722 315.54 166.194C316.123 165.666 316.878 165.367 317.664 165.354H349.024C349.393 165.347 349.76 165.418 350.1 165.563C350.44 165.707 350.746 165.922 350.997 166.193C351.248 166.464 351.439 166.786 351.558 167.136C351.676 167.486 351.719 167.857 351.684 168.225L349.636 191.575C349.55 192.356 349.181 193.079 348.6 193.607C348.018 194.136 347.264 194.434 346.478 194.446Z" fill="#028090"/>
<path d="M309.836 158.942H303.415C303.046 158.948 302.68 158.876 302.341 158.731C302.002 158.585 301.698 158.37 301.448 158.099C301.198 157.828 301.007 157.508 300.89 157.158C300.772 156.809 300.729 156.439 300.764 156.071L302.802 132.722C302.893 131.94 303.264 131.219 303.846 130.691C304.429 130.162 305.184 129.864 305.97 129.851H312.391C312.76 129.845 313.126 129.917 313.464 130.062C313.803 130.208 314.108 130.423 314.358 130.694C314.608 130.965 314.798 131.285 314.916 131.635C315.034 131.984 315.077 132.354 315.042 132.722L313.003 156.071C312.913 156.853 312.542 157.574 311.959 158.102C311.377 158.631 310.622 158.929 309.836 158.942Z" fill="white"/>
<path d="M306.573 140.492L306.037 146.617H304.314L304.735 141.832H303.597L303.711 140.492H306.573Z" fill="#263238"/>
<path d="M311.836 144.703C311.75 145.746 310.879 146.741 308.965 146.741C308.149 146.759 307.344 146.551 306.64 146.138L307.377 144.837C307.866 145.165 308.442 145.342 309.032 145.344C309.616 145.344 309.989 145.114 310.056 144.703C310.123 144.291 309.845 144.109 309.176 144.109H308.448L308.544 143.018L309.74 141.832H307.329L307.443 140.492H311.874L311.779 141.583L310.391 142.942C310.603 142.958 310.81 143.018 310.998 143.116C311.187 143.214 311.354 143.35 311.489 143.514C311.624 143.679 311.724 143.869 311.784 144.073C311.843 144.277 311.861 144.491 311.836 144.703Z" fill="#263238"/>
<path d="M306.726 194.446H300.314C299.945 194.453 299.578 194.382 299.238 194.237C298.898 194.092 298.592 193.877 298.341 193.606C298.089 193.335 297.898 193.014 297.78 192.664C297.662 192.314 297.619 191.943 297.654 191.575L299.692 168.225C299.782 167.444 300.153 166.722 300.736 166.194C301.319 165.666 302.073 165.367 302.86 165.354H309.281C309.65 165.348 310.016 165.421 310.355 165.566C310.695 165.711 311 165.926 311.251 166.197C311.502 166.467 311.693 166.788 311.812 167.137C311.931 167.487 311.975 167.857 311.941 168.225L309.893 191.575C309.803 192.356 309.432 193.078 308.849 193.606C308.267 194.134 307.512 194.432 306.726 194.446Z" fill="white"/>
<path d="M353.55 83.4763H313.951L314.602 76.0598H354.191L353.55 83.4763Z" fill="white"/>
<path d="M216.274 57.2078C216.376 56.1301 216.887 55.1325 217.702 54.4204C218.518 53.7083 219.575 53.3359 220.657 53.3799C221.24 53.3443 221.823 53.4522 222.356 53.6941C222.888 53.936 223.353 54.3045 223.709 54.7675L222.274 55.9733C222.091 55.7042 221.843 55.4846 221.554 55.3344C221.266 55.1841 220.944 55.1077 220.618 55.112C220.044 55.099 219.487 55.3125 219.068 55.7063C218.649 56.1001 218.401 56.6428 218.379 57.2174C218.331 57.4839 218.344 57.7579 218.417 58.0188C218.49 58.2797 218.621 58.5205 218.801 58.7232C218.98 58.926 219.204 59.0852 219.454 59.1891C219.704 59.2929 219.975 59.3386 220.245 59.3227C220.593 59.3179 220.936 59.2376 221.25 59.0872C221.564 58.9369 221.841 58.7201 222.063 58.4518L223.279 59.6576C222.862 60.112 222.352 60.4712 221.784 60.7106C221.216 60.9501 220.603 61.0642 219.987 61.0452C219.477 61.0903 218.964 61.0209 218.484 60.8422C218.004 60.6634 217.571 60.3798 217.215 60.012C216.859 59.6442 216.59 59.2015 216.427 58.7164C216.264 58.2312 216.212 57.7158 216.274 57.2078Z" fill="white"/>
<path d="M229.021 59.4564H225.91L225.202 60.8918H223.078L226.973 53.5232H229.03L231.643 60.8918H229.48L229.021 59.4564ZM228.552 57.9157L227.805 55.5615L226.657 57.9157H228.552Z" fill="white"/>
<path d="M232.877 53.5232H234.963L234.466 59.265H237.978L237.834 60.9205H232.236L232.877 53.5232Z" fill="white"/>
<path d="M244.715 59.2745L244.571 60.8918H238.657L239.298 53.5232H245.04L244.897 55.1309H241.183L241.078 56.3749H244.351L244.217 57.9252H240.944L240.82 59.2745H244.715Z" fill="white"/>
<path d="M253.385 53.5232L252.744 60.8918H251.021L248.15 56.9587L247.806 60.8918H245.767L246.408 53.5232H248.131L251.002 57.4467L251.346 53.5232H253.385Z" fill="white"/>
<path d="M254.858 53.5232H258.38C260.82 53.5232 262.371 54.9395 262.208 57.2075C262.045 59.4755 260.208 60.8918 257.768 60.8918H254.284L254.858 53.5232ZM257.729 59.265C258.012 59.2857 258.297 59.2496 258.565 59.1587C258.834 59.0679 259.082 58.9241 259.294 58.7359C259.506 58.5477 259.679 58.3189 259.801 58.0629C259.924 57.807 259.994 57.5292 260.007 57.2458C260.051 56.9794 260.033 56.7063 259.955 56.448C259.876 56.1897 259.739 55.953 259.553 55.7566C259.368 55.5601 259.14 55.4092 258.886 55.3156C258.633 55.222 258.362 55.1883 258.093 55.217H256.782L256.428 59.265H257.729Z" fill="white"/>
<path d="M267.864 59.4564H264.753L264.045 60.8918H261.921L265.816 53.5232H267.873L270.486 60.8918H268.323L267.864 59.4564ZM267.395 57.9157L266.648 55.5615L265.5 57.9157H267.395Z" fill="white"/>
<path d="M274.467 58.9303H273.337L273.165 60.8442H271.079L271.72 53.4756H275.089C277.098 53.4756 278.275 54.5091 278.122 56.2029C278.09 56.7049 277.919 57.188 277.628 57.5986C277.338 58.0092 276.939 58.331 276.476 58.5284L277.864 60.8442H275.605L274.467 58.9303ZM274.821 55.1598H273.691L273.5 57.3226H274.648C275.519 57.3226 275.979 56.9207 276.036 56.2508C276.093 55.5809 275.682 55.1598 274.821 55.1598Z" fill="white"/>
<path d="M140.674 59.6095H139.717C139.521 59.6133 139.327 59.5755 139.148 59.4986C138.968 59.4218 138.807 59.3076 138.675 59.1638C138.543 59.0199 138.443 58.8495 138.381 58.6641C138.32 58.4786 138.299 58.2822 138.319 58.0879L138.406 57.131C138.448 56.7187 138.639 56.3362 138.944 56.0558C139.25 55.7754 139.647 55.6166 140.061 55.6094H141.018C141.213 55.6056 141.407 55.6434 141.587 55.7202C141.766 55.7971 141.928 55.9112 142.06 56.0551C142.192 56.199 142.292 56.3693 142.353 56.5548C142.414 56.7403 142.436 56.9367 142.415 57.131L142.329 58.0879C142.287 58.5001 142.095 58.8826 141.79 59.163C141.485 59.4434 141.088 59.6023 140.674 59.6095Z" fill="white"/>
<path d="M146.702 59.6095H145.745C145.55 59.6135 145.357 59.5757 145.178 59.4988C144.998 59.4219 144.838 59.3075 144.706 59.1634C144.575 59.0194 144.476 58.8489 144.416 58.6634C144.356 58.4779 144.336 58.2817 144.358 58.0879L144.444 57.131C144.486 56.7188 144.678 56.3363 144.983 56.0559C145.288 55.7755 145.685 55.6166 146.099 55.6094H147.056C147.251 55.6055 147.445 55.6432 147.624 55.7201C147.803 55.7971 147.964 55.9114 148.095 56.0555C148.227 56.1996 148.326 56.3701 148.386 56.5555C148.446 56.741 148.466 56.9372 148.444 57.131L148.367 58.0879C148.323 58.501 148.129 58.8836 147.823 59.1638C147.516 59.444 147.118 59.6026 146.702 59.6095Z" fill="white"/>
<path d="M152.703 59.6095H151.746C151.551 59.6135 151.357 59.5757 151.178 59.4988C150.999 59.4219 150.838 59.3075 150.707 59.1634C150.575 59.0194 150.476 58.8489 150.416 58.6634C150.356 58.4779 150.336 58.2817 150.358 58.0879L150.444 57.131C150.484 56.7196 150.674 56.3372 150.977 56.0566C151.281 55.7761 151.677 55.6169 152.09 55.6094H153.047C153.242 55.6055 153.436 55.6432 153.615 55.7201C153.794 55.7971 153.955 55.9114 154.086 56.0555C154.217 56.1996 154.316 56.3701 154.377 56.5555C154.437 56.741 154.457 56.9372 154.435 57.131L154.349 58.0879C154.309 58.4993 154.119 58.8817 153.815 59.1623C153.512 59.4429 153.116 59.6021 152.703 59.6095Z" fill="white"/>
<path d="M304.238 182.541L304.113 183.91H299.329L299.424 182.828L301.903 180.685C302.429 180.225 302.525 179.948 302.554 179.728C302.554 179.326 302.343 179.096 301.817 179.096C301.592 179.095 301.37 179.149 301.17 179.252C300.97 179.355 300.798 179.505 300.668 179.689L299.453 178.972C299.751 178.554 300.148 178.217 300.61 177.993C301.071 177.769 301.582 177.665 302.094 177.689C303.501 177.689 304.41 178.417 304.314 179.555C304.261 179.943 304.125 180.314 303.915 180.645C303.705 180.975 303.427 181.256 303.099 181.469L301.855 182.541H304.238Z" fill="#263238"/>
<path d="M309.511 181.996C309.415 183.039 308.506 184.034 306.64 184.034C305.824 184.052 305.019 183.843 304.314 183.431L305.061 182.13C305.549 182.461 306.126 182.638 306.716 182.637C307.3 182.637 307.673 182.407 307.74 181.996C307.807 181.584 307.52 181.402 306.86 181.402H306.133L306.228 180.302L307.424 179.125H305.003L305.128 177.785H309.549L309.453 178.876L308.066 180.235C308.277 180.253 308.483 180.313 308.671 180.412C308.859 180.511 309.025 180.646 309.16 180.81C309.295 180.974 309.395 181.164 309.455 181.367C309.516 181.571 309.534 181.785 309.511 181.996Z" fill="#263238"/>
<path d="M351.177 106.195H325.32L325.406 105.238H351.263L351.177 106.195Z" fill="white"/>
<path d="M337.865 110.51H324.946L325.023 109.553H337.951L337.865 110.51Z" fill="white"/>
<path d="M344.966 177.153H319.109L319.195 176.196H345.052L344.966 177.153Z" fill="white"/>
<path d="M331.664 181.479H318.736L318.812 180.522H331.741L331.664 181.479Z" fill="white"/>
<path d="M348.095 141.439H322.238L322.315 140.482H348.172L348.095 141.439Z" fill="white"/>
<path d="M334.784 145.756H321.855L321.941 144.799H334.87L334.784 145.756Z" fill="white"/>
<path d="M351.426 99.2567C351.99 97.8978 351.626 96.9121 352.966 96.9121C354.306 96.9121 353.627 97.8691 354.105 99.2567C354.354 99.9361 353.454 99.8117 352.717 99.8117C351.981 99.8117 351.129 99.9552 351.426 99.2567Z" fill="white"/>
<path d="M352.928 97.3523C352.872 97.3525 352.816 97.341 352.765 97.3185C352.713 97.2959 352.667 97.2629 352.629 97.2214C352.592 97.1799 352.563 97.1309 352.545 97.0777C352.527 97.0244 352.521 96.968 352.526 96.9121C352.54 96.7935 352.596 96.6838 352.684 96.603C352.771 96.5222 352.885 96.4757 353.005 96.4719C353.061 96.4701 353.118 96.4805 353.17 96.5026C353.222 96.5246 353.269 96.5577 353.307 96.5995C353.345 96.6413 353.374 96.6909 353.391 96.7449C353.408 96.7988 353.413 96.8559 353.407 96.9121C353.397 97.0322 353.342 97.1443 353.254 97.2259C353.165 97.3075 353.049 97.3527 352.928 97.3523ZM352.985 96.7016C352.928 96.7034 352.874 96.7257 352.832 96.7643C352.79 96.8029 352.763 96.8553 352.756 96.9121C352.753 96.9388 352.756 96.9657 352.764 96.9912C352.773 97.0167 352.787 97.0401 352.805 97.06C352.823 97.0798 352.845 97.0957 352.869 97.1065C352.894 97.1172 352.92 97.1228 352.947 97.1226C353.004 97.1207 353.059 97.0985 353.101 97.0599C353.143 97.0212 353.17 96.9688 353.177 96.9121C353.18 96.8854 353.177 96.8584 353.168 96.8329C353.16 96.8075 353.146 96.7841 353.128 96.7642C353.11 96.7443 353.088 96.7285 353.063 96.7177C353.039 96.7069 353.012 96.7014 352.985 96.7016Z" fill="white"/>
<path d="M348.335 134.932C348.899 133.573 348.536 132.597 349.875 132.597C351.215 132.597 350.536 133.554 351.014 134.932C351.263 135.611 350.363 135.497 349.627 135.497C348.89 135.497 348.009 135.611 348.335 134.932Z" fill="white"/>
<path d="M349.808 133.018C349.752 133.019 349.697 133.007 349.645 132.984C349.594 132.962 349.548 132.929 349.51 132.887C349.472 132.846 349.443 132.797 349.425 132.744C349.407 132.69 349.401 132.634 349.406 132.578C349.418 132.459 349.473 132.348 349.562 132.267C349.65 132.186 349.765 132.14 349.885 132.138C349.941 132.136 349.998 132.147 350.05 132.169C350.102 132.191 350.149 132.224 350.187 132.265C350.225 132.307 350.254 132.357 350.271 132.411C350.288 132.465 350.294 132.522 350.287 132.578C350.275 132.697 350.22 132.808 350.132 132.889C350.043 132.971 349.928 133.017 349.808 133.018ZM349.866 132.368C349.809 132.369 349.754 132.392 349.712 132.43C349.67 132.469 349.643 132.521 349.636 132.578C349.633 132.605 349.636 132.632 349.645 132.657C349.653 132.683 349.667 132.706 349.685 132.726C349.703 132.746 349.725 132.762 349.749 132.772C349.774 132.783 349.801 132.789 349.827 132.789C349.885 132.787 349.939 132.764 349.981 132.726C350.023 132.687 350.05 132.635 350.057 132.578C350.061 132.551 350.059 132.523 350.052 132.496C350.044 132.469 350.031 132.445 350.012 132.424C349.994 132.403 349.972 132.386 349.946 132.375C349.921 132.363 349.893 132.358 349.866 132.358V132.368Z" fill="white"/>
<path d="M345.186 170.56C345.751 169.201 345.387 168.215 346.727 168.215C348.067 168.215 347.387 169.172 347.866 170.56C348.114 171.23 347.215 171.115 346.478 171.115C345.741 171.115 344.889 171.297 345.186 170.56Z" fill="white"/>
<path d="M346.689 168.656C346.633 168.656 346.577 168.644 346.525 168.622C346.474 168.599 346.428 168.566 346.39 168.525C346.352 168.483 346.323 168.434 346.306 168.381C346.288 168.328 346.281 168.271 346.287 168.215C346.3 168.097 346.356 167.987 346.444 167.906C346.532 167.825 346.646 167.779 346.765 167.775C346.822 167.773 346.878 167.784 346.93 167.806C346.983 167.828 347.029 167.861 347.068 167.903C347.106 167.945 347.134 167.994 347.152 168.048C347.169 168.102 347.174 168.159 347.167 168.215C347.155 168.335 347.1 168.445 347.012 168.527C346.924 168.608 346.809 168.654 346.689 168.656ZM346.746 168.005C346.689 168.007 346.634 168.029 346.592 168.068C346.55 168.106 346.523 168.159 346.516 168.215C346.514 168.242 346.517 168.269 346.525 168.294C346.534 168.32 346.547 168.343 346.565 168.363C346.583 168.383 346.605 168.399 346.63 168.41C346.654 168.42 346.681 168.426 346.708 168.426C346.766 168.426 346.821 168.404 346.864 168.365C346.906 168.326 346.933 168.273 346.937 168.215C346.94 168.189 346.937 168.162 346.929 168.136C346.92 168.111 346.907 168.087 346.889 168.067C346.871 168.048 346.849 168.032 346.824 168.021C346.799 168.01 346.773 168.005 346.746 168.005Z" fill="white"/>
<path opacity="0.2" d="M150.09 34.5562L100.471 220.14H117.17L166.244 34.5562H150.09Z" fill="white"/>
<path opacity="0.2" d="M175.852 34.5562L126.233 220.14H159.344L208.417 34.5562H175.852Z" fill="white"/>
<path opacity="0.4" d="M118.438 125.421C119.338 121.609 116.977 117.79 113.165 116.89C109.354 115.991 105.535 118.351 104.635 122.163C103.735 125.974 106.096 129.793 109.908 130.693C113.719 131.593 117.538 129.232 118.438 125.421Z" fill="white"/>
<path opacity="0.4" d="M372.67 123.803C372.67 124.505 372.462 125.192 372.071 125.776C371.681 126.36 371.126 126.815 370.476 127.084C369.827 127.352 369.113 127.422 368.424 127.284C367.735 127.146 367.102 126.807 366.606 126.31C366.11 125.812 365.773 125.179 365.637 124.49C365.501 123.8 365.572 123.086 365.843 122.437C366.113 121.789 366.569 121.235 367.154 120.846C367.74 120.457 368.427 120.251 369.129 120.252C369.595 120.252 370.056 120.344 370.487 120.523C370.917 120.701 371.308 120.963 371.637 121.293C371.965 121.623 372.226 122.014 372.403 122.445C372.581 122.876 372.671 123.337 372.67 123.803Z" fill="white"/>
<path d="M323.166 60.9587C323.131 61.2973 322.974 61.6116 322.724 61.8424C322.474 62.0733 322.148 62.2048 321.807 62.2123C321.647 62.2147 321.488 62.1829 321.341 62.1191C321.195 62.0554 321.063 61.9611 320.955 61.8425C320.847 61.7239 320.766 61.5838 320.717 61.4314C320.667 61.2791 320.651 61.1179 320.669 60.9587C320.704 60.621 320.861 60.3079 321.112 60.0786C321.362 59.8494 321.688 59.7199 322.028 59.7147C322.187 59.7109 322.346 59.7414 322.493 59.8041C322.64 59.8668 322.772 59.9602 322.88 60.078C322.987 60.1958 323.069 60.3354 323.118 60.4873C323.168 60.6392 323.184 60.7999 323.166 60.9587Z" fill="white"/>
<path d="M324.545 57.2459L323.942 58.2698C323.25 57.9712 322.503 57.8243 321.75 57.8392C321.069 57.8375 320.395 57.9879 319.779 58.2794L319.291 57.2555C320.114 56.8734 321.01 56.6755 321.918 56.6755C322.825 56.6755 323.722 56.8734 324.545 57.2555V57.2459Z" fill="white"/>
<path d="M326.238 54.3559L325.626 55.3894C324.481 54.8513 323.225 54.5891 321.961 54.6238C320.736 54.6246 319.528 54.9062 318.43 55.4468L317.951 54.4324C319.229 53.7971 320.638 53.4694 322.066 53.4755C323.507 53.431 324.938 53.733 326.238 54.3559Z" fill="white"/>
<path d="M327.942 51.4181L327.329 52.4803C325.727 51.6964 323.953 51.3278 322.171 51.4086C320.397 51.3925 318.643 51.7923 317.051 52.576L316.583 51.6191C318.352 50.7405 320.301 50.2851 322.276 50.2889C324.229 50.1941 326.175 50.5819 327.942 51.4181Z" fill="white"/>
<path d="M344.851 62.4135C344.064 62.4261 343.282 62.2712 342.559 61.9591C341.836 61.6469 341.187 61.1846 340.656 60.6028C340.125 60.021 339.723 59.333 339.478 58.5844C339.233 57.8357 339.15 57.0435 339.234 56.2602C339.407 54.5935 340.183 53.0476 341.417 51.9141C342.651 50.7805 344.257 50.1377 345.933 50.1069V50.3749C344.332 50.4042 342.797 51.0193 341.619 52.1039C340.441 53.1884 339.701 54.6671 339.54 56.2602C339.459 57.0092 339.537 57.767 339.771 58.4833C340.005 59.1995 340.388 59.8578 340.896 60.4145C341.404 60.9711 342.024 61.4133 342.716 61.7118C343.408 62.0102 344.155 62.1581 344.909 62.1455L344.851 62.4135Z" fill="white"/>
<path d="M345.071 62.6525H344.832C344.012 62.6714 343.198 62.5145 342.443 62.1922C341.689 61.8699 341.012 61.3897 340.459 60.784C339.906 60.1783 339.489 59.4611 339.237 58.6807C338.984 57.9004 338.902 57.0749 338.995 56.2599C339.176 54.5297 339.983 52.9253 341.264 51.7482C342.546 50.571 344.212 49.9022 345.952 49.8674H346.191L346.124 50.6139H345.885C344.349 50.6433 342.877 51.2338 341.747 52.274C340.617 53.3142 339.907 54.732 339.751 56.2599C339.672 56.9785 339.747 57.7056 339.971 58.3929C340.195 59.0802 340.562 59.7119 341.049 60.2461C341.536 60.7802 342.132 61.2045 342.795 61.4907C343.459 61.7769 344.176 61.9185 344.899 61.906H345.138L345.071 62.6525Z" fill="white"/>
<path d="M344.851 62.4134V62.1455C346.452 62.1162 347.987 61.501 349.165 60.4165C350.343 59.332 351.082 57.8532 351.244 56.2602C351.325 55.5111 351.246 54.7533 351.013 54.0371C350.779 53.3209 350.395 52.6625 349.888 52.1059C349.38 51.5493 348.759 51.107 348.068 50.8086C347.376 50.5101 346.628 50.3623 345.875 50.3748V50.1069C346.663 50.0925 347.445 50.2463 348.168 50.558C348.892 50.8697 349.541 51.3322 350.071 51.9145C350.602 52.4969 351.002 53.1857 351.246 53.9351C351.489 54.6844 351.57 55.4771 351.483 56.2602C351.314 57.9164 350.547 59.4545 349.327 60.5869C348.106 61.7193 346.515 62.3686 344.851 62.4134Z" fill="white"/>
<path d="M344.832 62.6528H344.593L344.66 61.9064H344.899C346.435 61.877 347.906 61.2864 349.037 60.2463C350.167 59.2061 350.877 57.7882 351.033 56.2603C351.112 55.5418 351.037 54.8146 350.813 54.1273C350.589 53.4401 350.222 52.8083 349.735 52.2742C349.247 51.74 348.652 51.3158 347.988 51.0295C347.325 50.7433 346.608 50.6017 345.885 50.6142H345.646L345.713 49.8678H345.952C346.771 49.8502 347.585 50.0082 348.338 50.3311C349.091 50.654 349.766 51.1343 350.318 51.7399C350.87 52.3454 351.286 53.0621 351.538 53.8418C351.79 54.6215 351.873 55.4462 351.78 56.2603C351.602 57.9905 350.798 59.596 349.518 60.7737C348.238 61.9514 346.571 62.6198 344.832 62.6528Z" fill="white"/>
<path d="M348.536 56.2601H348.268C348.44 54.2696 347.665 51.5997 345.837 50.3557L346 50.126C347.904 51.4274 348.717 54.1931 348.536 56.2601Z" fill="white"/>
<path d="M348.756 56.4609H348.009V56.2217C348.172 54.3077 347.426 51.7144 345.665 50.4799L345.483 50.3555L345.942 49.7239L346.124 49.8483C348.095 51.188 348.995 54.0494 348.756 56.1834V56.4609Z" fill="white"/>
<path d="M344.947 62.203L344.813 61.9733C345.782 61.2972 346.593 60.4195 347.191 59.4003C347.789 58.3811 348.16 57.2446 348.277 56.0688H348.555C348.429 57.2905 348.042 58.4708 347.42 59.5293C346.797 60.5879 345.954 61.4998 344.947 62.203Z" fill="white"/>
<path d="M344.842 62.538L344.497 61.9065L344.708 61.782C345.646 61.1237 346.43 60.2691 347.005 59.2777C347.58 58.2862 347.932 57.1815 348.038 56.0403V55.801H348.784V56.0403C348.654 57.3034 348.252 58.5235 347.606 59.6169C346.96 60.7104 346.086 61.6513 345.043 62.3754L344.842 62.538Z" fill="white"/>
<path d="M342.516 56.2601H342.248C342.372 55.038 342.758 53.857 343.381 52.7982C344.004 51.7394 344.848 50.8278 345.856 50.126L345.981 50.3557C345.013 51.0336 344.203 51.9118 343.605 52.9306C343.008 53.9494 342.636 55.085 342.516 56.2601Z" fill="white"/>
<path d="M342.736 56.4612H341.99V56.222C342.119 54.9594 342.519 53.7396 343.163 52.6461C343.807 51.5527 344.68 50.6114 345.722 49.8869L345.933 49.7625L346.287 50.3941L346.076 50.5185C345.137 51.1768 344.352 52.0311 343.776 53.0225C343.199 54.0138 342.844 55.1185 342.736 56.2602V56.4612Z" fill="white"/>
<path d="M344.794 62.203C342.88 60.9015 342.086 58.1359 342.258 56.0688H342.535C342.363 58.0593 343.138 60.7293 344.966 61.9733L344.794 62.203Z" fill="white"/>
<path d="M344.842 62.5379L344.65 62.4135C342.679 61.0737 341.837 58.2124 342.019 56.0784V55.8391H342.765V56.0784C342.593 57.9923 343.339 60.5856 345.1 61.8201L345.291 61.9445L344.842 62.5379Z" fill="white"/>
<path d="M344.995 62.2796H344.727L345.779 50.241H346.057L344.995 62.2796Z" fill="white"/>
<path d="M345.215 62.5188H344.469L345.569 50.0017H346.315L345.215 62.5188Z" fill="white"/>
<path d="M350.756 53.1884H340.564L340.593 52.9204H350.775L350.756 53.1884Z" fill="white"/>
<path d="M350.976 53.4276H340.306L340.373 52.6812H351.033L350.976 53.4276Z" fill="white"/>
<path d="M351.387 56.4994H339.358L339.377 56.2314H351.406L351.387 56.4994Z" fill="white"/>
<path d="M351.607 56.7386H339.09L339.157 55.9922H351.674L351.607 56.7386Z" fill="white"/>
<path d="M350.038 59.8009H340.124L340.143 59.533H350.067L350.038 59.8009Z" fill="white"/>
<path d="M350.258 60.0404H339.856L339.923 59.2939H350.325L350.258 60.0404Z" fill="white"/>
<path d="M236.886 340.468L243.691 334.822L226.523 318.525L219.192 324.783L236.886 340.468Z" fill="#CB7A63"/>
<path d="M249.222 332.64C248.444 332.405 247.609 332.446 246.858 332.755C246.399 332.889 245.901 333.042 245.499 333.205C245.097 333.367 244.858 333.444 244.609 333.549L243.844 333.884C243.802 333.899 243.767 333.927 243.741 333.962C243.716 333.998 243.701 334.041 243.7 334.085C243.689 334.116 243.689 334.15 243.7 334.181C243.735 334.231 243.785 334.268 243.844 334.286C244.812 334.543 245.802 334.709 246.801 334.783C247.288 334.849 247.783 334.814 248.255 334.678H248.322C248.592 334.591 248.852 334.476 249.097 334.334C249.253 334.207 249.376 334.043 249.454 333.858C249.532 333.673 249.564 333.472 249.547 333.272C249.552 333.147 249.524 333.024 249.467 332.913C249.41 332.803 249.326 332.709 249.222 332.64ZM249.126 333.262C249.147 333.397 249.131 333.536 249.079 333.662C249.026 333.789 248.94 333.899 248.83 333.98C248.601 334.148 248.335 334.256 248.054 334.295C247.669 334.366 247.277 334.385 246.887 334.353C246.28 334.322 245.675 334.249 245.078 334.133L244.628 334.037C245.438 333.65 246.289 333.355 247.164 333.157C247.63 333.044 248.104 332.964 248.581 332.917C248.725 332.914 248.868 332.95 248.992 333.023C249.033 333.048 249.066 333.083 249.09 333.125C249.113 333.167 249.126 333.214 249.126 333.262Z" fill="#028090"/>
<path d="M246.093 329.051C245.874 329.086 245.665 329.166 245.478 329.287C245.292 329.407 245.133 329.564 245.011 329.75C244.935 329.864 244.87 329.985 244.82 330.113C244.446 331.219 244.374 332.405 244.609 333.549V333.597C244.615 333.636 244.631 333.673 244.656 333.703C244.682 333.734 244.715 333.757 244.753 333.769C244.774 333.778 244.797 333.783 244.82 333.783C244.843 333.783 244.866 333.778 244.887 333.769C244.921 333.764 244.951 333.747 244.973 333.721C245.157 333.557 245.33 333.381 245.49 333.195C245.793 332.835 246.065 332.451 246.303 332.046C246.896 331.089 247.318 329.998 247.059 329.434C246.963 329.194 246.715 328.946 246.093 329.051ZM246.667 329.616C246.829 329.989 246.504 330.84 246.026 331.683C245.734 332.197 245.388 332.679 244.992 333.118C244.86 332.253 244.905 331.371 245.126 330.525C245.182 330.341 245.266 330.166 245.375 330.008C245.53 329.772 245.764 329.6 246.035 329.52H246.169C246.571 329.424 246.648 329.577 246.667 329.616Z" fill="#028090"/>
<path d="M242.81 334.41L234.255 338.764C234.092 338.842 233.961 338.975 233.887 339.14C233.814 339.305 233.802 339.491 233.853 339.664L236.38 347.674C236.44 347.864 236.538 348.04 236.668 348.191C236.797 348.343 236.956 348.467 237.134 348.556C237.313 348.645 237.507 348.698 237.706 348.711C237.905 348.724 238.105 348.696 238.293 348.631L238.447 348.573C253.098 343.415 257.586 339.769 259.127 338.937C263.49 336.554 261.04 333.463 259.404 333.846C252.093 335.597 249.643 335.147 246.475 334.334C245.265 334.068 244.009 334.094 242.81 334.41Z" fill="#263238"/>
<path opacity="0.2" d="M226.523 318.534L235.221 326.238L227.891 332.497L219.192 324.793L226.523 318.534Z" fill="black"/>
<path d="M223.824 332.439L234.753 322.352L232.351 318.122L219.7 328.984L223.824 332.439Z" fill="#028090"/>
<path d="M230.628 319.625L229.164 320.888L226.982 322.802L225.671 323.922L221.843 327.195L221.106 327.826C221.106 327.826 205.527 319.051 196.857 311.558C190.914 306.419 190.378 304.515 189.747 304.993C181.373 311.366 156.588 333.396 142.53 344.86C142.08 344.918 141.621 344.956 141.162 344.994C133.659 345.54 127.764 344.726 123.171 342.975C123.123 336.879 128.329 322.649 128.759 321.271C128.759 321.271 149.487 300.658 183.086 283.222C183.412 283.06 183.756 282.916 184.101 282.772C184.445 282.629 184.971 282.399 185.412 282.246C187.056 281.59 188.793 281.196 190.56 281.079C192.049 281.019 193.535 281.253 194.933 281.768C195.733 282.049 196.511 282.392 197.259 282.792C197.916 283.134 198.555 283.511 199.173 283.921C200.206 284.581 201.211 285.318 202.168 286.045C204.312 287.701 220.542 308.601 229.269 318.247C229.776 318.668 230.207 319.175 230.628 319.625Z" fill="#028090"/>
<path d="M230.628 319.625L229.164 320.888L226.982 322.802L225.671 323.922L221.843 327.195L221.106 327.826C221.106 327.826 205.527 319.051 196.857 311.558C190.914 306.419 190.378 304.515 189.747 304.993C181.373 311.366 156.588 333.396 142.53 344.86C142.08 344.918 141.621 344.956 141.162 344.994C133.659 345.54 127.764 344.726 123.171 342.975C123.123 336.879 128.329 322.649 128.759 321.271C128.759 321.271 149.487 300.658 183.086 283.222C183.412 283.06 183.756 282.916 184.101 282.772C184.445 282.629 184.971 282.399 185.412 282.246C187.056 281.59 188.793 281.196 190.56 281.079C192.049 281.019 193.535 281.253 194.933 281.768C195.733 282.049 196.511 282.392 197.259 282.792C197.916 283.134 198.555 283.511 199.173 283.921C200.206 284.581 201.211 285.318 202.168 286.045C204.312 287.701 220.542 308.601 229.269 318.247C229.776 318.668 230.207 319.175 230.628 319.625Z" fill="black"/>
<path d="M240.81 344.755L248.188 337.558L233.91 319.625L224.992 324.888L240.81 344.755Z" fill="#CB7A63"/>
<path d="M255.72 335.348C254.897 335.061 253.222 335.98 251.892 336.793L251.04 337.358L250.906 337.453L250.332 337.865C250.289 337.889 250.256 337.926 250.237 337.971C250.218 338.016 250.214 338.066 250.227 338.114C250.239 338.161 250.266 338.203 250.304 338.234C250.342 338.265 250.388 338.283 250.437 338.286C251.319 338.319 252.201 338.29 253.078 338.2L253.653 338.133C254.289 338.087 254.902 337.875 255.433 337.52C255.618 337.397 255.794 337.259 255.959 337.109C256.097 336.942 256.192 336.744 256.234 336.532C256.275 336.319 256.263 336.1 256.198 335.893C256.165 335.772 256.104 335.66 256.021 335.566C255.939 335.471 255.835 335.397 255.72 335.348ZM255.72 336.027C255.769 336.166 255.781 336.315 255.754 336.46C255.727 336.604 255.662 336.739 255.567 336.85C255.171 337.241 254.662 337.496 254.112 337.578C253.465 337.729 252.805 337.819 252.141 337.846C251.834 337.846 251.509 337.846 251.184 337.846L251.499 337.597L251.729 337.434C252.755 336.713 253.884 336.152 255.078 335.769C255.225 335.726 255.381 335.726 255.528 335.769C255.592 335.778 255.65 335.808 255.694 335.855C255.738 335.902 255.764 335.963 255.767 336.027H255.72Z" fill="#028090"/>
<path d="M251.624 332.305C251.407 332.39 251.211 332.52 251.046 332.684C250.882 332.849 250.753 333.045 250.667 333.262C250.064 334.735 250.954 336.994 251.107 337.348C251.124 337.387 251.15 337.42 251.184 337.445C251.217 337.471 251.257 337.487 251.299 337.492C251.345 337.506 251.395 337.506 251.442 337.492C251.459 337.49 251.475 337.483 251.488 337.473C251.501 337.463 251.512 337.45 251.519 337.434C251.673 337.23 251.808 337.013 251.921 336.783C252.629 335.453 253.289 333.233 252.715 332.467C252.562 332.257 252.246 332.066 251.624 332.305ZM251.385 336.812C251.126 336.056 250.667 334.458 251.088 333.463C251.195 333.178 251.403 332.943 251.672 332.802L251.796 332.735C252.208 332.573 252.313 332.735 252.351 332.735C252.763 333.329 252.131 335.587 251.385 336.85V336.812Z" fill="#028090"/>
<path opacity="0.2" d="M233.164 318.525L239.882 327.128L230.791 332.19L223.968 323.817L233.164 318.525Z" fill="black"/>
<path d="M238.801 322.371L236.934 323.424L233.729 325.233L230.858 326.84L227.901 328.506L226.8 329.195L226.092 328.678L225.489 328.238C224.781 327.711 223.805 326.974 222.618 326.075C216.676 321.376 206.101 312.151 202.953 303.758C200.914 306.189 198.541 309.29 195.689 312.591C173.507 338.343 149.813 356.497 117.276 348.678C103.141 345.281 103.677 325.711 103.677 325.711C103.677 318.314 109.161 310.706 109.161 310.706L152.444 314.065C158.435 306.792 170.435 295.404 182.713 288.227C183 288.045 183.297 287.873 183.593 287.72C183.89 287.567 184.33 287.299 184.694 287.098C188.395 285.002 192.351 283.394 196.465 282.313C197.307 282.112 198.139 281.93 198.953 281.815C199.796 281.686 200.646 281.603 201.498 281.566C207.316 281.299 212.369 283.48 215.795 289.27L238.159 321.501L238.801 322.371Z" fill="#028090"/>
<path opacity="0.5" d="M238.801 322.371L236.934 323.424L233.729 325.233L230.858 326.84L227.901 328.506L226.8 329.195L226.092 328.678L225.489 328.238C224.781 327.711 223.805 326.974 222.618 326.075C216.676 321.376 206.101 312.151 202.953 303.758C200.914 306.189 198.541 309.29 195.689 312.591C173.507 338.343 149.813 356.497 117.276 348.678C103.141 345.281 103.677 325.711 103.677 325.711C103.677 318.314 109.161 310.706 109.161 310.706L152.444 314.065C158.435 306.792 170.435 295.404 182.713 288.227C183 288.045 183.297 287.873 183.593 287.72C183.89 287.567 184.33 287.299 184.694 287.098C188.395 285.002 192.351 283.394 196.465 282.313C197.307 282.112 198.139 281.93 198.953 281.815C199.796 281.686 200.646 281.603 201.498 281.566C207.316 281.299 212.369 283.48 215.795 289.27L238.159 321.501L238.801 322.371Z" fill="black"/>
<path d="M224.963 331.204L239.26 324.056L238.035 318.974L221.738 326.41L224.963 331.204Z" fill="#028090"/>
<path d="M247.614 336.783L237.757 339.769C237.571 339.822 237.408 339.94 237.3 340.101C237.191 340.262 237.143 340.456 237.164 340.649L238.36 349.587C238.433 350.005 238.666 350.377 239.009 350.626C239.352 350.874 239.779 350.979 240.198 350.918H240.37C256.83 348.171 262.265 345.176 264.036 344.544C269.098 342.831 267.069 339.109 265.28 339.214C257.212 339.712 254.705 338.783 251.509 337.3C250.273 336.81 248.935 336.633 247.614 336.783Z" fill="#263238"/>
<path d="M198.149 290.055H167.526C167.325 290.059 167.125 290.02 166.94 289.94C166.755 289.861 166.589 289.743 166.453 289.595C166.318 289.446 166.215 289.27 166.152 289.079C166.09 288.888 166.069 288.685 166.09 288.485L167.794 268.906C167.836 268.481 168.033 268.086 168.347 267.797C168.661 267.508 169.07 267.344 169.497 267.336H200.12C200.321 267.333 200.521 267.372 200.706 267.451C200.891 267.53 201.057 267.648 201.193 267.797C201.328 267.945 201.431 268.121 201.494 268.312C201.556 268.503 201.577 268.706 201.556 268.906L199.843 288.495C199.796 288.916 199.599 289.306 199.288 289.592C198.977 289.879 198.572 290.043 198.149 290.055Z" fill="#263238"/>
<path opacity="0.9" d="M198.158 288.514H168.789L170.521 268.801H199.881L198.158 288.514Z" fill="white"/>
<path opacity="0.4" d="M169.22 277.825C169.22 277.997 169.168 278.166 169.072 278.31C168.976 278.453 168.84 278.565 168.68 278.63C168.52 278.696 168.345 278.712 168.175 278.678C168.006 278.644 167.851 278.56 167.73 278.437C167.608 278.314 167.526 278.158 167.494 277.989C167.461 277.819 167.48 277.644 167.547 277.485C167.614 277.326 167.728 277.191 167.872 277.096C168.017 277.001 168.186 276.952 168.358 276.954C168.472 276.954 168.585 276.976 168.69 277.02C168.795 277.064 168.891 277.129 168.971 277.21C169.051 277.291 169.114 277.387 169.157 277.492C169.2 277.598 169.221 277.711 169.22 277.825Z" fill="black"/>
<path opacity="0.4" d="M200.388 277.385C200.388 277.47 200.363 277.553 200.315 277.624C200.268 277.695 200.201 277.75 200.122 277.783C200.043 277.815 199.957 277.824 199.873 277.807C199.79 277.79 199.713 277.749 199.653 277.689C199.593 277.629 199.552 277.552 199.535 277.469C199.518 277.385 199.527 277.299 199.56 277.22C199.592 277.141 199.647 277.074 199.718 277.027C199.789 276.979 199.872 276.954 199.957 276.954C200.072 276.954 200.181 276.999 200.262 277.08C200.343 277.161 200.388 277.271 200.388 277.385Z" fill="black"/>
<path d="M125.879 233.498C126.97 239.489 125.381 247.518 121.161 251.451C125.946 260.542 133.094 269.346 139.803 277.098C149.296 261.863 141.152 251.958 141.152 251.958C134.501 250.283 134.702 247.585 135.918 242.972L125.879 233.498Z" fill="#CB7A63"/>
<path d="M121.477 248.858C122.173 247.319 123.366 246.058 124.864 245.279C126.319 244.427 140.176 246.025 143.573 247.652C145.585 248.582 147.188 250.216 148.08 252.245L121.477 248.858Z" fill="#028090"/>
<path d="M160.511 228.522L166.674 231.393C167.176 233.004 167.352 234.699 167.191 236.379C166.837 238.484 165.89 239.183 162.406 237.728C159.306 233.805 160.511 228.522 160.511 228.522Z" fill="#CB7A63"/>
<path d="M164.598 224.627L165.287 226.101L166.512 226.8C166.828 226.995 167.075 227.285 167.218 227.628C167.361 227.972 167.391 228.351 167.306 228.713L166.665 231.355L160.511 228.484L161.679 226.158C162.751 224.522 163.593 224.053 164.492 224.484L164.598 224.627Z" fill="#CB7A63"/>
<path d="M158.062 263.088C161.593 255.346 163.076 251.719 166.923 237.393L161.813 236.819C156.693 250.513 150.817 256.322 150.817 256.322C150.817 256.322 121.994 251.47 118.415 253.164C112.615 255.901 115.716 261.882 119.372 263.394C123.027 264.906 143.669 268.303 153.219 267.126C154.305 266.925 155.32 266.447 156.168 265.74C157.016 265.033 157.668 264.12 158.062 263.088Z" fill="#CB7A63"/>
<path d="M180.264 230.876L180.244 230.896L180.234 230.886L180.264 230.876Z" fill="black"/>
<path d="M158.492 263.222C164.291 281.969 144.99 284.668 149.88 314.822L109.199 310.659C111.448 295.118 116.558 299.175 112.97 268.945C112.663 266.39 112.539 259.136 116.003 252.992C117.338 250.586 119.465 248.716 122.022 247.7C125.219 246.466 138.291 249.394 144.224 250.571C150.827 250.466 157.583 260.858 158.492 263.222Z" fill="#028090"/>
<path d="M149.966 227.173C149.583 227.862 149.659 228.57 150.09 228.809C150.521 229.049 151.171 228.714 151.545 228.044C151.918 227.374 151.851 226.647 151.42 226.407C150.99 226.168 150.329 226.513 149.966 227.173Z" fill="#263238"/>
<path d="M151.2 226.34L153.047 226.761C153.047 226.761 151.545 227.556 151.2 226.34Z" fill="#263238"/>
<path d="M150.081 228.58C150.434 230.4 151.04 232.162 151.88 233.814C151.448 234.015 150.978 234.119 150.502 234.119C150.026 234.119 149.555 234.015 149.124 233.814L150.081 228.58Z" fill="#A02724"/>
<path d="M152.875 222.388C152.947 222.361 153.011 222.316 153.061 222.257C153.111 222.199 153.146 222.129 153.162 222.053C153.184 221.937 153.16 221.816 153.093 221.717C153.027 221.618 152.924 221.55 152.808 221.527C152.115 221.38 151.397 221.402 150.714 221.59C150.032 221.779 149.404 222.128 148.884 222.608C148.833 222.644 148.79 222.691 148.758 222.745C148.726 222.798 148.706 222.858 148.698 222.92C148.691 222.982 148.696 223.045 148.714 223.105C148.733 223.165 148.763 223.22 148.804 223.268C148.844 223.315 148.895 223.354 148.951 223.381C149.008 223.408 149.069 223.422 149.131 223.424C149.194 223.426 149.256 223.415 149.314 223.392C149.372 223.368 149.424 223.333 149.468 223.288L149.525 223.23C149.943 222.859 150.442 222.59 150.982 222.447C151.522 222.304 152.089 222.291 152.635 222.407C152.715 222.425 152.799 222.419 152.875 222.388Z" fill="#263238"/>
<path d="M125.477 220.493C124.376 229.766 123.707 233.671 127.487 239.221C133.171 247.566 144.827 246.877 148.664 238.14C152.128 230.245 153.353 216.407 145.037 211.125C143.209 209.948 141.11 209.259 138.94 209.123C136.77 208.987 134.602 209.408 132.641 210.347C130.68 211.286 128.993 212.712 127.739 214.488C126.484 216.264 125.706 218.331 125.477 220.493Z" fill="#CB7A63"/>
<path d="M148.894 237.585C148.206 236.952 147.7 236.145 147.43 235.25C147.421 235.201 147.43 235.15 147.457 235.107C147.483 235.065 147.525 235.034 147.573 235.02C147.621 235.011 147.671 235.019 147.713 235.044C147.756 235.068 147.787 235.108 147.803 235.154C148.045 235.925 148.472 236.625 149.047 237.192L148.894 237.585Z" fill="#263238"/>
<path d="M155.717 217.469C155.737 218.428 155.396 219.36 154.761 220.079C154.127 220.799 153.245 221.254 152.291 221.355C151.047 224.723 147.602 229.862 144.578 227.919C146.339 227.862 149.554 223.871 146.836 220.752C144.846 218.474 142.147 212.493 146.836 211.029C150.463 209.9 155.707 213.794 155.717 217.469Z" fill="#263238"/>
<path d="M147.592 213.689C146.281 208.263 138.463 204.034 132.884 204.206C127.305 204.378 122.175 207.431 118.089 211.23C115.965 213.201 113.984 215.498 113.228 218.302C112.472 221.106 113.228 224.474 115.678 226.053C106.778 234.829 113.4 238.388 114.721 237.786C114.912 239.987 113.41 241.288 111.39 242.733C109.591 244.015 109.142 245.537 108.52 247.652C107.897 249.767 108.52 252.437 110.433 253.394C110.296 253.066 110.23 252.713 110.238 252.358C110.246 252.003 110.328 251.654 110.48 251.333C110.631 251.012 110.848 250.726 111.117 250.494C111.386 250.262 111.701 250.089 112.041 249.987C111.566 251.09 111.435 252.31 111.665 253.489C111.895 254.668 112.476 255.749 113.332 256.592C114.187 257.435 115.277 258 116.459 258.213C117.641 258.426 118.859 258.277 119.955 257.786C119.075 257.566 117.84 256.705 117.697 255.805C120.224 256.888 122.903 257.572 125.64 257.834C128.386 257.939 131.314 257.049 133.008 254.887C133.113 253.317 135.238 251.748 136.836 251.805C137.625 251.857 138.366 252.2 138.916 252.768C139.466 253.335 139.785 254.087 139.812 254.877C141.554 254.494 142.272 252.571 142.367 250.8C142.405 249.856 142.118 248.927 141.554 248.169C141.233 247.792 140.84 247.483 140.398 247.261C139.956 247.04 139.473 246.909 138.98 246.877C138.131 246.629 137.413 246.059 136.98 245.288C136.815 244.855 136.768 244.386 136.844 243.929C136.919 243.471 137.115 243.042 137.41 242.685C144.329 232.809 141.066 226.666 141.525 225.46C141.985 224.254 144.205 225.804 144.205 225.804C146.214 223.268 148.329 216.847 147.592 213.689Z" fill="#263238"/>
<path d="M137.324 227.259C137.153 229.409 137.841 231.539 139.238 233.182C141.104 235.355 143.621 234.063 144.415 231.479C145.143 229.154 145.037 225.22 142.501 223.995C139.965 222.771 137.554 224.637 137.324 227.259Z" fill="#CB7A63"/>
<path d="M109.199 307.52L107.792 311.08C107.62 311.348 107.936 311.663 108.395 311.711L150.291 316.018C150.655 316.018 150.98 315.903 151.028 315.673L150.473 311.682C150.53 311.443 150.224 311.194 149.822 311.156L109.907 307.328C109.783 307.297 109.652 307.299 109.528 307.332C109.404 307.366 109.291 307.43 109.199 307.52Z" fill="#028090"/>
<path d="M145.889 315.912H144.779C144.559 315.912 144.386 315.797 144.406 315.663L144.989 310.878C144.989 310.744 145.2 310.63 145.42 310.63H146.53C146.75 310.63 146.922 310.744 146.903 310.888L146.32 315.673C146.3 315.797 146.109 315.912 145.889 315.912Z" fill="#263238"/>
<path d="M130.912 314.209H129.802C129.592 314.209 129.42 314.084 129.439 313.95L130.022 309.166C130.022 309.032 130.233 308.926 130.453 308.926H131.563C131.774 308.926 131.956 309.041 131.927 309.194L131.353 313.931C131.333 314.113 131.104 314.209 130.912 314.209Z" fill="#028090"/>
<path d="M130.912 314.209H129.802C129.592 314.209 129.42 314.084 129.439 313.95L130.022 309.166C130.022 309.032 130.233 308.926 130.453 308.926H131.563C131.774 308.926 131.956 309.041 131.927 309.194L131.353 313.931C131.333 314.113 131.104 314.209 130.912 314.209Z" fill="#263238"/>
<path opacity="0.2" d="M140.903 261.872C140.903 261.872 138.137 266.054 142.97 278.648L145.008 283.787C145.678 285.49 151.879 282.992 153.985 280.236C153.985 280.236 143.745 272.179 140.903 261.872Z" fill="black"/>
<path d="M188.809 287.088L196.35 282.562L196.292 289.462C196.292 289.462 190.551 294.18 188.005 290.419C188.005 290.438 187.153 287.797 188.809 287.088Z" fill="#CB7A63"/>
<path d="M201.68 284.773L201.364 287.28C201.319 287.659 201.153 288.013 200.891 288.29C200.629 288.568 200.285 288.754 199.909 288.821L196.263 289.462L196.321 282.562L199.986 282.792C200.218 282.799 200.446 282.852 200.658 282.948C200.869 283.044 201.06 283.181 201.218 283.351C201.376 283.521 201.5 283.721 201.58 283.938C201.661 284.156 201.698 284.387 201.689 284.62C201.691 284.671 201.687 284.722 201.68 284.773Z" fill="#CB7A63"/>
<path d="M154.119 291.529C156.664 296.084 160.54 300.141 165.497 301.759C171.335 303.673 184.77 296.084 190.876 291.289C190.876 288.935 190.369 288.304 188.101 287.682C188.101 287.682 181.603 291.289 170.062 292.466C166.33 292.849 164.387 288.84 161.909 283.05C160.674 280.179 155.889 262.839 154.253 260.14C151.669 255.805 142.53 257.518 144.817 267.442C145.803 271.643 152.042 287.806 154.119 291.529Z" fill="#CB7A63"/>
<path d="M155.373 256.944C160.885 263.451 162.626 273.959 162.626 273.959L146.951 280.983C146.951 280.983 138.205 264.714 140.769 259.738C142.779 255.91 145.889 253.595 149.564 253.834C150.692 253.934 151.788 254.26 152.786 254.795C153.784 255.329 154.664 256.06 155.373 256.944Z" fill="#028090"/>
<path d="M114.405 312.697L113.295 312.582C113.084 312.534 112.922 312.438 112.95 312.295L113.907 307.615C113.907 307.471 114.137 307.385 114.357 307.405L115.467 307.519C115.678 307.519 115.84 307.672 115.812 307.806L114.855 312.496C114.819 312.579 114.752 312.647 114.669 312.684C114.586 312.721 114.491 312.726 114.405 312.697Z" fill="#263238"/>
<path d="M109.956 306.819L109.863 307.771L149.782 311.643L149.875 310.69L109.956 306.819Z" fill="#263238"/>
</svg>
