<svg width="480" height="358" viewBox="0 0 480 358" fill="none" xmlns="http://www.w3.org/2000/svg">
<path d="M120.643 34.896C143.818 19.7088 172.637 14.4576 200.055 26.6304C235.911 42.5472 249.869 84.5472 266.861 117.043C278.976 140.227 296.966 158.65 322.099 167.059C345.35 174.845 370.531 168.403 393.686 175.824C423.178 185.29 429.485 212.717 418.368 239.29C399.475 284.477 349.2 302.736 304.349 309.994C251.645 318.528 188.698 321.302 144.144 287.184C85.9969 242.669 52.5505 154.608 80.3617 84.2592C88.4464 64.0853 102.501 46.8624 120.643 34.896Z" fill="#028090"/>
<path opacity="0.9" d="M120.643 34.896C143.818 19.7088 172.637 14.4576 200.055 26.6304C235.911 42.5472 249.869 84.5472 266.861 117.043C278.976 140.227 296.966 158.65 322.099 167.059C345.35 174.845 370.531 168.403 393.686 175.824C423.178 185.29 429.485 212.717 418.368 239.29C399.475 284.477 349.2 302.736 304.349 309.994C251.645 318.528 188.698 321.302 144.144 287.184C85.9969 242.669 52.5505 154.608 80.3617 84.2592C88.4464 64.0853 102.501 46.8624 120.643 34.896Z" fill="white"/>
<path d="M240 357.657C342.799 357.657 426.135 352.792 426.135 346.79C426.135 340.788 342.799 335.923 240 335.923C137.201 335.923 53.8657 340.788 53.8657 346.79C53.8657 352.792 137.201 357.657 240 357.657Z" fill="#F5F5F5"/>
<path d="M402.461 47.875H255.773C250.259 47.875 245.789 52.345 245.789 57.859V337.651C245.789 343.165 250.259 347.635 255.773 347.635H402.461C407.975 347.635 412.445 343.165 412.445 337.651V57.859C412.445 52.345 407.975 47.875 402.461 47.875Z" fill="#263238"/>
<path d="M406.819 57.9169V337.056C406.819 337.597 406.712 338.132 406.503 338.631C406.295 339.13 405.989 339.582 405.604 339.962C405.219 340.341 404.762 340.641 404.261 340.842C403.759 341.044 403.222 341.144 402.682 341.136H255.11C254.619 341.143 254.131 341.05 253.676 340.864C253.221 340.677 252.808 340.401 252.462 340.052C252.116 339.702 251.844 339.287 251.662 338.83C251.481 338.373 251.393 337.884 251.405 337.392V57.6001C251.388 57.1663 251.457 56.7335 251.608 56.3264C251.758 55.9194 251.988 55.546 252.283 55.2277C252.578 54.9094 252.933 54.6524 253.328 54.4714C253.722 54.2904 254.149 54.1889 254.582 54.1729H291.475C291.991 54.1824 292.492 54.3455 292.914 54.6414C293.337 54.9372 293.661 55.3523 293.846 55.8337L295.373 59.5969C295.563 60.0753 295.89 60.4867 296.314 60.7789C296.738 61.0711 297.239 61.2311 297.754 61.2385H360.557C361.069 61.2372 361.569 61.0831 361.994 60.7957C362.418 60.5084 362.746 60.101 362.938 59.6257L364.464 55.8432C364.649 55.3609 364.973 54.9444 365.395 54.6469C365.817 54.3495 366.319 54.1844 366.835 54.1729H403.2C404.173 54.2004 405.096 54.6076 405.773 55.3073C406.449 56.007 406.825 56.9437 406.819 57.9169Z" fill="#028090"/>
<path opacity="0.3" d="M406.819 71.5969H251.405V325.44H406.819V71.5969Z" fill="white"/>
<path opacity="0.6" d="M268.541 65.4048H270.461V62.8416H268.541V65.4048Z" fill="white"/>
<path opacity="0.6" d="M265.402 65.4048H267.322V61.9872H265.402V65.4048Z" fill="white"/>
<path opacity="0.6" d="M262.272 65.4048H264.192V61.1424H262.272V65.4048Z" fill="white"/>
<path opacity="0.6" d="M259.152 65.3955H261.072V60.2787H259.152V65.3955Z" fill="white"/>
<path opacity="0.6" d="M389.232 61.9104H388.089V64.4736H389.232V61.9104Z" fill="white"/>
<path opacity="0.6" d="M390.019 65.405H399.082V60.9794H390.019V65.405Z" fill="white"/>
<path opacity="0.4" d="M400.445 95.1167H257.779C255.462 95.1167 253.584 96.9949 253.584 99.3119V174.105C253.584 176.422 255.462 178.301 257.779 178.301H400.445C402.762 178.301 404.64 176.422 404.64 174.105V99.3119C404.64 96.9949 402.762 95.1167 400.445 95.1167Z" fill="white"/>
<path d="M366.441 97.3057H291.782C289.852 97.3057 288.288 98.8702 288.288 100.8V172.627C288.288 174.557 289.852 176.122 291.782 176.122H366.441C368.371 176.122 369.936 174.557 369.936 172.627V100.8C369.936 98.8702 368.371 97.3057 366.441 97.3057Z" fill="white"/>
<path d="M275.991 138.835C275.991 139.877 275.681 140.896 275.102 141.763C274.523 142.63 273.7 143.305 272.737 143.704C271.774 144.103 270.714 144.208 269.692 144.004C268.67 143.801 267.73 143.299 266.993 142.562C266.256 141.825 265.754 140.886 265.551 139.863C265.348 138.841 265.452 137.781 265.851 136.818C266.25 135.855 266.925 135.032 267.792 134.453C268.659 133.874 269.678 133.565 270.72 133.565C272.118 133.565 273.458 134.12 274.447 135.108C275.435 136.097 275.991 137.437 275.991 138.835Z" fill="#263238"/>
<path opacity="0.2" d="M273.869 138.835C273.869 139.46 273.683 140.071 273.336 140.591C272.988 141.11 272.495 141.515 271.917 141.754C271.339 141.993 270.704 142.055 270.091 141.932C269.478 141.81 268.915 141.508 268.474 141.065C268.032 140.622 267.732 140.059 267.612 139.445C267.491 138.832 267.555 138.197 267.795 137.62C268.036 137.043 268.442 136.55 268.963 136.204C269.483 135.858 270.095 135.675 270.72 135.677C271.556 135.679 272.357 136.013 272.947 136.605C273.537 137.197 273.869 137.999 273.869 138.835Z" fill="black"/>
<path d="M258.038 131.021L259.411 128.995C259.411 128.995 264.624 129.629 266.899 127.469H273.6L273.917 127.728L266.381 133.565L259.459 132.605L258.038 131.021Z" fill="#263238"/>
<path d="M270.72 132.097H273.235L277.095 138.173H277.978L275.194 132.097V129.879H272.851L270.72 132.097Z" fill="#263238"/>
<path d="M253.584 125.194L253.718 125.655L253.584 126.269V125.194Z" fill="#263238"/>
<path d="M254.861 121.805L254.285 122.851L255.187 123.283L255.427 123.936L255.139 124.272L256.099 125.002C256.126 125.066 256.139 125.135 256.137 125.204C256.135 125.273 256.117 125.341 256.086 125.403C256.055 125.465 256.011 125.52 255.957 125.563C255.903 125.607 255.84 125.638 255.773 125.655L254.534 125.002H253.574V122.755H253.997L254.515 121.613C254.515 121.613 254.093 120.576 255.898 119.856L256.32 120.192V121.095L255.754 121.613L254.861 121.805Z" fill="#263238"/>
<path d="M254.246 127.027L253.584 127.968V126.384L254.246 127.027Z" fill="#028090"/>
<path d="M277.094 128.295L275.386 130.819L275.194 130.666L274.694 130.253L271.459 131.962L271.171 132.096L264.624 135.13L265.066 135.677H268.483L268.867 136.282L267.763 137.731L265.699 140.448L264.883 141.523H253.584V132.327C254.344 132.971 255.256 133.41 256.234 133.603C256.287 133.619 256.343 133.619 256.397 133.603C256.463 133.57 256.524 133.528 256.579 133.479H256.627C256.671 133.435 256.71 133.387 256.742 133.335C256.762 133.308 256.778 133.279 256.79 133.248C256.818 133.194 256.837 133.135 256.848 133.075C256.882 132.779 256.811 132.48 256.646 132.231L258.038 131.098C265.814 131.29 267.974 129.331 267.974 129.331L273.85 127.805L277.094 128.295Z" fill="#028090"/>
<path d="M268.867 136.282L267.763 137.731L265.699 140.448L264.883 141.523H253.584V141.034L255.571 140.698L255.197 138.547L260.17 134.909L262.157 135.677L264.624 135.13L265.066 135.677H268.483L268.867 136.282Z" fill="#263238"/>
<path d="M256.234 133.603C255.932 133.766 255.609 133.885 255.274 133.958L253.604 133.123V132.326C254.358 132.968 255.263 133.407 256.234 133.603Z" fill="#263238"/>
<path opacity="0.2" d="M254.246 127.027L253.584 127.968V126.384L254.246 127.027Z" fill="black"/>
<path opacity="0.2" d="M258.989 132.596L255.955 135.677L253.584 134.343V132.327C254.344 132.971 255.256 133.411 256.234 133.604C256.287 133.619 256.343 133.619 256.397 133.604C256.463 133.57 256.524 133.528 256.579 133.479H256.627C256.671 133.436 256.71 133.387 256.742 133.335C256.762 133.308 256.778 133.279 256.79 133.248C256.818 133.194 256.837 133.136 256.848 133.076C256.882 132.779 256.811 132.48 256.646 132.231L258.989 132.596Z" fill="black"/>
<path opacity="0.2" d="M277.094 128.295L275.386 130.819L275.194 130.666L274.694 130.253L271.459 131.962L271.171 132.096L264.624 135.13L265.066 135.677H268.483L268.867 136.282L267.763 137.731L265.699 140.448L264.883 141.523H253.584V135.024L256.33 136.493L260.074 134.016L263.837 134.496L265.824 133.498L267.571 132.605L272.746 129.994L272.966 129.879L274.349 129.178L277.094 128.295Z" fill="black"/>
<path d="M300.01 138.077H356.986L355.843 127.872L339.427 124.358L324.173 127.018L305.799 128.822L301.239 134.045L300.01 138.077Z" fill="#263238"/>
<path opacity="0.2" d="M300.01 138.077H356.986L355.843 127.872L339.427 124.358L324.173 127.018L305.799 128.822L301.239 134.045L300.01 138.077Z" fill="black"/>
<path d="M315.84 138.077C315.84 139.269 315.486 140.435 314.824 141.426C314.162 142.418 313.22 143.19 312.118 143.647C311.017 144.103 309.805 144.222 308.635 143.99C307.466 143.757 306.391 143.183 305.548 142.34C304.705 141.497 304.131 140.423 303.898 139.253C303.666 138.084 303.785 136.871 304.241 135.77C304.698 134.668 305.47 133.727 306.462 133.064C307.453 132.402 308.619 132.048 309.811 132.048C310.603 132.048 311.387 132.204 312.118 132.507C312.85 132.81 313.514 133.254 314.074 133.814C314.634 134.374 315.078 135.038 315.381 135.77C315.684 136.501 315.84 137.285 315.84 138.077Z" fill="#263238"/>
<path opacity="0.2" d="M309.83 142.109C312.057 142.109 313.862 140.304 313.862 138.077C313.862 135.85 312.057 134.045 309.83 134.045C307.604 134.045 305.798 135.85 305.798 138.077C305.798 140.304 307.604 142.109 309.83 142.109Z" fill="black"/>
<path d="M355.2 138.077C355.2 139.269 354.847 140.435 354.184 141.426C353.522 142.418 352.58 143.19 351.479 143.647C350.377 144.103 349.165 144.222 347.995 143.99C346.826 143.757 345.752 143.183 344.908 142.34C344.065 141.497 343.491 140.423 343.258 139.253C343.026 138.084 343.145 136.871 343.601 135.77C344.058 134.668 344.831 133.727 345.822 133.064C346.813 132.402 347.979 132.048 349.171 132.048C349.963 132.048 350.747 132.204 351.479 132.507C352.21 132.81 352.875 133.254 353.434 133.814C353.994 134.374 354.438 135.038 354.741 135.77C355.044 136.501 355.2 137.285 355.2 138.077Z" fill="#263238"/>
<path opacity="0.2" d="M349.191 142.109C351.417 142.109 353.223 140.304 353.223 138.077C353.223 135.85 351.417 134.045 349.191 134.045C346.964 134.045 345.159 135.85 345.159 138.077C345.159 140.304 346.964 142.109 349.191 142.109Z" fill="black"/>
<path d="M360.874 132.711L360.211 137.424L356.506 138.595C356.506 138.595 356.41 130.627 348.346 130.627C340.282 130.627 341.318 140.122 341.318 140.122H339.907L337.248 138.979H319.834L318.317 140.16H317.29C317.29 140.16 318.144 130.666 309.83 130.666C301.517 130.666 302.573 140.16 302.573 140.16L297.821 138.115L297.35 133.315L299.338 132.077L299.818 129.197C300.029 129.034 300.25 128.88 300.47 128.736C306.029 125.011 313.632 124.512 313.632 124.512C320.17 117.859 322.819 116.919 322.819 116.919C332.591 116.324 342.396 116.514 352.138 117.485L356.506 123.082L357.533 123.917L358.598 124.791C359.001 126.728 359.159 128.708 359.069 130.685L360.874 132.711Z" fill="#028090"/>
<path opacity="0.6" d="M304.598 129.005L301.267 132.048H299.347L299.827 129.168C300.038 129.005 300.259 128.852 300.48 128.708L302.899 128.343L304.598 129.005Z" fill="white"/>
<path opacity="0.6" d="M359.04 130.627L357.831 130.176C357.724 128.395 357.204 126.663 356.314 125.117L357.504 123.859L358.57 124.733C358.972 126.67 359.13 128.651 359.04 130.627Z" fill="white"/>
<path d="M356.506 123.024C348.605 124.944 313.632 124.455 313.632 124.455L314.227 123.859C316.429 121.537 318.861 119.443 321.485 117.61C321.901 117.311 322.348 117.06 322.819 116.861C332.592 116.267 342.396 116.456 352.138 117.427L356.506 123.024Z" fill="#263238"/>
<path opacity="0.6" d="M323.117 117.61L317.414 123.84H314.227C316.429 121.517 318.861 119.424 321.485 117.591L323.117 117.61Z" fill="white"/>
<path opacity="0.6" d="M319.027 123.859L324.057 117.6H331.565L330.989 123.859H319.027Z" fill="white"/>
<path opacity="0.6" d="M332.794 123.84L333.456 117.591H343.805L345.61 123.255C345.61 123.255 339.351 123.84 332.794 123.84Z" fill="white"/>
<path opacity="0.6" d="M345.024 117.61L346.944 123.12C346.944 123.12 353.021 122.746 353.875 122.362L351.36 118.925C351.129 118.649 350.846 118.421 350.526 118.257C350.206 118.092 349.856 117.993 349.498 117.965C348.016 117.746 346.521 117.627 345.024 117.61Z" fill="white"/>
<path opacity="0.2" d="M360.874 132.711L360.211 137.424L356.506 138.596C356.506 138.596 356.41 130.628 348.346 130.628C340.282 130.628 341.318 140.122 341.318 140.122H339.907L337.248 138.98H319.834L318.317 140.16H317.29C317.29 140.16 318.144 130.666 309.83 130.666C301.517 130.666 302.573 140.16 302.573 140.16L297.821 138.116L297.35 133.316H301.267C302.292 131.855 303.659 130.667 305.249 129.855C306.839 129.044 308.603 128.633 310.387 128.66C316.656 128.66 318.672 133.316 318.672 133.316H338.774C338.774 133.316 342.192 128.592 347.222 128.343C350.008 128.11 352.796 128.751 355.2 130.176H357.84L359.05 130.628L360.874 132.711Z" fill="black"/>
<path d="M404.64 127.363V140.246H384.96C384.96 140.246 386.266 135.84 387.283 132.845C387.534 131.894 387.902 130.979 388.378 130.118C390.999 128.698 397.104 127.843 404.64 127.363Z" fill="#263238"/>
<path opacity="0.2" d="M404.64 127.363V140.246H384.96C384.96 140.246 386.266 135.84 387.283 132.845C387.534 131.894 387.902 130.979 388.378 130.118C390.999 128.698 397.104 127.843 404.64 127.363Z" fill="black"/>
<path d="M395.904 144.096C399.075 144.096 401.645 141.526 401.645 138.355C401.645 135.184 399.075 132.614 395.904 132.614C392.734 132.614 390.163 135.184 390.163 138.355C390.163 141.526 392.734 144.096 395.904 144.096Z" fill="#263238"/>
<path opacity="0.2" d="M395.904 143.434C398.709 143.434 400.982 141.16 400.982 138.355C400.982 135.551 398.709 133.277 395.904 133.277C393.099 133.277 390.826 135.551 390.826 138.355C390.826 141.16 393.099 143.434 395.904 143.434Z" fill="white"/>
<path d="M397.258 121.92C400.071 120.201 402.5 118.8 404.64 117.667V141.984H402.768L402.452 140.285L401.722 136.358C401.513 135.22 400.911 134.191 400.022 133.451C399.133 132.711 398.012 132.306 396.855 132.307H394.56C393.476 132.298 392.419 132.645 391.552 133.296C390.684 133.946 390.055 134.864 389.76 135.907L388.522 140.285L388.042 141.984L380.256 140.976L381.216 134.361L381.37 133.315L382.887 132.307L385.863 125.472L388.628 124.608L397.258 121.92Z" fill="#028090"/>
<path opacity="0.7" d="M390.163 125.05L386.506 131.251L382.963 132.269L385.939 125.434L388.704 124.57C389.568 124.8 390.163 125.05 390.163 125.05Z" fill="white"/>
<path opacity="0.4" d="M404.64 119.328V123.034C402.731 123.085 400.822 122.956 398.938 122.65C398.938 122.65 401.683 121.008 404.64 119.328Z" fill="black"/>
<path opacity="0.2" d="M404.64 134.477V141.946H402.768L402.452 140.247L401.722 136.32C401.513 135.182 400.911 134.153 400.022 133.413C399.133 132.673 398.012 132.268 396.855 132.269H394.56C393.476 132.26 392.419 132.607 391.552 133.258C390.684 133.908 390.055 134.826 389.76 135.869L388.522 140.247L388.042 141.946L380.256 140.938L381.216 134.324L387.063 132.615L387.236 132.845L388.33 134.295C388.33 134.295 390.25 130.618 396.759 130.618C402.029 130.618 404.045 133.373 404.64 134.477Z" fill="black"/>
<path d="M343.056 168.48H315.216C314.62 168.48 314.03 168.363 313.48 168.134C312.929 167.906 312.429 167.571 312.009 167.15C311.588 166.728 311.254 166.227 311.027 165.676C310.8 165.125 310.684 164.535 310.685 163.939C310.685 162.738 311.162 161.585 312.012 160.735C312.862 159.886 314.014 159.408 315.216 159.408H343.056C344.258 159.408 345.41 159.886 346.26 160.735C347.11 161.585 347.587 162.738 347.587 163.939C347.587 165.142 347.11 166.296 346.261 167.147C345.411 167.998 344.259 168.478 343.056 168.48Z" fill="#028090"/>
<path d="M404.64 75.3218H253.584V92.7938H404.64V75.3218Z" fill="#028090"/>
<path opacity="0.6" d="M329.088 54.5187C329.088 54.9402 328.963 55.3522 328.729 55.7027C328.495 56.0532 328.162 56.3263 327.772 56.4876C327.383 56.6489 326.955 56.6911 326.541 56.6089C326.128 56.5267 325.748 56.3237 325.45 56.0256C325.152 55.7276 324.949 55.3478 324.867 54.9344C324.784 54.521 324.827 54.0925 324.988 53.7031C325.149 53.3137 325.422 52.9808 325.773 52.7466C326.123 52.5124 326.535 52.3875 326.957 52.3875C327.237 52.3875 327.514 52.4426 327.772 52.5497C328.031 52.6568 328.266 52.8138 328.464 53.0117C328.662 53.2096 328.819 53.4445 328.926 53.7031C329.033 53.9616 329.088 54.2388 329.088 54.5187Z" fill="white"/>
<path opacity="0.6" d="M333.408 54.5185C333.41 54.7904 333.331 55.0567 333.181 55.2838C333.032 55.5108 332.818 55.6882 332.567 55.7936C332.317 55.899 332.04 55.9275 331.773 55.8756C331.507 55.8238 331.261 55.6938 331.068 55.5022C330.875 55.3106 330.743 55.066 330.69 54.7994C330.636 54.5329 330.663 54.2564 330.766 54.005C330.87 53.7536 331.046 53.5386 331.272 53.3873C331.498 53.236 331.763 53.1553 332.035 53.1553C332.398 53.1553 332.746 53.2986 333.003 53.554C333.26 53.8093 333.406 54.156 333.408 54.5185Z" fill="white"/>
<path opacity="0.2" d="M282.134 135.014L286.809 141.245V128.774L282.134 135.014Z" fill="black"/>
<path opacity="0.2" d="M376.09 135.014L371.415 128.774V141.245L376.09 135.014Z" fill="black"/>
<path d="M285.389 85.9297L285.792 85.0273C286.39 85.4753 287.118 85.7178 287.865 85.7185C288.825 85.7185 289.248 85.3633 289.248 84.9025C289.248 83.5489 285.523 84.4321 285.523 82.1089C285.523 81.0913 286.329 80.1889 288.048 80.1889C288.783 80.1787 289.507 80.3713 290.141 80.7457L289.766 81.6577C289.245 81.3404 288.648 81.168 288.038 81.1585C287.078 81.1585 286.675 81.5329 286.675 82.0129C286.675 83.3473 290.4 82.4833 290.4 84.7777C290.4 85.7857 289.584 86.6977 287.865 86.6977C286.978 86.7221 286.107 86.4521 285.389 85.9297Z" fill="white"/>
<path d="M296.266 85.6223V86.5823H291.552V80.3135H296.141V81.2735H292.723V82.8959H295.747V83.8559H292.723V85.5935L296.266 85.6223Z" fill="white"/>
<path d="M297.6 80.3232H298.762V85.6128H302.045V86.5728H297.6V80.3232Z" fill="white"/>
<path d="M307.642 85.6223V86.5823H302.928V80.3135H307.517V81.2735H304.099V82.8959H307.123V83.8559H304.099V85.5935L307.642 85.6223Z" fill="white"/>
<path d="M308.467 83.4625C308.499 82.7999 308.724 82.161 309.115 81.6252C309.506 81.0893 310.046 80.68 310.667 80.448C311.288 80.2159 311.964 80.1714 312.611 80.3199C313.257 80.4684 313.846 80.8034 314.304 81.2833L313.555 81.9841C313.344 81.7494 313.084 81.5628 312.794 81.4369C312.505 81.311 312.191 81.2488 311.875 81.2545C311.574 81.2346 311.271 81.2768 310.987 81.3785C310.702 81.4802 310.441 81.6393 310.221 81.8458C310 82.0523 309.824 82.302 309.704 82.5792C309.584 82.8565 309.522 83.1555 309.522 83.4577C309.522 83.7599 309.584 84.0589 309.704 84.3362C309.824 84.6135 310 84.8631 310.221 85.0696C310.441 85.2762 310.702 85.4352 310.987 85.5369C311.271 85.6386 311.574 85.6808 311.875 85.6609C312.192 85.6667 312.506 85.6035 312.797 85.4759C313.087 85.3483 313.345 85.1592 313.555 84.9217L314.304 85.6417C313.846 86.1217 313.257 86.4566 312.611 86.6051C311.964 86.7536 311.288 86.7091 310.667 86.4771C310.046 86.245 309.506 85.8357 309.115 85.2998C308.724 84.764 308.499 84.1251 308.467 83.4625Z" fill="white"/>
<path d="M316.627 81.3028H314.553V80.3428H319.872V81.3028H317.76V86.5924H316.589L316.627 81.3028Z" fill="white"/>
<path d="M325.939 84.384V86.592H324.768V84.4032L322.301 80.3232H323.52L325.363 83.376L327.216 80.3232H328.368L325.939 84.384Z" fill="white"/>
<path d="M328.435 83.4627C328.404 82.7887 328.576 82.1209 328.928 81.5454C329.281 80.9698 329.797 80.5129 330.411 80.2334C331.025 79.954 331.709 79.8647 332.374 79.9773C333.04 80.0898 333.656 80.3989 334.144 80.8648C334.632 81.3307 334.97 81.932 335.113 82.5913C335.256 83.2507 335.199 83.9378 334.948 84.5643C334.698 85.1908 334.265 85.7279 333.707 86.1064C333.148 86.485 332.489 86.6876 331.814 86.6883C331.378 86.7105 330.941 86.6434 330.531 86.4912C330.121 86.3389 329.747 86.1047 329.431 85.8028C329.114 85.5009 328.863 85.1377 328.692 84.7353C328.521 84.333 328.433 83.9 328.435 83.4627ZM334.022 83.4627C334.024 83.0256 333.896 82.5978 333.655 82.2334C333.413 81.8691 333.069 81.5846 332.666 81.416C332.263 81.2474 331.818 81.2023 331.389 81.2864C330.961 81.3705 330.566 81.58 330.256 81.8884C329.947 82.1968 329.735 82.5903 329.649 83.0188C329.564 83.4474 329.607 83.8918 329.774 84.2959C329.94 84.6999 330.223 85.0453 330.587 85.2883C330.95 85.5314 331.377 85.6611 331.814 85.6611C332.106 85.6704 332.396 85.6199 332.668 85.5129C332.939 85.4058 333.186 85.2444 333.393 85.0385C333.6 84.8326 333.762 84.5866 333.87 84.3156C333.979 84.0447 334.03 83.7544 334.022 83.4627Z" fill="white"/>
<path d="M336.384 83.8656V80.3232H337.546V83.8176C337.546 85.104 338.131 85.6608 339.139 85.6608C340.147 85.6608 340.733 85.104 340.733 83.8176V80.3232H341.875V83.8656C341.875 84.5938 341.586 85.2922 341.071 85.8071C340.556 86.322 339.858 86.6112 339.13 86.6112C338.401 86.6112 337.703 86.322 337.188 85.8071C336.673 85.2922 336.384 84.5938 336.384 83.8656Z" fill="white"/>
<path d="M347.616 86.5919L346.329 84.7583H344.64V86.5823H343.478V80.3135H346.061C347.712 80.3135 348.729 81.1487 348.729 82.5407C348.749 82.971 348.629 83.3961 348.389 83.7538C348.149 84.1114 347.801 84.3827 347.395 84.5279L348.835 86.5823L347.616 86.5919ZM346.032 81.3023H344.64V83.8079H346.003C347.03 83.8079 347.558 83.3375 347.558 82.5503C347.558 81.7631 347.059 81.3023 346.032 81.3023Z" fill="white"/>
<path d="M356.64 86.5919L355.363 84.7583H353.702V86.5823H352.531V80.3135H355.114C356.765 80.3135 357.792 81.1487 357.792 82.5407C357.809 82.9719 357.688 83.3972 357.446 83.7546C357.204 84.1121 356.855 84.383 356.448 84.5279L357.898 86.5823L356.64 86.5919ZM355.066 81.3023H353.702V83.8079H355.066C356.083 83.8079 356.611 83.3375 356.611 82.5503C356.611 81.7631 356.083 81.3023 355.066 81.3023Z" fill="white"/>
<path d="M359.088 80.3232H360.25V86.592H359.088V80.3232Z" fill="white"/>
<path d="M361.92 80.3232H364.666C365.103 80.2813 365.543 80.3312 365.96 80.4696C366.376 80.6081 366.759 80.832 367.084 81.1272C367.409 81.4223 367.668 81.7821 367.846 82.1834C368.024 82.5847 368.115 83.0188 368.115 83.4576C368.115 83.8965 368.024 84.3305 367.846 84.7319C367.668 85.1332 367.409 85.493 367.084 85.7881C366.759 86.0832 366.376 86.3072 365.96 86.4457C365.543 86.5841 365.103 86.634 364.666 86.592H361.92V80.3232ZM364.608 85.6128C364.903 85.6325 365.199 85.5914 365.478 85.492C365.756 85.3927 366.012 85.2371 366.228 85.0351C366.444 84.833 366.616 84.5887 366.734 84.3174C366.851 84.046 366.912 83.7534 366.912 83.4576C366.912 83.1619 366.851 82.8692 366.734 82.5979C366.616 82.3266 366.444 82.0823 366.228 81.8802C366.012 81.6782 365.756 81.5226 365.478 81.4232C365.199 81.3238 364.903 81.2827 364.608 81.3024H363.082V85.6128H364.608Z" fill="white"/>
<path d="M374.064 85.6223V86.5823H369.35V80.3135H373.939V81.2735H370.56V82.8959H373.584V83.8559H370.56V85.5935L374.064 85.6223Z" fill="white"/>
<path opacity="0.4" d="M399.802 181.383H258.422C255.75 181.383 253.584 183.549 253.584 186.221V281.943C253.584 284.615 255.75 286.781 258.422 286.781H399.802C402.474 286.781 404.64 284.615 404.64 281.943V186.221C404.64 183.549 402.474 181.383 399.802 181.383Z" fill="white"/>
<path opacity="0.4" d="M402.538 289.402H255.686C254.525 289.402 253.584 290.343 253.584 291.504V319.613C253.584 320.774 254.525 321.715 255.686 321.715H402.538C403.699 321.715 404.64 320.774 404.64 319.613V291.504C404.64 290.343 403.699 289.402 402.538 289.402Z" fill="white"/>
<path d="M264.538 295.987V297.178H266.458V297.792H264.538V299.299H263.808V295.373H266.688V295.987H264.538Z" fill="#263238"/>
<path d="M269.952 299.299L269.146 298.147H268.109V299.29H267.379V295.363H268.992C270.029 295.363 270.672 295.891 270.672 296.755C270.683 297.026 270.607 297.294 270.455 297.519C270.303 297.743 270.083 297.913 269.827 298.003L270.739 299.29L269.952 299.299ZM268.992 295.987H268.138V297.6H268.992C269.635 297.6 269.952 297.312 269.952 296.813C269.952 296.314 269.606 295.987 268.963 295.987H268.992Z" fill="#263238"/>
<path d="M271.2 297.331C271.183 296.91 271.292 296.494 271.513 296.136C271.735 295.777 272.058 295.493 272.442 295.32C272.826 295.147 273.253 295.092 273.669 295.164C274.084 295.235 274.468 295.429 274.772 295.721C275.076 296.012 275.286 296.388 275.375 296.8C275.464 297.212 275.427 297.641 275.27 298.032C275.113 298.423 274.843 298.758 274.494 298.994C274.145 299.23 273.733 299.357 273.312 299.357C273.038 299.371 272.764 299.33 272.507 299.234C272.25 299.139 272.015 298.991 271.817 298.801C271.62 298.612 271.463 298.383 271.356 298.13C271.25 297.878 271.197 297.606 271.2 297.331ZM274.694 297.331C274.694 297.058 274.613 296.791 274.461 296.563C274.31 296.336 274.094 296.159 273.841 296.054C273.588 295.95 273.31 295.922 273.042 295.976C272.774 296.029 272.528 296.161 272.335 296.354C272.141 296.547 272.01 296.794 271.956 297.062C271.903 297.33 271.93 297.608 272.035 297.86C272.139 298.113 272.317 298.329 272.544 298.481C272.771 298.633 273.039 298.714 273.312 298.714C273.495 298.719 273.677 298.687 273.847 298.619C274.017 298.552 274.172 298.45 274.301 298.321C274.431 298.191 274.532 298.037 274.6 297.867C274.668 297.697 274.7 297.514 274.694 297.331Z" fill="#263238"/>
<path d="M279.802 299.299V296.698L278.506 298.848H278.179L276.893 296.727V299.299H276.192V295.373H276.797L278.352 297.975L279.888 295.373H280.483V299.299H279.802Z" fill="#263238"/>
<path d="M264.605 311.04H263.309V310.426H266.64V311.04H265.335V314.352H264.605V311.04Z" fill="#263238"/>
<path d="M266.88 312.365C266.863 311.944 266.972 311.527 267.193 311.169C267.414 310.81 267.738 310.526 268.122 310.353C268.506 310.18 268.933 310.125 269.348 310.197C269.764 310.268 270.148 310.462 270.452 310.754C270.756 311.046 270.966 311.422 271.055 311.833C271.144 312.245 271.107 312.674 270.95 313.065C270.793 313.456 270.523 313.791 270.174 314.027C269.825 314.264 269.413 314.39 268.992 314.39C268.718 314.405 268.444 314.363 268.187 314.267C267.93 314.172 267.695 314.025 267.497 313.835C267.299 313.645 267.143 313.416 267.036 313.164C266.93 312.911 266.877 312.639 266.88 312.365ZM270.374 312.365C270.374 312.091 270.293 311.824 270.141 311.597C269.989 311.369 269.774 311.192 269.521 311.087C269.268 310.983 268.99 310.955 268.722 311.009C268.454 311.062 268.208 311.194 268.014 311.387C267.821 311.58 267.689 311.827 267.636 312.095C267.583 312.363 267.61 312.641 267.715 312.894C267.819 313.146 267.997 313.362 268.224 313.514C268.451 313.666 268.719 313.747 268.992 313.747C269.173 313.748 269.352 313.713 269.518 313.644C269.685 313.575 269.836 313.472 269.962 313.343C270.089 313.214 270.188 313.061 270.254 312.893C270.319 312.725 270.351 312.545 270.346 312.365H270.374Z" fill="#263238"/>
<path d="M388.502 292.426H289.805C288.457 292.484 287.184 293.06 286.251 294.034C285.318 295.007 284.797 296.304 284.797 297.653C284.797 299.002 285.318 300.299 286.251 301.272C287.184 302.246 288.457 302.822 289.805 302.88H388.502C389.85 302.822 391.123 302.246 392.056 301.272C392.989 300.299 393.51 299.002 393.51 297.653C393.51 296.304 392.989 295.007 392.056 294.034C391.123 293.06 389.85 292.484 388.502 292.426Z" fill="white"/>
<path d="M388.503 307.459H289.805C288.42 307.459 287.091 308.009 286.112 308.989C285.133 309.968 284.583 311.297 284.583 312.682C284.583 314.067 285.133 315.395 286.112 316.374C287.091 317.354 288.42 317.904 289.805 317.904H388.503C389.888 317.904 391.216 317.354 392.195 316.374C393.175 315.395 393.725 314.067 393.725 312.682C393.725 311.297 393.175 309.968 392.195 308.989C391.216 308.009 389.888 307.459 388.503 307.459Z" fill="white"/>
<path d="M404.64 216.317C385.373 222.346 365.482 228.596 346.397 234.624L363.84 267.082L404.678 268.464V278.064L357.955 276.48L337.075 237.562L311.261 245.76L330.029 286.791H319.469L302.035 248.698C282.422 254.948 265.555 260.4 253.574 264.336V254.228C257.088 253.076 261.014 251.789 265.315 250.388C274.435 247.431 285.37 243.917 298.013 239.885L281.76 204.327L253.584 213.284V203.213L277.738 195.533L271.267 181.383H281.827L307.2 236.957C317.203 233.757 328.128 230.298 339.974 226.58L360.528 220.1L342.72 181.383H353.28L369.773 217.191L404.611 206.256L404.64 216.317Z" fill="#028090"/>
<path opacity="0.4" d="M404.64 186.24V281.952C404.646 282.587 404.527 283.216 404.288 283.804C404.05 284.392 403.698 284.927 403.251 285.378C402.805 285.828 402.274 286.186 401.688 286.431C401.103 286.675 400.474 286.8 399.84 286.8H258.432C257.794 286.807 257.16 286.686 256.569 286.444C255.978 286.203 255.441 285.846 254.99 285.395C254.538 284.943 254.181 284.406 253.94 283.815C253.699 283.224 253.578 282.591 253.584 281.952V186.24C253.584 185.606 253.71 184.978 253.954 184.392C254.198 183.807 254.556 183.276 255.007 182.829C255.458 182.383 255.992 182.03 256.58 181.792C257.168 181.554 257.798 181.434 258.432 181.44H399.802C400.435 181.435 401.063 181.556 401.65 181.795C402.237 182.034 402.771 182.386 403.221 182.833C403.67 183.279 404.027 183.81 404.271 184.395C404.515 184.98 404.64 185.607 404.64 186.24Z" fill="white"/>
<path d="M326.688 230.102C324.925 228.339 322.533 227.349 320.04 227.349C317.546 227.349 315.155 228.339 313.392 230.102C311.629 231.865 310.638 234.257 310.638 236.75C310.638 239.244 311.629 241.635 313.392 243.398L320.035 250.042L326.688 243.398C328.449 241.634 329.439 239.243 329.439 236.75C329.439 234.257 328.449 231.866 326.688 230.102ZM323.366 240.077C322.708 240.735 321.87 241.183 320.958 241.364C320.045 241.545 319.099 241.452 318.24 241.096C317.38 240.74 316.646 240.137 316.129 239.364C315.612 238.59 315.336 237.681 315.336 236.75C315.336 235.82 315.612 234.911 316.129 234.137C316.646 233.363 317.38 232.761 318.24 232.404C319.099 232.048 320.045 231.955 320.958 232.137C321.87 232.318 322.708 232.766 323.366 233.424C324.246 234.307 324.74 235.503 324.74 236.75C324.74 237.997 324.246 239.193 323.366 240.077Z" fill="#028090"/>
<path d="M222.25 274.436H215.251V347.636H222.25V274.436Z" fill="#263238"/>
<path opacity="0.2" d="M222.25 274.436H215.251V347.636H222.25V274.436Z" fill="black"/>
<path d="M272.352 274.436H265.354V347.636H272.352V274.436Z" fill="#263238"/>
<path opacity="0.2" d="M272.352 274.436H265.354V347.636H272.352V274.436Z" fill="black"/>
<path d="M155.443 274.436H148.445V347.636H155.443V274.436Z" fill="#263238"/>
<path d="M105.341 274.436H98.3425V347.636H105.341V274.436Z" fill="#263238"/>
<path d="M286.695 271.729V277.143C286.696 277.35 286.656 277.556 286.577 277.748C286.499 277.941 286.383 278.115 286.237 278.262C286.09 278.41 285.917 278.526 285.725 278.606C285.533 278.686 285.328 278.727 285.12 278.727H91.7185C91.2984 278.727 90.8955 278.56 90.5985 278.263C90.3014 277.966 90.1345 277.563 90.1345 277.143V271.729C90.1345 271.308 90.3014 270.906 90.5985 270.608C90.8955 270.311 91.2984 270.145 91.7185 270.145H285.12C285.328 270.145 285.533 270.186 285.725 270.265C285.917 270.345 286.09 270.462 286.237 270.609C286.383 270.756 286.499 270.931 286.577 271.123C286.656 271.315 286.696 271.521 286.695 271.729Z" fill="#263238"/>
<path opacity="0.1" d="M286.695 271.729V277.143C286.696 277.35 286.656 277.556 286.577 277.748C286.499 277.941 286.383 278.115 286.237 278.262C286.09 278.41 285.917 278.526 285.725 278.606C285.533 278.686 285.328 278.727 285.12 278.727H91.7185C91.2984 278.727 90.8955 278.56 90.5985 278.263C90.3014 277.966 90.1345 277.563 90.1345 277.143V271.729C90.1345 271.308 90.3014 270.906 90.5985 270.608C90.8955 270.311 91.2984 270.145 91.7185 270.145H285.12C285.328 270.145 285.533 270.186 285.725 270.265C285.917 270.345 286.09 270.462 286.237 270.609C286.383 270.756 286.499 270.931 286.577 271.123C286.656 271.315 286.696 271.521 286.695 271.729Z" fill="white"/>
<path opacity="0.2" d="M144.73 271.729V277.143C144.731 277.35 144.691 277.556 144.613 277.748C144.534 277.941 144.418 278.115 144.272 278.262C144.126 278.41 143.952 278.526 143.76 278.606C143.568 278.686 143.363 278.727 143.155 278.727H91.7185C91.2984 278.727 90.8955 278.56 90.5985 278.263C90.3014 277.966 90.1345 277.563 90.1345 277.143V271.729C90.1345 271.308 90.3014 270.906 90.5985 270.608C90.8955 270.311 91.2984 270.145 91.7185 270.145H143.155C143.363 270.145 143.568 270.186 143.76 270.265C143.952 270.345 144.126 270.462 144.272 270.609C144.418 270.756 144.534 270.931 144.613 271.123C144.691 271.315 144.731 271.521 144.73 271.729Z" fill="white"/>
<path d="M198.49 187.201C198.49 187.201 202.08 187.931 202.07 188.583C202.061 189.236 200.669 194.43 200.026 195.063C199.357 195.61 198.629 196.08 197.856 196.465L198.816 204.846L193.91 206.113L193.843 197.185C193.843 197.185 192.115 194.555 193.354 191.982C194.592 189.409 198.49 187.201 198.49 187.201Z" fill="#EBB376"/>
<path opacity="0.2" d="M198.49 187.201C198.49 187.201 202.08 187.931 202.07 188.583C202.061 189.236 200.669 194.43 200.026 195.063C199.357 195.61 198.629 196.08 197.856 196.465L198.816 204.846L193.91 206.113L193.843 197.185C193.843 197.185 192.115 194.555 193.354 191.982C194.592 189.409 198.49 187.201 198.49 187.201Z" fill="black"/>
<path d="M185.453 188.161C188.698 190.484 189.927 203.32 191.213 205.182C192.499 207.044 192.999 201.64 192.999 201.64L199.536 201.323C199.536 201.323 200.429 209.003 196.656 214.388C192.883 219.774 185.933 215.79 181.987 207.073C178.042 198.356 185.453 188.161 185.453 188.161Z" fill="#028090"/>
<path opacity="0.2" d="M196.656 214.408C195.968 215.494 194.917 216.3 193.69 216.683C189.907 217.768 185.05 213.803 181.997 207.083C181.08 204.992 180.695 202.706 180.874 200.43C181.296 193.902 185.453 188.171 185.453 188.171C188.688 190.494 189.927 203.329 191.213 205.192C192.499 207.054 192.999 201.649 192.999 201.649L199.536 201.333C199.536 201.333 200.429 208.974 196.656 214.408Z" fill="white"/>
<path d="M228.115 339.515L234.595 337.739L233.434 321.947L226.973 323.723L228.115 339.515Z" fill="#EBB376"/>
<path d="M234.989 336.884L227.472 337.403C227.41 337.404 227.348 337.417 227.291 337.443C227.233 337.468 227.182 337.505 227.139 337.55C227.096 337.596 227.063 337.65 227.041 337.708C227.019 337.767 227.009 337.83 227.011 337.892L227.059 343.863C227.079 344.175 227.222 344.466 227.455 344.673C227.689 344.88 227.996 344.986 228.307 344.967C230.928 344.737 232.147 344.497 235.469 344.247C238.418 344.166 241.357 343.87 244.263 343.364C246.999 342.731 246.298 340.043 245.079 340.062C242.199 340.119 238.157 338.526 236.16 337.182C235.815 336.952 235.402 336.847 234.989 336.884Z" fill="#263238"/>
<path d="M237.437 337.854C236.833 337.883 236.228 337.844 235.632 337.739C235.604 337.735 235.577 337.723 235.555 337.704C235.533 337.685 235.516 337.661 235.508 337.633C235.503 337.603 235.505 337.571 235.513 337.542C235.521 337.512 235.536 337.484 235.556 337.46C235.757 337.297 237.572 335.876 238.436 336.136C238.53 336.167 238.615 336.223 238.682 336.297C238.75 336.371 238.797 336.461 238.82 336.558C238.885 336.702 238.909 336.861 238.887 337.018C238.865 337.174 238.798 337.321 238.695 337.441C238.343 337.733 237.893 337.881 237.437 337.854ZM238.32 336.462C237.869 336.328 236.804 336.961 236.055 337.508C237.264 337.662 238.148 337.566 238.445 337.23C238.503 337.15 238.539 337.058 238.551 336.96C238.563 336.863 238.549 336.764 238.512 336.673C238.501 336.624 238.478 336.579 238.444 336.542C238.411 336.505 238.368 336.477 238.32 336.462Z" fill="#028090"/>
<path d="M235.67 337.739H235.603C235.556 337.711 235.522 337.666 235.507 337.614C235.507 337.556 235.219 335.627 235.843 334.926C235.925 334.836 236.027 334.765 236.139 334.718C236.252 334.672 236.374 334.651 236.496 334.657C236.629 334.654 236.759 334.694 236.867 334.772C236.974 334.85 237.053 334.962 237.091 335.089C237.293 335.809 236.39 337.278 235.757 337.719L235.67 337.739ZM236.41 335.012C236.347 335.015 236.285 335.031 236.229 335.059C236.173 335.088 236.123 335.127 236.083 335.175C235.754 335.841 235.653 336.597 235.795 337.326C236.359 336.764 236.7 336.017 236.755 335.223C236.755 335.127 236.669 335.022 236.448 335.012H236.41Z" fill="#028090"/>
<path opacity="0.2" d="M226.973 323.723L233.434 321.956L234.096 330.98L227.597 332.43L226.973 323.723Z" fill="black"/>
<path d="M219.658 339.284L213.543 342.068L211.988 335.511L209.895 326.67L215.991 323.876L218.084 332.708L219.658 339.284Z" fill="#EBB376"/>
<path opacity="0.2" d="M218.084 332.708L211.988 335.511L209.895 326.67L215.991 323.876L218.084 332.708Z" fill="black"/>
<path d="M219.907 338.382L212.573 340.091C212.448 340.114 212.338 340.186 212.266 340.29C212.194 340.394 212.167 340.523 212.189 340.647L213.149 346.542C213.222 346.845 213.41 347.107 213.674 347.274C213.937 347.441 214.255 347.498 214.56 347.435C217.114 346.791 218.295 346.359 221.52 345.582C224.414 345.024 227.265 344.267 230.055 343.316C232.666 342.251 231.543 339.697 230.343 339.918C227.183 340.25 223.991 339.757 221.079 338.487C220.709 338.331 220.299 338.294 219.907 338.382Z" fill="#263238"/>
<path d="M222.48 338.948C221.89 339.073 221.288 339.131 220.685 339.121C220.655 339.122 220.626 339.115 220.6 339.099C220.575 339.084 220.554 339.062 220.541 339.035C220.529 339.008 220.522 338.978 220.522 338.948C220.522 338.919 220.529 338.889 220.541 338.862C220.723 338.67 222.279 336.942 223.152 337.096C223.252 337.11 223.346 337.151 223.425 337.213C223.504 337.275 223.566 337.357 223.603 337.451C223.688 337.584 223.733 337.739 223.733 337.897C223.733 338.055 223.688 338.21 223.603 338.344C223.317 338.678 222.917 338.894 222.48 338.948ZM223.133 337.432C222.663 337.364 221.712 338.171 221.059 338.824C222.288 338.824 223.133 338.545 223.373 338.171C223.423 338.085 223.449 337.987 223.449 337.888C223.449 337.788 223.423 337.69 223.373 337.604C223.352 337.561 223.321 337.522 223.283 337.492C223.244 337.462 223.2 337.441 223.152 337.432H223.133Z" fill="#028090"/>
<path d="M220.714 339.111C220.705 339.116 220.695 339.118 220.685 339.118C220.675 339.118 220.665 339.116 220.656 339.111C220.608 339.094 220.567 339.06 220.541 339.015C220.541 338.958 219.936 337.095 220.445 336.299C220.511 336.197 220.598 336.112 220.701 336.049C220.804 335.985 220.92 335.946 221.04 335.934C221.171 335.904 221.309 335.92 221.429 335.98C221.55 336.039 221.647 336.138 221.703 336.26C222.02 336.942 221.367 338.535 220.8 339.073C220.791 339.087 220.778 339.098 220.763 339.105C220.747 339.112 220.731 339.114 220.714 339.111ZM221.012 336.308C220.888 336.337 220.781 336.413 220.714 336.519C220.504 337.231 220.524 337.99 220.772 338.689C221.256 338.049 221.488 337.253 221.424 336.452C221.424 336.366 221.309 336.27 221.088 336.299L221.012 336.308Z" fill="#028090"/>
<path d="M174.336 249.601L172.359 227.78L135.879 228.635C135.879 228.635 131.568 259.047 134.707 264.635C140.304 274.609 177.043 268.945 185.635 269.799C189.149 271.671 207.927 333.899 207.927 333.899L218.439 329.655C218.439 329.655 207.13 277.134 204.557 267.255C201.005 253.441 186.403 253.691 174.336 249.601Z" fill="#028090"/>
<path opacity="0.6" d="M174.336 249.601L172.359 227.78L135.879 228.635C135.879 228.635 131.568 259.047 134.707 264.635C140.304 274.609 177.043 268.945 185.635 269.799C189.149 271.671 207.927 333.899 207.927 333.899L218.439 329.655C218.439 329.655 207.13 277.134 204.557 267.255C201.005 253.441 186.403 253.691 174.336 249.601Z" fill="white"/>
<path d="M234.739 328.552L225.466 329.416C225.466 329.416 214.08 271.499 213.207 271.259C211.623 270.808 207.015 270.299 204.567 269.636C187.335 265.163 144.96 256.926 144.96 256.926L160.579 241.921C160.579 241.921 231.437 250.427 233.011 267.054C233.76 275.003 234.739 328.552 234.739 328.552Z" fill="#028090"/>
<path opacity="0.6" d="M234.739 328.552L225.466 329.416C225.466 329.416 214.08 271.499 213.207 271.259C211.623 270.808 207.015 270.299 204.567 269.636C187.335 265.163 144.96 256.926 144.96 256.926L160.579 241.921C160.579 241.921 231.437 250.427 233.011 267.054C233.76 275.003 234.739 328.552 234.739 328.552Z" fill="white"/>
<path opacity="0.2" d="M210.701 271.297C209.117 270.846 207.015 270.289 204.538 269.636C205.229 270.001 203.232 260.996 201.245 258.654C197.309 254.007 181.479 251.492 175.795 250.58C171.053 249.822 155.117 248.41 155.117 248.41C155.117 248.41 183.245 245.982 204.442 251.799C214.915 254.679 213.053 264.961 210.701 271.297Z" fill="black"/>
<path d="M173.194 232.206C175.325 219.975 178.954 203.607 185.549 188.295C182.059 186.818 178.465 185.599 174.797 184.647C169.427 183.195 163.978 182.054 158.477 181.23C154.686 180.827 150.87 180.721 147.062 180.913C147.062 180.913 138.845 196.273 134.678 232.206H173.194Z" fill="#028090"/>
<path d="M191.472 190.081C191.449 190.158 191.444 190.24 191.456 190.32C191.468 190.399 191.497 190.475 191.542 190.542C191.587 190.609 191.646 190.666 191.716 190.707C191.785 190.748 191.862 190.774 191.943 190.782L198.135 191.656C198.307 191.676 198.481 191.634 198.626 191.537C198.77 191.44 198.875 191.295 198.922 191.128L202.013 179.099C202.038 179.017 202.045 178.932 202.036 178.848C202.026 178.763 201.999 178.682 201.957 178.608C201.915 178.534 201.858 178.47 201.79 178.419C201.722 178.368 201.644 178.331 201.562 178.312L195.37 177.448C195.185 177.442 195.005 177.5 194.858 177.612C194.711 177.724 194.607 177.883 194.563 178.062L191.472 190.081Z" fill="#263238"/>
<path opacity="0.5" d="M195.264 178.042L192.135 190.186C192.105 190.256 192.093 190.331 192.099 190.406C192.105 190.481 192.128 190.553 192.168 190.617C192.207 190.681 192.261 190.734 192.326 190.773C192.39 190.812 192.463 190.834 192.538 190.839L197.789 191.578C198.144 191.626 198.816 191.521 198.903 191.175L202.042 178.993C202.128 178.647 201.562 178.292 201.216 178.234L195.965 177.505C195.802 177.49 195.64 177.537 195.51 177.637C195.38 177.737 195.292 177.881 195.264 178.042Z" fill="white"/>
<path d="M161.328 191.588C161.328 191.588 151.728 183.956 150.557 179.444C149.386 174.932 154.973 171.889 162.845 173.627C170.717 175.364 177.994 180.347 175.67 186.107C173.347 191.867 169.277 193.268 169.277 193.268C169.277 193.268 167.587 189.966 161.328 191.588Z" fill="#028090"/>
<path d="M181.229 196.647L186.758 193.019C186.758 193.019 189.11 185.934 189.638 185.243C190.166 184.551 196.003 186.135 196.646 186.203C197.29 186.27 195.581 193.499 194.803 194.123C194.026 194.747 191.482 194.833 191.482 194.833L185.194 200.372L181.229 196.647Z" fill="#EBB376"/>
<path opacity="0.2" d="M161.328 191.588C161.328 191.588 151.728 183.956 150.557 179.444C149.386 174.932 154.973 171.889 162.845 173.627C170.717 175.364 177.994 180.347 175.67 186.107C173.347 191.867 169.277 193.268 169.277 193.268C169.277 193.268 167.587 189.966 161.328 191.588Z" fill="white"/>
<path d="M167.587 167.511C166.138 172.763 162.682 181.988 157.738 183.515C157.738 183.515 161.376 189.467 166.829 189.966C170.294 190.283 172.214 186.375 172.214 186.375C168.682 185.713 170.035 183.121 172.819 179.867L167.587 167.511Z" fill="#EBB376"/>
<path opacity="0.2" d="M169.719 172.551L172.81 179.866C172.147 180.615 171.553 181.421 171.034 182.276C167.559 182.535 165.063 177.025 165.917 174.788C166.224 173.866 169.104 173.3 169.719 172.551Z" fill="black"/>
<path d="M179.597 159.131C176.285 160.494 176.919 164.113 182.41 170.708C185.799 167.828 187.632 161.156 185.856 159.025C184.08 156.894 182.487 157.94 179.597 159.131Z" fill="#263238"/>
<path d="M165.975 161.953C164.823 169.124 163.786 173.262 166.541 177.697C170.679 184.36 180.135 183.083 183.418 176.401C186.346 170.392 187.747 159.678 181.498 155.281C180.115 154.315 178.509 153.718 176.831 153.545C175.152 153.373 173.458 153.632 171.908 154.297C170.358 154.962 169.003 156.011 167.971 157.346C166.94 158.681 166.266 160.257 166.013 161.924L165.975 161.953Z" fill="#EBB376"/>
<path d="M176.102 166.263C175.968 166.839 176.17 167.377 176.554 167.463C176.938 167.55 177.331 167.146 177.456 166.57C177.581 165.994 177.389 165.467 177.024 165.38C176.659 165.294 176.266 165.707 176.102 166.263Z" fill="#263238"/>
<path d="M182.64 167.742C182.515 168.318 182.717 168.855 183.091 168.942C183.466 169.028 183.879 168.634 184.051 168.049C184.224 167.463 183.975 166.935 183.6 166.858C183.226 166.782 182.765 167.175 182.64 167.742Z" fill="#263238"/>
<path d="M180.48 167.54C180.774 169.453 181.33 171.317 182.131 173.079C181.673 173.274 181.177 173.365 180.679 173.347C180.182 173.329 179.694 173.201 179.251 172.974L180.48 167.54Z" fill="#D58745"/>
<path d="M174.778 163.806C174.702 163.796 174.632 163.762 174.576 163.71C174.544 163.678 174.518 163.64 174.501 163.598C174.483 163.556 174.474 163.511 174.474 163.465C174.474 163.42 174.483 163.375 174.501 163.333C174.518 163.291 174.544 163.253 174.576 163.22C174.987 162.852 175.481 162.588 176.016 162.453C176.551 162.317 177.111 162.314 177.648 162.443C177.731 162.467 177.802 162.523 177.847 162.597C177.891 162.672 177.906 162.761 177.888 162.846C177.857 162.931 177.796 163.002 177.716 163.044C177.637 163.087 177.544 163.098 177.456 163.076C177.033 162.982 176.593 162.99 176.174 163.101C175.755 163.211 175.368 163.42 175.046 163.71C175.011 163.744 174.968 163.77 174.922 163.786C174.876 163.803 174.827 163.809 174.778 163.806Z" fill="#263238"/>
<path d="M186.115 166.206C186.051 166.192 185.991 166.16 185.944 166.115C185.897 166.069 185.863 166.011 185.846 165.947C185.756 165.527 185.568 165.135 185.298 164.801C185.028 164.468 184.683 164.202 184.291 164.027C184.248 164.012 184.209 163.988 184.175 163.958C184.141 163.927 184.114 163.891 184.094 163.85C184.075 163.809 184.063 163.764 184.061 163.719C184.058 163.673 184.065 163.628 184.08 163.585C184.095 163.542 184.119 163.503 184.149 163.469C184.179 163.435 184.216 163.408 184.257 163.388C184.298 163.369 184.343 163.357 184.388 163.355C184.433 163.352 184.479 163.359 184.522 163.374C185.027 163.594 185.472 163.931 185.82 164.359C186.167 164.787 186.407 165.292 186.518 165.832C186.539 165.919 186.524 166.012 186.478 166.089C186.431 166.166 186.356 166.222 186.269 166.244H186.115V166.206Z" fill="#263238"/>
<path d="M170.198 156.327C173.251 158.199 172.042 161.675 165.571 167.291C162.691 163.873 161.942 157.028 164.035 155.223C166.128 153.419 167.53 154.686 170.198 156.327Z" fill="#263238"/>
<path d="M161.338 166.859C161.389 167.761 161.619 168.645 162.013 169.458C162.406 170.272 162.957 171 163.632 171.601C165.456 173.195 167.405 171.812 167.77 169.556C168.096 167.521 167.549 164.228 165.302 163.508C164.809 163.356 164.284 163.33 163.777 163.433C163.271 163.536 162.798 163.765 162.403 164.099C162.008 164.432 161.704 164.86 161.518 165.342C161.331 165.825 161.27 166.346 161.338 166.859Z" fill="#EBB376"/>
<path d="M164.573 154.83C164.573 154.83 163.929 152.017 168.979 149.348C174.029 146.679 182.198 148.935 187.507 152.785C192.816 156.635 186.355 161.425 183.773 161.559L184.493 160.667C181.727 160.8 178.965 160.328 176.4 159.284L178.041 158.747C178.041 158.747 167.76 156.865 164.573 154.83Z" fill="#263238"/>
<path d="M178.022 174.529C177.532 175.248 177.096 176.002 176.717 176.785C176.567 176.749 176.42 176.704 176.275 176.651C174.288 176.036 173.568 175.086 173.395 174.232C173.291 173.573 173.405 172.898 173.722 172.312C174.778 173.24 176.022 173.931 177.37 174.337C177.763 174.462 178.022 174.529 178.022 174.529Z" fill="#263238"/>
<path d="M177.351 174.308L176.947 174.961C175.075 174.376 173.837 173.713 173.434 172.964C173.493 172.726 173.583 172.497 173.703 172.283C174.759 173.212 176.003 173.902 177.351 174.308Z" fill="white"/>
<path d="M176.276 176.641C174.288 176.027 173.568 175.076 173.396 174.222C174.148 174.471 174.85 174.851 175.469 175.345C175.868 175.681 176.15 176.135 176.276 176.641Z" fill="#A24E3F"/>
<path d="M172.8 212.603C172.769 212.601 172.738 212.594 172.709 212.581C172.68 212.568 172.655 212.549 172.633 212.526C172.612 212.502 172.595 212.475 172.584 212.446C172.573 212.416 172.568 212.385 172.57 212.353C173.376 200.583 169.44 192.913 169.402 192.836C169.386 192.809 169.377 192.778 169.373 192.747C169.37 192.715 169.373 192.683 169.382 192.653C169.391 192.623 169.406 192.595 169.425 192.57C169.445 192.545 169.47 192.525 169.498 192.51C169.555 192.482 169.621 192.478 169.682 192.498C169.743 192.517 169.793 192.559 169.824 192.615C169.824 192.692 173.866 200.478 173.05 212.382C173.045 212.444 173.016 212.501 172.969 212.543C172.923 212.584 172.862 212.605 172.8 212.603Z" fill="white"/>
<path d="M158.266 208.417C158.225 208.426 158.182 208.426 158.141 208.417C158.088 208.383 158.051 208.33 158.036 208.269C158.022 208.208 158.032 208.144 158.064 208.091C162.375 200.756 161.107 190.811 161.098 190.734C161.092 190.703 161.093 190.671 161.101 190.64C161.108 190.61 161.122 190.581 161.14 190.556C161.159 190.531 161.183 190.51 161.211 190.494C161.238 190.478 161.268 190.468 161.299 190.465C161.362 190.457 161.425 190.473 161.475 190.511C161.525 190.549 161.559 190.604 161.568 190.667C161.568 190.772 162.874 200.862 158.477 208.331C158.452 208.361 158.419 208.385 158.382 208.4C158.345 208.416 158.305 208.421 158.266 208.417Z" fill="white"/>
<path d="M172.627 212.161C172.627 212.161 173.395 212.161 173.261 213.448L172.138 213.342C172.138 213.342 172.013 212.334 172.627 212.161Z" fill="white"/>
<path d="M158.343 207.735C158.343 207.735 158.976 208.167 158.227 209.166L157.315 208.494C157.315 208.494 157.738 207.534 158.343 207.735Z" fill="white"/>
<path d="M148.013 180.923C151.709 181.777 160.57 197.099 165.293 199.921C170.016 202.744 183.13 193.662 183.13 193.662L187.613 199.24C187.613 199.24 177.005 208.6 167.722 208.84C158.439 209.08 145.277 195.937 143.319 191.118C141.36 186.299 143.53 179.886 148.013 180.923Z" fill="#028090"/>
<path opacity="0.2" d="M148.013 180.923C151.709 181.777 160.57 197.099 165.293 199.921C170.016 202.744 183.13 193.662 183.13 193.662L187.613 199.24C187.613 199.24 177.005 208.6 167.722 208.84C158.439 209.08 145.277 195.937 143.319 191.118C141.36 186.299 143.53 179.886 148.013 180.923Z" fill="white"/>
<path d="M138.921 220.608C138.921 220.608 146.371 226.176 149.03 238.714C151.689 251.251 161.721 278.957 138.921 268.013L139.517 265.421C139.517 265.421 146.784 271.623 149.433 267.447C152.083 263.271 150.71 240.864 140.006 228.96L138.921 220.608Z" fill="#263238"/>
<path d="M123.571 215.424C123.571 215.424 126.268 209.971 130.291 209.846C134.313 209.722 135.676 210.864 135.417 214.79L133.622 214.915C133.622 214.915 135.446 211.632 131.116 211.498C129.891 211.475 128.691 211.843 127.69 212.549C126.688 213.255 125.938 214.262 125.548 215.424H123.571Z" fill="#263238"/>
<path d="M101.846 270.144C101.846 270.144 98.3422 248.458 107.462 241.882C107.462 241.882 106.013 237.331 113.357 222.384C116.4 216.183 118.982 214.474 121.545 214.359L139.325 213.629C140.227 213.59 141.111 213.889 141.803 214.468C142.496 215.047 142.947 215.864 143.069 216.759C144.317 226.032 147.331 252.912 143.155 270.144H101.846Z" fill="#263238"/>
<path opacity="0.1" d="M101.846 270.144C101.846 270.144 98.3422 248.458 107.462 241.882C107.462 241.882 106.013 237.331 113.357 222.384C116.4 216.183 118.982 214.474 121.545 214.359L139.325 213.629C140.227 213.59 141.111 213.889 141.803 214.468C142.496 215.047 142.947 215.864 143.069 216.759C144.317 226.032 147.331 252.912 143.155 270.144H101.846Z" fill="white"/>
<path d="M130.406 237.331C130.816 237.347 131.224 237.268 131.599 237.101C131.974 236.934 132.306 236.684 132.568 236.368C132.831 236.053 133.017 235.681 133.113 235.282C133.21 234.883 133.213 234.467 133.123 234.067C132.297 230.534 129.993 225.369 123.571 224.409C116.668 223.373 112.31 229.613 110.284 233.529C110.117 233.851 110.033 234.21 110.042 234.572C110.051 234.934 110.152 235.289 110.335 235.601C110.519 235.914 110.778 236.175 111.09 236.36C111.402 236.545 111.756 236.648 112.118 236.659L130.406 237.331Z" fill="#263238"/>
<path d="M104.745 247.325C105.197 245.76 128.169 246.691 129.705 247.325C131.241 247.958 129.389 263.904 128.025 265.421C126.662 266.937 104.256 265.929 102.547 265.421C100.838 264.912 101.078 260.102 104.745 247.325Z" fill="#263238"/>
<path opacity="0.2" d="M130.406 237.331C130.816 237.347 131.224 237.268 131.599 237.101C131.974 236.934 132.306 236.684 132.568 236.368C132.831 236.053 133.017 235.681 133.113 235.282C133.21 234.883 133.213 234.467 133.123 234.067C132.297 230.534 129.993 225.369 123.571 224.409C116.668 223.373 112.31 229.613 110.284 233.529C110.117 233.851 110.033 234.21 110.042 234.572C110.051 234.934 110.152 235.289 110.335 235.601C110.519 235.914 110.778 236.175 111.09 236.36C111.402 236.545 111.756 236.648 112.118 236.659L130.406 237.331Z" fill="white"/>
<path opacity="0.2" d="M104.745 247.325C105.197 245.76 128.169 246.691 129.705 247.325C131.241 247.958 129.389 263.904 128.025 265.421C126.662 266.937 104.256 265.929 102.547 265.421C100.838 264.912 101.078 260.102 104.745 247.325Z" fill="white"/>
<path d="M141.58 253.114H141.523C141.397 253.097 141.283 253.031 141.205 252.93C141.128 252.829 141.094 252.702 141.11 252.576C142.339 243.322 140.38 220.819 139.977 219.206C139.862 218.499 139.499 217.856 138.955 217.39C138.41 216.924 137.718 216.667 137.001 216.662C135.024 216.538 119.212 216.662 119.059 216.662C118.932 216.66 118.812 216.609 118.722 216.519C118.633 216.43 118.581 216.309 118.579 216.182C118.579 216.055 118.629 215.933 118.719 215.843C118.809 215.753 118.932 215.702 119.059 215.702C119.712 215.702 135.052 215.578 137.068 215.702C137.986 215.728 138.867 216.067 139.566 216.662C140.264 217.258 140.738 218.074 140.908 218.976C141.292 220.502 143.356 242.976 142.06 252.701C142.044 252.816 141.986 252.922 141.898 252.998C141.81 253.074 141.697 253.115 141.58 253.114Z" fill="#263238"/>
<path d="M127.075 250.838H126.979C121.449 249.725 105.523 250.339 105.36 250.339C105.232 250.339 105.11 250.289 105.02 250.199C104.93 250.109 104.88 249.987 104.88 249.859C104.88 249.732 104.93 249.61 105.02 249.52C105.11 249.43 105.232 249.379 105.36 249.379C106.012 249.379 121.555 248.765 127.2 249.898C127.323 249.925 127.431 250 127.501 250.105C127.571 250.211 127.597 250.34 127.574 250.464C127.549 250.576 127.485 250.675 127.394 250.743C127.302 250.812 127.189 250.846 127.075 250.838Z" fill="#263238"/>
<path d="M131.587 233.875C131.484 233.877 131.383 233.846 131.3 233.785C131.217 233.724 131.156 233.638 131.126 233.539C130.07 230.304 127.44 224.899 121.661 225.389C115.738 225.869 113.194 232.31 113.165 232.378C113.113 232.487 113.021 232.573 112.909 232.618C112.796 232.662 112.671 232.663 112.558 232.619C112.445 232.576 112.353 232.491 112.3 232.382C112.247 232.273 112.237 232.148 112.272 232.032C112.387 231.744 115.066 224.957 121.584 224.438C128.102 223.92 130.896 229.738 132.038 233.251C132.078 233.372 132.068 233.504 132.01 233.617C131.952 233.731 131.852 233.816 131.731 233.856L131.587 233.875Z" fill="#263238"/>
<path d="M98.9281 296.716H74.1121V314.064H98.9281V296.716Z" fill="#263238"/>
<path d="M66.1343 292.8V347.644H100.377V292.8H66.1343ZM96.6431 309.004H85.7567V302.4C85.7567 301.666 86.048 300.963 86.5665 300.445C87.085 299.926 87.7882 299.635 88.5215 299.635H93.8783C94.6115 299.635 95.3148 299.926 95.8333 300.445C96.3518 300.963 96.6431 301.666 96.6431 302.4V309.004Z" fill="#028090"/>
<path opacity="0.6" d="M66.1343 292.8V347.644H100.377V292.8H66.1343ZM96.6431 309.004H85.7567V302.4C85.7567 301.666 86.048 300.963 86.5665 300.445C87.085 299.926 87.7882 299.635 88.5215 299.635H93.8783C94.6115 299.635 95.3148 299.926 95.8333 300.445C96.3518 300.963 96.6431 301.666 96.6431 302.4V309.004Z" fill="white"/>
<path opacity="0.4" d="M80.8223 292.79H66.1343V347.635H80.8223V292.79Z" fill="white"/>
<path d="M101.184 289.891H65.2512V295.19H101.184V289.891Z" fill="#028090"/>
<path opacity="0.2" d="M81.8304 289.891H65.2512V295.19H81.8304V289.891Z" fill="white"/>
</svg>
