<svg width="220" height="164" viewBox="0 0 220 164" fill="none" xmlns="http://www.w3.org/2000/svg">
<path d="M59.1623 80.4056C84.9199 106.964 118.769 125.4 150.145 95.6428C166.32 80.3132 187.695 38.9136 166.602 19.9628C137.531 -6.14676 120.841 36.5728 99.1187 42.3632C84.2203 46.3232 71.6935 23.4432 53.8603 38.7288C39.7627 50.8068 48.4527 69.366 59.1623 80.4056Z" fill="#028090"/>
<path opacity="0.9" d="M59.1623 80.4056C84.9199 106.964 118.769 125.4 150.145 95.6428C166.32 80.3132 187.695 38.9136 166.602 19.9628C137.531 -6.14676 120.841 36.5728 99.1187 42.3632C84.2203 46.3232 71.6935 23.4432 53.8603 38.7288C39.7627 50.8068 48.4527 69.366 59.1623 80.4056Z" fill="white"/>
<path d="M110 163.926C157.116 163.926 195.312 161.696 195.312 158.946C195.312 156.195 157.116 153.965 110 153.965C62.8838 153.965 24.6885 156.195 24.6885 158.946C24.6885 161.696 62.8838 163.926 110 163.926Z" fill="#F5F5F5"/>
<path d="M153.67 47.7092L149.305 45.9492C149.305 45.9492 143.546 56.452 141.896 56.9844C139.652 57.706 135.005 59.7124 132.251 60.0644C131.877 60.5044 131.265 61.8728 131.323 62.37C135.023 63.6064 143.154 61.9652 144.897 60.6716C148.861 57.7368 153.67 47.7092 153.67 47.7092Z" fill="#E58A7B"/>
<path d="M155.012 45.3199C155.826 48.3251 151.417 54.3707 151.417 54.3707L145.64 51.1323C145.64 51.1323 146.723 48.6463 148.043 46.1163C150.159 42.0287 154.084 41.8923 155.012 45.3199Z" fill="#028090"/>
<path opacity="0.2" d="M155.012 45.3199C155.826 48.3251 151.417 54.3707 151.417 54.3707L145.64 51.1323C145.64 51.1323 146.723 48.6463 148.043 46.1163C150.159 42.0287 154.084 41.8923 155.012 45.3199Z" fill="black"/>
<path opacity="0.2" d="M147.933 52.4259L150.207 53.7019L150.608 46.7191C149.283 47.7355 148.351 50.7979 147.933 52.4259Z" fill="black"/>
<path d="M151.21 43.0584C151.21 43.0584 146.713 53.064 149.336 71.6936H167.055C167.336 68.9744 166.403 55.704 169.778 42.8912C167.835 42.5113 165.868 42.2599 163.891 42.1388C161.384 41.9935 158.87 41.9935 156.363 42.1388C154.625 42.3153 152.902 42.6227 151.21 43.0584Z" fill="#028090"/>
<path opacity="0.2" d="M151.21 43.0584C151.21 43.0584 146.713 53.064 149.336 71.6936H167.055C167.336 68.9744 166.403 55.704 169.778 42.8912C167.835 42.5113 165.868 42.2599 163.891 42.1388C161.384 41.9935 158.87 41.9935 156.363 42.1388C154.625 42.3153 152.902 42.6227 151.21 43.0584Z" fill="black"/>
<g style="mix-blend-mode:multiply">
<path d="M147.101 159.342C147.074 159.817 153.793 160.2 162.105 160.2C170.416 160.2 177.183 159.817 177.21 159.342C177.236 158.866 170.522 158.488 162.206 158.488C153.89 158.488 147.131 158.871 147.101 159.342Z" fill="#E8ECF1"/>
</g>
<path d="M158.928 146.856L155.786 148.072L158.493 155.065L161.635 153.849L158.928 146.856Z" fill="#E58A7B"/>
<path d="M172.942 155.958H169.629L168.415 148.289H171.728L172.942 155.958Z" fill="#E58A7B"/>
<path d="M169.4 155.575H173.122C173.187 155.575 173.249 155.598 173.299 155.64C173.348 155.682 173.38 155.74 173.391 155.804L173.87 158.747C173.881 158.821 173.875 158.896 173.853 158.968C173.832 159.039 173.795 159.105 173.746 159.161C173.696 159.217 173.636 159.262 173.568 159.292C173.5 159.322 173.426 159.338 173.351 159.337C172.053 159.315 171.428 159.236 169.792 159.236C168.784 159.236 166.712 159.341 165.312 159.341C163.913 159.341 163.821 157.969 164.397 157.841C166.984 157.282 167.988 156.521 168.85 155.782C169.002 155.648 169.198 155.575 169.4 155.575Z" fill="#263238"/>
<path d="M158.4 154.44L161.92 153.41C161.983 153.393 162.05 153.397 162.11 153.423C162.17 153.448 162.219 153.494 162.25 153.551L163.57 156.191C163.601 156.258 163.616 156.331 163.616 156.405C163.616 156.478 163.599 156.551 163.568 156.618C163.536 156.684 163.491 156.743 163.434 156.79C163.377 156.838 163.311 156.872 163.24 156.891C161.96 157.243 161.102 157.458 159.5 157.925C158.396 158.246 157.269 158.77 156.178 159.117C155.421 159.359 153.644 159.368 152.724 159.368C151.364 159.368 151.061 157.934 151.646 157.868C153.12 157.705 153.318 157.78 154.132 157.37C155.464 156.788 156.671 155.955 157.687 154.915C157.879 154.697 158.125 154.533 158.4 154.44Z" fill="#263238"/>
<path d="M132.805 60.0467L129.162 58.5199L127.662 62.5591C129.155 62.7866 130.674 62.7866 132.167 62.5591L132.805 60.0467Z" fill="#E58A7B"/>
<path d="M126.452 58.4143L126.355 61.0983L127.662 62.5503L129.162 58.5111L126.452 58.4143Z" fill="#E58A7B"/>
<path d="M159.359 147.449L156.207 148.667L157.603 152.283L160.756 151.066L159.359 147.449Z" fill="#CF6F64"/>
<path d="M171.728 148.289H168.415L169.044 152.244H172.357L171.728 148.289Z" fill="#CF6F64"/>
<path opacity="0.2" d="M148.773 66.6555C148.839 67.4519 148.914 68.2659 149.011 69.1019L162.184 64.8251C164.241 64.2154 166.029 62.9226 167.253 61.1599C167.306 59.9851 167.372 58.7487 167.473 57.4595C167.517 56.8347 167.57 56.1923 167.627 55.5411C167.684 54.8899 167.763 54.1683 167.847 53.4731L148.773 66.6555Z" fill="black"/>
<path d="M153.076 52.2236L152.636 52.1708C152.896 49.9708 154.537 48.2372 156.266 48.2812V48.7212C154.753 48.6904 153.309 50.2524 153.076 52.2236Z" fill="white"/>
<path d="M155.421 56.2848H155.346V55.8448C156.86 55.902 158.281 54.3224 158.514 52.3556L158.954 52.4084C158.721 54.56 157.133 56.2848 155.421 56.2848Z" fill="white"/>
<path d="M163.645 33.6599C163.024 36.0843 162.294 40.5239 163.891 42.1387C163.891 42.1387 162.774 44.5983 158.272 44.5983C154.158 44.5983 156.363 42.1387 156.363 42.1387C159.1 41.4963 159.148 39.4987 158.787 37.6067L163.645 33.6599Z" fill="#E58A7B"/>
<path d="M161.665 35.2704L158.792 37.6068C158.881 38.0416 158.932 38.4832 158.945 38.9268C159.786 39.7628 161.471 37.6464 161.643 36.564C161.73 36.1378 161.737 35.6992 161.665 35.2704Z" fill="#CF6F64"/>
<path d="M153.85 33.6291C154.05 33.9756 154.319 34.2772 154.641 34.5149C154.963 34.7526 155.33 34.9214 155.72 35.0107C156.776 35.2439 157.304 34.2715 157.014 33.2947C156.754 32.4147 155.887 31.2311 154.814 31.4335C154.584 31.4809 154.368 31.5827 154.186 31.7304C154.003 31.878 153.859 32.0673 153.765 32.2823C153.67 32.4973 153.629 32.7318 153.644 32.9661C153.658 33.2004 153.729 33.4278 153.85 33.6291Z" fill="#CF6F64"/>
<path d="M155.597 25.8719C153.952 26.6243 153.371 33.1627 155.439 34.1307C157.507 35.0987 158.712 24.4419 155.597 25.8719Z" fill="#263238"/>
<path d="M164.147 30.0123C163.751 33.2947 163.707 35.2263 161.947 36.9071C161.401 37.4649 160.712 37.8611 159.956 38.052C159.2 38.2429 158.405 38.221 157.66 37.9889C156.916 37.7567 156.25 37.3232 155.736 36.7364C155.222 36.1495 154.88 35.432 154.748 34.6631C154.216 31.7151 154.951 26.8443 158.242 25.5375C158.933 25.2325 159.694 25.118 160.444 25.2059C161.195 25.2937 161.909 25.5808 162.511 26.0373C163.113 26.4938 163.583 27.1031 163.87 27.802C164.158 28.5009 164.253 29.2641 164.147 30.0123Z" fill="#E58A7B"/>
<path d="M158.739 27.5704C161.176 26.95 162.967 26.5276 162.325 28.556C161.476 31.2664 160.455 33.8888 161.823 34.0076C162.659 34.0824 166.355 32.516 165.884 30.9276C165.475 29.546 167.204 29.1676 167.512 28.468C168.652 25.9336 165.392 26.268 165.972 24.728C166.553 23.188 163.332 20.7064 161.572 21.9428C158.708 23.9404 153.793 23.9096 156.376 20.6228C158.228 18.2776 154.924 18.7572 154.924 18.7572C154.924 18.7572 156.922 19.9408 153.56 21.7712C150.005 23.7248 153.265 28.974 158.739 27.5704Z" fill="#263238"/>
<path d="M165.44 33.6291C164.959 34.3254 164.236 34.8179 163.412 35.0107C162.325 35.2439 161.907 34.2715 162.316 33.2947C162.681 32.4147 163.684 31.2311 164.723 31.4335C165.761 31.6359 165.999 32.7667 165.44 33.6291Z" fill="#E58A7B"/>
<path d="M149.336 71.6936C149.336 71.6936 146.362 98.3136 146.129 108.416C145.891 118.923 156.209 151.708 156.209 151.708L161.489 149.508C161.489 149.508 155.329 119.552 156.209 109.234C157.142 97.9836 160.996 71.7112 160.996 71.7112L149.336 71.6936Z" fill="#028090"/>
<path opacity="0.2" d="M156.728 79.0019C154.357 83.9211 155.954 93.6495 157.239 99.4135C157.727 95.3435 158.308 90.9259 158.858 86.8383C158.805 80.5551 158.317 75.7019 156.728 79.0019Z" fill="black"/>
<path d="M161.256 147.765C161.282 147.765 161.88 149.446 161.88 149.446L155.791 152.007L154.832 150.22L161.256 147.765Z" fill="#028090"/>
<path d="M155.624 71.6936C155.624 71.6936 157.898 97.0112 159.403 106.493C161.058 116.882 167.543 151.479 167.543 151.479H173.611C173.611 151.479 169.976 117.722 169.29 107.435C168.542 96.2764 167.055 71.6936 167.055 71.6936H155.624Z" fill="#028090"/>
<path d="M173.703 149.899C173.729 149.899 173.905 151.593 173.905 151.593H167.235L166.76 149.648L173.703 149.899Z" fill="#028090"/>
<path opacity="0.2" d="M171.38 147.893C171.366 147.893 171.353 147.888 171.343 147.879C171.332 147.87 171.325 147.858 171.323 147.844C171.288 147.536 168.01 117.044 167.394 107.804C166.725 97.7812 165.379 75.548 165.365 75.3236C165.365 75.3163 165.366 75.3089 165.368 75.302C165.37 75.2951 165.374 75.2887 165.379 75.2833C165.384 75.278 165.39 75.2737 165.397 75.2708C165.404 75.2678 165.411 75.2663 165.418 75.2664C165.433 75.2663 165.447 75.2717 165.457 75.2815C165.468 75.2913 165.474 75.3048 165.475 75.3192C165.475 75.5436 166.835 97.7592 167.504 107.8C168.12 117.04 171.398 147.51 171.429 147.84C171.43 147.847 171.43 147.855 171.428 147.862C171.426 147.869 171.423 147.876 171.418 147.882C171.414 147.887 171.408 147.892 171.401 147.896C171.395 147.899 171.388 147.901 171.38 147.902V147.893Z" fill="black"/>
<path d="M159.113 30.9275C159.113 31.1959 158.946 31.4115 158.77 31.4115C158.594 31.4115 158.466 31.1959 158.484 30.9275C158.501 30.6591 158.651 30.4435 158.827 30.4435C159.003 30.4435 159.13 30.6635 159.113 30.9275Z" fill="#263238"/>
<path d="M156.094 30.9275C156.094 31.1959 155.923 31.4115 155.751 31.4115C155.58 31.4115 155.448 31.1959 155.461 30.9275C155.474 30.6591 155.632 30.4435 155.808 30.4435C155.984 30.4435 156.112 30.6635 156.094 30.9275Z" fill="#263238"/>
<path d="M157.045 31.064C156.677 31.8836 156.204 32.6513 155.637 33.3476C156.077 33.7876 156.9 33.5852 156.9 33.5852L157.045 31.064Z" fill="#DF5753"/>
<path d="M157.124 34.7072C157.114 34.7072 157.104 34.7051 157.095 34.7011C157.085 34.6971 157.077 34.6911 157.07 34.6837C157.063 34.6763 157.057 34.6675 157.054 34.6579C157.05 34.6484 157.049 34.6382 157.049 34.628C157.051 34.6066 157.06 34.5864 157.075 34.5717C157.091 34.5569 157.112 34.5487 157.133 34.5488C157.47 34.5511 157.802 34.478 158.107 34.3349C158.411 34.1917 158.68 33.9821 158.893 33.7216C158.908 33.7083 158.928 33.7009 158.948 33.7009C158.968 33.7009 158.988 33.7083 159.003 33.7216C159.017 33.7363 159.025 33.756 159.025 33.7766C159.025 33.7971 159.017 33.8168 159.003 33.8316C158.775 34.1085 158.488 34.3309 158.163 34.4824C157.838 34.6339 157.483 34.7107 157.124 34.7072Z" fill="#263238"/>
<path d="M159.65 30.118C159.629 30.1288 159.605 30.1344 159.581 30.1344C159.558 30.1344 159.534 30.1288 159.513 30.118C159.349 30.0115 159.161 29.9454 158.966 29.9247C158.771 29.9041 158.574 29.9296 158.391 29.9992C158.373 30.0081 158.354 30.0133 158.334 30.0146C158.314 30.0159 158.294 30.0132 158.275 30.0066C158.256 30.0001 158.239 29.9898 158.224 29.9764C158.209 29.9631 158.197 29.9468 158.189 29.9288C158.172 29.8896 158.172 29.8456 158.188 29.8062C158.203 29.7667 158.234 29.7349 158.272 29.7176C158.502 29.6236 158.752 29.5865 158.999 29.6095C159.247 29.6325 159.485 29.7148 159.694 29.8496C159.71 29.861 159.725 29.8757 159.736 29.8928C159.747 29.9099 159.755 29.929 159.758 29.9491C159.762 29.9691 159.762 29.9897 159.757 30.0097C159.753 30.0296 159.745 30.0484 159.733 30.0652C159.711 30.0904 159.682 30.1087 159.65 30.118Z" fill="#263238"/>
<path d="M154.929 29.238C154.905 29.2323 154.884 29.2201 154.867 29.2028C154.852 29.1884 154.841 29.1713 154.833 29.1524C154.825 29.1335 154.821 29.1132 154.821 29.0928C154.821 29.0723 154.825 29.052 154.833 29.0331C154.841 29.0142 154.852 28.9971 154.867 28.9828C155.036 28.7936 155.246 28.646 155.481 28.5513C155.716 28.4567 155.97 28.4176 156.222 28.4372C156.242 28.4403 156.262 28.4475 156.279 28.4584C156.296 28.4694 156.311 28.4837 156.323 28.5006C156.334 28.5175 156.342 28.5366 156.346 28.5568C156.35 28.5769 156.35 28.5976 156.345 28.6176C156.336 28.6583 156.312 28.6942 156.278 28.7185C156.244 28.7428 156.202 28.7538 156.161 28.7495C155.961 28.737 155.761 28.77 155.575 28.8463C155.39 28.9225 155.225 29.0399 155.091 29.1895C155.071 29.2118 155.046 29.2281 155.017 29.2367C154.988 29.2452 154.958 29.2456 154.929 29.238Z" fill="#263238"/>
<path d="M171.481 47.2208L166.905 46.002C166.905 46.002 162.417 57.0503 160.829 57.7675C158.673 58.7531 153.212 62.1676 150.889 63.7824C150.762 64.3324 150.863 65.7887 151.153 66.1891C155.113 65.4675 162.694 62.5503 164.278 61.0675C167.891 57.6839 171.481 47.2208 171.481 47.2208Z" fill="#E58A7B"/>
<path d="M168.287 156.156C168.064 156.174 167.841 156.113 167.658 155.984C167.601 155.933 167.559 155.868 167.535 155.796C167.511 155.723 167.506 155.646 167.521 155.571C167.524 155.524 167.54 155.479 167.566 155.44C167.592 155.401 167.629 155.371 167.671 155.351C168.041 155.162 169.075 155.817 169.193 155.892C169.206 155.9 169.217 155.912 169.222 155.926C169.228 155.941 169.228 155.956 169.224 155.971C169.22 155.987 169.213 156.001 169.202 156.012C169.191 156.024 169.178 156.032 169.163 156.037C168.876 156.108 168.582 156.147 168.287 156.156ZM167.847 155.47C167.814 155.462 167.779 155.462 167.746 155.47C167.729 155.478 167.715 155.491 167.706 155.508C167.696 155.524 167.692 155.543 167.693 155.562C167.681 155.613 167.683 155.667 167.699 155.717C167.714 155.767 167.743 155.812 167.781 155.848C167.953 156.002 168.384 156.02 168.951 155.91C168.613 155.687 168.233 155.537 167.834 155.47H167.847Z" fill="#028090"/>
<path d="M169.141 156.037C169.129 156.041 169.117 156.041 169.106 156.037C168.776 155.852 168.155 155.126 168.248 154.757C168.261 154.698 168.294 154.646 168.342 154.608C168.389 154.571 168.447 154.55 168.507 154.55C168.566 154.542 168.626 154.547 168.683 154.564C168.74 154.582 168.793 154.611 168.837 154.651C169.202 154.964 169.224 155.923 169.224 155.971C169.226 155.986 169.224 156 169.217 156.013C169.209 156.026 169.198 156.036 169.185 156.042C169.17 156.045 169.155 156.043 169.141 156.037ZM168.551 154.695H168.52C168.419 154.695 168.406 154.752 168.402 154.774C168.349 154.99 168.74 155.54 169.066 155.8C169.064 155.428 168.949 155.065 168.736 154.761C168.685 154.717 168.619 154.693 168.551 154.695Z" fill="#028090"/>
<path d="M156.605 155.606C156.336 155.7 156.043 155.7 155.773 155.606C155.712 155.573 155.66 155.525 155.623 155.466C155.585 155.408 155.563 155.341 155.558 155.272C155.552 155.228 155.558 155.184 155.574 155.143C155.59 155.102 155.616 155.066 155.65 155.038C156.002 154.722 157.441 155.038 157.604 155.1C157.619 155.104 157.633 155.113 157.643 155.126C157.652 155.139 157.657 155.154 157.657 155.17C157.657 155.187 157.653 155.203 157.644 155.217C157.636 155.231 157.623 155.243 157.608 155.25C157.284 155.396 156.949 155.515 156.605 155.606ZM155.888 155.082C155.837 155.093 155.791 155.115 155.751 155.148C155.737 155.159 155.727 155.173 155.72 155.19C155.714 155.206 155.713 155.224 155.716 155.241C155.719 155.287 155.733 155.332 155.758 155.371C155.783 155.41 155.817 155.443 155.857 155.465C156.09 155.588 156.631 155.492 157.331 155.197C156.86 155.078 156.372 155.039 155.888 155.082Z" fill="#028090"/>
<path d="M157.595 155.25H157.56C157.12 155.17 156.24 154.664 156.213 154.286C156.213 154.198 156.253 154.075 156.464 154.004C156.536 153.979 156.611 153.968 156.687 153.973C156.762 153.977 156.836 153.997 156.904 154.031C157.379 154.264 157.63 155.109 157.643 155.148C157.646 155.162 157.646 155.176 157.642 155.189C157.638 155.202 157.631 155.214 157.621 155.223C157.615 155.234 157.606 155.243 157.595 155.25ZM156.552 154.136H156.508C156.372 154.185 156.372 154.242 156.372 154.26C156.372 154.488 157.01 154.906 157.454 155.047C157.352 154.694 157.135 154.384 156.838 154.167C156.75 154.122 156.648 154.111 156.552 154.136Z" fill="#028090"/>
<path d="M151.263 63.5227L146.674 65.6347L146.142 66.9547L147.836 68.0943C147.836 68.0943 151.004 67.7511 151.906 65.7139L151.263 63.5227Z" fill="#E58A7B"/>
<path d="M151.457 66.264C151.354 65.3823 151.063 64.5329 150.603 63.7736L151.329 63.228C151.875 64.1029 152.224 65.0865 152.35 66.11L151.457 66.264Z" fill="#263238"/>
<path d="M152.24 64.1475C152.337 64.3001 152.385 64.4789 152.377 64.6595C152.369 64.8402 152.305 65.0139 152.195 65.1571C152.084 65.3003 151.932 65.406 151.76 65.4598C151.587 65.5136 151.402 65.513 151.23 65.4579C151.057 65.4029 150.906 65.2961 150.797 65.1521C150.688 65.0081 150.625 64.8339 150.618 64.6532C150.611 64.4725 150.66 64.2941 150.758 64.1422C150.857 63.9903 150.999 63.8723 151.167 63.8043C151.355 63.7085 151.573 63.6908 151.774 63.7551C151.975 63.8193 152.143 63.9604 152.24 64.1475Z" fill="#263238"/>
<path d="M143.572 67.342L144.184 67.958L148.302 66.198L146.674 65.6348L143.572 67.342Z" fill="#E58A7B"/>
<path opacity="0.2" d="M161.256 147.765C161.282 147.765 161.88 149.446 161.88 149.446L155.791 152.007L154.832 150.22L161.256 147.765Z" fill="black"/>
<path opacity="0.2" d="M173.703 149.899C173.729 149.899 173.905 151.593 173.905 151.593H167.235L166.76 149.648L173.703 149.899Z" fill="black"/>
<path d="M172.674 45.9535C173.884 49.8563 169.154 55.1935 169.154 55.1935L162.62 52.5271C163.394 50.2713 164.287 48.058 165.295 45.8963C167.301 41.5711 171.45 42.0155 172.674 45.9535Z" fill="#028090"/>
<path opacity="0.2" d="M172.674 45.9535C173.884 49.8563 169.154 55.1935 169.154 55.1935L162.62 52.5271C163.394 50.2713 164.287 48.058 165.295 45.8963C167.301 41.5711 171.45 42.0155 172.674 45.9535Z" fill="black"/>
<path d="M107.747 6.85071H104.936V7.30391H107.747V6.85071Z" fill="#028090"/>
<path d="M144.143 24.7879L143.803 32.3395L144.255 32.3599L144.596 24.8083L144.143 24.7879Z" fill="#028090"/>
<path d="M143.268 8.88354H91.3483L86.5171 117H138.437L143.268 8.88354Z" fill="#028090"/>
<path opacity="0.56" d="M141.719 10.3707H89.7995L84.9683 118.488H136.888L141.719 10.3707Z" fill="#FAFAFA"/>
<path opacity="0.07" d="M140.171 11.8535H88.2506L83.415 119.97H135.335L140.171 11.8535Z" fill="#028090"/>
<path d="M134.262 59.0083H89.9448L89.5752 67.2803H133.892L134.262 59.0083Z" fill="white"/>
<path d="M114.316 52.9716H90.2131L90.0503 56.672H114.153L114.316 52.9716Z" fill="#028090"/>
<path d="M133.263 81.334H88.9463L88.5767 89.606H132.893L133.263 81.334Z" fill="white"/>
<path opacity="0.47" d="M125.136 100.778H95.335L94.8906 110.691H124.692L125.136 100.778Z" fill="#028090"/>
<path d="M123.143 112.231H93.3417C93.3287 112.234 93.3151 112.234 93.3021 112.231C93.2977 112.218 93.2977 112.204 93.3021 112.191L93.7421 102.274C93.7421 102.267 93.7434 102.26 93.7462 102.254C93.7489 102.248 93.7528 102.242 93.7578 102.238C93.7628 102.233 93.7686 102.23 93.775 102.228C93.7814 102.225 93.7882 102.225 93.7949 102.225H123.596C123.602 102.222 123.608 102.221 123.614 102.221C123.62 102.221 123.626 102.222 123.631 102.225C123.634 102.231 123.636 102.237 123.636 102.243C123.636 102.249 123.634 102.255 123.631 102.26L123.2 112.2C123.195 112.21 123.187 112.219 123.176 112.224C123.166 112.23 123.154 112.232 123.143 112.231ZM93.3945 112.125H123.09L123.53 102.313H93.8345L93.3945 112.125Z" fill="white"/>
<path d="M109.111 75.2971H89.2146L89.0518 79.0019H108.944L109.111 75.2971Z" fill="#028090"/>
<path d="M124.568 32.2872C124.455 34.6946 123.599 37.0078 122.118 38.9092C121.021 40.3454 119.611 41.5114 117.994 42.3176C116.377 43.1238 114.596 43.5488 112.79 43.56C111.33 43.5711 109.883 43.2832 108.538 42.714C107.194 42.1448 105.98 41.3063 104.972 40.2502C103.963 39.1941 103.182 37.9428 102.676 36.5733C102.169 35.2038 101.949 33.7452 102.027 32.2872C102.182 29.2617 103.487 26.4097 105.675 24.3143C107.862 22.2189 110.768 21.0385 113.797 21.0144C115.258 21.0008 116.707 21.2869 118.053 21.8551C119.399 22.4234 120.615 23.2616 121.624 24.3181C122.634 25.3746 123.416 26.6269 123.922 27.9975C124.429 29.3682 124.649 30.8281 124.568 32.2872Z" fill="white"/>
<path d="M125.629 23.3727C125.6 24.0129 125.372 24.6281 124.978 25.1327C124.685 25.5142 124.31 25.8239 123.88 26.0382C123.45 26.2524 122.976 26.3656 122.496 26.3691C122.03 26.372 121.571 26.2608 121.159 26.0452C120.746 25.8297 120.392 25.5164 120.129 25.1327C119.78 24.6143 119.607 23.9971 119.636 23.3727C119.679 22.5695 120.026 21.8127 120.607 21.2567C121.189 20.7007 121.96 20.3875 122.764 20.3807C123.152 20.3772 123.537 20.4531 123.895 20.6039C124.252 20.7547 124.575 20.9771 124.844 21.2574C125.112 21.5377 125.32 21.87 125.455 22.2338C125.59 22.5976 125.649 22.9852 125.629 23.3727Z" fill="#028090"/>
<path d="M94.7189 63.1444C94.6978 63.4989 94.543 63.8323 94.2858 64.0773C94.0286 64.3222 93.6881 64.4606 93.3329 64.4644C93.1614 64.4664 92.9913 64.4333 92.8332 64.367C92.675 64.3007 92.5321 64.2026 92.4133 64.0789C92.2946 63.9552 92.2024 63.8084 92.1426 63.6477C92.0829 63.4869 92.0567 63.3156 92.0657 63.1444C92.0848 62.7891 92.2389 62.4545 92.4966 62.2091C92.7542 61.9638 93.0959 61.8261 93.4517 61.8244C93.623 61.823 93.7928 61.8566 93.9507 61.9231C94.1085 61.9896 94.2512 62.0877 94.3698 62.2113C94.4885 62.3348 94.5806 62.4814 94.6406 62.6418C94.7007 62.8023 94.7273 62.9733 94.7189 63.1444Z" fill="#263238"/>
<path d="M100.65 63.1444C100.63 63.4994 100.475 63.8333 100.218 64.0785C99.9606 64.3237 99.6195 64.4616 99.2641 64.4644C99.0929 64.4659 98.9233 64.4323 98.7657 64.3657C98.608 64.2991 98.4657 64.201 98.3474 64.0773C98.2291 63.9537 98.1374 63.8071 98.0778 63.6467C98.0183 63.4862 97.9922 63.3153 98.0013 63.1444C98.0203 62.7899 98.1738 62.456 98.4305 62.2107C98.6872 61.9654 99.0278 61.8273 99.3829 61.8244C99.5543 61.8224 99.7244 61.8555 99.8826 61.9218C100.041 61.9882 100.184 62.0862 100.302 62.2099C100.421 62.3336 100.513 62.4804 100.573 62.6411C100.633 62.8019 100.659 62.9732 100.65 63.1444Z" fill="#263238"/>
<path d="M106.586 63.1444C106.566 63.4994 106.411 63.8333 106.154 64.0785C105.896 64.3237 105.555 64.4616 105.2 64.4644C105.029 64.4658 104.859 64.4322 104.701 64.3657C104.543 64.2992 104.4 64.2011 104.282 64.0776C104.163 63.954 104.071 63.8075 104.011 63.647C103.951 63.4866 103.924 63.3155 103.933 63.1444C103.953 62.7895 104.107 62.4555 104.365 62.2104C104.622 61.9652 104.963 61.8272 105.319 61.8244C105.49 61.8224 105.66 61.8555 105.818 61.9218C105.977 61.9882 106.119 62.0862 106.238 62.2099C106.357 62.3336 106.449 62.4804 106.509 62.6411C106.569 62.8019 106.595 62.9732 106.586 63.1444Z" fill="#263238"/>
<path d="M93.7201 85.4699C93.699 85.8245 93.5442 86.1579 93.287 86.4028C93.0298 86.6478 92.6893 86.7861 92.3341 86.7899C92.1628 86.7913 91.993 86.7578 91.8352 86.6912C91.6773 86.6247 91.5347 86.5267 91.416 86.4031C91.2974 86.2795 91.2052 86.133 91.1452 85.9725C91.0852 85.8121 91.0585 85.6411 91.0669 85.4699C91.0871 85.115 91.2415 84.7811 91.4989 84.5359C91.7564 84.2907 92.0975 84.1527 92.4529 84.1499C92.6242 84.1485 92.794 84.1821 92.9519 84.2487C93.1098 84.3152 93.2524 84.4132 93.371 84.5368C93.4897 84.6604 93.5818 84.8069 93.6419 84.9674C93.7019 85.1278 93.7285 85.2988 93.7201 85.4699Z" fill="#263238"/>
<path d="M99.651 85.4699C99.631 85.8241 99.4771 86.1575 99.2206 86.4025C98.9641 86.6476 98.6241 86.7861 98.2694 86.7899C98.0979 86.792 97.9279 86.7588 97.7697 86.6925C97.6115 86.6262 97.4686 86.5282 97.3499 86.4045C97.2311 86.2808 97.139 86.134 97.0792 85.9732C97.0194 85.8125 96.9932 85.6412 97.0022 85.4699C97.0223 85.115 97.1768 84.7811 97.4342 84.5359C97.6916 84.2907 98.0327 84.1527 98.3882 84.1499C98.5593 84.1485 98.729 84.1821 98.8866 84.2487C99.0442 84.3153 99.1866 84.4134 99.3049 84.537C99.4232 84.6607 99.5149 84.8073 99.5745 84.9677C99.634 85.1281 99.66 85.2991 99.651 85.4699Z" fill="#263238"/>
<path d="M105.6 85.47C105.58 85.8249 105.426 86.1589 105.168 86.4041C104.911 86.6492 104.57 86.7872 104.214 86.79C104.043 86.7908 103.874 86.7567 103.716 86.69C103.559 86.6233 103.416 86.5252 103.298 86.4017C103.179 86.2783 103.087 86.132 103.027 85.9719C102.966 85.8117 102.939 85.6409 102.947 85.47C102.968 85.1154 103.123 84.7821 103.38 84.5371C103.637 84.2922 103.978 84.1538 104.333 84.15C104.505 84.1479 104.675 84.1811 104.833 84.2474C104.991 84.3137 105.134 84.4117 105.253 84.5355C105.371 84.6592 105.464 84.806 105.523 84.9667C105.583 85.1274 105.609 85.2987 105.6 85.47Z" fill="#263238"/>
<path d="M111.523 85.4699C111.502 85.8245 111.347 86.1579 111.09 86.4028C110.832 86.6478 110.492 86.7861 110.137 86.7899C109.966 86.7907 109.796 86.7567 109.638 86.69C109.481 86.6232 109.339 86.5251 109.22 86.4017C109.101 86.2782 109.009 86.132 108.949 85.9718C108.889 85.8116 108.862 85.6409 108.869 85.4699C108.891 85.1154 109.045 84.782 109.303 84.5371C109.56 84.2921 109.9 84.1538 110.255 84.1499C110.427 84.1485 110.597 84.1821 110.754 84.2487C110.912 84.3152 111.055 84.4132 111.174 84.5368C111.292 84.6604 111.384 84.8069 111.444 84.9674C111.504 85.1278 111.531 85.2988 111.523 85.4699Z" fill="#263238"/>
<path d="M117.48 85.4699C117.459 85.8245 117.304 86.1579 117.047 86.4028C116.79 86.6478 116.449 86.7861 116.094 86.7899C115.923 86.792 115.753 86.7588 115.594 86.6925C115.436 86.6262 115.293 86.5282 115.175 86.4045C115.056 86.2807 114.964 86.134 114.904 85.9732C114.844 85.8125 114.818 85.6412 114.827 85.4699C114.847 85.115 115.002 84.7811 115.259 84.5359C115.516 84.2907 115.857 84.1527 116.213 84.1499C116.384 84.1485 116.554 84.1821 116.712 84.2487C116.87 84.3152 117.012 84.4132 117.131 84.5368C117.25 84.6604 117.342 84.8069 117.402 84.9674C117.462 85.1278 117.489 85.2988 117.48 85.4699Z" fill="#263238"/>
<path d="M116.579 31.7001C118.421 29.8991 118.519 27.0124 116.798 25.2524C115.077 23.4925 112.188 23.5257 110.347 25.3266C108.505 27.1276 108.407 30.0143 110.129 31.7742C111.85 33.5342 114.738 33.501 116.579 31.7001Z" fill="#028090"/>
<path d="M122.117 38.9092C121.021 40.3454 119.61 41.5113 117.993 42.3175C116.376 43.1237 114.596 43.5488 112.789 43.56C111.037 43.5748 109.309 43.1584 107.755 42.3473C106.202 41.5362 104.873 40.3555 103.884 38.9092C106.022 36.7796 109.406 35.3892 113.155 35.3892C116.903 35.3892 120.168 36.7796 122.117 38.9092Z" fill="#028090"/>
<path opacity="0.1" d="M116.579 31.7001C118.421 29.8991 118.519 27.0124 116.798 25.2524C115.077 23.4925 112.188 23.5257 110.347 25.3266C108.505 27.1276 108.407 30.0143 110.129 31.7742C111.85 33.5342 114.738 33.501 116.579 31.7001Z" fill="white"/>
<path opacity="0.1" d="M122.117 38.9092C121.021 40.3454 119.61 41.5113 117.993 42.3175C116.376 43.1237 114.596 43.5488 112.789 43.56C111.037 43.5748 109.309 43.1584 107.755 42.3473C106.202 41.5362 104.873 40.3555 103.884 38.9092C106.022 36.7796 109.406 35.3892 113.155 35.3892C116.903 35.3892 120.168 36.7796 122.117 38.9092Z" fill="white"/>
<path d="M57.3805 69.2734C56.9625 70.1886 56.5225 71.1962 56.1397 72.173C55.7569 73.1498 55.3653 74.1574 55.0265 75.1606C54.3347 77.1377 53.8079 79.1686 53.4513 81.2326L53.3545 81.8794C53.3453 81.9904 53.3557 82.1021 53.3853 82.2094C53.4891 82.5741 53.6527 82.9191 53.8693 83.2302C54.4343 84.0358 55.0898 84.7739 55.8229 85.4302C56.5958 86.1492 57.4065 86.8263 58.2517 87.4586C59.0965 88.1098 59.9853 88.7434 60.8609 89.3418L60.0381 90.8862C57.9473 89.9753 55.9628 88.8377 54.1201 87.4938C53.137 86.7769 52.2498 85.937 51.4801 84.9946C51.0238 84.4337 50.6681 83.7981 50.4285 83.1158C50.2892 82.6897 50.2179 82.2442 50.2173 81.7958C50.2173 81.6902 50.2173 81.5362 50.2173 81.4614V81.2458L50.2613 80.8058C50.5135 78.5135 50.9956 76.2522 51.7001 74.0562C52.0433 72.9738 52.4085 71.8958 52.8265 70.8442C53.2445 69.7926 53.6757 68.763 54.2081 67.6938L57.3805 69.2734Z" fill="#E58A7B"/>
<path d="M60.2403 89.0691L63.3511 87.4939L62.5459 90.9083C62.5459 90.9083 60.4119 91.5067 59.4219 90.4683L60.2403 89.0691Z" fill="#E58A7B"/>
<path d="M66.1979 88.0527L65.3707 90.8775L62.5459 90.9083L63.3511 87.4939L66.1979 88.0527Z" fill="#E58A7B"/>
<path d="M70.5894 52.7999C70.7558 53.4097 70.9874 53.9998 71.2802 54.5599C71.1946 54.6569 71.0844 54.729 70.9613 54.7685C70.8381 54.808 70.7066 54.8135 70.5806 54.7843L70.5894 52.7999Z" fill="#DF5753"/>
<path d="M70.497 52.8263C70.6792 52.8263 70.827 52.5998 70.827 52.3203C70.827 52.0409 70.6792 51.8143 70.497 51.8143C70.3147 51.8143 70.167 52.0409 70.167 52.3203C70.167 52.5998 70.3147 52.8263 70.497 52.8263Z" fill="#263238"/>
<path d="M70.3999 51.8319L71.0687 51.6427C71.0687 51.6427 70.7431 52.1619 70.3999 51.8319Z" fill="#263238"/>
<path d="M61.9959 56.0295C62.3963 58.0755 62.7967 61.8287 61.3623 63.1971C61.3623 63.1971 61.9255 65.2739 65.7315 65.2739C69.9159 65.2739 67.7291 63.1971 67.7291 63.1971C65.4455 62.6515 65.5027 60.9575 65.9031 59.3647L61.9959 56.0295Z" fill="#E58A7B"/>
<path d="M60.8831 51.3656C61.0943 54.7844 61.1119 56.2364 62.8367 57.992C65.4371 60.632 69.5907 59.6288 70.4047 56.232C71.1395 53.152 70.6731 48.0832 67.3247 46.7236C66.5898 46.4208 65.7897 46.3105 65.0002 46.4032C64.2107 46.4959 63.4579 46.7884 62.813 47.2531C62.1681 47.7179 61.6524 48.3394 61.3147 49.0591C60.977 49.7787 60.8285 50.5726 60.8831 51.3656Z" fill="#E58A7B"/>
<path d="M61.2218 47.5199C59.5058 48.1447 57.2178 47.6783 58.1154 52.9715C59.0658 58.5771 57.605 60.4208 57.605 60.4208C57.605 60.4208 64.1126 61.8067 70.7566 60.3371C70.7566 60.3371 68.7282 56.7907 69.2958 54.1771C70.0218 50.8771 69.4498 49.6583 69.4498 49.6583C69.4498 49.6583 63.633 46.6399 61.2218 47.5199Z" fill="#263238"/>
<path d="M68.4814 53.1475C68.4832 53.7976 68.6694 54.4338 69.0182 54.9823C69.4846 55.6951 70.0346 55.4223 70.171 54.6655C70.2942 54.0011 70.2018 52.8263 69.6078 52.3687C69.0138 51.9111 68.4902 52.3599 68.4814 53.1475Z" fill="#E58A7B"/>
<path d="M59.7302 48.0964C59.2374 46.7104 61.587 44.5764 66.559 45.4564C71.531 46.3364 71.7466 50.4768 71.7466 50.4768L70.7434 49.28L70.7874 50.5384L65.679 51.5196L59.7302 48.0964Z" fill="#263238"/>
<path d="M60.1522 63.4303C60.1229 63.2294 60.1731 63.025 60.2923 62.8606C60.4115 62.6962 60.5902 62.5849 60.7902 62.5503C62.339 62.2951 65.859 61.7759 67.6278 62.0223C68.9478 62.2071 69.291 62.9727 69.3482 63.6019C69.3572 63.7121 69.3424 63.8229 69.305 63.9269C69.2676 64.0309 69.2083 64.1257 69.1312 64.2049C69.0541 64.2841 68.9609 64.3459 68.8579 64.386C68.755 64.4262 68.6446 64.4439 68.5342 64.4379L60.887 64.0947C60.7067 64.0856 60.5351 64.0145 60.4012 63.8934C60.2673 63.7724 60.1794 63.6088 60.1522 63.4303Z" fill="#028090"/>
<path opacity="0.6" d="M60.1522 63.4303C60.1229 63.2294 60.1731 63.025 60.2923 62.8606C60.4115 62.6962 60.5902 62.5849 60.7902 62.5503C62.339 62.2951 65.859 61.7759 67.6278 62.0223C68.9478 62.2071 69.291 62.9727 69.3482 63.6019C69.3572 63.7121 69.3424 63.8229 69.305 63.9269C69.2676 64.0309 69.2083 64.1257 69.1312 64.2049C69.0541 64.2841 68.9609 64.3459 68.8579 64.386C68.755 64.4262 68.6446 64.4439 68.5342 64.4379L60.887 64.0947C60.7067 64.0856 60.5351 64.0145 60.4012 63.8934C60.2673 63.7724 60.1794 63.6088 60.1522 63.4303Z" fill="black"/>
<path d="M64.5747 140.298L67.4127 142.27L72.1603 135.832L69.3223 133.866L64.5747 140.298Z" fill="#E58A7B"/>
<path d="M57.957 140.171L60.9534 141.878L65.1554 135.071L62.159 133.364L57.957 140.171Z" fill="#E58A7B"/>
<path d="M72.1555 135.832L69.7091 139.15L66.8711 137.183L69.3175 133.866L72.1555 135.832Z" fill="#CF6F64"/>
<path d="M62.1545 133.364L65.1553 135.076L62.9905 138.582L59.9897 136.871L62.1545 133.364Z" fill="#CF6F64"/>
<path d="M66.9681 84.9199C66.9681 84.9199 78.0473 98.8811 75.9661 112.235C74.2897 123.02 64.5657 137.623 64.5657 137.623L59.9941 135.353C63.2164 128.896 65.9663 122.214 68.2221 115.359C68.9177 113.231 69.1207 110.973 68.8158 108.755C68.511 106.536 67.7061 104.417 66.4621 102.555C60.8477 94.3579 51.8541 99.2375 57.9041 84.9199H66.9681Z" fill="#028090"/>
<path opacity="0.6" d="M66.9681 84.9199C66.9681 84.9199 78.0473 98.8811 75.9661 112.235C74.2897 123.02 64.5657 137.623 64.5657 137.623L59.9941 135.353C63.2164 128.896 65.9663 122.214 68.2221 115.359C68.9177 113.231 69.1207 110.973 68.8158 108.755C68.511 106.536 67.7061 104.417 66.4621 102.555C60.8477 94.3579 51.8541 99.2375 57.9041 84.9199H66.9681Z" fill="black"/>
<path opacity="0.4" d="M72.4019 93.8871L70.7915 92.2855C70.7915 92.4131 73.9111 111.672 74.7867 117.084C75.3034 115.503 75.6991 113.885 75.9703 112.244C76.9999 105.692 74.8483 98.9999 72.4019 93.8871Z" fill="black"/>
<path d="M71.9136 84.9199C71.9136 84.9199 85.2544 102.467 85.6328 112.988C85.9452 121.788 71.1128 138.838 71.1128 138.838L66.8008 136.048C66.8008 136.048 75.482 123.939 77.6688 114.048C76.824 104.245 58.96 84.9199 58.96 84.9199H71.9136Z" fill="#028090"/>
<path opacity="0.6" d="M71.9136 84.9199C71.9136 84.9199 85.2544 102.467 85.6328 112.988C85.9452 121.788 71.1128 138.838 71.1128 138.838L66.8008 136.048C66.8008 136.048 75.482 123.939 77.6688 114.048C76.824 104.245 58.96 84.9199 58.96 84.9199H71.9136Z" fill="black"/>
<path d="M55.4092 63.9803C53.9836 64.3191 52.6152 69.5023 52.6152 69.5023L58.19 73.2247C58.19 73.2247 60.0468 69.1239 59.3956 67.3287C58.7224 65.4587 57.2 63.5535 55.4092 63.9803Z" fill="#028090"/>
<path opacity="0.2" d="M56.5005 67.3199L56.1133 71.8387L58.1857 73.2291C58.7579 71.9409 59.1816 70.5917 59.4485 69.2075L56.5005 67.3199Z" fill="black"/>
<path d="M73.5636 64.0815C73.5636 64.0815 75.2092 64.6579 71.9136 84.9155H57.8952C58.1328 79.1955 58.1372 75.6755 55.4092 63.9803C57.3721 63.5758 59.3617 63.314 61.3624 63.1971C63.4819 63.0451 65.6096 63.0451 67.7292 63.1971C70.466 63.4479 73.5636 64.0815 73.5636 64.0815Z" fill="#028090"/>
<path d="M74.9895 67.32C75.3063 68.2 75.6407 69.146 75.9927 70.0568C76.3447 70.9676 76.6791 71.9048 77.0355 72.8288L78.1135 75.592L78.3863 76.2828L78.5271 76.626L78.5931 76.7976C78.5931 76.8284 78.5931 76.8284 78.5931 76.824C78.5127 76.7107 78.4073 76.6173 78.2851 76.5512C78.111 76.4488 77.9148 76.3899 77.7131 76.3796C77.5455 76.3744 77.3788 76.4059 77.2247 76.472C77.0223 76.5644 77.0223 76.604 77.0267 76.5996C77.0633 76.5703 77.0958 76.5363 77.1235 76.4984C77.3671 76.1786 77.5779 75.8352 77.7527 75.4732C77.9595 75.0684 78.1575 74.6372 78.3555 74.2016C78.7427 73.3216 79.0991 72.4108 79.4555 71.4912C79.8119 70.5716 80.1507 69.6432 80.4807 68.706L81.4839 65.8988L83.1779 66.3388C82.8435 68.3452 82.4123 70.2988 81.8931 72.2876C81.6423 73.2776 81.3475 74.2588 81.0131 75.2488C80.8459 75.746 80.6611 76.2388 80.4499 76.7448C80.2298 77.294 79.9587 77.8213 79.6403 78.32C79.5233 78.4878 79.3938 78.6467 79.2531 78.7952C79.0284 79.0379 78.7557 79.2312 78.4523 79.3628C78.1831 79.4784 77.8915 79.5325 77.5987 79.5212C77.2707 79.509 76.9513 79.4136 76.6703 79.244C76.3388 79.0371 76.0637 78.7514 75.8695 78.4124C75.8035 78.298 75.7463 78.1836 75.7067 78.1L75.6231 77.9328L75.4559 77.5896L75.1215 76.9076C74.6815 75.9924 74.2415 75.0684 73.8587 74.14C73.4759 73.2116 73.0711 72.27 72.6927 71.324C72.3143 70.378 71.9755 69.432 71.6543 68.4112L74.9895 67.32Z" fill="#E58A7B"/>
<path d="M73.5637 64.0815C75.2489 64.4819 77.1453 69.4627 77.1453 69.4627L72.1337 73.7263C72.1337 73.7263 68.8909 68.2967 69.5465 66.5059C70.2285 64.6403 71.3637 63.5579 73.5637 64.0815Z" fill="#028090"/>
<path d="M82.2802 64.3236L84.0402 62.854L85.2634 64.7592L84.3614 66.3476C84.3614 66.3476 82.927 67.6676 81.6598 66.9944C81.4587 66.5423 81.4104 66.037 81.5224 65.555C81.6343 65.0731 81.9004 64.6407 82.2802 64.3236Z" fill="#E58A7B"/>
<path d="M87.2169 62.8584L87.0849 63.338L84.2997 63.8044L84.0269 62.854L87.2169 62.8584Z" fill="#E58A7B"/>
<path d="M71.456 139.062L66.4312 135.815L67.3332 134.248L72.9784 137.72L71.456 139.062Z" fill="#028090"/>
<path d="M62.9199 141.649C62.4791 141.595 62.0555 141.445 61.6791 141.209C61.6636 141.204 61.6502 141.194 61.6406 141.18C61.6311 141.167 61.626 141.151 61.626 141.134C61.626 141.118 61.6311 141.102 61.6406 141.088C61.6502 141.075 61.6636 141.065 61.6791 141.059C61.8155 141.015 62.9991 140.65 63.3424 140.932C63.3809 140.964 63.4102 141.006 63.4273 141.053C63.4443 141.1 63.4484 141.151 63.4391 141.2C63.433 141.28 63.4068 141.356 63.3629 141.422C63.319 141.488 63.2589 141.542 63.1883 141.579C63.1059 141.624 63.0138 141.648 62.9199 141.649ZM61.9299 141.165C62.4799 141.447 62.9199 141.548 63.1311 141.442C63.1771 141.417 63.2158 141.38 63.2436 141.335C63.2713 141.291 63.2871 141.24 63.2895 141.187C63.2895 141.117 63.2895 141.086 63.2499 141.068C63.0651 140.919 62.4051 141.033 61.9211 141.165H61.9299Z" fill="#263238"/>
<path d="M61.7102 141.24C61.687 141.24 61.6649 141.23 61.6486 141.214C61.6421 141.201 61.6387 141.188 61.6387 141.174C61.6387 141.16 61.6421 141.147 61.6486 141.134C61.6486 141.095 61.9346 140.14 62.3834 139.924C62.4408 139.898 62.503 139.885 62.5661 139.885C62.6291 139.885 62.6913 139.898 62.7486 139.924C62.8104 139.944 62.8639 139.984 62.9006 140.037C62.9373 140.09 62.955 140.155 62.9511 140.219C62.9203 140.615 62.115 141.161 61.7454 141.253L61.7102 141.24ZM62.5638 140.039C62.5211 140.04 62.479 140.051 62.4407 140.07C62.1679 140.202 61.9434 140.716 61.8334 141.029C62.2206 140.866 62.753 140.435 62.7707 140.193C62.7707 140.153 62.7706 140.105 62.6694 140.061C62.6365 140.043 62.6008 140.031 62.5638 140.026V140.039Z" fill="#263238"/>
<path d="M69.1989 143.55C68.7017 143.55 68.0109 142.912 67.6325 142.52C67.6229 142.507 67.6177 142.491 67.6177 142.474C67.6177 142.458 67.6229 142.441 67.6325 142.428C67.6412 142.414 67.6536 142.402 67.6683 142.394C67.683 142.387 67.6995 142.383 67.7161 142.384C67.8921 142.384 69.4189 142.613 69.6345 143.044C69.6574 143.083 69.6694 143.127 69.6694 143.172C69.6694 143.216 69.6574 143.26 69.6345 143.299C69.6022 143.366 69.5534 143.424 69.4926 143.467C69.4318 143.51 69.361 143.537 69.2869 143.546L69.1989 143.55ZM67.9229 142.582C68.4773 143.119 68.9657 143.418 69.2429 143.383C69.2915 143.376 69.3377 143.358 69.3776 143.33C69.4175 143.301 69.4498 143.264 69.4717 143.22C69.4816 143.205 69.4868 143.187 69.4868 143.169C69.4868 143.151 69.4816 143.134 69.4717 143.119C69.3573 142.881 68.5433 142.679 67.9229 142.582Z" fill="#263238"/>
<path d="M67.9714 142.56C67.8726 142.563 67.7738 142.555 67.6766 142.538C67.663 142.536 67.6502 142.53 67.6394 142.522C67.6286 142.513 67.6202 142.502 67.615 142.49C67.6084 142.477 67.605 142.462 67.605 142.448C67.605 142.433 67.6084 142.419 67.615 142.406C67.6414 142.375 68.2354 141.658 68.7986 141.61C68.958 141.597 69.116 141.648 69.2386 141.75C69.4102 141.9 69.4014 142.032 69.3574 142.116C69.2474 142.415 68.4862 142.56 67.9714 142.56ZM67.857 142.397C68.3498 142.424 69.1374 142.261 69.2386 142.045C69.2386 142.045 69.2738 141.975 69.1594 141.878C69.1139 141.838 69.0607 141.809 69.0031 141.79C68.9456 141.772 68.885 141.766 68.825 141.772C68.4456 141.878 68.1078 142.098 67.857 142.402V142.397Z" fill="#263238"/>
<path d="M61.8289 140.765L58.0977 139.709C58.0334 139.689 57.9642 139.694 57.9033 139.723C57.8424 139.751 57.7941 139.801 57.7677 139.863L56.5093 142.692C56.4798 142.764 56.4659 142.842 56.4686 142.921C56.4713 142.999 56.4905 143.075 56.525 143.146C56.5595 143.216 56.6085 143.278 56.6687 143.328C56.729 143.378 56.7991 143.415 56.8745 143.436C58.1945 143.779 58.8281 143.876 60.4693 144.346C61.4813 144.628 62.9245 145.152 64.3193 145.548C65.7141 145.944 66.1805 144.584 65.6393 144.294C63.1929 143 62.9993 142.094 62.3305 141.126C62.2107 140.95 62.0332 140.823 61.8289 140.765Z" fill="#028090"/>
<path d="M67.7339 142.006L64.5483 139.806C64.4943 139.766 64.4277 139.748 64.3612 139.755C64.2947 139.761 64.2329 139.792 64.1875 139.841L62.0755 142.111C62.024 142.17 61.9856 142.239 61.9629 142.313C61.9401 142.388 61.9335 142.467 61.9435 142.544C61.9535 142.622 61.9798 142.696 62.0208 142.762C62.0618 142.829 62.1164 142.886 62.1811 142.93C63.3031 143.682 63.8839 143.986 65.2875 144.958C66.1675 145.556 67.8703 146.885 69.0583 147.712C70.2463 148.54 71.1307 147.404 70.7083 146.956C68.8163 144.936 68.4027 143.669 68.0903 142.52C68.036 142.312 67.9098 142.13 67.7339 142.006Z" fill="#028090"/>
<path d="M65.1512 137.914L59.4092 135.058L60.0032 133.5L66.1368 136.51L65.1512 137.914Z" fill="#028090"/>
<path d="M57.6842 84.0927L57.2002 85.3599C57.1518 85.4567 57.2662 85.5579 57.429 85.5579H71.9842C72.1118 85.5579 72.2174 85.4963 72.2262 85.4171L72.3494 84.1587C72.3494 84.0751 72.2482 84.0003 72.1118 84.0003H57.913C57.8702 83.9963 57.8271 84.0026 57.7873 84.0187C57.7475 84.0348 57.7121 84.0601 57.6842 84.0927Z" fill="#028090"/>
<path opacity="0.4" d="M57.6842 84.0927L57.2002 85.3599C57.1518 85.4567 57.2662 85.5579 57.429 85.5579H71.9842C72.1118 85.5579 72.2174 85.4963 72.2262 85.4171L72.3494 84.1587C72.3494 84.0751 72.2482 84.0003 72.1118 84.0003H57.913C57.8702 83.9963 57.8271 84.0026 57.7873 84.0187C57.7475 84.0348 57.7121 84.0601 57.6842 84.0927Z" fill="white"/>
<path d="M59.9765 85.6812H59.5937C59.5189 85.6812 59.4617 85.6416 59.4661 85.5932L59.6465 83.9608C59.6465 83.9168 59.7169 83.8772 59.7917 83.8772H60.1745C60.2493 83.8772 60.3065 83.9168 60.3021 83.9608L60.1217 85.5932C60.1173 85.6416 60.0513 85.6812 59.9765 85.6812Z" fill="#028090"/>
<path d="M68.9525 85.6812H68.5741C68.4993 85.6812 68.4421 85.6416 68.4465 85.5932L68.6225 83.9608C68.6225 83.9168 68.6973 83.8772 68.7721 83.8772H69.1505C69.2253 83.8772 69.2869 83.9168 69.2781 83.9608L69.1021 85.5932C69.0801 85.6416 69.0317 85.6812 68.9525 85.6812Z" fill="#028090"/>
<g style="mix-blend-mode:multiply">
<path d="M59.6421 160.195C66.1522 160.195 71.4297 159.813 71.4297 159.342C71.4297 158.87 66.1522 158.488 59.6421 158.488C53.132 158.488 47.8545 158.87 47.8545 159.342C47.8545 159.813 53.132 160.195 59.6421 160.195Z" fill="#F5F5F5"/>
</g>
<path d="M66.8227 158.136C64.7371 157.529 62.4228 156.75 61.0236 155.936C60.984 155.909 60.94 155.896 60.9004 155.874V146.432H65.1199C65.4403 146.413 65.7412 146.272 65.9613 146.039C66.1814 145.805 66.304 145.497 66.304 145.176C66.304 144.855 66.1814 144.546 65.9613 144.313C65.7412 144.079 65.4403 143.938 65.1199 143.919H60.9224V100.879H58.3879V143.919H54.1947C54.0235 143.909 53.852 143.934 53.6908 143.993C53.5296 144.051 53.3821 144.142 53.2572 144.26C53.1324 144.378 53.033 144.519 52.965 144.677C52.897 144.834 52.862 145.004 52.862 145.176C52.862 145.347 52.897 145.517 52.965 145.674C53.033 145.832 53.1324 145.974 53.2572 146.091C53.3821 146.209 53.5296 146.3 53.6908 146.358C53.852 146.417 54.0235 146.442 54.1947 146.432H58.3879V155.861C58.3483 155.861 58.3087 155.896 58.2691 155.923C56.8479 156.75 54.5511 157.529 52.4655 158.123C52.3247 158.165 52.2037 158.257 52.1245 158.381C52.0454 158.505 52.0132 158.653 52.034 158.799C52.0547 158.945 52.1269 159.078 52.2376 159.175C52.3482 159.272 52.49 159.327 52.6371 159.328H66.6511C66.7918 159.319 66.9249 159.261 67.0282 159.165C67.1316 159.069 67.1989 158.941 67.219 158.801C67.2391 158.662 67.2107 158.52 67.1386 158.399C67.0665 158.277 66.955 158.185 66.8227 158.136Z" fill="#E0E0E0"/>
<path d="M67.4695 96.4963H51.8231C50.5644 96.4963 49.5439 97.5168 49.5439 98.7755V103.426C49.5439 104.685 50.5644 105.706 51.8231 105.706H67.4695C68.7283 105.706 69.7487 104.685 69.7487 103.426V98.7755C69.7487 97.5168 68.7283 96.4963 67.4695 96.4963Z" fill="#028090"/>
<path d="M51.6777 105.71V106.511C51.6777 107.171 52.3949 107.708 53.2749 107.708H66.0349C66.9149 107.708 67.6321 107.171 67.6321 106.511V105.71H51.6777Z" fill="#028090"/>
<path opacity="0.3" d="M51.6777 105.71V106.511C51.6777 107.171 52.3949 107.708 53.2749 107.708H66.0349C66.9149 107.708 67.6321 107.171 67.6321 106.511V105.71H51.6777Z" fill="white"/>
</svg>
